<?xml version="1.0" encoding="utf-8"?>
<!-- Generator: Adobe Illustrator 24.0.3, SVG Export Plug-In . SVG Version: 6.00 Build 0)  -->
<svg version="1.1" id="Layer_1" xmlns="http://www.w3.org/2000/svg" xmlns:xlink="http://www.w3.org/1999/xlink" x="0px" y="0px"
	 viewBox="0 0 46.9 8.9" style="enable-background:new 0 0 46.9 8.9;" xml:space="preserve">
<style type="text/css">
	.st0{fill:#EDEBEB;}
</style>
<title>Asset 137</title>
<g id="Layer_2_1_">
	<g id="Content">
		<path class="st0" d="M42.9,8.5c-0.4,0-0.8-0.3-0.8-0.7c0-0.2,0.1-0.4,0.2-0.5l2.6-3l-2.6-3c-0.3-0.3-0.2-0.8,0.1-1.1
			s0.8-0.2,1.1,0.1l3.4,4l-3.4,4C43.3,8.4,43.1,8.5,42.9,8.5z"/>
		<path class="st0" d="M7.6,8.8H5.3L1.6,2.3h0l0.1,1.2c0,0.4,0,0.8,0,1.2v4H0V0.2h2.3L6,6.6l0,0c0-0.4,0-0.8,0-1.2s0-0.8,0-1.2V0.2
			h1.6V8.8z"/>
		<path class="st0" d="M12.3,2.1c0.8,0,1.6,0.2,2.2,0.8c0.6,0.6,0.8,1.4,0.8,2.2v0.9H11c0,0.4,0.1,0.9,0.4,1.2
			c0.3,0.3,0.7,0.5,1.2,0.4c0.4,0,0.8,0,1.1-0.1c0.4-0.1,0.8-0.2,1.1-0.4v1.4c-0.3,0.2-0.7,0.3-1,0.4c-0.4,0.1-0.9,0.1-1.3,0.1
			c-0.6,0-1.2-0.1-1.7-0.4c-0.5-0.2-0.9-0.6-1.2-1.1C9.3,6.8,9.2,6.2,9.2,5.5c0-0.7,0.1-1.3,0.4-1.9c0.2-0.5,0.6-0.9,1.1-1.2
			C11.2,2.2,11.7,2.1,12.3,2.1z M12.3,3.3c-0.3,0-0.6,0.1-0.9,0.3c-0.2,0.3-0.4,0.6-0.4,1h2.5c0-0.4-0.1-0.7-0.3-1
			C13,3.4,12.7,3.3,12.3,3.3L12.3,3.3z"/>
		<path class="st0" d="M18,5.4l-2.1-3.2h2l1.3,2.1l1.3-2.1h2l-2.1,3.2l2.2,3.3h-2l-1.4-2.2l-1.4,2.2h-2L18,5.4z"/>
		<path class="st0" d="M26.4,7.4c0.2,0,0.4,0,0.6-0.1l0.5-0.2v1.3c-0.2,0.1-0.5,0.2-0.7,0.2c-0.3,0.1-0.6,0.1-0.9,0.1
			c-0.4,0-0.7-0.1-1-0.2c-0.3-0.1-0.6-0.4-0.8-0.7c-0.2-0.4-0.3-0.9-0.3-1.3V3.5H23V2.8l1-0.6l0.5-1.4h1.1v1.4h1.8v1.3h-1.8v3.2
			c0,0.2,0.1,0.4,0.2,0.6C26,7.4,26.2,7.4,26.4,7.4z"/>
		<g>
			<path class="st0" d="M45.6,5h-9.1c-0.4,0-0.8-0.3-0.8-0.8s0.3-0.8,0.8-0.8h9.1c0.4,0,0.8,0.3,0.8,0.8S46,5,45.6,5z"/>
		</g>
	</g>
</g>
</svg>
