<svg xmlns="http://www.w3.org/2000/svg" viewBox="0 0 150 24.45"><defs><style>.cls-1{fill:#fff;}</style></defs><g id="Layer_2" data-name="Layer 2"><g id="Layer_1-2" data-name="Layer 1"><path class="cls-1" d="M63.69,10.48l-1.14,5a4.34,4.34,0,0,0-.1.9c0,.93.68,1.42,2,1.42a4,4,0,0,0,1.11-.16l-1,4.61c-1.53.06-2.12.06-3.47.06-2.62,0-3.63-.1-4.53-.56A3.13,3.13,0,0,1,55,18.93a18,18,0,0,1,.61-3.76l1.07-4.69H54.33l.94-4.33h2.36L58.92.3h7l-1.3,5.85h2.8l-1,4.33Z"/><path class="cls-1" d="M44.89,13c0,3.25-2,5.32-5.16,5.32-2.58,0-4.18-1.47-4.18-3.88a5,5,0,0,1,5.16-5.16c2.65,0,4.18,1.37,4.18,3.72m7.47-.07a7.75,7.75,0,0,0-2.13-5.43C48.42,5.68,45.31,4.75,41,4.75c-8,0-12.79,3.63-12.79,9.64,0,5.35,4.07,8.44,11.09,8.44,7.81,0,13-3.95,13-9.91"/><path class="cls-1" d="M10.56,9.62l1.08-4.75h5.64c1.63,0,2.41.6,2.41,1.85,0,1.72-1.34,2.9-3.29,2.9ZM9.45,14.49h5.06l3.87,10,6.92-2.21-3.52-8.72a9.86,9.86,0,0,0,2.84-1.4,7.29,7.29,0,0,0,2.87-5.87A5.58,5.58,0,0,0,25.34,1.6,7,7,0,0,0,22.89.43C21.36,0,21,0,17,0H5L0,22.24H7.69Z"/><path class="cls-1" d="M92.39,22.25l2.12-9.42a5.66,5.66,0,0,0,.1-1.13,1.92,1.92,0,0,0-2.15-2,3.12,3.12,0,0,0-3.07,2.7l-2.21,9.82H80.13l2.12-9.42a6.8,6.8,0,0,0,.17-1.2,1.77,1.77,0,0,0-2-1.9,3,3,0,0,0-3.16,2.7l-2.22,9.82H68L71.79,5.38h7.07l-.52,2.2a9.15,9.15,0,0,1,6.55-2.83,5.24,5.24,0,0,1,5,2.83,12.58,12.58,0,0,1,2.28-1.77,8.63,8.63,0,0,1,4.24-1.06c3.51,0,5.6,1.76,5.6,4.69a18.71,18.71,0,0,1-.56,4l-2,8.82Z"/><path class="cls-1" d="M127.23,5.38h-6.62L120.23,7c-1-1.49-3.14-2.22-5.3-2.23a12,12,0,0,0-11.45,8.94c-1.13,4.83,1.77,9,7.31,9A8.67,8.67,0,0,0,117,20.38h.07l-.41,1.86h6.59Zm-12.65,4.69c2.71,0,3.88,1.76,3.4,3.83a5.06,5.06,0,0,1-5.18,3.76c-2.72,0-3.91-1.66-3.41-3.79a5.15,5.15,0,0,1,5.19-3.8"/><path class="cls-1" d="M140.5,22.26l1.83-8.12a10,10,0,0,0,.26-1.66,2.5,2.5,0,0,0-2.77-2.5c-2,0-3.46,1.46-4,3.93l-1.86,8.35h-7l3.78-16.88h7.08l-.56,2.44a9.29,9.29,0,0,1,7-3.06c3.64,0,5.82,2,5.82,5.32a14.61,14.61,0,0,1-.42,3.06l-2.05,9.12Z"/></g></g></svg>