<?xml version="1.0" encoding="utf-8"?>
<!-- Generator: Adobe Illustrator 24.0.3, SVG Export Plug-In . SVG Version: 6.00 Build 0)  -->
<svg version="1.1" id="Layer_1" xmlns="http://www.w3.org/2000/svg" xmlns:xlink="http://www.w3.org/1999/xlink" x="0px" y="0px"
	 viewBox="0 0 47.9 9.2" style="enable-background:new 0 0 47.9 9.2;" xml:space="preserve">
<style type="text/css">
	.st0{fill:#E63635;}
</style>
<title>Asset 136</title>
<g id="Layer_2_1_">
	<g>
		<g id="Content_17_">
			<g id="Layer_2_12_">
				<g id="Content_18_">
					<g>
						<path class="st0" d="M4,8.9c-0.2,0-0.4-0.1-0.6-0.3L0,4.6l3.4-4c0.3-0.3,0.8-0.3,1.1-0.1c0.3,0.3,0.3,0.8,0.1,1.1L2,4.6l2.6,3
							c0.3,0.3,0.2,0.8-0.1,1.1C4.4,8.8,4.2,8.9,4,8.9z"/>
						<g>
							<path class="st0" d="M10.5,5.4H2.3C1.8,5.4,1.5,5,1.5,4.6s0.3-0.8,0.8-0.8h8.2c0.4,0,0.8,0.3,0.8,0.8S10.9,5.4,10.5,5.4z"/>
						</g>
					</g>
				</g>
			</g>
			<path class="st0" d="M20.1,0.6h2.7c0.9-0.1,1.8,0.1,2.6,0.4c0.6,0.3,0.9,1,0.9,1.7c0,0.5-0.1,0.9-0.3,1.3c-0.2,0.3-0.6,0.6-1,0.6
				v0.1c0.3,0.1,0.5,0.2,0.8,0.3c0.2,0.1,0.4,0.4,0.6,0.6c0.2,0.3,0.2,0.7,0.2,1.1c0,0.7-0.3,1.4-0.9,1.8c-0.7,0.5-1.5,0.7-2.3,0.7
				H20L20.1,0.6z M21.9,4h1.1c0.4,0,0.7-0.1,1.1-0.3c0.2-0.2,0.3-0.4,0.3-0.7c0-0.3-0.1-0.6-0.4-0.7C23.6,2.1,23.2,2,22.8,2h-1
				L21.9,4z M21.9,5.4v2.2h1.2c0.4,0,0.8-0.1,1.1-0.3c0.2-0.2,0.3-0.5,0.3-0.8c0-0.3-0.1-0.6-0.3-0.8c-0.4-0.2-0.8-0.3-1.2-0.3
				L21.9,5.4z"/>
			<path class="st0" d="M30.7,2.4c0.7,0,1.4,0.2,2,0.6c0.5,0.4,0.8,1.1,0.7,1.7v4.4h-1.2l-0.4-0.9l0,0c-0.2,0.3-0.5,0.6-0.9,0.8
				c-0.4,0.2-0.8,0.3-1.3,0.2c-0.5,0-1-0.2-1.5-0.5c-0.4-0.4-0.6-1-0.6-1.6c0-0.6,0.2-1.2,0.7-1.5c0.7-0.4,1.4-0.6,2.2-0.6h1.1V4.8
				c0-0.3-0.1-0.6-0.3-0.8c-0.2-0.2-0.5-0.3-0.8-0.2c-0.3,0-0.6,0-0.9,0.1c-0.3,0.1-0.6,0.2-0.9,0.3L28.2,3c0.4-0.2,0.8-0.3,1.2-0.4
				C29.8,2.5,30.2,2.4,30.7,2.4z M31.6,6.1h-0.7c-0.4,0-0.8,0.1-1.2,0.3c-0.2,0.2-0.4,0.5-0.3,0.8c0,0.2,0.1,0.4,0.2,0.6
				c0.2,0.1,0.4,0.2,0.6,0.2c0.4,0,0.7-0.1,1-0.3c0.3-0.3,0.4-0.6,0.4-1L31.6,6.1z"/>
			<path class="st0" d="M37.9,9.2c-0.8,0.1-1.6-0.2-2.3-0.8c-0.6-0.7-0.9-1.6-0.8-2.6c0-0.7,0.1-1.4,0.4-2c0.3-0.5,0.6-0.9,1.1-1.1
				c0.5-0.2,1.1-0.4,1.7-0.4c0.4,0,0.8,0,1.2,0.1c0.3,0.1,0.6,0.2,0.9,0.3l-0.5,1.4C39.3,4.1,39,4.1,38.8,4
				c-0.2-0.1-0.5-0.1-0.7-0.1c-0.9,0-1.4,0.7-1.4,2c0,0.5,0.1,1,0.3,1.4c0.2,0.3,0.6,0.5,1,0.5c0.3,0,0.7,0,1-0.2
				c0.3-0.1,0.6-0.2,0.8-0.4v1.5C39.6,8.9,39.3,9,39,9.1C38.6,9.2,38.3,9.2,37.9,9.2z"/>
			<path class="st0" d="M43.2,0v4.1c0,0.2,0,0.5,0,0.7l-0.1,0.7l0,0L43.5,5c0.1-0.2,0.3-0.3,0.4-0.5l1.8-2h2l-2.6,2.8l2.8,3.7h-2.1
				L44,6.5l-0.8,0.6v2h-1.8V0H43.2z"/>
		</g>
	</g>
</g>
</svg>
