<?xml version="1.0" encoding="UTF-8"?><svg id="Layer_1" xmlns="http://www.w3.org/2000/svg" viewBox="0 0 69.59 98.73"><defs><style>.cls-1{stroke:#fff;}.cls-1,.cls-2{fill:none;stroke-miterlimit:10;stroke-width:1.5px;}.cls-2{stroke:#d2d3d4;}.cls-3{fill:#e6e7e8;}.cls-4{fill:#e75fa0;}.cls-5{fill:#939598;}.cls-6{fill:#df0f79;}.cls-7{fill:#a8a9ac;}.cls-8{fill:#808285;}</style></defs><line class="cls-2" x1="14.73" y1="18.89" x2="37.5" y2="40"/><line class="cls-2" x1="66.23" y1="57.52" x2="45.99" y2="73"/><line class="cls-2" x1="62.53" y1="14.52" x2="66.23" y2="57.52"/><line class="cls-2" x1="6.53" y1="53.01" x2="14.73" y2="18.89"/><polyline class="cls-1" points="5.9 52.73 37.5 40 62.53 14.52"/><g><line class="cls-1" x1="45.35" y1="72.69" x2="37.5" y2="40"/><g><circle class="cls-4" cx="37.17" cy="39.67" r="15.9"/><path class="cls-6" d="M48.41,50.91h0L25.93,28.42h0c-6.21,6.21-6.21,16.27,0,22.48,6.21,6.21,16.27,6.21,22.48,0Z"/></g><g><circle class="cls-5" cx="62.42" cy="14.41" r="6.53"/><path class="cls-8" d="M67.04,19.03h0l-9.24-9.24h0c-2.55,2.55-2.55,6.69,0,9.24,2.55,2.55,6.69,2.55,9.24,0Z"/></g><g><circle class="cls-5" cx="6.53" cy="52.73" r="6.53"/><path class="cls-8" d="M11.15,57.35h0L1.91,48.11h0c-2.55,2.55-2.55,6.69,0,9.24,2.55,2.55,6.69,2.55,9.24,0Z"/></g><g><circle class="cls-7" cx="45.69" cy="72.69" r="6.53"/><path class="cls-5" d="M50.3,77.31h0l-9.24-9.24h0c-2.55,2.55-2.55,6.69,0,9.24,2.55,2.55,6.69,2.55,9.24,0Z"/></g></g><circle class="cls-3" cx="36.5" cy="3.36" r="3.36"/><circle class="cls-3" cx="33.8" cy="95.37" r="3.36"/><circle class="cls-3" cx="66.23" cy="57.52" r="3.36"/><circle class="cls-3" cx="17.87" cy="82.02" r="7.54"/><circle class="cls-6" cx="14.73" cy="18.89" r="5.23"/></svg>