<!-- Generator: Adobe Illustrator 24.1.2, SVG Export Plug-In  -->
<svg version="1.1" xmlns="http://www.w3.org/2000/svg" xmlns:xlink="http://www.w3.org/1999/xlink" x="0px" y="0px" width="239.6px"
	 height="31.8px" viewBox="0 0 239.6 31.8" style="overflow:visible;enable-background:new 0 0 239.6 31.8;" xml:space="preserve">
<defs>
</defs>
<g>
	<g>
		<g>
			<path style="fill:#002137;stroke:#002137;stroke-width:0.1443;stroke-miterlimit:10;" d="M7.1,19.9c0.9,0,1.6,0.2,2,0.6
				c0.5,0.4,0.7,1.1,0.7,2.1v4.8H8.5v-4.7c0-1.2-0.6-1.8-1.7-1.8c-0.8,0-1.4,0.2-1.7,0.7c-0.3,0.5-0.5,1.1-0.5,2v3.8H3.5V20h1l0.2,1
				h0.1c0.2-0.4,0.6-0.7,1-0.9C6.1,20,6.6,19.9,7.1,19.9z"/>
			<path style="fill:#002137;stroke:#002137;stroke-width:0.1443;stroke-miterlimit:10;" d="M18.6,27.6c-0.7,0-1.2-0.1-1.8-0.4
				c-0.5-0.3-0.9-0.7-1.2-1.2c-0.3-0.6-0.4-1.3-0.4-2.2c0-0.9,0.1-1.7,0.4-2.2c0.3-0.6,0.7-1,1.2-1.3c0.5-0.3,1.1-0.4,1.8-0.4
				c0.4,0,0.7,0,1.1,0.1c0.4,0.1,0.6,0.2,0.9,0.3l-0.4,1c-0.2-0.1-0.5-0.2-0.8-0.2C19.2,21,18.9,21,18.7,21c-1.5,0-2.2,0.9-2.2,2.8
				c0,0.9,0.2,1.6,0.5,2.1c0.4,0.5,0.9,0.7,1.6,0.7c0.4,0,0.8,0,1.1-0.1c0.3-0.1,0.6-0.2,0.9-0.3v1.1c-0.2,0.1-0.5,0.2-0.8,0.3
				C19.4,27.6,19,27.6,18.6,27.6z"/>
			<path style="fill:#002137;stroke:#002137;stroke-width:0.1443;stroke-miterlimit:10;" d="M28.7,23.7c0,1.2-0.3,2.2-0.9,2.8
				c-0.6,0.7-1.5,1-2.5,1c-0.7,0-1.2-0.1-1.7-0.4c-0.5-0.3-0.9-0.7-1.2-1.3c-0.3-0.6-0.4-1.3-0.4-2.1c0-1.2,0.3-2.2,0.9-2.8
				c0.6-0.7,1.5-1,2.5-1c0.7,0,1.3,0.1,1.8,0.4c0.5,0.3,0.9,0.7,1.2,1.3C28.6,22.2,28.7,22.9,28.7,23.7z M23.1,23.7
				c0,0.9,0.2,1.6,0.5,2.1c0.3,0.5,0.9,0.8,1.7,0.8c0.7,0,1.3-0.3,1.6-0.8c0.4-0.5,0.5-1.2,0.5-2.1c0-0.9-0.2-1.6-0.5-2.1
				c-0.4-0.5-0.9-0.7-1.7-0.7c-0.8,0-1.3,0.2-1.6,0.7C23.3,22.2,23.1,22.9,23.1,23.7z"/>
			<path style="fill:#002137;stroke:#002137;stroke-width:0.1443;stroke-miterlimit:10;" d="M31.9,27.5h-1.2V17h1.2V27.5z"/>
			<path style="fill:#002137;stroke:#002137;stroke-width:0.1443;stroke-miterlimit:10;" d="M35.4,27.5h-1.2V17h1.2V27.5z"/>
			<path style="fill:#002137;stroke:#002137;stroke-width:0.1443;stroke-miterlimit:10;" d="M40.6,19.9c0.9,0,1.6,0.2,2,0.6
				c0.4,0.4,0.6,1,0.6,1.9v5h-0.9l-0.2-1.1h-0.1c-0.3,0.4-0.7,0.7-1,0.9s-0.8,0.3-1.5,0.3c-0.7,0-1.2-0.2-1.7-0.5
				c-0.4-0.4-0.7-0.9-0.7-1.7c0-0.7,0.3-1.3,0.9-1.7c0.6-0.4,1.5-0.6,2.7-0.7l1.3,0v-0.4c0-0.6-0.1-1-0.4-1.3
				c-0.3-0.2-0.6-0.4-1.1-0.4c-0.4,0-0.8,0.1-1.1,0.2c-0.4,0.1-0.7,0.2-1,0.4l-0.4-0.9c0.3-0.2,0.7-0.3,1.1-0.4
				C39.6,20,40.1,19.9,40.6,19.9z M42,23.8l-1.1,0c-0.9,0-1.6,0.2-1.9,0.4c-0.4,0.3-0.5,0.6-0.5,1.1c0,0.4,0.1,0.7,0.4,0.9
				c0.3,0.2,0.6,0.3,1,0.3c0.6,0,1.1-0.2,1.6-0.5c0.4-0.3,0.6-0.9,0.6-1.6V23.8z"/>
			<path style="fill:#002137;stroke:#002137;stroke-width:0.1443;stroke-miterlimit:10;" d="M46.8,17v2.6c0,0.3,0,0.6,0,0.9
				c0,0.3,0,0.5,0,0.6h0.1c0.2-0.3,0.5-0.6,0.9-0.8c0.4-0.2,0.8-0.3,1.4-0.3c0.9,0,1.7,0.3,2.2,1c0.6,0.6,0.8,1.6,0.8,2.9
				c0,1.3-0.3,2.2-0.8,2.9c-0.6,0.6-1.3,1-2.2,1c-0.6,0-1.1-0.1-1.4-0.3c-0.4-0.2-0.7-0.5-0.9-0.8h-0.1l-0.2,0.9h-0.9V17H46.8z
				 M48.8,20.9c-0.8,0-1.3,0.2-1.6,0.7c-0.3,0.5-0.4,1.2-0.4,2.1v0.1c0,0.9,0.1,1.6,0.4,2.1c0.3,0.5,0.9,0.7,1.7,0.7
				c0.7,0,1.2-0.2,1.5-0.7c0.3-0.5,0.5-1.2,0.5-2.1C50.8,21.9,50.2,20.9,48.8,20.9z"/>
			<path style="fill:#002137;stroke:#002137;stroke-width:0.1443;stroke-miterlimit:10;" d="M60.5,23.7c0,1.2-0.3,2.2-0.9,2.8
				c-0.6,0.7-1.5,1-2.5,1c-0.7,0-1.2-0.1-1.7-0.4c-0.5-0.3-0.9-0.7-1.2-1.3c-0.3-0.6-0.4-1.3-0.4-2.1c0-1.2,0.3-2.2,0.9-2.8
				c0.6-0.7,1.5-1,2.5-1c0.7,0,1.3,0.1,1.8,0.4c0.5,0.3,0.9,0.7,1.2,1.3C60.3,22.2,60.5,22.9,60.5,23.7z M54.9,23.7
				c0,0.9,0.2,1.6,0.5,2.1c0.3,0.5,0.9,0.8,1.7,0.8c0.7,0,1.3-0.3,1.6-0.8c0.4-0.5,0.5-1.2,0.5-2.1c0-0.9-0.2-1.6-0.5-2.1
				c-0.4-0.5-0.9-0.7-1.7-0.7s-1.3,0.2-1.6,0.7C55.1,22.2,54.9,22.9,54.9,23.7z"/>
			<path style="fill:#002137;stroke:#002137;stroke-width:0.1443;stroke-miterlimit:10;" d="M65.9,19.9c0.1,0,0.3,0,0.4,0
				c0.2,0,0.3,0,0.4,0.1l-0.2,1.1c-0.1,0-0.3-0.1-0.4-0.1c-0.1,0-0.3,0-0.4,0c-0.4,0-0.7,0.1-1.1,0.3c-0.3,0.2-0.6,0.5-0.8,0.9
				c-0.2,0.4-0.3,0.8-0.3,1.3v4h-1.2V20h1l0.1,1.4h0.1c0.2-0.4,0.5-0.8,0.9-1.1C64.9,20.1,65.4,19.9,65.9,19.9z"/>
			<path style="fill:#002137;stroke:#002137;stroke-width:0.1443;stroke-miterlimit:10;" d="M70.7,19.9c0.9,0,1.6,0.2,2,0.6
				c0.4,0.4,0.6,1,0.6,1.9v5h-0.9l-0.2-1.1h-0.1c-0.3,0.4-0.7,0.7-1,0.9c-0.4,0.2-0.8,0.3-1.5,0.3c-0.7,0-1.2-0.2-1.7-0.5
				c-0.4-0.4-0.7-0.9-0.7-1.7c0-0.7,0.3-1.3,0.9-1.7c0.6-0.4,1.5-0.6,2.7-0.7l1.3,0v-0.4c0-0.6-0.1-1-0.4-1.3
				c-0.3-0.2-0.6-0.4-1.1-0.4c-0.4,0-0.8,0.1-1.1,0.2c-0.4,0.1-0.7,0.2-1,0.4l-0.4-0.9c0.3-0.2,0.7-0.3,1.1-0.4
				C69.7,20,70.2,19.9,70.7,19.9z M72.1,23.8l-1.1,0c-0.9,0-1.6,0.2-1.9,0.4c-0.4,0.3-0.5,0.6-0.5,1.1c0,0.4,0.1,0.7,0.4,0.9
				c0.3,0.2,0.6,0.3,1,0.3c0.6,0,1.1-0.2,1.6-0.5c0.4-0.3,0.6-0.9,0.6-1.6V23.8z"/>
			<path style="fill:#002137;stroke:#002137;stroke-width:0.1443;stroke-miterlimit:10;" d="M78.1,26.6c0.2,0,0.4,0,0.6,0
				c0.2,0,0.4-0.1,0.5-0.1v0.9c-0.1,0.1-0.3,0.1-0.6,0.2c-0.2,0-0.5,0.1-0.7,0.1c-0.4,0-0.7-0.1-1.1-0.2c-0.3-0.1-0.6-0.4-0.8-0.7
				s-0.3-0.8-0.3-1.4V21h-1.1v-0.6l1.1-0.5l0.5-1.6h0.7V20h2.1V21h-2.1v4.3c0,0.5,0.1,0.8,0.3,1C77.5,26.5,77.7,26.6,78.1,26.6z"/>
			<path style="fill:#002137;stroke:#002137;stroke-width:0.1443;stroke-miterlimit:10;" d="M81.2,17.3c0.2,0,0.3,0.1,0.5,0.2
				c0.1,0.1,0.2,0.3,0.2,0.6c0,0.3-0.1,0.5-0.2,0.6c-0.1,0.1-0.3,0.2-0.5,0.2c-0.2,0-0.4-0.1-0.5-0.2c-0.1-0.1-0.2-0.3-0.2-0.6
				c0-0.3,0.1-0.5,0.2-0.6C80.8,17.3,81,17.3,81.2,17.3z M81.8,20v7.4h-1.2V20H81.8z"/>
			<path style="fill:#002137;stroke:#002137;stroke-width:0.1443;stroke-miterlimit:10;" d="M90.6,23.7c0,1.2-0.3,2.2-0.9,2.8
				c-0.6,0.7-1.5,1-2.5,1c-0.7,0-1.2-0.1-1.7-0.4c-0.5-0.3-0.9-0.7-1.2-1.3c-0.3-0.6-0.4-1.3-0.4-2.1c0-1.2,0.3-2.2,0.9-2.8
				c0.6-0.7,1.5-1,2.5-1c0.7,0,1.3,0.1,1.8,0.4c0.5,0.3,0.9,0.7,1.2,1.3C90.5,22.2,90.6,22.9,90.6,23.7z M85,23.7
				c0,0.9,0.2,1.6,0.5,2.1c0.3,0.5,0.9,0.8,1.7,0.8c0.7,0,1.3-0.3,1.6-0.8c0.4-0.5,0.5-1.2,0.5-2.1c0-0.9-0.2-1.6-0.5-2.1
				c-0.4-0.5-0.9-0.7-1.7-0.7c-0.8,0-1.3,0.2-1.6,0.7C85.2,22.2,85,22.9,85,23.7z"/>
			<path style="fill:#002137;stroke:#002137;stroke-width:0.1443;stroke-miterlimit:10;" d="M96.1,19.9c0.9,0,1.6,0.2,2,0.6
				c0.5,0.4,0.7,1.1,0.7,2.1v4.8h-1.2v-4.7c0-1.2-0.6-1.8-1.7-1.8c-0.8,0-1.4,0.2-1.7,0.7c-0.3,0.5-0.5,1.1-0.5,2v3.8h-1.2V20h1
				l0.2,1h0.1c0.2-0.4,0.6-0.7,1-0.9C95.2,20,95.6,19.9,96.1,19.9z"/>
			<path style="fill:#002137;stroke:#002137;stroke-width:0.1443;stroke-miterlimit:10;" d="M110.7,27.4l-1.3-4.2
				c-0.1-0.4-0.2-0.7-0.3-1.1c-0.1-0.4-0.2-0.6-0.2-0.9h-0.1c0,0.2-0.1,0.5-0.2,0.9c-0.1,0.4-0.2,0.7-0.3,1.1l-1.3,4.2h-1.4l-2-7.4
				h1.3l1,4c0.1,0.4,0.2,0.8,0.3,1.2c0.1,0.4,0.2,0.7,0.2,1h0.1c0-0.2,0.1-0.4,0.1-0.6c0.1-0.2,0.1-0.5,0.2-0.7
				c0.1-0.3,0.1-0.5,0.2-0.7l1.3-4.2h1.3l1.3,4.2c0.1,0.3,0.2,0.7,0.3,1c0.1,0.4,0.2,0.7,0.2,0.9h0.1c0-0.2,0.1-0.5,0.2-1
				c0.1-0.4,0.2-0.8,0.3-1.2l1-4h1.2l-2.1,7.4H110.7z"/>
			<path style="fill:#002137;stroke:#002137;stroke-width:0.1443;stroke-miterlimit:10;" d="M116.2,17.3c0.2,0,0.3,0.1,0.5,0.2
				c0.1,0.1,0.2,0.3,0.2,0.6c0,0.3-0.1,0.5-0.2,0.6c-0.1,0.1-0.3,0.2-0.5,0.2c-0.2,0-0.4-0.1-0.5-0.2c-0.1-0.1-0.2-0.3-0.2-0.6
				c0-0.3,0.1-0.5,0.2-0.6C115.8,17.3,116,17.3,116.2,17.3z M116.8,20v7.4h-1.2V20H116.8z"/>
			<path style="fill:#002137;stroke:#002137;stroke-width:0.1443;stroke-miterlimit:10;" d="M121.6,26.6c0.2,0,0.4,0,0.6,0
				c0.2,0,0.4-0.1,0.5-0.1v0.9c-0.1,0.1-0.3,0.1-0.6,0.2c-0.2,0-0.5,0.1-0.7,0.1c-0.4,0-0.7-0.1-1.1-0.2c-0.3-0.1-0.6-0.4-0.8-0.7
				c-0.2-0.3-0.3-0.8-0.3-1.4V21h-1.1v-0.6l1.1-0.5l0.5-1.6h0.7V20h2.1V21h-2.1v4.3c0,0.5,0.1,0.8,0.3,1
				C121,26.5,121.2,26.6,121.6,26.6z"/>
			<path style="fill:#002137;stroke:#002137;stroke-width:0.1443;stroke-miterlimit:10;" d="M125.3,17V20c0,0.4,0,0.7-0.1,1h0.1
				c0.2-0.4,0.6-0.7,1-0.9c0.4-0.2,0.9-0.3,1.3-0.3c0.9,0,1.6,0.2,2,0.6c0.5,0.4,0.7,1.1,0.7,2.1v4.8h-1.2v-4.7
				c0-1.2-0.6-1.8-1.7-1.8c-0.8,0-1.4,0.2-1.7,0.7c-0.3,0.5-0.5,1.1-0.5,2v3.8h-1.2V17H125.3z"/>
		</g>
		<path style="fill:#002137;stroke:#002137;stroke-width:0.1443;stroke-miterlimit:10;" d="M1.3,27.6H0.1V17.5h1.2V27.6z"/>
	</g>
	<g>
		<path style="fill:#F90070;" d="M203.9,4.7L190.3,0l-13.6,4.7l13.6,4.7l11.4-3.9l-11.1-3.8l0.6-0.2l11,3.8L203.9,4.7L203.9,4.7z
			 M202.2,6.9c0.3,0,0.6-0.3,0.6-0.6c0-0.3-0.3-0.6-0.6-0.6c-0.3,0-0.6,0.3-0.6,0.6C201.6,6.6,201.9,6.9,202.2,6.9L202.2,6.9z
			 M201.8,7.2l-0.3,0.5v4.1l0.2,0.2V7.9h0.2v4.3l0.2,0.2V7.9h0.2v4.5l0.2-0.2V7.9h0.2V12l0.2-0.2V7.7l-0.3-0.5H201.8L201.8,7.2z"/>
		<polygon style="fill:#F90070;" points="198.4,11.7 198.4,7.1 190.3,9.9 190.3,14.4 198.4,11.7 		"/>
		<polygon style="fill:#B00063;" points="182.2,11.7 182.2,7.1 190.3,9.9 190.3,14.4 182.2,11.7 		"/>
	</g>
	<g>
		<g>
			<g>
				<path style="fill:#F90070;" d="M220.2,28c-0.8,0-1.5-0.1-2.1-0.4c-0.6-0.3-1.2-0.7-1.7-1.2c-0.5-0.5-0.8-1.1-1.1-1.7
					c-0.3-0.7-0.4-1.4-0.4-2.2c0-0.7,0.1-1.5,0.4-2.1c0.3-0.7,0.6-1.3,1.1-1.7c0.5-0.5,1-0.9,1.6-1.2c0.6-0.3,1.3-0.4,2-0.4
					c0.8,0,1.5,0.2,2.1,0.5c0.6,0.3,1.2,0.7,1.6,1.2c0.4,0.5,0.7,1.1,1,1.8c0.2,0.7,0.3,1.4,0.3,2.1v0.7h-8.1c0,0.3,0.1,0.7,0.3,1
					c0.2,0.4,0.4,0.8,0.7,1.1c0.3,0.3,0.7,0.6,1.1,0.7c0.4,0.2,0.9,0.3,1.4,0.3c0.6,0,1.1-0.1,1.6-0.3c0.5-0.2,0.9-0.5,1.3-0.9
					l0.3-0.3l1,1.3l-0.2,0.2c-0.5,0.5-1.1,1-1.8,1.3C221.8,27.9,221,28,220.2,28z M212.3,28c-0.8,0-1.3-0.2-1.7-0.7
					c-0.4-0.4-0.6-1-0.6-1.8V19h-1.6v-1.7h1.6v-2.7h1.8v2.7h2V19h-2v6.4c0,0.3,0.1,0.6,0.2,0.7c0.1,0.1,0.2,0.2,0.4,0.2
					c0.2,0,0.3,0,0.5-0.1c0.1-0.1,0.3-0.2,0.3-0.2l0.4-0.4l0.8,1.6l-0.2,0.2c-0.2,0.2-0.5,0.4-0.8,0.5C213.2,28,212.8,28,212.3,28z
					 M194.9,28c-0.4,0-0.9-0.1-1.4-0.2c-0.5-0.2-0.9-0.4-1.2-0.7c-0.4-0.3-0.7-0.7-0.9-1.1c-0.2-0.5-0.3-1-0.3-1.6
					c0-0.6,0.1-1.1,0.3-1.6c0.2-0.5,0.5-0.8,0.9-1.1c0.4-0.3,0.8-0.5,1.2-0.7c0.4-0.1,0.9-0.2,1.4-0.2c1.1,0,2.1,0.3,2.9,0.9v-1.1
					c0-0.6-0.2-1-0.6-1.3c-0.4-0.3-1-0.5-1.6-0.5c-0.5,0-1,0.1-1.5,0.3c-0.4,0.2-0.9,0.5-1.3,1l-0.3,0.3l-1.1-1.3l0.2-0.2
					c0.5-0.6,1.1-1,1.8-1.3c0.6-0.3,1.4-0.5,2.3-0.5c0.5,0,1,0.1,1.5,0.2c0.5,0.1,0.9,0.3,1.3,0.6c0.4,0.3,0.7,0.7,0.9,1.1
					c0.2,0.5,0.3,1,0.3,1.6v7.2h-1.8v-0.7C197,27.7,196,28,194.9,28z M169.8,28c-0.8,0-1.6-0.1-2.2-0.4c-0.7-0.3-1.3-0.7-1.8-1.3
					l-0.2-0.2l1.1-1.4l0.3,0.4c0.3,0.3,0.7,0.6,1.2,0.9c0.5,0.3,1.1,0.4,1.7,0.4c0.7,0,1.3-0.2,1.7-0.5c0.4-0.3,0.5-0.7,0.5-1.1
					c0-0.3-0.1-0.6-0.3-0.7c-0.3-0.2-0.6-0.4-1-0.5c-0.4-0.1-0.9-0.3-1.5-0.4c-0.5-0.1-1.1-0.3-1.5-0.5c-0.5-0.2-0.9-0.5-1.3-0.9
					c-0.4-0.4-0.6-1-0.6-1.6c0-0.4,0.1-0.8,0.3-1.2c0.2-0.4,0.4-0.7,0.8-1c0.3-0.3,0.7-0.5,1.2-0.6c0.5-0.2,1-0.2,1.6-0.2
					c0.9,0,1.7,0.2,2.3,0.5c0.6,0.3,1.1,0.7,1.5,1.1l0.2,0.2l-1.1,1.4l-0.3-0.4c-0.2-0.3-0.6-0.6-1-0.8c-0.5-0.2-1-0.3-1.6-0.3
					c-0.7,0-1.2,0.1-1.6,0.4c-0.3,0.3-0.5,0.6-0.5,1c0,0.3,0.1,0.5,0.3,0.6c0.3,0.2,0.6,0.4,1,0.5c0.4,0.1,0.9,0.3,1.5,0.4
					c0.6,0.1,1.1,0.3,1.6,0.5c0.5,0.2,0.9,0.6,1.3,1c0.4,0.4,0.5,1,0.5,1.7c0,0.4-0.1,0.9-0.3,1.3c-0.2,0.4-0.4,0.8-0.8,1.1
					c-0.3,0.3-0.8,0.5-1.3,0.7C171.1,28,170.5,28,169.8,28z M189.2,27.8h-1.8v-7.2c0-0.6-0.1-1.1-0.4-1.4c-0.2-0.3-0.6-0.4-1.2-0.4
					c-0.2,0-0.5,0-0.7,0.1c-0.2,0.1-0.5,0.2-0.7,0.3c-0.2,0.1-0.4,0.3-0.6,0.5c-0.2,0.2-0.3,0.3-0.4,0.5v7.6h-1.8v-7.2
					c0-0.6-0.1-1.1-0.4-1.4c-0.2-0.3-0.6-0.4-1.2-0.4c-0.2,0-0.4,0-0.7,0.1c-0.2,0.1-0.5,0.2-0.7,0.3c-0.2,0.1-0.4,0.3-0.6,0.5
					c-0.2,0.2-0.3,0.3-0.4,0.5v7.6h-1.8V17.3h1.8v0.9c0.2-0.1,0.4-0.3,0.6-0.4c0.3-0.2,0.6-0.4,1-0.5c0.4-0.1,0.8-0.2,1.2-0.2
					c0.4,0,0.8,0.1,1.1,0.2c0.3,0.1,0.6,0.3,0.9,0.5c0.3,0.2,0.5,0.4,0.6,0.7c0,0,0,0.1,0.1,0.1c0.1-0.1,0.1-0.1,0.2-0.2
					c0.2-0.2,0.5-0.5,0.8-0.6c0.3-0.2,0.6-0.3,1-0.4c0.4-0.1,0.7-0.2,1.1-0.2c2,0,3,1.2,3,3.3V27.8z M228.9,27.8h-1.8V17.3h1.8v1
					c0.3-0.3,0.6-0.5,0.8-0.7c0.6-0.4,1.3-0.6,2-0.6h0.4v2l-0.5-0.1c-0.1,0-0.1,0-0.1,0h-0.3c-0.2,0-0.4,0-0.7,0.1
					c-0.3,0.1-0.5,0.2-0.7,0.4c-0.2,0.1-0.4,0.3-0.6,0.5c-0.2,0.2-0.3,0.3-0.4,0.5V27.8z M203.6,27.8h-1.8V17.3h1.8v1.1
					c0.3-0.3,0.6-0.5,0.9-0.7c0.6-0.4,1.3-0.6,2.1-0.6h0.4v2l-0.5-0.1c-0.1,0-0.1,0-0.2,0h-0.3c-0.2,0-0.4,0-0.7,0.1
					c-0.3,0.1-0.5,0.2-0.7,0.4c-0.2,0.1-0.4,0.3-0.6,0.5c-0.2,0.2-0.3,0.3-0.4,0.5V27.8z M195.3,22.4c-0.7,0-1.3,0.2-1.7,0.6
					c-0.4,0.4-0.6,0.9-0.6,1.5c0,0.6,0.2,1.1,0.6,1.4c0.4,0.4,1,0.6,1.7,0.6c0.5,0,1-0.1,1.5-0.3c0.4-0.2,0.8-0.4,1.1-0.8v-1.9
					c-0.3-0.3-0.7-0.6-1.1-0.8C196.3,22.5,195.8,22.4,195.3,22.4z M216.9,21.7h6.3c0-0.3-0.1-0.5-0.2-0.8c-0.1-0.4-0.3-0.8-0.6-1.1
					c-0.3-0.3-0.6-0.6-1-0.8c-0.4-0.2-0.9-0.3-1.4-0.3c-0.5,0-1,0.1-1.3,0.3c-0.4,0.2-0.7,0.5-1,0.8c-0.3,0.3-0.5,0.7-0.6,1.1
					C217,21.2,216.9,21.4,216.9,21.7z"/>
			</g>
		</g>
		<g>
			<g>
				<path style="fill:#002137;" d="M140.6,31.8c-0.4,0-0.8,0-1.2-0.1c-0.4,0-0.7-0.1-1.1-0.3c-0.3-0.1-0.6-0.3-1-0.5
					c-0.3-0.2-0.6-0.5-0.9-0.8l-0.2-0.2l1.1-1.4l0.3,0.4c0.4,0.5,0.8,0.8,1.2,1c0.4,0.2,1,0.3,1.7,0.3c0.4,0,0.8-0.1,1.2-0.2
					c0.4-0.1,0.7-0.3,0.9-0.5c0.3-0.2,0.5-0.5,0.6-0.8c0.2-0.3,0.2-0.8,0.2-1.3v-0.5c-0.2,0.2-0.5,0.4-0.8,0.6
					c-0.6,0.4-1.4,0.6-2.2,0.6c-0.7,0-1.3-0.1-1.9-0.4c-0.6-0.3-1.1-0.6-1.5-1.1c-0.4-0.5-0.7-1.1-1-1.7c-0.2-0.7-0.3-1.4-0.3-2.2
					c0-0.8,0.1-1.5,0.3-2.2c0.2-0.7,0.5-1.3,1-1.7c0.4-0.5,0.9-0.9,1.5-1.1c0.6-0.3,1.2-0.4,1.9-0.4c0.8,0,1.5,0.2,2.1,0.5
					c0.3,0.2,0.6,0.4,0.9,0.6v-0.9h1.8v10c0,0.8-0.1,1.5-0.4,2.1c-0.3,0.6-0.6,1-1.1,1.4c-0.4,0.4-1,0.6-1.5,0.8
					C141.9,31.7,141.3,31.8,140.6,31.8z M162,28c-0.8,0-1.3-0.2-1.7-0.7c-0.4-0.4-0.6-1-0.6-1.8V19h-1.6v-1.7h1.6v-2.7h1.8v2.7h2V19
					h-2v6.4c0,0.3,0.1,0.6,0.2,0.7c0.1,0.1,0.2,0.2,0.4,0.2c0.2,0,0.3,0,0.5-0.1c0.1-0.1,0.3-0.2,0.3-0.2l0.4-0.4l0.8,1.5l-0.2,0.2
					c-0.2,0.2-0.5,0.4-0.8,0.5C162.8,28,162.4,28,162,28z M152.4,28c-0.8,0-1.5-0.1-2.1-0.4c-0.6-0.3-1.2-0.7-1.7-1.1
					c-0.5-0.5-0.8-1.1-1.1-1.7c-0.3-0.7-0.4-1.4-0.4-2.2c0-0.7,0.1-1.5,0.4-2.1c0.3-0.7,0.6-1.3,1.1-1.7c0.4-0.5,1-0.9,1.6-1.2
					c0.6-0.3,1.3-0.4,2-0.4c0.8,0,1.5,0.2,2.1,0.5c0.6,0.3,1.1,0.7,1.6,1.2c0.4,0.5,0.7,1.1,1,1.8c0.2,0.7,0.3,1.4,0.3,2.1v0.7h-8.1
					c0,0.3,0.1,0.7,0.2,1c0.2,0.4,0.4,0.8,0.7,1.1c0.3,0.3,0.6,0.6,1.1,0.7c0.4,0.2,0.9,0.3,1.4,0.3c0.6,0,1.1-0.1,1.6-0.3
					c0.5-0.2,0.9-0.5,1.3-0.9l0.3-0.3l1,1.3l-0.2,0.2c-0.5,0.5-1.1,1-1.8,1.3C154.1,27.9,153.3,28,152.4,28z M139.5,26
					c0.4,0.2,0.8,0.3,1.3,0.3c0.3,0,0.6,0,0.9-0.1c0.3-0.1,0.6-0.2,0.8-0.3c0.3-0.1,0.5-0.3,0.7-0.5c0.2-0.2,0.3-0.3,0.4-0.5v-4.5
					c-0.1-0.2-0.3-0.3-0.4-0.5c-0.2-0.2-0.4-0.4-0.7-0.5c-0.3-0.2-0.5-0.3-0.8-0.3c-0.7-0.2-1.5-0.2-2.1,0.1
					c-0.4,0.2-0.7,0.4-0.9,0.8c-0.3,0.3-0.5,0.7-0.6,1.2c-0.1,0.5-0.2,1-0.2,1.5c0,0.6,0.1,1.1,0.2,1.5c0.1,0.5,0.3,0.9,0.6,1.2
					C138.8,25.6,139.1,25.8,139.5,26z M149.1,21.7h6.3c0-0.3-0.1-0.5-0.2-0.8c-0.1-0.4-0.3-0.8-0.6-1.1c-0.3-0.3-0.6-0.6-1-0.8
					c-0.4-0.2-0.8-0.3-1.4-0.3c-0.5,0-1,0.1-1.3,0.3c-0.4,0.2-0.7,0.5-1,0.8c-0.3,0.3-0.5,0.7-0.6,1.1
					C149.2,21.2,149.2,21.4,149.1,21.7z"/>
			</g>
		</g>
	</g>
	<g>
		<path style="fill:#002137;" d="M235.5,20.1H235v-2.4h-0.8v-0.4h2.1v0.4h-0.8V20.1z M237.9,20.1l-0.8-2.2h0l0,0.5v1.7h-0.5v-2.8
			h0.7l0.8,2.2l0.8-2.2h0.7v2.8h-0.5v-1.6l0-0.5h0l-0.8,2.2H237.9z"/>
	</g>
</g>
</svg>
