<?xml version="1.0" encoding="UTF-8"?><svg id="Layer_1" xmlns="http://www.w3.org/2000/svg" viewBox="0 0 80.08 100.11"><defs><style>.cls-1{fill:#fff;}.cls-2{fill:#e75fa0;}.cls-3{fill:#e4e5e5;}.cls-4{fill:#df0f79;}.cls-5{fill:#6e6f72;}.cls-6{fill:#595a5c;}.cls-7{fill:none;stroke:#000;stroke-linecap:round;stroke-linejoin:round;stroke-width:1.5px;}</style></defs><g id="Layer_2"><circle class="cls-1" cx="38.47" cy="53.83" r="21.07"/><path class="cls-3" d="M38.47,74.9c4.61,0,8.87-1.48,12.33-3.99l-29.41-29.41c-2.51,3.47-3.99,7.73-3.99,12.33,0,11.64,9.43,21.07,21.07,21.07Z"/><g><g id="not_layered"><polygon class="cls-4" points="61.68 50.76 66.2 56.8 65.78 56.79 47.32 56.58 47.46 44.61 48.92 44.63 66.34 44.83 61.68 50.76"/><polygon class="cls-4" points="57.89 38.75 57.75 50.71 57.75 50.72 38.86 50.5 39 38.53 40.97 38.55 57.89 38.75"/><line class="cls-7" x1="38.54" y1="87" x2="39.12" y2="37.7"/></g><polygon class="cls-2" points="47.32 56.58 57.75 50.71 47.25 50.59 47.32 56.58"/></g><polygon class="cls-6" points="52.77 72.79 25.45 100.11 80.08 100.11 52.77 72.79"/><polygon class="cls-5" points="32.57 67.54 0 100.11 65.14 100.11 32.57 67.54"/></g><path class="cls-1" d="M60.29,27.25l2.63,1.38s.06,0,.07-.02c0-.01,0-.02,0-.03l-.5-2.93s0-.04,.02-.05l2.13-2.07s.02-.05,0-.08c0,0-.02-.02-.03-.02l-2.94-.43s-.03-.01-.04-.03l-1.31-2.66s-.05-.04-.07-.03c-.01,0-.02,.01-.03,.03l-1.31,2.66s-.02,.03-.04,.03l-2.94,.43s-.05,.03-.05,.06c0,.01,0,.03,.02,.03l2.13,2.07s.02,.03,.02,.05l-.5,2.93s.02,.06,.05,.06c.01,0,.02,0,.03,0l2.63-1.38s.03,0,.05,0Z"/><path class="cls-1" d="M35.36,6.97l2.63,1.38s.06,0,.07-.02c0-.01,0-.02,0-.03l-.5-2.93s0-.04,.02-.05l2.13-2.07s.02-.05,0-.08c0,0-.02-.02-.03-.02l-2.94-.43s-.03-.01-.04-.03L35.39,.03s-.05-.04-.07-.03c-.01,0-.02,.01-.03,.03l-1.31,2.66s-.02,.03-.04,.03l-2.94,.43s-.05,.03-.05,.06c0,.01,0,.03,.02,.03l2.13,2.07s.02,.03,.02,.05l-.5,2.93s.02,.06,.05,.06c.01,0,.02,0,.03,0l2.63-1.38s.03,0,.05,0Z"/><path class="cls-1" d="M8.93,75.16l2.63,1.38s.06,0,.07-.02c0-.01,0-.02,0-.03l-.5-2.93s0-.04,.02-.05l2.13-2.07s.02-.05,0-.08c0,0-.02-.02-.03-.02l-2.94-.43s-.03-.01-.04-.03l-1.31-2.66s-.05-.04-.07-.03c-.01,0-.02,.01-.03,.03l-1.31,2.66s-.02,.03-.04,.03l-2.94,.43s-.05,.03-.05,.06c0,.01,0,.03,.02,.03l2.13,2.07s.02,.03,.02,.05l-.5,2.93s.02,.06,.05,.06c.01,0,.02,0,.03,0l2.63-1.38s.03,0,.05,0Z"/></svg>