<?xml version="1.0" encoding="UTF-8"?><svg id="Layer_1" xmlns="http://www.w3.org/2000/svg" viewBox="0 0 81.62 213.04"><defs><style>.cls-1{stroke:#231f20;stroke-width:1.5px;}.cls-1,.cls-2{fill:none;stroke-linecap:round;stroke-miterlimit:10;}.cls-2{stroke:#fff;stroke-width:3px;}.cls-3{fill:#010101;}.cls-4{fill:#bdbec0;}.cls-5{fill:#e10e79;}.cls-6{fill:#6e6f72;}.cls-7{fill:#595a5c;}</style></defs><g><g><path class="cls-6" d="M50.57,81.51c-17.35-3.45-30.19,10.66-30.57,25.32-.18,7,2.49,14.13,8.88,19.53-.05,1.14-.93,3.21-.25,4.15,.67,1.7,4.73,5.2,2.46,6.93-.14,.15-.34,.3-.57,.47-1.57,1.11-4.79,2.59-3.49,4.5,3.65,5.44,3.77,5.04-1.65,8.73-2.23,1.44,1.34,4.73,1.93,6.15,1.51,2.15-2.99,3.89-4.06,4.99-3.02,2.42,4.5,6.12,1.47,8.54-1.06,1.05-5.58,2.89-4.04,5l8.32,12.69c.56,.86,1.7,1.07,2.53,.46,.35-.4,14.34-9.84,13.61-10.45,.23-1.18,.46-2.37,.68-3.57,2.72-14.17,5.65-29.84,8.37-43.74,11.55-3.71,17.11-14.05,17.05-24.39-.07-11.51-7.13-23.01-20.67-25.32Zm-4.1,8.2c5.13-.16,7.91,2.79,8.64,6.25,.03,.13,.05,.25,.07,.38,.09,.54,.13,1.08,.13,1.63v.08c0,.07,0,.14,0,.21-.2,4.86-4.08,9.61-10.85,7.7-8.51-2.61-6.81-15.85,2.02-16.25Z"/><path class="cls-3" d="M55.31,98.27c-.11,6.1-5.09,11.01-11.22,11.01s-11.22-5.03-11.22-11.22,5.03-11.22,11.22-11.22c5.48,0,10.05,3.94,11.03,9.13-.73-3.46-3.51-6.4-8.64-6.25-8.83,.39-10.53,13.64-2.02,16.25,6.77,1.92,10.65-2.84,10.85-7.7Z"/><path class="cls-7" d="M71.25,106.84c.06,10.34-5.5,20.67-17.05,24.39-2.72,13.9-5.65,29.58-8.37,43.74l-15.31-37.04c.23-.17,.43-.32,.57-.47,2.27-1.73-1.79-5.22-2.46-6.93-.68-.94,.2-3.01,.25-4.15-6.39-5.4-9.06-12.53-8.88-19.53h51.24Z"/></g><g><path class="cls-4" d="M81.51,169.59l-1.66-4.72-3.79-10.78-3.79-10.78-3.81-10.78s-3.04-8.69-3.05-8.79c5.86-6.82,8.02-16.51,4.82-25.61-4.78-13.56-19.63-20.67-33.19-15.9-5.11,1.8-9.3,5.04-12.29,9.09-.5,.67-.96,1.37-1.39,2.08-1.14,1.89-2.02,3.92-2.64,6.05-1.49,5.05-1.47,10.61,.42,15.97,.22,.63,.46,1.25,.74,1.86,3.54,8.05,10.8,13.53,19,15.07,.05,.09,1.02,2.75,1.02,2.75,.15,.43,.46,.79,.87,1l4.27,2.18,.57,.29c.21,.11,.39,.25,.54,.43,.43,.51,.57,1.25,.28,1.89l-1.82,4.07c-.39,.86-.04,1.89,.81,2.33l3.99,2.05c.84,.44,1.21,1.45,.82,2.32l-1.82,4.07c-.4,.87-.04,1.89,.81,2.33l3.99,2.05c.84,.44,1.2,1.46,.81,2.32l-1.81,4.08c-.4,.87-.03,1.89,.81,2.32l4,2.07c.85,.43,1.2,1.45,.81,2.32l-1.81,4.08c-.39,.87-.02,1.91,.83,2.33l13.69,6.85c.92,.47,2.02,.07,2.44-.88l6.51-14.7c.18-.41,.21-.89,.05-1.32Zm-37.41-62.93s-.08,.01-.13,.02c-.16,.04-.33,.06-.49,.08-.05,.01-.09,.02-.15,.02-.13,.02-.28,.03-.41,.03-.08,.02-.16,.01-.24,.01-.17,.01-.35,.02-.51,0-.03,0-.07,0-.09,0-.09,0-.16,0-.24-.02-.18,0-.36-.02-.53-.05-.2-.03-.38-.06-.58-.1h-.04c-.19-.05-.39-.09-.57-.16-.2-.05-.4-.12-.6-.19-3.21-1.17-5.27-4.07-5.52-7.27-.09-1.16,.06-2.37,.49-3.54,.05-.13,.1-.25,.15-.37,.06-.13,.1-.25,.16-.37,.05-.1,.09-.19,.13-.27,.04-.08,.08-.15,.11-.21,.17-.28,.34-.57,.53-.82,.07-.1,.13-.18,.19-.26,.13-.17,.26-.32,.4-.47,.02-.02,.03-.03,.05-.05,.13-.14,.27-.29,.42-.43,0,0,.01-.02,.03-.02,.14-.13,.28-.26,.43-.37,.02-.01,.03-.02,.05-.04,.15-.13,.32-.25,.48-.36,0,0,.01,0,.01,0,1.94-1.34,4.4-1.85,6.81-1.25h.01s.05,.01,.09,.02c.2,.05,.39,.12,.6,.18l.16,.06c4.38,1.59,6.63,6.42,5.04,10.8-.34,.93-.83,1.78-1.43,2.5-.15,.18-.31,.36-.47,.53-.7,.71-1.51,1.28-2.39,1.7-.44,.21-.9,.38-1.37,.51-.18,.06-.37,.1-.56,.14Z"/><path class="cls-1" d="M61.12,128.64l14.28,40.54c.14,.4,.16,.83,.05,1.22l-.91,3.43c-.47,1.77-2.81,1.75-3.43-.03l-15.25-43.31c-.36-1.02,.11-2.11,1.04-2.44l1.89-.66c.93-.33,1.98,.23,2.34,1.25Z"/></g><circle class="cls-1" cx="45.75" cy="106.4" r="19.6"/><path class="cls-5" d="M45.37,90.52s-.05-.02-.07-.03l-.16-.06c-.2-.07-.4-.13-.6-.18-.04,0-.06-.01-.09-.02h-.01c-1.2-.3-2.42-.32-3.57-.11,1.53,2.72,2.61,6.15,2.71,9.46,.08,2.54-.32,4.99-1.13,7.25,0,.03-.01,.06-.03,.09-2.68,7.44-9.7,12.87-18.08,13.13-.08,0-.16,0-.24,0-.27,0-.53,0-.79,0-10.49-.2-19.12-8.63-19.44-19.24-.34-10.94,8.29-20.13,19.24-20.46,4.1-.13,7.94,1,11.18,3.04,.89-.43,1.81-.82,2.77-1.15,.51-.18,1.03-.34,1.56-.49-4.26-3.44-9.72-5.44-15.62-5.25C9.91,76.91-.4,87.87,.01,100.94c.4,13.08,11.37,23.38,24.44,22.98,.53-.02,1.04-.05,1.56-.11,.23-.01,.46-.04,.69-.07,9.72-1.23,17.57-8.34,19.98-17.55,.05-.2,.1-.4,.15-.61,.46-1.96,.67-4.01,.61-6.11-.1-3.18-.83-6.2-2.06-8.95Z"/></g><g><g><polyline class="cls-2" points="28.57 7.83 34.28 2.12 39.99 7.83"/><line class="cls-2" x1="34.28" y1="13.77" x2="34.28" y2="2.12"/></g><g><polyline class="cls-2" points="42.41 42.64 48.12 36.93 53.83 42.64"/><line class="cls-2" x1="48.12" y1="48.58" x2="48.12" y2="36.93"/></g></g><g><polyline class="cls-2" points="55.5 205.21 49.79 210.92 44.09 205.21"/><line class="cls-2" x1="49.79" y1="199.28" x2="49.79" y2="210.92"/></g><g><polyline class="cls-2" points="64.71 66.79 72.78 66.79 72.78 74.86"/><line class="cls-2" x1="64.55" y1="75.02" x2="72.78" y2="66.79"/></g><g><polyline class="cls-2" points="14.57 61.06 14.57 52.99 22.64 52.99"/><line class="cls-2" x1="22.8" y1="61.22" x2="14.57" y2="52.99"/></g></svg>