<?xml version="1.0" encoding="UTF-8"?><svg id="Layer_1" xmlns="http://www.w3.org/2000/svg" viewBox="0 0 72.77 116.72"><defs><style>.cls-1{fill:none;stroke:#231f20;stroke-linecap:round;stroke-miterlimit:10;stroke-width:1.5px;}.cls-2{fill:#fff;}.cls-3{fill:#e75fa0;}.cls-4{fill:#939598;}.cls-5{fill:#d2d3d4;}.cls-6{fill:#e10e79;}.cls-7{fill:#a8a9ac;}.cls-8{fill:#231f20;}.cls-9{fill:#6e6f72;}.cls-10{fill:#595a5c;}</style></defs><path class="cls-2" d="M60.58,22.18v-1.65c-.36-.06-1.1-.18-1.31-.22-.08-.27-.19-.53-.32-.78,.21-.29,.65-.91,.77-1.08-.14-.14-1.03-1.03-1.17-1.17-.29,.21-.91,.65-1.08,.77-.25-.14-.51-.25-.78-.32-.06-.36-.18-1.1-.22-1.31h-1.65c-.06,.36-.18,1.1-.22,1.31-.27,.08-.53,.19-.78,.32-.29-.21-.91-.65-1.08-.77-.04,.04-.16,.16-.3,.3-.32,.32-.77,.77-.87,.87,.21,.29,.65,.91,.77,1.08-.14,.25-.25,.51-.32,.78-.36,.06-1.1,.18-1.31,.22v1.65c.36,.06,1.1,.18,1.31,.22,.08,.27,.19,.53,.32,.78-.21,.29-.65,.91-.77,1.08,.14,.14,1.03,1.03,1.17,1.17,.29-.21,.91-.65,1.08-.77,.25,.14,.51,.25,.78,.32,0,.06,.02,.13,.03,.2,.05,.31,.12,.72,.16,.96h0c0,.06,.02,.11,.02,.15h1.65c.06-.34,.17-1.01,.21-1.26v-.04c.28-.08,.54-.19,.79-.32,.29,.21,.91,.65,1.08,.77l1.17-1.17c-.21-.29-.65-.91-.77-1.08,.14-.25,.25-.51,.32-.78,.36-.06,1.1-.18,1.31-.22Zm-4.61,.9s-.04,0-.06,0c-.09,.02-.18,.02-.28,.02-.11,0-.21,0-.31-.03-.05,0-.09-.02-.14-.03-.72-.2-1.25-.86-1.25-1.64,0-.09,0-.19,.02-.28,.03-.2,.1-.4,.2-.57,.25-.44,.7-.76,1.22-.84h.11s.08-.02,.12-.02h.08c.92,.02,1.66,.78,1.66,1.7,0,.83-.59,1.51-1.37,1.67Z"/><path class="cls-2" d="M31.5,5.76v-1.65c-.36-.06-1.1-.18-1.31-.22-.08-.27-.19-.53-.32-.78,.21-.29,.65-.91,.77-1.08-.14-.14-1.03-1.03-1.17-1.17-.29,.21-.91,.65-1.08,.77-.25-.14-.51-.25-.78-.32-.06-.36-.18-1.1-.22-1.31h-1.65c-.06,.36-.18,1.1-.22,1.31-.27,.08-.53,.19-.78,.32-.29-.21-.91-.65-1.08-.77-.04,.04-.16,.16-.3,.3-.32,.32-.77,.77-.87,.87,.21,.29,.65,.91,.77,1.08-.14,.25-.25,.51-.32,.78-.36,.06-1.1,.18-1.31,.22v1.65c.36,.06,1.1,.18,1.31,.22,.08,.27,.19,.53,.32,.78-.21,.29-.65,.91-.77,1.08,.14,.14,1.03,1.03,1.17,1.17,.29-.21,.91-.65,1.08-.77,.25,.14,.51,.25,.78,.32,0,.06,.02,.13,.03,.2,.05,.31,.12,.72,.16,.96h0c0,.06,.02,.11,.02,.15h1.65c.06-.34,.17-1.01,.21-1.26v-.04c.28-.08,.54-.19,.79-.32,.29,.21,.91,.65,1.08,.77l1.17-1.17c-.21-.29-.65-.91-.77-1.08,.14-.25,.25-.51,.32-.78,.36-.06,1.1-.18,1.31-.22Zm-4.61,.9s-.04,0-.06,0c-.09,.02-.18,.02-.28,.02-.11,0-.21,0-.31-.03-.05,0-.09-.02-.14-.03-.72-.2-1.25-.86-1.25-1.64,0-.09,0-.19,.02-.28,.03-.2,.1-.4,.2-.57,.25-.44,.7-.76,1.22-.84h.11s.08-.02,.12-.02h.08c.92,.02,1.66,.78,1.66,1.7,0,.83-.59,1.51-1.37,1.67Z"/><path class="cls-2" d="M23.04,112.61v-1.65c-.36-.06-1.1-.18-1.31-.22-.08-.27-.19-.53-.32-.78,.21-.29,.65-.91,.77-1.08-.14-.14-1.03-1.03-1.17-1.17-.29,.21-.91,.65-1.08,.77-.25-.14-.51-.25-.78-.32-.06-.36-.18-1.1-.22-1.31h-1.65c-.06,.36-.18,1.1-.22,1.31-.27,.08-.53,.19-.78,.32-.29-.21-.91-.65-1.08-.77-.04,.04-.16,.16-.3,.3-.32,.32-.77,.77-.87,.87,.21,.29,.65,.91,.77,1.08-.14,.25-.25,.51-.32,.78-.36,.06-1.1,.18-1.31,.22v1.65c.36,.06,1.1,.18,1.31,.22,.08,.27,.19,.53,.32,.78-.21,.29-.65,.91-.77,1.08,.14,.14,1.03,1.03,1.17,1.17,.29-.21,.91-.65,1.08-.77,.25,.14,.51,.25,.78,.32,0,.06,.02,.13,.03,.2,.05,.31,.12,.72,.16,.96h0c0,.06,.02,.11,.02,.15h1.65c.06-.34,.17-1.01,.21-1.26v-.04c.28-.08,.54-.19,.79-.32,.29,.21,.91,.65,1.08,.77l1.17-1.17c-.21-.29-.65-.91-.77-1.08,.14-.25,.25-.51,.32-.78,.36-.06,1.1-.18,1.31-.22Zm-4.61,.9s-.04,0-.06,0c-.09,.02-.18,.02-.28,.02-.11,0-.21,0-.31-.03-.05,0-.09-.02-.14-.03-.72-.2-1.25-.86-1.25-1.64,0-.09,0-.19,.02-.28,.03-.2,.1-.4,.2-.57,.25-.44,.7-.76,1.22-.84h.11s.08-.02,.12-.02h.08c.92,.02,1.66,.78,1.66,1.7,0,.83-.59,1.51-1.37,1.67Z"/><g><g><path class="cls-9" d="M72.77,68.96v-12.19c-2.62-.44-8.11-1.35-9.64-1.61-.57-2.01-1.38-3.93-2.39-5.77,1.54-2.15,4.78-6.68,5.68-7.95-1.05-1.05-7.57-7.57-8.62-8.62-2.16,1.54-6.69,4.78-7.96,5.68-1.83-1.01-3.76-1.81-5.76-2.39-.44-2.62-1.36-8.11-1.61-9.64h-12.19c-.44,2.62-1.36,8.11-1.61,9.64-2.01,.57-3.93,1.37-5.77,2.39-2.16-1.54-6.68-4.77-7.95-5.68l-2.22,2.22c-2.34,2.34-5.67,5.67-6.4,6.4,1.54,2.16,4.78,6.68,5.68,7.95-1.01,1.83-1.81,3.76-2.39,5.77-2.62,.44-8.12,1.35-9.64,1.61v12.19c2.62,.44,8.11,1.36,9.64,1.61,.57,2,1.37,3.93,2.39,5.76-1.54,2.16-4.77,6.69-5.68,7.96,1.05,1.05,7.57,7.57,8.62,8.62,2.16-1.54,6.68-4.77,7.95-5.68,1.83,1.01,3.76,1.81,5.77,2.39,.07,.43,.15,.93,.25,1.49,.38,2.25,.88,5.28,1.18,7.07,.37,.23,.81,.35,1.29,.35h.74c.12,.25,.26,.5,.41,.73h7.53c.16-.23,.3-.47,.41-.73h.88c.47,0,.91-.13,1.28-.35,.35-2.12,.85-5.13,1.18-7.06,.11-.65,.2-1.17,.25-1.5,2-.57,3.93-1.37,5.76-2.39,2.16,1.54,6.69,4.77,7.96,5.68l8.62-8.62c-1.54-2.16-4.77-6.69-5.68-7.96,1.01-1.83,1.81-3.76,2.39-5.76,2.62-.44,8.11-1.35,9.64-1.61Z"/><path class="cls-10" d="M10.41,37.39c-2.34,2.34-3.33,3.33-4.06,4.06,1.54,2.16,4.78,6.68,5.68,7.95-1.01,1.83-1.81,3.76-2.39,5.77-2.62,.44-8.12,1.35-9.64,1.61v12.19c2.62,.44,8.11,1.36,9.64,1.61,.57,2,1.37,3.93,2.39,5.76-1.54,2.16-4.77,6.69-5.68,7.96,1.05,1.05,7.57,7.57,8.62,8.62,2.16-1.54,6.68-4.77,7.95-5.68,1.83,1.01,3.76,1.81,5.77,2.39,.07,.43,.15,.93,.25,1.49,.38,2.25,.88,5.28,1.18,7.07,.37,.23,.81,.35,1.29,.35h.74c.12,.25,.26,.5,.41,.73h7.53c.16-.23,.3-.47,.41-.73h.88c.47,0,.91-.13,1.28-.35,.35-2.12,.85-5.13,1.18-7.06,.11-.65,.2-1.17,.25-1.5,2-.57,3.93-1.37,5.76-2.39,2.16,1.54,6.69,4.77,7.96,5.68l3.98-3.98"/></g><g><path class="cls-2" d="M44.21,54.87l-4.32-8.17-3.59-6.73-3.57,6.75-4.32,8.17,15.81-.02Z"/><polygon class="cls-5" points="36.34 54.88 44.21 54.87 39.89 46.7 36.34 40.05 36.34 54.88"/><path class="cls-8" d="M32.75,46.7l3.57-6.75,3.59,6.73-7.16,.02Z"/><polygon class="cls-6" points="28.46 91.92 28.46 54.83 44.21 54.87 44.21 91.97 28.46 91.92"/><polygon class="cls-6" points="28.46 91.92 28.46 54.83 44.21 54.87 44.21 91.97 28.46 91.92"/><polygon class="cls-3" points="28.46 91.92 28.46 54.83 36.31 54.87 36.31 91.97 28.46 91.92"/><path class="cls-7" d="M44.22,91.98h-15.8v6.93c.02,1.54,1.26,2.78,2.8,2.78h10.22c1.54,0,2.79-1.25,2.78-2.79v-6.92Z"/><path class="cls-4" d="M36.34,91.98h7.88v6.92c0,1.54-1.24,2.79-2.78,2.79h-5.09v-9.71Z"/><line class="cls-1" x1="28.42" y1="88.42" x2="44.37" y2="88.42"/><line class="cls-1" x1="28.42" y1="85.85" x2="44.37" y2="85.85"/></g></g></svg>