<?xml version="1.0" encoding="UTF-8"?><svg id="Layer_1" xmlns="http://www.w3.org/2000/svg" viewBox="0 0 60.88 159.99"><defs><style>.cls-1{stroke:#231f20;stroke-width:1.5px;}.cls-1,.cls-2{fill:none;stroke-linecap:round;stroke-miterlimit:10;}.cls-2{stroke:#fff;stroke-width:3px;}.cls-3{fill:#010101;}.cls-4{fill:#bdbec0;}.cls-5{fill:#e10e79;}.cls-6{fill:#6e6f72;}.cls-7{fill:#595a5c;}</style></defs><g><g><path class="cls-6" d="M37.72,61.34c-12.94-2.57-22.52,7.95-22.8,18.89-.13,5.22,1.86,10.54,6.62,14.57-.04,.85-.69,2.4-.19,3.1,.5,1.27,3.53,3.88,1.83,5.17-.11,.11-.25,.23-.43,.35-1.17,.82-3.57,1.93-2.6,3.36,2.73,4.05,2.81,3.76-1.23,6.51-1.66,1.07,1,3.53,1.44,4.59,1.12,1.61-2.23,2.9-3.03,3.72-2.25,1.81,3.36,4.56,1.1,6.37-.79,.78-4.17,2.15-3.01,3.73l6.2,9.46c.42,.64,1.27,.8,1.89,.35,.26-.3,10.69-7.34,10.15-7.79,.17-.88,.34-1.76,.51-2.66,2.03-10.57,4.22-22.26,6.25-32.63,8.61-2.77,12.76-10.48,12.72-18.19-.05-8.58-5.32-17.16-15.42-18.89Zm-3.06,6.12c3.83-.12,5.9,2.08,6.44,4.66,.02,.09,.04,.19,.05,.28,.07,.4,.1,.81,.09,1.22v.06c0,.05,0,.11,0,.16-.15,3.62-3.05,7.17-8.09,5.74-6.35-1.94-5.08-11.82,1.51-12.12Z"/><path class="cls-3" d="M41.25,73.84c-.08,4.55-3.8,8.21-8.37,8.21s-8.37-3.75-8.37-8.37,3.75-8.37,8.37-8.37c4.09,0,7.5,2.94,8.23,6.81-.54-2.58-2.62-4.77-6.44-4.66-6.59,.29-7.85,10.17-1.51,12.12,5.05,1.43,7.94-2.12,8.09-5.74Z"/><path class="cls-7" d="M53.15,80.23c.05,7.71-4.1,15.42-12.72,18.19-2.03,10.37-4.22,22.06-6.25,32.63l-11.42-27.63c.17-.13,.32-.24,.43-.35,1.7-1.29-1.33-3.9-1.83-5.17-.5-.7,.15-2.25,.19-3.1-4.76-4.03-6.75-9.35-6.62-14.57H53.15Z"/></g><g><path class="cls-4" d="M60.8,127.04l-1.24-3.52-2.83-8.04-2.83-8.04-2.84-8.04s-2.27-6.49-2.28-6.55c4.37-5.09,5.99-12.31,3.59-19.1-3.56-10.11-14.64-15.42-24.76-11.86-3.81,1.35-6.94,3.76-9.17,6.78-.37,.5-.72,1.02-1.04,1.55-.85,1.41-1.51,2.93-1.97,4.51-1.11,3.77-1.1,7.91,.31,11.91,.16,.47,.34,.93,.55,1.39,2.64,6.01,8.05,10.09,14.17,11.24,.04,.07,.76,2.05,.76,2.05,.11,.32,.35,.59,.65,.75l3.19,1.63,.42,.22c.16,.08,.29,.19,.4,.32,.32,.38,.42,.93,.21,1.41l-1.36,3.03c-.29,.64-.03,1.41,.6,1.74l2.98,1.53c.63,.33,.9,1.08,.61,1.73l-1.36,3.03c-.3,.65-.03,1.41,.6,1.74l2.98,1.53c.63,.33,.9,1.09,.6,1.73l-1.35,3.04c-.3,.65-.02,1.41,.6,1.73l2.98,1.54c.63,.32,.9,1.08,.6,1.73l-1.35,3.04c-.29,.65-.02,1.42,.62,1.74l10.21,5.11c.69,.35,1.5,.05,1.82-.65l4.86-10.96c.14-.31,.15-.66,.04-.98Zm-27.9-46.94s-.06,.01-.1,.02c-.12,.03-.25,.05-.37,.06-.04,0-.07,.01-.11,.01-.1,.02-.21,.02-.3,.02-.06,.01-.12,0-.18,0-.13,.01-.26,.01-.38,0-.02,0-.05,0-.07,0-.06,0-.12,0-.18-.01-.13,0-.27-.02-.4-.04-.15-.02-.28-.04-.43-.07h-.03c-.15-.04-.29-.07-.43-.12-.15-.04-.3-.09-.45-.14-2.39-.87-3.93-3.03-4.12-5.42-.07-.86,.04-1.76,.37-2.64,.03-.1,.07-.19,.11-.28,.04-.09,.07-.19,.12-.27,.03-.07,.07-.14,.1-.2,.03-.06,.06-.11,.08-.16,.12-.21,.25-.43,.39-.61,.05-.07,.1-.14,.14-.19,.1-.12,.2-.24,.3-.35,.01-.02,.02-.02,.04-.04,.1-.11,.2-.21,.31-.32,0,0,.01-.01,.02-.02,.11-.1,.21-.19,.32-.28,.01-.01,.03-.02,.04-.03,.11-.1,.24-.18,.36-.27h0c1.44-1,3.28-1.39,5.08-.93h0s.04,0,.07,.02c.15,.04,.29,.09,.45,.13l.12,.05c3.27,1.19,4.95,4.79,3.76,8.05-.25,.7-.62,1.33-1.07,1.86-.11,.14-.23,.27-.35,.39-.52,.53-1.13,.96-1.78,1.27-.33,.16-.67,.28-1.02,.38-.14,.04-.27,.08-.42,.1Z"/><path class="cls-1" d="M45.59,96.5l10.65,30.24c.1,.3,.12,.62,.04,.91l-.68,2.56c-.35,1.32-2.1,1.3-2.56-.02l-11.38-32.3c-.27-.76,.08-1.58,.78-1.82l1.41-.5c.7-.25,1.48,.17,1.75,.93Z"/></g><circle class="cls-1" cx="34.13" cy="79.9" r="14.62"/><path class="cls-5" d="M33.84,68.06s-.04-.02-.05-.02l-.12-.04c-.15-.05-.3-.1-.45-.14-.03,0-.05-.01-.07-.02h-.01c-.89-.23-1.8-.24-2.66-.08,1.14,2.03,1.94,4.59,2.02,7.06,.06,1.9-.24,3.72-.85,5.4,0,.02-.01,.05-.02,.07-2,5.55-7.23,9.6-13.48,9.8-.06,0-.12,0-.18,0-.2,0-.39,0-.59,0-7.82-.15-14.26-6.44-14.5-14.35-.25-8.16,6.19-15.01,14.35-15.26,3.06-.09,5.92,.75,8.34,2.26,.66-.32,1.35-.61,2.06-.86,.38-.14,.77-.26,1.16-.36-3.18-2.57-7.25-4.05-11.65-3.92C7.39,57.91-.3,66.08,0,75.83c.3,9.75,8.48,17.44,18.23,17.14,.39-.02,.78-.04,1.16-.08,.17-.01,.34-.03,.51-.05,7.25-.91,13.11-6.22,14.9-13.09,.04-.15,.07-.3,.11-.45,.34-1.46,.5-2.99,.45-4.56-.07-2.37-.62-4.63-1.54-6.68Z"/></g><g><g><polyline class="cls-2" points="21.31 6.38 25.57 2.12 29.83 6.38"/><line class="cls-2" x1="25.57" y1="10.81" x2="25.57" y2="2.12"/></g><g><polyline class="cls-2" points="31.63 32.34 35.89 28.09 40.15 32.34"/><line class="cls-2" x1="35.89" y1="36.77" x2="35.89" y2="28.09"/></g></g><g><polyline class="cls-2" points="41.4 153.61 37.14 157.87 32.88 153.61"/><line class="cls-2" x1="37.14" y1="149.18" x2="37.14" y2="157.87"/></g><g><polyline class="cls-2" points="48.27 50.36 54.29 50.36 54.29 56.38"/><line class="cls-2" x1="48.15" y1="56.5" x2="54.29" y2="50.36"/></g><g><polyline class="cls-2" points="10.87 46.09 10.87 40.06 16.89 40.06"/><line class="cls-2" x1="17.01" y1="46.21" x2="10.87" y2="40.06"/></g></svg>