<?xml version="1.0" encoding="UTF-8"?><svg id="Layer_1" xmlns="http://www.w3.org/2000/svg" viewBox="0 0 68.69 126.55"><defs><style>.cls-1{fill:none;stroke:#231f20;stroke-linecap:round;stroke-miterlimit:10;stroke-width:1.5px;}.cls-2{fill:#fff;}.cls-3{fill:#bcbec0;}.cls-4{fill:#e10e79;}.cls-5{fill:#6e6f72;}</style></defs><g><path class="cls-2" d="M50.61,7.81c-.55-1.7-1.65-2.8-3.35-3.35-.4-.13-.4-.69,0-.82,1.7-.55,2.8-1.65,3.35-3.35,.13-.4,.69-.4,.82,0,.55,1.7,1.65,2.8,3.35,3.35,.4,.13,.4,.69,0,.82-1.7,.55-2.8,1.65-3.35,3.35-.13,.4-.69,.4-.82,0Z"/><path class="cls-2" d="M51.08,47.59c-.83-2.59-2.51-4.26-5.1-5.1-.61-.2-.61-1.04,0-1.24,2.59-.83,4.26-2.51,5.1-5.1,.2-.61,1.04-.61,1.24,0,.83,2.59,2.51,4.26,5.1,5.1,.61,.2,.61,1.04,0,1.24-2.59,.83-4.26,2.51-5.1,5.1-.2,.61-1.04,.61-1.24,0Z"/><path class="cls-2" d="M15.98,32.07c-.55-1.7-1.65-2.8-3.35-3.35-.4-.13-.4-.69,0-.82,1.7-.55,2.8-1.65,3.35-3.35,.13-.4,.69-.4,.82,0,.55,1.7,1.65,2.8,3.35,3.35,.4,.13,.4,.69,0,.82-1.7,.55-2.8,1.65-3.35,3.35-.13,.4-.69,.4-.82,0Z"/></g><g><path class="cls-3" d="M60.25,117.2c5.97-5.97,13.74-20.83,3.34-40.79,0,0-.69,17.34-12.24,19.6,0,0,17.9-21.21-5.58-40.94,0,0,3.12,8.69-2.19,8.95-9.43,.4-11.23-23.64-6.66-36.37,0,0-21.78,12.33-14.84,31.58,5.77,15.99-.53,22.5-4.06,22.21-8.47-.69-3.44-15.03-3.44-15.03,0,0-14.57,6.45-14.57,23.41,0,19.49,15.01,36.74,35.66,36.74,12.48,0,18.61-3.38,24.59-9.35Z"/><path class="cls-5" d="M22.07,59.22c5.77,15.99-.53,22.5-4.06,22.21-8.47-.69-3.44-15.03-3.44-15.03C14.57,66.4,0,72.85,0,89.81,0,109.3,15.01,126.55,35.66,126.55c.16,0,.31,0,.47,0,9.5-27.45,.09-49.23-4.71-62.07-5.13-13.75-5.5-21.82,5.49-36.83,0,0-21.78,12.33-14.84,31.58Z"/><path class="cls-4" d="M51.35,96c.58-.78,1.16-1.6,1.72-2.43,3.84-6.12,11.41-22.78-7.3-38.51,0,0,3.12,8.69-2.19,8.95-9.43,.4-11.23-23.64-6.66-36.37,0,0-17.08,9.69-16.15,25.29l.07,.22c.35,4.65,5.26,11.54,12.83,17.28,3.19,2.42,1.3,18.24,2.22,21.4,3.43,11.79,8.93,12.91,15.46,4.16Z"/><path class="cls-2" d="M53.41,107.03s-1.99,3.6-4.36,3.37c0,0,2.45-10.03-1.68-20.75-3.3-8.54-6.99-12.28-13.7-19.21,0,0-2.8,9.43,1.95,20.76,4.9,11.1-1.03,16.9-5.24,16.36-9.49-.54-8.74-14.61-8.74-14.61,0,0-6.39,5.05-6.39,14.28,0,10.6,9.66,19.31,20.9,19.31,6.79,0,19.12-3.36,17.28-19.51Z"/><path class="cls-1" d="M30.36,107.56c-9.49-.54-8.74-14.61-8.74-14.61"/></g><path class="cls-1" d="M20.11,51.28c1.14,10.33,8.83,14.95,13.56,19.16s10.52,10.62,13.7,19.21c2.72,7.35,3.05,14.02,1.55,20.35"/></svg>