<?xml version="1.0" encoding="UTF-8"?><svg id="Layer_1" xmlns="http://www.w3.org/2000/svg" viewBox="0 0 88.79 125.97"><defs><style>.cls-1{stroke:#fff;}.cls-1,.cls-2{fill:none;stroke-miterlimit:10;stroke-width:1.5px;}.cls-2{stroke:#d2d3d4;}.cls-3{fill:#e6e7e8;}.cls-4{fill:#e75fa0;}.cls-5{fill:#939598;}.cls-6{fill:#df0f79;}.cls-7{fill:#a8a9ac;}.cls-8{fill:#808285;}</style></defs><line class="cls-2" x1="18.79" y1="24.1" x2="47.85" y2="51.03"/><line class="cls-2" x1="84.5" y1="73.39" x2="58.68" y2="93.14"/><line class="cls-2" x1="79.78" y1="18.52" x2="84.5" y2="73.39"/><line class="cls-2" x1="8.34" y1="67.64" x2="18.79" y2="24.1"/><polyline class="cls-1" points="7.53 67.27 47.85 51.03 79.78 18.52"/><g><line class="cls-1" x1="57.87" y1="92.75" x2="47.85" y2="51.03"/><g><circle class="cls-4" cx="47.42" cy="50.61" r="20.28"/><path class="cls-6" d="M61.76,64.95h0l-28.68-28.68h0c-7.92,7.92-7.92,20.76,0,28.68,7.92,7.92,20.76,7.92,28.68,0Z"/></g><g><circle class="cls-5" cx="79.64" cy="18.39" r="8.34"/><path class="cls-8" d="M85.54,24.28h0l-11.79-11.79h0c-3.26,3.26-3.26,8.53,0,11.79,3.26,3.26,8.53,3.26,11.79,0Z"/></g><g><circle class="cls-5" cx="8.34" cy="67.27" r="8.34"/><path class="cls-8" d="M14.23,73.17h0L2.44,61.38h0c-3.26,3.26-3.26,8.53,0,11.79,3.26,3.26,8.53,3.26,11.79,0Z"/></g><g><circle class="cls-7" cx="58.29" cy="92.75" r="8.34"/><path class="cls-5" d="M64.18,98.64h0l-11.79-11.79h0c-3.26,3.26-3.26,8.53,0,11.79,3.26,3.26,8.53,3.26,11.79,0Z"/></g></g><circle class="cls-3" cx="46.58" cy="4.29" r="4.29"/><circle class="cls-3" cx="43.13" cy="121.68" r="4.29"/><circle class="cls-3" cx="84.5" cy="73.39" r="4.29"/><circle class="cls-3" cx="22.79" cy="104.65" r="9.62"/><circle class="cls-6" cx="18.79" cy="24.1" r="6.67"/></svg>