<?xml version="1.0" encoding="UTF-8"?><svg id="Isolation_Mode" xmlns="http://www.w3.org/2000/svg" viewBox="0 0 133.07 240.21"><defs><style>.cls-1{fill:#010101;}</style></defs><path class="cls-1" d="M131.69,204.14c-.3-4.59-.85-9.15-1.64-13.68-.48-2.76-1.14-5.49-1.95-8.17l-3.48-11.51h-.03c-.03-.09-.07-.18-.1-.27-2.27-20.39-4.57-37.11-6.32-48.8,3.1-3.77,6.28-7.45,8.48-11.15-4.66-6.71-5.21-11.01-21.12-18.66-.06-4.11,1.27-8.66,3.15-16.36,1.95-8-1.47-13.55-4.53-16.71-3.75-3.88-6.2-9.79-6.97-15.14,0,0,5.74-24.68-12.95-37.03,0,0-7.22-6.39-17.02-6.66h0s-.02,0-.03,0c-.01,0-.02,0-.03,0h0c-9.8,.28-17.02,6.67-17.02,6.67-13.47,8.9-14.25,24.21-13.63,32.06h0c.09,1.21,.22,2.22,.34,3.01-.04,.65,.03,1.4,.25,2.29,0,.03,.01,.05,.02,.08-.83,5.23-3.24,10.94-6.89,14.72-3.05,3.16-6.48,8.71-4.53,16.71,1.97,8.09,3.34,12.7,3.12,16.98-1.63,.18-3.2,.53-4.42,1.18-12.25,6.46-14.48,11.81-18.04,18.83-.13,.26-.27,.52-.4,.79,1.38,3.86,4.99,6.25,8.78,9.39-1.73,11.64-3.96,27.98-6.17,47.81-.03,.09-.07,.18-.1,.28h-.03l-3.48,11.51c-.81,2.68-1.47,5.41-1.95,8.17-.79,4.53-1.34,9.09-1.64,13.68l-1.38,20.77c3.8,1.85,7.69,3.55,11.65,5.08,.75-3.16,1.95-7.67,3.61-12.58,5.24-15.51,13.17-37.13,10.5-44.23h0c.44-2.25,.88-4.48,1.33-6.67,.25,4.46,.81,8.48,2.21,11.64,.94,2.31,2.28,4.18,4.23,5.44,0,.06,0,.12-.01,.17,0,.03,0,.06,0,.08-.02,.24-.04,.47-.06,.69-.33,2.2-1.67,4.98-2.63,6.59-.99,1.65-1.96,3.27-2.92,4.91-2.25,3.47-4.03,7.01-5.51,10.83-2.08,4.97-3.74,10.56-4.65,17.47,.84,.55,1.78,1.07,2.81,1.57,.08,.04,.18,.08,.26,.12-.25,1.31-.56,3.69-.9,6.89,14.69,4.73,30.35,7.29,46.61,7.29s32.46-2.65,47.37-7.53c-.49-3.54-.84-5.99-1-7.02h0c1.17-.59,2.2-1.19,3.05-1.83-1.89-9.92-8.7-22.94-14.48-32.37-.51-.83-.86-1.88-1.1-2.98-.04-.45-.09-.95-.15-1.49-.07-.77-.13-1.62-.2-2.53,4.75-2.09,6.22-7.31,6.71-14.21,.19,.97,.39,1.95,.58,2.94h0c-2.67,7.1,5.26,28.72,10.5,44.23,1.66,4.92,2.85,9.42,3.61,12.58,3.97-1.54,7.86-3.23,11.65-5.08l-1.38-20.77Z"/></svg>