<svg id="Layer_1" data-name="Layer 1" xmlns="http://www.w3.org/2000/svg" viewBox="0 0 320 80.22"><rect width="320" height="80.22" style="fill:#010101"/><path d="M148.69,32.83l-1.14,5a4.34,4.34,0,0,0-.1.9c0,.93.68,1.42,2,1.42a4,4,0,0,0,1.11-.16l-1.05,4.61c-1.53.06-2.12.06-3.47.06-2.62,0-3.63-.1-4.53-.56A3.13,3.13,0,0,1,140,41.27a18,18,0,0,1,.61-3.76l1.07-4.68h-2.33l.94-4.34h2.36l1.29-5.85H151l-1.3,5.85h2.8l-1,4.34Z" transform="translate(0 5.54)" style="fill:#fff"/><path d="M129.89,35.33c0,3.25-2,5.32-5.16,5.32-2.58,0-4.18-1.47-4.18-3.88a5,5,0,0,1,5.16-5.16c2.65,0,4.18,1.37,4.18,3.72m7.47-.07a7.77,7.77,0,0,0-2.13-5.43c-1.81-1.81-4.92-2.74-9.19-2.74-8,0-12.79,3.63-12.79,9.64,0,5.35,4.07,8.44,11.09,8.44,7.81,0,13-4,13-9.91" transform="translate(0 5.54)" style="fill:#fff"/><path d="M95.56,32l1.08-4.75h5.64c1.63,0,2.41.61,2.41,1.85,0,1.72-1.34,2.9-3.29,2.9Zm-1.11,4.87h5.06l3.87,10,6.92-2.2-3.52-8.73a9.86,9.86,0,0,0,2.84-1.4,7.29,7.29,0,0,0,2.87-5.87,5.58,5.58,0,0,0-2.15-4.65,7,7,0,0,0-2.45-1.17c-1.53-.4-1.93-.43-5.9-.43H90L85,44.59h7.69Z" transform="translate(0 5.54)" style="fill:#fff"/><path d="M177.39,44.59l2.12-9.42a5.66,5.66,0,0,0,.1-1.13,1.91,1.91,0,0,0-2.15-2,3.12,3.12,0,0,0-3.07,2.69l-2.21,9.82h-7.05l2.12-9.42a6.8,6.8,0,0,0,.17-1.2,1.77,1.77,0,0,0-2-1.89,3,3,0,0,0-3.16,2.69l-2.22,9.82h-7l3.78-16.87h7.07l-.52,2.2a9.15,9.15,0,0,1,6.55-2.83,5.24,5.24,0,0,1,5,2.83,12,12,0,0,1,2.28-1.76,8.53,8.53,0,0,1,4.24-1.07c3.51,0,5.6,1.76,5.6,4.69a18.71,18.71,0,0,1-.56,4l-2,8.82Z" transform="translate(0 5.54)" style="fill:#fff"/><path d="M212.23,27.72h-6.62l-.38,1.66c-1-1.49-3.14-2.22-5.3-2.23a12,12,0,0,0-11.45,8.94c-1.13,4.83,1.77,9,7.31,9A8.67,8.67,0,0,0,202,42.72h.07l-.41,1.86h6.59Zm-12.65,4.69c2.71,0,3.88,1.76,3.4,3.83A5.06,5.06,0,0,1,197.8,40c-2.72,0-3.91-1.66-3.41-3.79a5.15,5.15,0,0,1,5.19-3.8" transform="translate(0 5.54)" style="fill:#fff"/><path d="M225.5,44.6l1.83-8.12a10,10,0,0,0,.26-1.66,2.5,2.5,0,0,0-2.77-2.5c-2,0-3.46,1.46-4,3.93l-1.86,8.35h-7l3.78-16.88h7.08l-.56,2.44a9.32,9.32,0,0,1,7-3.06c3.64,0,5.82,2,5.82,5.32a14.61,14.61,0,0,1-.42,3.06l-2.05,9.12Z" transform="translate(0 5.54)" style="fill:#fff"/></svg>