<?xml version="1.0" encoding="UTF-8"?><svg id="Layer_1" xmlns="http://www.w3.org/2000/svg" viewBox="0 0 104.71 130.9"><defs><style>.cls-1{fill:#fff;}.cls-2{fill:#e75fa0;}.cls-3{fill:#e4e5e5;}.cls-4{fill:#df0f79;}.cls-5{fill:#6e6f72;}.cls-6{fill:#595a5c;}.cls-7{fill:none;stroke:#000;stroke-linecap:round;stroke-linejoin:round;stroke-width:1.5px;}</style></defs><g id="Layer_2"><circle class="cls-1" cx="50.31" cy="70.39" r="27.55"/><path class="cls-3" d="M50.31,97.94c6.02,0,11.59-1.94,16.13-5.22L27.98,54.26c-3.28,4.53-5.22,10.1-5.22,16.13,0,15.22,12.33,27.55,27.55,27.55Z"/><g><g id="not_layered"><polygon class="cls-4" points="80.65 66.37 86.56 74.27 86.01 74.26 61.87 73.98 62.05 58.33 63.97 58.35 86.75 58.62 80.65 66.37"/><polygon class="cls-4" points="75.69 50.66 75.51 66.31 75.51 66.31 50.81 66.03 51 50.38 53.57 50.4 75.69 50.66"/><line class="cls-7" x1="50.39" y1="113.75" x2="51.15" y2="49.3"/></g><polygon class="cls-2" points="61.87 73.98 75.51 66.31 61.78 66.15 61.87 73.98"/></g><polygon class="cls-6" points="69 95.18 33.28 130.9 104.71 130.9 69 95.18"/><polygon class="cls-5" points="42.58 88.31 0 130.9 85.17 130.9 42.58 88.31"/></g><path class="cls-1" d="M78.83,35.63l3.44,1.81s.08,0,.1-.03c0-.01,0-.03,0-.04l-.66-3.83s0-.05,.02-.06l2.78-2.71s.03-.07,0-.1c-.01-.01-.03-.02-.04-.02l-3.84-.56s-.04-.02-.05-.04l-1.72-3.48s-.06-.05-.09-.03c-.01,0-.03,.02-.03,.03l-1.72,3.48s-.03,.04-.05,.04l-3.84,.56s-.07,.04-.06,.08c0,.02,.01,.03,.02,.04l2.78,2.71s.03,.04,.02,.06l-.66,3.83s.02,.08,.06,.08c.02,0,.03,0,.04,0l3.44-1.81s.04,0,.06,0Z"/><path class="cls-1" d="M46.23,9.11l3.44,1.81s.08,0,.1-.03c0-.01,0-.03,0-.04l-.66-3.83s0-.05,.02-.06l2.78-2.71s.03-.07,0-.1c-.01-.01-.03-.02-.04-.02l-3.84-.56s-.04-.02-.05-.04L46.27,.04s-.06-.05-.09-.03c-.01,0-.03,.02-.03,.03l-1.72,3.48s-.03,.04-.05,.04l-3.84,.56s-.07,.04-.06,.08c0,.02,.01,.03,.02,.04l2.78,2.71s.03,.04,.02,.06l-.66,3.83s.02,.08,.06,.08c.02,0,.03,0,.04,0l3.44-1.81s.04,0,.06,0Z"/><path class="cls-1" d="M11.68,98.27l3.44,1.81s.08,0,.1-.03c0-.01,0-.03,0-.04l-.66-3.83s0-.05,.02-.06l2.78-2.71s.03-.07,0-.1c-.01-.01-.03-.02-.04-.02l-3.84-.56s-.04-.02-.05-.04l-1.72-3.48s-.06-.05-.09-.03c-.01,0-.03,.02-.03,.03l-1.72,3.48s-.03,.04-.05,.04l-3.84,.56s-.07,.04-.06,.08c0,.02,.01,.03,.02,.04l2.78,2.71s.03,.04,.02,.06l-.66,3.83s.02,.08,.06,.08c.02,0,.03,0,.04,0l3.44-1.81s.04,0,.06,0Z"/></svg>