<?xml version="1.0" encoding="UTF-8"?><svg id="Layer_1" xmlns="http://www.w3.org/2000/svg" viewBox="0 0 84.68 156"><defs><style>.cls-1{fill:none;stroke:#231f20;stroke-linecap:round;stroke-miterlimit:10;stroke-width:1.5px;}.cls-2{fill:#fff;}.cls-3{fill:#bcbec0;}.cls-4{fill:#e10e79;}.cls-5{fill:#6e6f72;}</style></defs><g><path class="cls-2" d="M62.39,9.63c-.67-2.1-2.03-3.46-4.13-4.13-.5-.16-.5-.85,0-1.01,2.1-.67,3.46-2.03,4.13-4.13,.16-.5,.85-.5,1.01,0,.67,2.1,2.03,3.46,4.13,4.13,.5,.16,.5,.85,0,1.01-2.1,.67-3.46,2.03-4.13,4.13-.16,.5-.85,.5-1.01,0Z"/><path class="cls-2" d="M62.97,58.67c-1.02-3.19-3.09-5.26-6.28-6.28-.75-.24-.75-1.29,0-1.53,3.19-1.02,5.26-3.09,6.28-6.28,.24-.75,1.29-.75,1.53,0,1.02,3.19,3.09,5.26,6.28,6.28,.75,.24,.75,1.29,0,1.53-3.19,1.02-5.26,3.09-6.28,6.28-.24,.75-1.29,.75-1.53,0Z"/><path class="cls-2" d="M19.7,39.54c-.67-2.1-2.03-3.46-4.13-4.13-.5-.16-.5-.85,0-1.01,2.1-.67,3.46-2.03,4.13-4.13,.16-.5,.85-.5,1.01,0,.67,2.1,2.03,3.46,4.13,4.13,.5,.16,.5,.85,0,1.01-2.1,.67-3.46,2.03-4.13,4.13-.16,.5-.85,.5-1.01,0Z"/></g><g><path class="cls-3" d="M74.27,144.47c7.36-7.36,16.94-25.68,4.11-50.29,0,0-.85,21.37-15.09,24.16,0,0,22.06-26.14-6.88-50.47,0,0,3.84,10.72-2.7,11.03-11.62,.49-13.84-29.15-8.21-44.83,0,0-26.85,15.2-18.29,38.93,7.11,19.71-.65,27.74-5.01,27.38-10.44-.85-4.24-18.53-4.24-18.53,0,0-17.96,7.95-17.96,28.86,0,24.02,18.5,45.29,43.96,45.29,15.39,0,22.94-4.17,30.31-11.53Z"/><path class="cls-5" d="M27.21,73.01c7.11,19.71-.65,27.74-5.01,27.38-10.44-.85-4.24-18.53-4.24-18.53C17.96,81.86,0,89.81,0,110.71,0,134.73,18.5,156,43.96,156c.2,0,.38,0,.58,0,11.72-33.84,.11-60.69-5.8-76.52-6.33-16.95-6.78-26.9,6.77-45.4,0,0-26.85,15.2-18.29,38.93Z"/><path class="cls-4" d="M63.3,118.35c.72-.96,1.42-1.97,2.12-3,4.74-7.54,14.07-28.08-9-47.47,0,0,3.84,10.72-2.7,11.03-11.62,.49-13.84-29.15-8.21-44.83,0,0-21.06,11.95-19.91,31.17l.09,.28c.43,5.73,6.48,14.23,15.81,21.31,3.93,2.98,1.6,22.49,2.74,26.38,4.22,14.53,11.01,15.92,19.06,5.13Z"/><path class="cls-2" d="M65.84,131.94s-2.45,4.44-5.38,4.15c0,0,3.02-12.36-2.08-25.58-4.06-10.53-8.62-15.13-16.89-23.68,0,0-3.45,11.63,2.4,25.59,6.04,13.68-1.27,20.83-6.46,20.17-11.7-.66-10.78-18.01-10.78-18.01,0,0-7.88,6.22-7.88,17.6,0,13.07,11.91,23.8,25.76,23.8,8.37,0,23.57-4.14,21.3-24.06Z"/><path class="cls-1" d="M37.43,132.6c-11.7-.66-10.78-18.01-10.78-18.01"/></g><path class="cls-1" d="M24.79,63.21c1.4,12.74,10.88,18.43,16.71,23.62s12.97,13.1,16.89,23.68c3.35,9.06,3.76,17.28,1.92,25.09"/></svg>