<?xml version="1.0" encoding="UTF-8"?><svg id="Layer_1" xmlns="http://www.w3.org/2000/svg" viewBox="0 0 221.95 475.79"><defs><style>.cls-1{fill:#010101;}</style></defs><path class="cls-1" d="M215.56,365.43l-3.16-47.66c-.47-7.14-1.33-14.25-2.55-21.29-.75-4.3-1.77-8.54-3.03-12.72l-5.41-17.92h-.04c-.04-.14-.1-.28-.15-.42-3.54-31.75-7.12-57.76-9.83-75.97,4.82-5.88,9.78-11.59,13.2-17.35-7.25-10.45-8.1-17.14-32.89-29.05-.09-6.39,1.98-13.48,4.91-25.47,3.04-12.46-2.29-21.09-7.04-26.01-5.84-6.04-9.65-15.25-10.85-23.56h0s8.94-38.42-20.15-57.63c0,0-11.24-9.95-26.5-10.37h-.1c-15.26,.43-26.5,10.37-26.5,10.37-20.97,13.85-22.18,37.69-21.22,49.91v.02c.15,1.85,.34,3.43,.52,4.67-.05,1.01,.05,2.18,.39,3.56,.01,.05,.03,.1,.04,.15-1.3,8.13-5.05,17-10.73,22.88-4.75,4.92-10.09,13.56-7.04,26.01,3.07,12.57,5.2,19.76,4.88,26.41-2.55,.27-4.99,.84-6.9,1.85-19.77,10.42-22.77,18.99-28.71,30.53,2.15,6.02,7.76,9.73,13.67,14.62-2.69,18.12-6.17,43.56-9.6,74.43-.05,.14-.1,.28-.15,.42h-.04l-5.41,17.91c-1.26,4.18-2.28,8.42-3.03,12.72-1.23,7.04-2.08,14.15-2.55,21.29l-3.16,47.66c-.05,.28-.09,.57-.12,.86-3.49,10.21-5.87,22.46-6.28,34.84l9.26,21.67c.69,1.96,1.23,3.17,1.34,3.14,6.77,4.4,15.16,6.49,22,6.79-1.03,14.21-2.04,28.94-2.97,43.06H199.56c-1.75-14.18-3.65-29.1-5.52-43.52,5.75-.86,12.02-2.89,17.31-6.33,.11,.03,.65-1.18,1.34-3.14l9.26-21.67c-.4-12.38-2.78-24.63-6.28-34.84-.03-.29-.07-.58-.12-.86ZM23.1,398.29c3.19,3.04,2.72,4.95,3.08,9.11-1.58-1.29-4.25-.97-7.18-.69,.62-3.14,2.01-5.94,4.1-8.42Zm-4.35,14.66c-.01-.11-.03-.22-.04-.34,2.97-.13,5.75-.58,8.05-1.21,.02,.09,.03,.17,.05,.26,.12,.56,.26,1.07,.4,1.57-2.48-.18-5.49,.09-8.47-.29Zm14.36,12.91c-.09-.05-.19-.09-.29-.13,.1,0,.2,0,.3,0v.14Zm26.36-138.57c-.52,3.42-2.59,7.73-4.09,10.23-1.54,2.56-3.06,5.09-4.54,7.64-3.5,5.39-6.27,10.91-8.57,16.85-3.24,7.73-5.82,16.44-7.25,27.19,.43,.29,.89,.57,1.36,.84,1.05,.62,2.21,1.21,3.43,1.78-1.1,5.66-2.82,24.04-4.69,47.58-.02-.09-.03-.14-.03-.14-2.98-11.36-.88-23.44-10.53-33.32h0c0-.07,0-.13-.02-.19-.08-.52-.21-1.02-.37-1.51,.62-3.07,2.89-13.66,7-25.83,8.16-24.15,20.5-57.8,16.34-68.84h0c.68-3.51,1.38-6.98,2.08-10.39,.39,6.94,1.27,13.2,3.44,18.13,1.46,3.59,3.55,6.5,6.59,8.47-.04,.52-.08,1.02-.13,1.5Zm143.48,119.43c-2.93-.28-5.61-.61-7.18,.69,.36-4.16-.1-6.07,3.08-9.11,2.09,2.48,3.48,5.28,4.1,8.42Zm-14.47-16.69c-2.7-20.2-4.76-35.16-5.33-38.78v-.02c1.81-.89,3.42-1.83,4.75-2.83-.16-.83-.35-1.69-.55-2.56-.09-.38-.19-.77-.29-1.16-.1-.39-.2-.77-.31-1.17-3.96-14.65-13.32-32.33-21.39-45.5-.79-1.3-1.34-2.92-1.72-4.63-.07-.69-.14-1.47-.23-2.32-.1-1.2-.21-2.52-.3-3.94,7.4-3.25,9.68-11.38,10.44-22.13,.3,1.52,.6,3.04,.9,4.58h0c-4.16,11.05,8.18,44.7,16.34,68.84,4.11,12.17,6.38,22.75,7,25.83-.16,.49-.29,.99-.37,1.51,0,.06,0,.12-.02,.18h0c-7.06,7.25-7.83,15.65-8.91,24.1Zm14.72,22.92c-2.98,.38-5.99,.1-8.47,.29,.14-.5,.28-1.01,.4-1.57,.02-.09,.03-.17,.05-.26,2.3,.63,5.09,1.08,8.05,1.21,0,.11-.02,.22-.04,.34Z"/></svg>