<?xml version="1.0" encoding="UTF-8"?><svg id="Layer_1" xmlns="http://www.w3.org/2000/svg" viewBox="0 0 107.48 170.95"><defs><style>.cls-1{fill:none;stroke:#231f20;stroke-linecap:round;stroke-miterlimit:10;stroke-width:1.5px;}.cls-2{fill:#fff;}.cls-3{fill:#e75fa0;}.cls-4{fill:#939598;}.cls-5{fill:#d2d3d4;}.cls-6{fill:#e10e79;}.cls-7{fill:#a8a9ac;}.cls-8{fill:#231f20;}.cls-9{fill:#6e6f72;}.cls-10{fill:#595a5c;}</style></defs><g><g><path class="cls-9" d="M107.48,100.94v-18c-3.87-.64-11.98-1.99-14.24-2.37-.85-2.96-2.03-5.81-3.53-8.52,2.28-3.18,7.06-9.87,8.4-11.75-1.54-1.55-11.18-11.18-12.73-12.73-3.19,2.28-9.88,7.06-11.75,8.4-2.7-1.49-5.55-2.68-8.51-3.53-.64-3.87-2-11.98-2.38-14.24h-18c-.64,3.88-2,11.98-2.37,14.24-2.96,.85-5.81,2.03-8.52,3.53-3.18-2.27-9.87-7.05-11.75-8.4l-3.28,3.28c-3.45,3.45-8.37,8.38-9.45,9.45,2.28,3.18,7.06,9.87,8.4,11.75-1.5,2.71-2.68,5.55-3.53,8.52-3.88,.64-11.99,1.99-14.24,2.37v18c3.88,.65,11.98,2,14.24,2.38,.85,2.96,2.03,5.8,3.53,8.51-2.28,3.18-7.05,9.88-8.4,11.75,1.54,1.55,11.18,11.18,12.73,12.73,3.18-2.27,9.87-7.05,11.75-8.39,2.71,1.49,5.55,2.67,8.52,3.53,.11,.63,.23,1.38,.36,2.2,.56,3.32,1.3,7.8,1.74,10.44,.55,.34,1.2,.52,1.9,.52h1.09c.17,.38,.38,.74,.61,1.07h11.12c.23-.34,.44-.7,.61-1.07h1.3c.7,0,1.34-.19,1.89-.52,.52-3.14,1.26-7.58,1.74-10.42,.16-.95,.29-1.73,.37-2.22,2.96-.85,5.8-2.03,8.51-3.53,3.18,2.27,9.88,7.05,11.75,8.39l12.73-12.73c-2.28-3.18-7.05-9.88-8.4-11.75,1.5-2.7,2.68-5.55,3.53-8.51,3.88-.64,11.98-2,14.24-2.38Z"/><path class="cls-10" d="M15.37,54.31c-3.45,3.45-4.92,4.92-6,6,2.28,3.18,7.06,9.87,8.4,11.75-1.5,2.71-2.68,5.55-3.53,8.52-3.88,.64-11.99,1.99-14.24,2.37v18c3.88,.65,11.98,2,14.24,2.38,.85,2.96,2.03,5.8,3.53,8.51-2.28,3.18-7.05,9.88-8.4,11.75,1.54,1.55,11.18,11.18,12.73,12.73,3.18-2.27,9.87-7.05,11.75-8.39,2.71,1.49,5.55,2.67,8.52,3.53,.11,.63,.23,1.38,.36,2.2,.56,3.32,1.3,7.8,1.74,10.44,.55,.34,1.2,.52,1.9,.52h1.09c.17,.38,.38,.74,.61,1.07h11.12c.23-.34,.44-.7,.61-1.07h1.3c.7,0,1.34-.19,1.89-.52,.52-3.14,1.26-7.58,1.74-10.42,.16-.95,.29-1.73,.37-2.22,2.96-.85,5.8-2.03,8.51-3.53,3.18,2.27,9.88,7.05,11.75,8.39l5.88-5.88"/></g><g><path class="cls-2" d="M65.3,80.12l-6.39-12.07-5.3-9.94-5.27,9.96-6.39,12.07,23.35-.02Z"/><polygon class="cls-5" points="53.67 80.13 65.3 80.12 58.91 68.05 53.67 58.22 53.67 80.13"/><path class="cls-8" d="M48.37,68.05l5.27-9.96,5.3,9.94-10.57,.02Z"/><polygon class="cls-6" points="42.04 134.85 42.04 80.06 65.3 80.12 65.3 134.92 42.04 134.85"/><polygon class="cls-6" points="42.04 134.85 42.04 80.06 65.3 80.12 65.3 134.92 42.04 134.85"/><polygon class="cls-3" points="42.04 134.85 42.04 80.06 53.63 80.12 53.63 134.92 42.04 134.85"/><path class="cls-7" d="M65.31,134.93h-23.34l.02,10.23c0,2.27,1.84,4.11,4.11,4.11h15.1c2.27,0,4.12-1.84,4.11-4.12v-10.22Z"/><path class="cls-4" d="M53.67,134.93h11.65v10.22c0,2.27-1.83,4.12-4.11,4.12h-7.52v-14.33Z"/><line class="cls-1" x1="41.97" y1="129.67" x2="65.53" y2="129.67"/><line class="cls-1" x1="41.97" y1="125.87" x2="65.53" y2="125.87"/></g></g><path class="cls-2" d="M89.38,32.49v-2.42c-.52-.09-1.61-.27-1.91-.32-.11-.4-.27-.78-.47-1.14,.31-.43,.95-1.33,1.13-1.58-.21-.21-1.5-1.5-1.71-1.71-.43,.31-1.33,.95-1.58,1.13-.36-.2-.75-.36-1.14-.47-.09-.52-.27-1.61-.32-1.91h-2.42c-.09,.52-.27,1.61-.32,1.91-.4,.11-.78,.27-1.14,.47-.43-.3-1.33-.95-1.58-1.13-.06,.06-.23,.23-.44,.44-.46,.46-1.13,1.13-1.27,1.27,.31,.43,.95,1.33,1.13,1.58-.2,.36-.36,.75-.47,1.14-.52,.09-1.61,.27-1.91,.32v2.42c.52,.09,1.61,.27,1.91,.32,.11,.4,.27,.78,.47,1.14-.31,.43-.95,1.33-1.13,1.58,.21,.21,1.5,1.5,1.71,1.71,.43-.31,1.33-.95,1.58-1.13,.36,.2,.75,.36,1.14,.47,.01,.08,.03,.19,.05,.3,.07,.45,.18,1.05,.23,1.4h0c.01,.09,.03,.16,.04,.21h2.42c.08-.49,.25-1.48,.31-1.85,0-.02,0-.05,.01-.07,.4-.11,.78-.27,1.14-.47,.43,.31,1.33,.95,1.58,1.13l1.71-1.71c-.31-.43-.95-1.33-1.13-1.58,.2-.36,.36-.75,.47-1.14,.52-.09,1.61-.27,1.91-.32Zm-6.76,1.32s-.05,.01-.08,.01c-.13,.02-.27,.03-.41,.03-.16,0-.31-.01-.46-.04-.07-.01-.13-.03-.2-.05-1.06-.29-1.84-1.25-1.84-2.4,0-.14,.01-.27,.03-.41,.05-.3,.15-.58,.3-.83,.37-.64,1.02-1.11,1.78-1.22h.11l.05-.02c.06,0,.12,0,.18,0,.02,0,.03,0,.05,0h0s.04,0,.05,0c1.35,.03,2.43,1.14,2.43,2.49,0,1.21-.86,2.22-2,2.44Z"/><path class="cls-2" d="M46.78,8.43v-2.42c-.52-.09-1.61-.27-1.91-.32-.11-.4-.27-.78-.47-1.14,.31-.43,.95-1.33,1.13-1.58-.21-.21-1.5-1.5-1.71-1.71-.43,.31-1.33,.95-1.58,1.13-.36-.2-.75-.36-1.14-.47-.09-.52-.27-1.61-.32-1.91h-2.42c-.09,.52-.27,1.61-.32,1.91-.4,.11-.78,.27-1.14,.47-.43-.3-1.33-.95-1.58-1.13-.06,.06-.23,.23-.44,.44-.46,.46-1.13,1.13-1.27,1.27,.31,.43,.95,1.33,1.13,1.58-.2,.36-.36,.75-.47,1.14-.52,.09-1.61,.27-1.91,.32v2.42c.52,.09,1.61,.27,1.91,.32,.11,.4,.27,.78,.47,1.14-.31,.43-.95,1.33-1.13,1.58,.21,.21,1.5,1.5,1.71,1.71,.43-.31,1.33-.95,1.58-1.13,.36,.2,.75,.36,1.14,.47,.01,.08,.03,.19,.05,.3,.07,.45,.18,1.05,.23,1.4h0c.01,.09,.03,.16,.04,.21h2.42c.08-.49,.25-1.48,.31-1.85,0-.02,0-.05,.01-.07,.4-.11,.78-.27,1.14-.47,.43,.31,1.33,.95,1.58,1.13l1.71-1.71c-.31-.43-.95-1.33-1.13-1.58,.2-.36,.36-.75,.47-1.14,.52-.09,1.61-.27,1.91-.32Zm-6.76,1.32s-.05,.01-.08,.01c-.13,.02-.27,.03-.41,.03-.16,0-.31-.01-.46-.04-.07-.01-.13-.03-.2-.05-1.06-.29-1.84-1.25-1.84-2.4,0-.14,.01-.27,.03-.41,.05-.3,.15-.58,.3-.83,.37-.64,1.02-1.11,1.78-1.22h.11l.05-.02c.06,0,.12,0,.18,0,.02,0,.03,0,.05,0h0s.04,0,.05,0c1.35,.03,2.43,1.14,2.43,2.49,0,1.21-.86,2.22-2,2.44Z"/><path class="cls-2" d="M34.39,164.94v-2.42c-.52-.09-1.61-.27-1.91-.32-.11-.4-.27-.78-.47-1.14,.31-.43,.95-1.33,1.13-1.58-.21-.21-1.5-1.5-1.71-1.71-.43,.31-1.33,.95-1.58,1.13-.36-.2-.75-.36-1.14-.47-.09-.52-.27-1.61-.32-1.91h-2.42c-.09,.52-.27,1.61-.32,1.91-.4,.11-.78,.27-1.14,.47-.43-.3-1.33-.95-1.58-1.13-.06,.06-.23,.23-.44,.44-.46,.46-1.13,1.13-1.27,1.27,.31,.43,.95,1.33,1.13,1.58-.2,.36-.36,.75-.47,1.14-.52,.09-1.61,.27-1.91,.32v2.42c.52,.09,1.61,.27,1.91,.32,.11,.4,.27,.78,.47,1.14-.31,.43-.95,1.33-1.13,1.58,.21,.21,1.5,1.5,1.71,1.71,.43-.31,1.33-.95,1.58-1.13,.36,.2,.75,.36,1.14,.47,.01,.08,.03,.19,.05,.3,.07,.45,.18,1.05,.23,1.4h0c.01,.09,.03,.16,.04,.21h2.42c.08-.49,.25-1.48,.31-1.85,0-.02,0-.05,.01-.07,.4-.11,.78-.27,1.14-.47,.43,.31,1.33,.95,1.58,1.13l1.71-1.71c-.31-.43-.95-1.33-1.13-1.58,.2-.36,.36-.75,.47-1.14,.52-.09,1.61-.27,1.91-.32Zm-6.76,1.32s-.05,.01-.08,.01c-.13,.02-.27,.03-.41,.03-.16,0-.31-.01-.46-.04-.07-.01-.13-.03-.2-.05-1.06-.29-1.84-1.25-1.84-2.4,0-.14,.01-.27,.03-.41,.05-.3,.15-.58,.3-.83,.37-.64,1.02-1.11,1.78-1.22h.11l.05-.02c.06,0,.12,0,.18,0,.02,0,.03,0,.05,0h0s.04,0,.05,0c1.35,.03,2.43,1.14,2.43,2.49,0,1.21-.86,2.22-2,2.44Z"/></svg>