<svg xmlns="http://www.w3.org/2000/svg" viewBox="0 0 335 39"><defs><style>.cls-1{fill:#a31f34;}.cls-2{fill:#fff;}</style></defs><title>Choose 3b</title><g id="Layer_2" data-name="Layer 2"><g id="Layer_1-2" data-name="Layer 1"><rect class="cls-1" width="335" height="39" rx="19.5"/><path class="cls-2" d="M98.18,16.41a3.08,3.08,0,0,0-2.65,1.29,5.93,5.93,0,0,0-.94,3.58q0,4.77,3.59,4.77a11.38,11.38,0,0,0,3.64-.75v2.54a10.08,10.08,0,0,1-3.93.73,6,6,0,0,1-4.76-1.89,8,8,0,0,1-1.65-5.42,8.9,8.9,0,0,1,.81-3.91,5.8,5.8,0,0,1,2.33-2.56,6.82,6.82,0,0,1,3.56-.9,9.65,9.65,0,0,1,4.18,1l-1,2.46a15.59,15.59,0,0,0-1.61-.66A4.78,4.78,0,0,0,98.18,16.41Z"/><path class="cls-2" d="M116.62,28.38h-3V22.21H108v6.17h-3V14.1h3v5.59h5.65V14.1h3Z"/><path class="cls-2" d="M133.29,21.22a7.77,7.77,0,0,1-1.76,5.45,7.63,7.63,0,0,1-10.08,0,7.8,7.8,0,0,1-1.76-5.47,7.67,7.67,0,0,1,1.77-5.45,6.59,6.59,0,0,1,5.05-1.88,6.47,6.47,0,0,1,5,1.9A7.73,7.73,0,0,1,133.29,21.22Zm-10.42,0a5.94,5.94,0,0,0,.91,3.6A3.16,3.16,0,0,0,126.49,26c2.42,0,3.62-1.6,3.62-4.81s-1.2-4.83-3.6-4.83a3.2,3.2,0,0,0-2.72,1.22A5.88,5.88,0,0,0,122.87,21.22Z"/><path class="cls-2" d="M149.35,21.22a7.77,7.77,0,0,1-1.76,5.45,7.63,7.63,0,0,1-10.08,0,7.8,7.8,0,0,1-1.76-5.47,7.71,7.71,0,0,1,1.76-5.45,6.62,6.62,0,0,1,5.06-1.88,6.47,6.47,0,0,1,5,1.9A7.78,7.78,0,0,1,149.35,21.22Zm-10.42,0a6,6,0,0,0,.9,3.6A3.18,3.18,0,0,0,142.55,26q3.62,0,3.62-4.81t-3.6-4.83a3.22,3.22,0,0,0-2.73,1.22A6,6,0,0,0,138.93,21.22Z"/><path class="cls-2" d="M160.85,24.41a3.73,3.73,0,0,1-1.39,3.05,6.07,6.07,0,0,1-3.88,1.11,9.13,9.13,0,0,1-4-.86V24.9a16.91,16.91,0,0,0,2.45.91,7.46,7.46,0,0,0,1.83.26,2.66,2.66,0,0,0,1.53-.38,1.3,1.3,0,0,0,.53-1.13,1.24,1.24,0,0,0-.24-.75,2.46,2.46,0,0,0-.68-.63,20.64,20.64,0,0,0-1.85-1,8.67,8.67,0,0,1-2-1.18,4.57,4.57,0,0,1-1-1.32,3.73,3.73,0,0,1-.39-1.75A3.7,3.7,0,0,1,153,15a5.31,5.31,0,0,1,3.55-1.09,8.29,8.29,0,0,1,2.13.27,14.08,14.08,0,0,1,2.11.74l-1,2.35a13.83,13.83,0,0,0-1.89-.65,5.7,5.7,0,0,0-1.47-.19,2,2,0,0,0-1.31.4,1.32,1.32,0,0,0-.46,1.05,1.35,1.35,0,0,0,.18.7,2.15,2.15,0,0,0,.59.57,17.09,17.09,0,0,0,1.92,1,7.71,7.71,0,0,1,2.75,1.92A3.78,3.78,0,0,1,160.85,24.41Z"/><path class="cls-2" d="M171.9,28.38h-8.23V14.1h8.23v2.48h-5.2v3.13h4.84v2.48H166.7v3.69h5.2Z"/><path class="cls-2" d="M189.21,28.38l-1-3.4H183l-1,3.4h-3.27l5-14.34h3.7l5.06,14.34Zm-1.76-5.94q-1.42-4.62-1.61-5.23c-.12-.4-.21-.72-.26-.95-.22.83-.83,2.89-1.85,6.18Z"/><path class="cls-2" d="M199.56,20.36h5.67v7.4a15.91,15.91,0,0,1-2.59.63,17,17,0,0,1-2.49.18,6.3,6.3,0,0,1-4.94-1.9,7.93,7.93,0,0,1-1.7-5.45,7.18,7.18,0,0,1,2-5.39A7.5,7.5,0,0,1,201,13.89a10.7,10.7,0,0,1,4.24.88l-1,2.42a7.17,7.17,0,0,0-3.25-.78,4,4,0,0,0-3.14,1.32,5.11,5.11,0,0,0-1.18,3.55,5.69,5.69,0,0,0,1,3.55,3.31,3.31,0,0,0,2.77,1.22,9.76,9.76,0,0,0,1.92-.19v-3h-2.71Z"/><path class="cls-2" d="M217.82,28.38l-1-3.4h-5.2l-1,3.4h-3.26l5-14.34H216l5.06,14.34Zm-1.76-5.94c-1-3.08-1.49-4.82-1.61-5.23s-.21-.72-.26-.95c-.22.83-.83,2.89-1.85,6.18Z"/><path class="cls-2" d="M223.29,28.38V14.1h3V28.38Z"/><path class="cls-2" d="M242.67,28.38h-3.85l-6.21-10.81h-.09c.12,1.91.19,3.27.19,4.09v6.72H230V14.1h3.82L240,24.79h.07c-.1-1.85-.15-3.17-.15-3.93V14.1h2.73Z"/></g></g></svg>