<svg xmlns="http://www.w3.org/2000/svg" viewBox="0 0 259.31 39"><defs><style>.cls-1{fill:#a31f34;}.cls-2{fill:#fff;}</style></defs><title>M Choose b</title><g id="Layer_2" data-name="Layer 2"><g id="Layer_1-2" data-name="Layer 1"><path class="cls-1" d="M19.5,38.75a19.25,19.25,0,0,1,0-38.5H239.81a19.25,19.25,0,0,1,0,38.5Z"/><path class="cls-1" d="M239.81.5a19,19,0,0,1,0,38H19.5a19,19,0,0,1,0-38H239.81m0-.5H19.5A19.5,19.5,0,0,0,0,19.5H0A19.5,19.5,0,0,0,19.5,39H239.81a19.51,19.51,0,0,0,19.5-19.5h0A19.51,19.51,0,0,0,239.81,0Z"/><path class="cls-2" d="M63.78,15a2.93,2.93,0,0,0-2.51,1.22,5.65,5.65,0,0,0-.89,3.4q0,4.54,3.4,4.54a10.9,10.9,0,0,0,3.46-.71v2.41a9.68,9.68,0,0,1-3.73.69A5.69,5.69,0,0,1,59,24.76a7.62,7.62,0,0,1-1.56-5.15,8.34,8.34,0,0,1,.77-3.71,5.58,5.58,0,0,1,2.21-2.44,6.5,6.5,0,0,1,3.38-.85,9.08,9.08,0,0,1,4,1l-.93,2.33a14.48,14.48,0,0,0-1.53-.63A4.55,4.55,0,0,0,63.78,15Z"/><path class="cls-2" d="M81.31,26.37H78.44V20.52H73.07v5.85H70.19V12.81h2.88v5.31h5.37V12.81h2.87Z"/><path class="cls-2" d="M97.15,19.57a7.4,7.4,0,0,1-1.67,5.18,7.27,7.27,0,0,1-9.58,0,7.42,7.42,0,0,1-1.67-5.2,7.26,7.26,0,0,1,1.68-5.17,6.25,6.25,0,0,1,4.8-1.79,6.17,6.17,0,0,1,4.78,1.8A7.36,7.36,0,0,1,97.15,19.57Zm-9.9,0A5.69,5.69,0,0,0,88.11,23a3,3,0,0,0,2.58,1.15q3.44,0,3.44-4.57C94.13,16.51,93,15,90.71,15a3,3,0,0,0-2.59,1.15A5.65,5.65,0,0,0,87.25,19.57Z"/><path class="cls-2" d="M112.41,19.57a7.4,7.4,0,0,1-1.67,5.18,7.27,7.27,0,0,1-9.58,0,7.42,7.42,0,0,1-1.67-5.2,7.26,7.26,0,0,1,1.68-5.17,6.28,6.28,0,0,1,4.8-1.79,6.17,6.17,0,0,1,4.78,1.8A7.36,7.36,0,0,1,112.41,19.57Zm-9.9,0a5.69,5.69,0,0,0,.86,3.42A3,3,0,0,0,106,24.14c2.3,0,3.44-1.52,3.44-4.57S108.25,15,106,15a3,3,0,0,0-2.59,1.15A5.65,5.65,0,0,0,102.51,19.57Z"/><path class="cls-2" d="M123.34,22.6A3.52,3.52,0,0,1,122,25.5a5.78,5.78,0,0,1-3.68,1.05,8.67,8.67,0,0,1-3.84-.81V23.07a17.59,17.59,0,0,0,2.32.86,6.82,6.82,0,0,0,1.74.25,2.52,2.52,0,0,0,1.46-.36,1.25,1.25,0,0,0,.5-1.08,1.19,1.19,0,0,0-.22-.71,2.61,2.61,0,0,0-.66-.6,16.79,16.79,0,0,0-1.75-.91A8.44,8.44,0,0,1,116,19.39a4.28,4.28,0,0,1-1-1.25,3.54,3.54,0,0,1-.37-1.67,3.49,3.49,0,0,1,1.22-2.83,5,5,0,0,1,3.37-1,7.87,7.87,0,0,1,2,.25,13.52,13.52,0,0,1,2,.71l-.93,2.23a15,15,0,0,0-1.8-.62,5.58,5.58,0,0,0-1.39-.18,1.85,1.85,0,0,0-1.25.38,1.25,1.25,0,0,0-.44,1,1.21,1.21,0,0,0,.18.66,1.83,1.83,0,0,0,.56.55,18.15,18.15,0,0,0,1.82.95,7.29,7.29,0,0,1,2.61,1.82A3.56,3.56,0,0,1,123.34,22.6Z"/><path class="cls-2" d="M133.84,26.37H126V12.81h7.81v2.35h-4.93v3h4.59V20.5h-4.59V24h4.93Z"/><path class="cls-2" d="M150.29,26.37l-1-3.23h-4.95l-1,3.23h-3.1l4.79-13.62h3.51l4.81,13.62Zm-1.67-5.64q-1.37-4.39-1.53-5c-.12-.39-.2-.69-.25-.91-.2.79-.79,2.75-1.75,5.87Z"/><path class="cls-2" d="M160.13,18.75h5.39v7a14.46,14.46,0,0,1-2.47.6,15.34,15.34,0,0,1-2.36.17,6,6,0,0,1-4.69-1.8,7.5,7.5,0,0,1-1.62-5.18,6.83,6.83,0,0,1,1.88-5.12,7.11,7.11,0,0,1,5.21-1.84,10.08,10.08,0,0,1,4,.84l-1,2.3a6.77,6.77,0,0,0-3.09-.75,3.82,3.82,0,0,0-3,1.26,4.87,4.87,0,0,0-1.12,3.36,5.38,5.38,0,0,0,.91,3.38,3.14,3.14,0,0,0,2.63,1.16A9.44,9.44,0,0,0,162.7,24V21.15h-2.57Z"/><path class="cls-2" d="M177.48,26.37l-1-3.23h-4.95l-1,3.23h-3.1l4.79-13.62h3.51l4.81,13.62Zm-1.67-5.64q-1.37-4.39-1.53-5c-.12-.39-.2-.69-.25-.91-.2.79-.79,2.75-1.75,5.87Z"/><path class="cls-2" d="M182.68,26.37V12.81h2.88V26.37Z"/><path class="cls-2" d="M201.1,26.37h-3.66l-5.9-10.26h-.08c.12,1.81.17,3.1.17,3.88v6.38h-2.57V12.81h3.63L198.58,23h.07c-.1-1.76-.14-3-.14-3.73V12.81h2.59Z"/></g></g></svg>