<svg xmlns="http://www.w3.org/2000/svg" viewBox="0 0 259.31 39"><defs><style>.cls-1{fill:#a31f34;}.cls-2{fill:#fff;}</style></defs><title>M Overview b</title><g id="Layer_2" data-name="Layer 2"><g id="Layer_1-2" data-name="Layer 1"><path class="cls-1" d="M19.5,38.75a19.25,19.25,0,0,1,0-38.5H239.81a19.25,19.25,0,0,1,0,38.5Z"/><path class="cls-1" d="M239.81.5a19,19,0,0,1,0,38H19.5a19,19,0,0,1,0-38H239.81m0-.5H19.5A19.5,19.5,0,0,0,0,19.5H0A19.5,19.5,0,0,0,19.5,39H239.81a19.51,19.51,0,0,0,19.5-19.5h0A19.51,19.51,0,0,0,239.81,0Z"/><path class="cls-2" d="M93.55,19.57a7.4,7.4,0,0,1-1.67,5.18,7.26,7.26,0,0,1-9.57,0,7.37,7.37,0,0,1-1.67-5.2,7.26,7.26,0,0,1,1.67-5.17,6.28,6.28,0,0,1,4.8-1.79,6.17,6.17,0,0,1,4.78,1.8A7.36,7.36,0,0,1,93.55,19.57Zm-9.9,0A5.69,5.69,0,0,0,84.51,23a3,3,0,0,0,2.58,1.15c2.3,0,3.44-1.52,3.44-4.57S89.39,15,87.11,15a3,3,0,0,0-2.59,1.15A5.65,5.65,0,0,0,83.65,19.57Z"/><path class="cls-2" d="M104,12.81h2.9l-4.61,13.56H99.17l-4.6-13.56h2.91L100,20.88c.14.47.29,1,.44,1.66s.24,1.08.28,1.32a23.84,23.84,0,0,1,.7-3Z"/><path class="cls-2" d="M116.84,26.37H109V12.81h7.82v2.35H111.9v3h4.59V20.5H111.9V24h4.94Z"/><path class="cls-2" d="M122.76,21.16v5.21h-2.87V12.81h4a6.79,6.79,0,0,1,4.09,1,3.61,3.61,0,0,1,1.33,3.06A3.59,3.59,0,0,1,128.6,19a4.34,4.34,0,0,1-1.87,1.46q3.06,4.58,4,5.91h-3.19l-3.24-5.21Zm0-2.33h.93a3.47,3.47,0,0,0,2-.46,1.6,1.6,0,0,0,.65-1.43,1.48,1.48,0,0,0-.66-1.37,4.06,4.06,0,0,0-2.06-.41h-.87Z"/><path class="cls-2" d="M140.21,12.81h2.9L138.5,26.37h-3.14l-4.6-13.56h2.91l2.55,8.07c.14.47.29,1,.44,1.66s.24,1.08.28,1.32a23.84,23.84,0,0,1,.7-3Z"/><path class="cls-2" d="M145.22,26.37V12.81h2.87V26.37Z"/><path class="cls-2" d="M159.41,26.37h-7.82V12.81h7.82v2.35h-4.94v3h4.59V20.5h-4.59V24h4.94Z"/><path class="cls-2" d="M176.13,26.37h-3.27L171,19.24c-.07-.25-.18-.77-.35-1.57s-.26-1.33-.28-1.6c0,.33-.13.87-.28,1.61s-.26,1.27-.34,1.58l-1.83,7.11h-3.26l-3.47-13.56H164l1.74,7.4c.3,1.37.52,2.55.66,3.55,0-.35.12-.9.25-1.64s.26-1.31.38-1.72l2-7.59h2.72l2,7.59c.09.34.19.86.32,1.56s.23,1.3.3,1.8q.09-.72.3-1.8c.13-.72.26-1.31.37-1.75l1.72-7.4h2.83Z"/></g></g></svg>