<svg xmlns="http://www.w3.org/2000/svg" viewBox="0 0 335 39"><defs><style>.cls-1{fill:#a31f34;}.cls-2{fill:#fff;}</style></defs><title>Overview 1b</title><g id="Layer_2" data-name="Layer 2"><g id="Layer_1-2" data-name="Layer 1"><rect class="cls-1" width="335" height="39" rx="19.5"/><path class="cls-2" d="M129.5,21.22a7.76,7.76,0,0,1-1.75,5.45,7.63,7.63,0,0,1-10.08,0,7.8,7.8,0,0,1-1.76-5.47,7.71,7.71,0,0,1,1.76-5.45,6.62,6.62,0,0,1,5.06-1.88,6.47,6.47,0,0,1,5,1.9A7.77,7.77,0,0,1,129.5,21.22Zm-10.42,0a6,6,0,0,0,.91,3.6A3.18,3.18,0,0,0,122.71,26q3.62,0,3.62-4.81t-3.6-4.83A3.2,3.2,0,0,0,120,17.61,6,6,0,0,0,119.08,21.22Z"/><path class="cls-2" d="M140.52,14.1h3l-4.85,14.28h-3.3L130.58,14.1h3l2.69,8.49c.15.51.3,1.09.46,1.76s.26,1.13.3,1.39a24.08,24.08,0,0,1,.73-3.15Z"/><path class="cls-2" d="M154,28.38h-8.23V14.1H154v2.48h-5.2v3.13h4.84v2.48h-4.84v3.69H154Z"/><path class="cls-2" d="M160.24,22.9v5.48h-3V14.1h4.16a7.1,7.1,0,0,1,4.31,1.06,3.78,3.78,0,0,1,1.39,3.22,3.83,3.83,0,0,1-.69,2.24,4.61,4.61,0,0,1-2,1.53q3.22,4.82,4.2,6.23h-3.36l-3.41-5.48Zm0-2.46h1a3.7,3.7,0,0,0,2.11-.48,1.71,1.71,0,0,0,.69-1.51,1.55,1.55,0,0,0-.7-1.44,4.21,4.21,0,0,0-2.16-.43h-.92Z"/><path class="cls-2" d="M178.6,14.1h3.05L176.8,28.38h-3.3L168.66,14.1h3.05l2.69,8.49c.15.51.3,1.09.46,1.76s.26,1.13.3,1.39a25.92,25.92,0,0,1,.73-3.15Z"/><path class="cls-2" d="M183.86,28.38V14.1h3V28.38Z"/><path class="cls-2" d="M198.8,28.38h-8.23V14.1h8.23v2.48h-5.2v3.13h4.83v2.48H193.6v3.69h5.2Z"/><path class="cls-2" d="M216.4,28.38H213L211,20.88c-.08-.27-.2-.82-.37-1.66s-.27-1.4-.3-1.68c0,.35-.13.91-.29,1.69s-.28,1.33-.36,1.66l-1.93,7.49h-3.43L200.69,14.1h3l1.83,7.79c.32,1.44.55,2.69.69,3.74,0-.37.13-.94.27-1.72a17.09,17.09,0,0,1,.4-1.81l2.08-8h2.86l2.08,8c.09.35.2.9.34,1.64s.24,1.36.31,1.89c.07-.51.17-1.14.31-1.9s.28-1.37.39-1.84l1.82-7.79h3Z"/></g></g></svg>