<svg xmlns="http://www.w3.org/2000/svg" viewBox="0 0 335 39"><defs><style>.cls-1{fill:#a31f34;}</style></defs><title>start 1 long</title><g id="Layer_2" data-name="Layer 2"><g id="Layer_1-2" data-name="Layer 1"><path class="cls-1" d="M315.5.5a19,19,0,0,1,0,38H19.5a19,19,0,0,1,0-38h296m0-.5H19.5a19.5,19.5,0,0,0,0,39h296a19.5,19.5,0,0,0,0-39Z"/><path class="cls-1" d="M146.79,24.4a3.69,3.69,0,0,1-1.4,3.05,6,6,0,0,1-3.87,1.11,9.12,9.12,0,0,1-4-.85V24.89a16.91,16.91,0,0,0,2.45.91,7,7,0,0,0,1.83.26,2.53,2.53,0,0,0,1.52-.38,1.29,1.29,0,0,0,.54-1.13,1.24,1.24,0,0,0-.24-.75,2.69,2.69,0,0,0-.69-.63,17.7,17.7,0,0,0-1.85-1,9.19,9.19,0,0,1-2-1.18,4.41,4.41,0,0,1-1-1.32,3.78,3.78,0,0,1-.4-1.76,3.69,3.69,0,0,1,1.29-3,5.36,5.36,0,0,1,3.55-1.08,8.16,8.16,0,0,1,2.12.26,15,15,0,0,1,2.12.74l-1,2.36a14.09,14.09,0,0,0-1.89-.66,6.29,6.29,0,0,0-1.47-.18,2,2,0,0,0-1.32.4,1.4,1.4,0,0,0-.27,1.74,2,2,0,0,0,.59.58,19.07,19.07,0,0,0,1.92,1A7.53,7.53,0,0,1,146,22.05,3.69,3.69,0,0,1,146.79,24.4Z"/><path class="cls-1" d="M155.56,28.37h-3V16.61h-3.87V14.09h10.78v2.52h-3.88Z"/><path class="cls-1" d="M169.53,28.37l-1-3.4h-5.2l-1,3.4H159L164,14h3.7l5.06,14.34Zm-1.76-5.94c-1-3.08-1.49-4.82-1.61-5.22s-.21-.73-.26-1c-.22.83-.83,2.89-1.85,6.18Z"/><path class="cls-1" d="M178,22.89v5.48h-3V14.09h4.16a7.1,7.1,0,0,1,4.31,1.06,3.79,3.79,0,0,1,1.4,3.22,3.8,3.8,0,0,1-.7,2.24,4.57,4.57,0,0,1-2,1.54q3.22,4.82,4.2,6.22h-3.36l-3.41-5.48Zm0-2.46h1a3.76,3.76,0,0,0,2.12-.48,1.72,1.72,0,0,0,.68-1.5,1.56,1.56,0,0,0-.7-1.45,4.29,4.29,0,0,0-2.16-.43H178Z"/><path class="cls-1" d="M194,28.37h-3V16.61h-3.87V14.09h10.78v2.52H194Z"/></g></g></svg>