<!-- Generator: Adobe Illustrator 24.1.0, SVG Export Plug-In  -->
<svg version="1.1" xmlns="http://www.w3.org/2000/svg" xmlns:xlink="http://www.w3.org/1999/xlink" x="0px" y="0px" width="158px"
	 height="41.5px" viewBox="0 0 158 41.5" style="enable-background:new 0 0 158 41.5;" xml:space="preserve">
<style type="text/css">
	.st0{fill:#FFFFFF;}
</style>
<defs>
</defs>
<g>
	<g>
		<path class="st0" d="M0,1h4c1.9,0,3.2,0.3,4,0.8c0.8,0.5,1.2,1.4,1.2,2.6c0,0.8-0.2,1.4-0.6,2s-1,0.8-1.7,1v0.1
			C7.8,7.5,8.5,7.9,9,8.4s0.7,1.2,0.7,2.1c0,1.2-0.4,2.2-1.3,2.8c-0.8,0.7-2,1-3.5,1H0V1z M2.2,6.5h2.1c0.9,0,1.6-0.1,2-0.4
			S7,5.3,7,4.6C7,4,6.7,3.5,6.3,3.2C5.8,2.9,5.1,2.8,4.1,2.8H2.2V6.5z M2.2,8.3v4.3h2.3c0.9,0,1.6-0.2,2.1-0.5
			c0.5-0.4,0.7-0.9,0.7-1.7c0-0.7-0.2-1.2-0.7-1.6C6.1,8.5,5.4,8.3,4.4,8.3H2.2z"/>
		<path class="st0" d="M16.6,14.6c-1.6,0-2.8-0.5-3.7-1.4c-0.9-0.9-1.3-2.2-1.3-3.8c0-1.7,0.4-3,1.2-3.9s2-1.4,3.4-1.4
			c1.3,0,2.4,0.4,3.2,1.2s1.2,1.9,1.2,3.4v1.2h-6.8c0,1,0.3,1.7,0.8,2.3c0.5,0.5,1.2,0.8,2.1,0.8c0.6,0,1.2-0.1,1.7-0.2
			s1.1-0.3,1.7-0.6v1.8c-0.5,0.3-1.1,0.4-1.6,0.5S17.3,14.6,16.6,14.6z M16.2,5.7c-0.7,0-1.2,0.2-1.6,0.7c-0.4,0.4-0.7,1.1-0.7,1.9
			h4.6c0-0.8-0.2-1.5-0.6-1.9C17.5,5.9,16.9,5.7,16.2,5.7z"/>
		<path class="st0" d="M29.9,11.5c0,1-0.4,1.8-1.1,2.3c-0.7,0.5-1.8,0.8-3.1,0.8c-1.4,0-2.4-0.2-3.3-0.6v-1.9
			c1.2,0.6,2.3,0.8,3.3,0.8c1.3,0,2-0.4,2-1.2c0-0.3-0.1-0.5-0.2-0.6c-0.1-0.2-0.4-0.3-0.7-0.5c-0.3-0.2-0.8-0.4-1.4-0.6
			c-1.2-0.5-2-0.9-2.4-1.4c-0.4-0.5-0.6-1-0.6-1.8c0-0.9,0.4-1.5,1.1-2c0.7-0.5,1.7-0.7,2.9-0.7c1.2,0,2.3,0.2,3.4,0.7L29,6.4
			c-1.1-0.5-2-0.7-2.8-0.7c-1.1,0-1.7,0.3-1.7,1c0,0.3,0.1,0.6,0.4,0.8s0.9,0.5,1.9,0.9c0.8,0.3,1.4,0.6,1.8,0.9
			c0.4,0.3,0.7,0.6,0.8,0.9C29.8,10.6,29.9,11,29.9,11.5z"/>
		<path class="st0" d="M36,12.8c0.5,0,1.1-0.1,1.6-0.2v1.6c-0.2,0.1-0.5,0.2-0.9,0.3s-0.8,0.1-1.2,0.1c-2,0-3.1-1.1-3.1-3.2V5.9H31
			v-1l1.5-0.8L33.2,2h1.3v2.3h2.9v1.6h-2.9v5.4c0,0.5,0.1,0.9,0.4,1.2S35.6,12.8,36,12.8z"/>
		<path class="st0" d="M53.5,9.3c0,1.7-0.4,3-1.3,3.9c-0.9,0.9-2,1.4-3.6,1.4c-1,0-1.8-0.2-2.5-0.6c-0.7-0.4-1.3-1-1.7-1.8
			c-0.4-0.8-0.6-1.7-0.6-2.8c0-1.6,0.4-2.9,1.3-3.9c0.8-0.9,2-1.4,3.6-1.4c1.5,0,2.6,0.5,3.5,1.4C53.1,6.4,53.5,7.7,53.5,9.3z
			 M46.1,9.3c0,2.3,0.9,3.5,2.6,3.5c1.7,0,2.6-1.2,2.6-3.5c0-2.3-0.9-3.5-2.6-3.5c-0.9,0-1.6,0.3-2,0.9S46.1,8.2,46.1,9.3z"/>
		<path class="st0" d="M61.1,5.9h-2.5v8.5h-2.2V5.9h-1.7v-1l1.7-0.7V3.5c0-1.2,0.3-2.1,0.8-2.7C57.8,0.3,58.7,0,59.9,0
			c0.8,0,1.5,0.1,2.2,0.4L61.5,2c-0.5-0.2-1-0.3-1.5-0.3c-0.5,0-0.8,0.2-1.1,0.5c-0.2,0.3-0.3,0.8-0.3,1.4v0.7h2.5V5.9z"/>
		<path class="st0" d="M67.6,1.5c0-0.4,0.1-0.7,0.3-0.9c0.2-0.2,0.5-0.3,0.9-0.3c0.4,0,0.7,0.1,0.9,0.3C69.9,0.9,70,1.2,70,1.5
			c0,0.4-0.1,0.7-0.3,0.9c-0.2,0.2-0.5,0.3-0.9,0.3c-0.4,0-0.7-0.1-0.9-0.3C67.7,2.2,67.6,1.9,67.6,1.5z M69.8,14.4h-2.2V4.2h2.2
			V14.4z"/>
		<path class="st0" d="M81.9,14.4h-2.2V8.2c0-0.8-0.2-1.4-0.5-1.8s-0.8-0.6-1.5-0.6c-0.9,0-1.6,0.3-2,0.8s-0.6,1.4-0.6,2.7v5.1h-2.2
			V4.2h1.7l0.3,1.3H75c0.3-0.5,0.7-0.9,1.3-1.1s1.2-0.4,1.9-0.4c2.4,0,3.7,1.2,3.7,3.7V14.4z"/>
		<path class="st0" d="M88.7,12.8c0.5,0,1.1-0.1,1.6-0.2v1.6c-0.2,0.1-0.5,0.2-0.9,0.3s-0.8,0.1-1.2,0.1c-2,0-3.1-1.1-3.1-3.2V5.9
			h-1.4v-1l1.5-0.8L85.9,2h1.3v2.3h2.9v1.6h-2.9v5.4c0,0.5,0.1,0.9,0.4,1.2S88.2,12.8,88.7,12.8z"/>
		<path class="st0" d="M96.7,14.6c-1.6,0-2.8-0.5-3.7-1.4c-0.9-0.9-1.3-2.2-1.3-3.8c0-1.7,0.4-3,1.2-3.9s2-1.4,3.4-1.4
			c1.3,0,2.4,0.4,3.2,1.2s1.2,1.9,1.2,3.4v1.2h-6.8c0,1,0.3,1.7,0.8,2.3c0.5,0.5,1.2,0.8,2.1,0.8c0.6,0,1.2-0.1,1.7-0.2
			s1.1-0.3,1.7-0.6v1.8c-0.5,0.3-1.1,0.4-1.6,0.5S97.4,14.6,96.7,14.6z M96.3,5.7c-0.7,0-1.2,0.2-1.6,0.7c-0.4,0.4-0.7,1.1-0.7,1.9
			h4.6c0-0.8-0.2-1.5-0.6-1.9C97.5,5.9,97,5.7,96.3,5.7z"/>
		<path class="st0" d="M112.1,14.4h-2.2V8.2c0-0.8-0.2-1.4-0.5-1.8s-0.8-0.6-1.5-0.6c-0.9,0-1.6,0.3-2,0.8s-0.6,1.4-0.6,2.7v5.1
			h-2.2V4.2h1.7l0.3,1.3h0.1c0.3-0.5,0.7-0.9,1.3-1.1s1.2-0.4,1.9-0.4c2.4,0,3.7,1.2,3.7,3.7V14.4z"/>
		<path class="st0" d="M118.8,12.8c0.5,0,1.1-0.1,1.6-0.2v1.6c-0.2,0.1-0.5,0.2-0.9,0.3s-0.8,0.1-1.2,0.1c-2,0-3.1-1.1-3.1-3.2V5.9
			h-1.4v-1l1.5-0.8l0.7-2.2h1.3v2.3h2.9v1.6h-2.9v5.4c0,0.5,0.1,0.9,0.4,1.2S118.4,12.8,118.8,12.8z"/>
		<path class="st0" d="M122.3,1.5c0-0.4,0.1-0.7,0.3-0.9c0.2-0.2,0.5-0.3,0.9-0.3c0.4,0,0.7,0.1,0.9,0.3c0.2,0.2,0.3,0.5,0.3,0.9
			c0,0.4-0.1,0.7-0.3,0.9c-0.2,0.2-0.5,0.3-0.9,0.3c-0.4,0-0.7-0.1-0.9-0.3C122.4,2.2,122.3,1.9,122.3,1.5z M124.6,14.4h-2.2V4.2
			h2.2V14.4z"/>
		<path class="st0" d="M136.7,9.3c0,1.7-0.4,3-1.3,3.9c-0.9,0.9-2,1.4-3.6,1.4c-1,0-1.8-0.2-2.5-0.6c-0.7-0.4-1.3-1-1.7-1.8
			c-0.4-0.8-0.6-1.7-0.6-2.8c0-1.6,0.4-2.9,1.3-3.9c0.8-0.9,2-1.4,3.6-1.4c1.5,0,2.6,0.5,3.5,1.4C136.3,6.4,136.7,7.7,136.7,9.3z
			 M129.3,9.3c0,2.3,0.9,3.5,2.6,3.5c1.7,0,2.6-1.2,2.6-3.5c0-2.3-0.9-3.5-2.6-3.5c-0.9,0-1.6,0.3-2,0.9S129.3,8.2,129.3,9.3z"/>
		<path class="st0" d="M148.1,14.4H146V8.2c0-0.8-0.2-1.4-0.5-1.8s-0.8-0.6-1.5-0.6c-0.9,0-1.6,0.3-2,0.8s-0.6,1.4-0.6,2.7v5.1h-2.2
			V4.2h1.7l0.3,1.3h0.1c0.3-0.5,0.7-0.9,1.3-1.1s1.2-0.4,1.9-0.4c2.4,0,3.7,1.2,3.7,3.7V14.4z"/>
		<path class="st0" d="M158,11.5c0,1-0.4,1.8-1.1,2.3c-0.7,0.5-1.8,0.8-3.1,0.8c-1.4,0-2.4-0.2-3.3-0.6v-1.9
			c1.2,0.6,2.3,0.8,3.3,0.8c1.3,0,2-0.4,2-1.2c0-0.3-0.1-0.5-0.2-0.6c-0.1-0.2-0.4-0.3-0.7-0.5c-0.3-0.2-0.8-0.4-1.4-0.6
			c-1.2-0.5-2-0.9-2.4-1.4c-0.4-0.5-0.6-1-0.6-1.8c0-0.9,0.4-1.5,1.1-2c0.7-0.5,1.7-0.7,2.9-0.7c1.2,0,2.3,0.2,3.4,0.7l-0.7,1.6
			c-1.1-0.5-2-0.7-2.8-0.7c-1.1,0-1.7,0.3-1.7,1c0,0.3,0.1,0.6,0.4,0.8S154,8,155,8.4c0.8,0.3,1.4,0.6,1.8,0.9
			c0.4,0.3,0.7,0.6,0.8,0.9C157.9,10.6,158,11,158,11.5z"/>
		<path class="st0" d="M23.3,26.6c1.3,0,2.3,0.5,3,1.4s1.1,2.2,1.1,3.9c0,1.7-0.4,3-1.1,3.9c-0.7,0.9-1.7,1.4-3,1.4
			c-1.3,0-2.3-0.5-3-1.4h-0.1L19.7,37h-1.6V22.7h2.2v3.4c0,0.3,0,0.6,0,1.1s0,0.8-0.1,0.9h0.1C21,27.1,22,26.6,23.3,26.6z
			 M22.8,28.4c-0.9,0-1.5,0.3-1.9,0.8c-0.4,0.5-0.6,1.4-0.6,2.6v0.1c0,1.2,0.2,2.1,0.6,2.7c0.4,0.6,1,0.8,1.9,0.8
			c0.8,0,1.3-0.3,1.7-0.9c0.4-0.6,0.6-1.5,0.6-2.6C25.1,29.6,24.3,28.4,22.8,28.4z"/>
		<path class="st0" d="M37,37l-0.3-1.3h-0.1c-0.3,0.5-0.7,0.8-1.3,1.1c-0.6,0.3-1.2,0.4-1.9,0.4c-1.2,0-2.2-0.3-2.8-0.9
			s-0.9-1.5-0.9-2.8v-6.6h2.2v6.3c0,0.8,0.2,1.4,0.5,1.8s0.8,0.6,1.5,0.6c0.9,0,1.6-0.3,2-0.8c0.4-0.5,0.6-1.5,0.6-2.7v-5.1h2.2V37
			H37z"/>
		<path class="st0" d="M45.6,35.4c0.5,0,1.1-0.1,1.6-0.2v1.6c-0.2,0.1-0.5,0.2-0.9,0.3s-0.8,0.1-1.2,0.1c-2,0-3.1-1.1-3.1-3.2v-5.5
			h-1.4v-1l1.5-0.8l0.7-2.2h1.3v2.3h2.9v1.6h-2.9v5.4c0,0.5,0.1,0.9,0.4,1.2S45.2,35.4,45.6,35.4z"/>
		<path class="st0" d="M53.9,24.1c0-0.4,0.1-0.7,0.3-0.9c0.2-0.2,0.5-0.3,0.9-0.3c0.4,0,0.7,0.1,0.9,0.3c0.2,0.2,0.3,0.5,0.3,0.9
			c0,0.4-0.1,0.7-0.3,0.9c-0.2,0.2-0.5,0.3-0.9,0.3c-0.4,0-0.7-0.1-0.9-0.3C54.1,24.8,53.9,24.5,53.9,24.1z M56.2,37h-2.2V26.8h2.2
			V37z"/>
		<path class="st0" d="M68.3,37h-2.2v-6.2c0-0.8-0.2-1.4-0.5-1.8s-0.8-0.6-1.5-0.6c-0.9,0-1.6,0.3-2,0.8s-0.6,1.4-0.6,2.7V37h-2.2
			V26.8H61l0.3,1.3h0.1c0.3-0.5,0.7-0.9,1.3-1.1s1.2-0.4,1.9-0.4c2.4,0,3.7,1.2,3.7,3.7V37z"/>
		<path class="st0" d="M75.4,37.2c-1.5,0-2.7-0.4-3.5-1.3c-0.8-0.9-1.2-2.2-1.2-3.9c0-1.7,0.4-3,1.3-3.9s2-1.4,3.6-1.4
			c1.1,0,2,0.2,2.9,0.6L77.8,29c-0.9-0.4-1.7-0.5-2.3-0.5c-1.8,0-2.6,1.2-2.6,3.5c0,1.1,0.2,2,0.7,2.6c0.4,0.6,1.1,0.9,1.9,0.9
			c1,0,1.9-0.2,2.7-0.7v1.9c-0.4,0.2-0.8,0.4-1.2,0.5C76.5,37.1,76,37.2,75.4,37.2z"/>
		<path class="st0" d="M86.9,37l-0.4-1.4h-0.1c-0.5,0.6-1,1-1.5,1.3c-0.5,0.2-1.1,0.3-1.9,0.3c-1,0-1.8-0.3-2.3-0.8
			s-0.8-1.3-0.8-2.3c0-1,0.4-1.8,1.2-2.4c0.8-0.5,2-0.8,3.6-0.9l1.8-0.1v-0.5c0-0.6-0.2-1.1-0.5-1.5c-0.3-0.3-0.8-0.5-1.4-0.5
			c-0.5,0-1,0.1-1.5,0.2c-0.5,0.2-0.9,0.3-1.4,0.5l-0.7-1.5c0.6-0.3,1.2-0.5,1.8-0.7c0.7-0.2,1.3-0.2,1.9-0.2c1.3,0,2.3,0.3,2.9,0.8
			c0.7,0.6,1,1.4,1,2.7V37H86.9z M83.7,35.5c0.8,0,1.4-0.2,1.9-0.7c0.5-0.4,0.7-1.1,0.7-1.8v-0.9L85,32.2c-1,0-1.8,0.2-2.2,0.5
			c-0.5,0.3-0.7,0.8-0.7,1.4c0,0.5,0.1,0.8,0.4,1.1C82.8,35.4,83.2,35.5,83.7,35.5z"/>
		<path class="st0" d="M96.7,37.2c-1.3,0-2.3-0.5-3-1.4h-0.1c0.1,0.9,0.1,1.4,0.1,1.6v4.2h-2.2V26.8h1.7c0,0.2,0.2,0.6,0.3,1.4h0.1
			c0.7-1,1.7-1.5,3-1.5c1.3,0,2.3,0.5,3,1.4s1.1,2.2,1.1,3.9s-0.4,3-1.1,3.9C98.9,36.7,97.9,37.2,96.7,37.2z M96.1,28.4
			c-0.9,0-1.5,0.3-1.9,0.8c-0.4,0.5-0.6,1.3-0.6,2.4v0.3c0,1.2,0.2,2.1,0.6,2.7c0.4,0.6,1,0.8,1.9,0.8c0.7,0,1.3-0.3,1.7-0.9
			c0.4-0.6,0.6-1.5,0.6-2.6c0-1.1-0.2-2-0.6-2.6C97.5,28.7,96.9,28.4,96.1,28.4z"/>
		<path class="st0" d="M109.6,37l-0.4-1.4h-0.1c-0.5,0.6-1,1-1.5,1.3c-0.5,0.2-1.1,0.3-1.9,0.3c-1,0-1.8-0.3-2.3-0.8
			s-0.8-1.3-0.8-2.3c0-1,0.4-1.8,1.2-2.4c0.8-0.5,2-0.8,3.6-0.9l1.8-0.1v-0.5c0-0.6-0.2-1.1-0.5-1.5c-0.3-0.3-0.8-0.5-1.4-0.5
			c-0.5,0-1,0.1-1.5,0.2c-0.5,0.2-0.9,0.3-1.4,0.5l-0.7-1.5c0.6-0.3,1.2-0.5,1.8-0.7c0.7-0.2,1.3-0.2,1.9-0.2c1.3,0,2.3,0.3,2.9,0.8
			c0.7,0.6,1,1.4,1,2.7V37H109.6z M106.4,35.5c0.8,0,1.4-0.2,1.9-0.7c0.5-0.4,0.7-1.1,0.7-1.8v-0.9l-1.3,0.1c-1,0-1.8,0.2-2.2,0.5
			c-0.5,0.3-0.7,0.8-0.7,1.4c0,0.5,0.1,0.8,0.4,1.1C105.4,35.4,105.8,35.5,106.4,35.5z"/>
		<path class="st0" d="M119.3,26.6c1.3,0,2.3,0.5,3,1.4s1.1,2.2,1.1,3.9c0,1.7-0.4,3-1.1,3.9c-0.7,0.9-1.7,1.4-3,1.4
			c-1.3,0-2.3-0.5-3-1.4h-0.1l-0.4,1.2h-1.6V22.7h2.2v3.4c0,0.3,0,0.6,0,1.1s0,0.8-0.1,0.9h0.1C117,27.1,118,26.6,119.3,26.6z
			 M118.8,28.4c-0.9,0-1.5,0.3-1.9,0.8c-0.4,0.5-0.6,1.4-0.6,2.6v0.1c0,1.2,0.2,2.1,0.6,2.7c0.4,0.6,1,0.8,1.9,0.8
			c0.8,0,1.3-0.3,1.7-0.9c0.4-0.6,0.6-1.5,0.6-2.6C121.1,29.6,120.4,28.4,118.8,28.4z"/>
		<path class="st0" d="M128,37h-2.2V22.7h2.2V37z"/>
		<path class="st0" d="M135.5,37.2c-1.6,0-2.8-0.5-3.7-1.4c-0.9-0.9-1.3-2.2-1.3-3.8c0-1.7,0.4-3,1.2-3.9s2-1.4,3.4-1.4
			c1.3,0,2.4,0.4,3.2,1.2s1.2,1.9,1.2,3.4v1.2h-6.8c0,1,0.3,1.7,0.8,2.3c0.5,0.5,1.2,0.8,2.1,0.8c0.6,0,1.2-0.1,1.7-0.2
			s1.1-0.3,1.7-0.6v1.8c-0.5,0.3-1.1,0.4-1.6,0.5S136.2,37.2,135.5,37.2z M135.2,28.3c-0.7,0-1.2,0.2-1.6,0.7
			c-0.4,0.4-0.7,1.1-0.7,1.9h4.6c0-0.8-0.2-1.5-0.6-1.9C136.4,28.5,135.8,28.3,135.2,28.3z"/>
	</g>
</g>
</svg>
