<!-- Generator: Adobe Illustrator 24.1.0, SVG Export Plug-In  -->
<svg version="1.1" xmlns="http://www.w3.org/2000/svg" xmlns:xlink="http://www.w3.org/1999/xlink" x="0px" y="0px" width="153px"
	 height="41.4px" viewBox="0 0 153 41.4" style="enable-background:new 0 0 153 41.4;" xml:space="preserve">
<style type="text/css">
	.st0{fill:#192642;}
</style>
<defs>
</defs>
<g>
	<g>
		<path class="st0" d="M9.4,0.9h2.3L7,14.3H4.7L0,0.9h2.3l2.8,8.4c0.1,0.4,0.3,0.9,0.5,1.5s0.3,1.1,0.3,1.4c0.1-0.5,0.2-1,0.4-1.6
			c0.2-0.6,0.3-1.1,0.4-1.4L9.4,0.9z"/>
		<path class="st0" d="M17.7,14.5c-1.6,0-2.8-0.5-3.7-1.4c-0.9-0.9-1.3-2.2-1.3-3.8c0-1.7,0.4-3,1.2-3.9s2-1.4,3.4-1.4
			c1.3,0,2.4,0.4,3.2,1.2s1.2,1.9,1.2,3.4v1.2h-6.8c0,1,0.3,1.7,0.8,2.3c0.5,0.5,1.2,0.8,2.1,0.8c0.6,0,1.2-0.1,1.7-0.2
			s1.1-0.3,1.7-0.6v1.8c-0.5,0.3-1.1,0.4-1.6,0.5S18.4,14.5,17.7,14.5z M17.3,5.6c-0.7,0-1.2,0.2-1.6,0.7c-0.4,0.4-0.7,1.1-0.7,1.9
			h4.6c0-0.8-0.2-1.5-0.6-1.9C18.5,5.8,18,5.6,17.3,5.6z"/>
		<path class="st0" d="M29.2,4C29.7,4,30,4,30.3,4l-0.2,2c-0.3-0.1-0.6-0.1-1-0.1c-0.9,0-1.6,0.3-2.1,0.8S26.3,8.1,26.3,9v5.3h-2.2
			V4.1h1.7l0.3,1.8h0.1c0.3-0.6,0.8-1.1,1.3-1.4S28.6,4,29.2,4z"/>
		<path class="st0" d="M30.7,4.1H33l2.1,5.8c0.3,0.8,0.5,1.6,0.6,2.3h0.1c0.1-0.3,0.2-0.7,0.3-1.2c0.1-0.5,0.9-2.8,2.3-6.8h2.3
			l-4.3,11.5c-0.8,2.1-2.1,3.2-4,3.2c-0.5,0-0.9-0.1-1.4-0.2V17c0.3,0.1,0.7,0.1,1.1,0.1c1,0,1.8-0.6,2.2-1.8l0.4-1L30.7,4.1z"/>
		<path class="st0" d="M52.4,4c1.3,0,2.3,0.5,3,1.4s1.1,2.2,1.1,3.9c0,1.7-0.4,3-1.1,3.9c-0.7,0.9-1.7,1.4-3,1.4
			c-1.3,0-2.3-0.5-3-1.4h-0.1l-0.4,1.2h-1.6V0h2.2v3.4c0,0.3,0,0.6,0,1.1s0,0.8-0.1,0.9h0.1C50,4.5,51,4,52.4,4z M51.8,5.7
			c-0.9,0-1.5,0.3-1.9,0.8C49.6,7,49.4,7.8,49.3,9v0.1c0,1.2,0.2,2.1,0.6,2.7c0.4,0.6,1,0.8,1.9,0.8c0.8,0,1.3-0.3,1.7-0.9
			c0.4-0.6,0.6-1.5,0.6-2.6C54.2,6.9,53.4,5.7,51.8,5.7z"/>
		<path class="st0" d="M63.3,14.5c-1.6,0-2.8-0.5-3.7-1.4c-0.9-0.9-1.3-2.2-1.3-3.8c0-1.7,0.4-3,1.2-3.9s2-1.4,3.4-1.4
			c1.3,0,2.4,0.4,3.2,1.2s1.2,1.9,1.2,3.4v1.2h-6.8c0,1,0.3,1.7,0.8,2.3c0.5,0.5,1.2,0.8,2.1,0.8c0.6,0,1.2-0.1,1.7-0.2
			s1.1-0.3,1.7-0.6v1.8c-0.5,0.3-1.1,0.4-1.6,0.5S64,14.5,63.3,14.5z M62.9,5.6c-0.7,0-1.2,0.2-1.6,0.7c-0.4,0.4-0.7,1.1-0.7,1.9
			h4.6c0-0.8-0.2-1.5-0.6-1.9C64.2,5.8,63.6,5.6,62.9,5.6z"/>
		<path class="st0" d="M76.6,11.4c0,1-0.4,1.8-1.1,2.3c-0.7,0.5-1.8,0.8-3.1,0.8c-1.4,0-2.4-0.2-3.3-0.6V12c1.2,0.6,2.3,0.8,3.3,0.8
			c1.3,0,2-0.4,2-1.2c0-0.3-0.1-0.5-0.2-0.6c-0.1-0.2-0.4-0.3-0.7-0.5c-0.3-0.2-0.8-0.4-1.4-0.6c-1.2-0.5-2-0.9-2.4-1.4
			c-0.4-0.5-0.6-1-0.6-1.8c0-0.9,0.4-1.5,1.1-2C70.9,4.2,71.8,4,73,4c1.2,0,2.3,0.2,3.4,0.7l-0.7,1.6c-1.1-0.5-2-0.7-2.8-0.7
			c-1.1,0-1.7,0.3-1.7,1c0,0.3,0.1,0.6,0.4,0.8s0.9,0.5,1.9,0.9c0.8,0.3,1.4,0.6,1.8,0.9c0.4,0.3,0.7,0.6,0.8,0.9
			C76.5,10.5,76.6,10.9,76.6,11.4z"/>
		<path class="st0" d="M82.7,12.7c0.5,0,1.1-0.1,1.6-0.2v1.6c-0.2,0.1-0.5,0.2-0.9,0.3s-0.8,0.1-1.2,0.1c-2,0-3.1-1.1-3.1-3.2V5.8
			h-1.4v-1L79.2,4l0.7-2.2h1.3v2.3h2.9v1.6h-2.9v5.4c0,0.5,0.1,0.9,0.4,1.2S82.3,12.7,82.7,12.7z"/>
		<path class="st0" d="M95.3,14.5c-1.5,0-2.7-0.4-3.5-1.3c-0.8-0.9-1.2-2.2-1.2-3.9c0-1.7,0.4-3,1.3-3.9s2-1.4,3.6-1.4
			c1.1,0,2,0.2,2.9,0.6l-0.7,1.7c-0.9-0.4-1.7-0.5-2.3-0.5c-1.8,0-2.6,1.2-2.6,3.5c0,1.1,0.2,2,0.7,2.6c0.4,0.6,1.1,0.9,1.9,0.9
			c1,0,1.9-0.2,2.7-0.7v1.9c-0.4,0.2-0.8,0.4-1.2,0.5C96.4,14.4,95.9,14.5,95.3,14.5z"/>
		<path class="st0" d="M109.5,14.3h-2.2V8c0-0.8-0.2-1.4-0.5-1.8s-0.8-0.6-1.5-0.6c-0.9,0-1.6,0.3-2,0.8c-0.4,0.5-0.6,1.5-0.6,2.7v5
			h-2.2V0h2.2v3.6c0,0.6,0,1.2-0.1,1.9h0.1c0.3-0.5,0.7-0.9,1.2-1.1c0.5-0.3,1.1-0.4,1.8-0.4c2.5,0,3.7,1.2,3.7,3.7V14.3z"/>
		<path class="st0" d="M118.8,14.3l-0.4-1.4h-0.1c-0.5,0.6-1,1-1.5,1.3c-0.5,0.2-1.1,0.3-1.9,0.3c-1,0-1.8-0.3-2.3-0.8
			s-0.8-1.3-0.8-2.3c0-1,0.4-1.8,1.2-2.4c0.8-0.5,2-0.8,3.6-0.9l1.8-0.1V7.5c0-0.6-0.2-1.1-0.5-1.5c-0.3-0.3-0.8-0.5-1.4-0.5
			c-0.5,0-1,0.1-1.5,0.2c-0.5,0.2-0.9,0.3-1.4,0.5l-0.7-1.5c0.6-0.3,1.2-0.5,1.8-0.7c0.7-0.2,1.3-0.2,1.9-0.2c1.3,0,2.3,0.3,2.9,0.8
			c0.7,0.6,1,1.4,1,2.7v6.8H118.8z M115.6,12.8c0.8,0,1.4-0.2,1.9-0.7c0.5-0.4,0.7-1.1,0.7-1.8V9.4l-1.3,0.1c-1,0-1.8,0.2-2.2,0.5
			c-0.5,0.3-0.7,0.8-0.7,1.4c0,0.5,0.1,0.8,0.4,1.1C114.7,12.7,115.1,12.8,115.6,12.8z"/>
		<path class="st0" d="M132.3,14.3h-2.2V8c0-0.8-0.2-1.4-0.5-1.8s-0.8-0.6-1.5-0.6c-0.9,0-1.6,0.3-2,0.8s-0.6,1.4-0.6,2.7v5.1h-2.2
			V4.1h1.7l0.3,1.3h0.1c0.3-0.5,0.7-0.9,1.3-1.1S128,4,128.7,4c2.4,0,3.7,1.2,3.7,3.7V14.3z"/>
		<path class="st0" d="M139.4,14.5c-1.5,0-2.7-0.4-3.5-1.3c-0.8-0.9-1.2-2.2-1.2-3.9c0-1.7,0.4-3,1.3-3.9s2-1.4,3.6-1.4
			c1.1,0,2,0.2,2.9,0.6l-0.7,1.7c-0.9-0.4-1.7-0.5-2.3-0.5c-1.8,0-2.6,1.2-2.6,3.5c0,1.1,0.2,2,0.7,2.6c0.4,0.6,1.1,0.9,1.9,0.9
			c1,0,1.9-0.2,2.7-0.7v1.9c-0.4,0.2-0.8,0.4-1.2,0.5C140.6,14.4,140,14.5,139.4,14.5z"/>
		<path class="st0" d="M149.1,14.5c-1.6,0-2.8-0.5-3.7-1.4c-0.9-0.9-1.3-2.2-1.3-3.8c0-1.7,0.4-3,1.2-3.9s2-1.4,3.4-1.4
			c1.3,0,2.4,0.4,3.2,1.2s1.2,1.9,1.2,3.4v1.2h-6.8c0,1,0.3,1.7,0.8,2.3c0.5,0.5,1.2,0.8,2.1,0.8c0.6,0,1.2-0.1,1.7-0.2
			s1.1-0.3,1.7-0.6v1.8c-0.5,0.3-1.1,0.4-1.6,0.5S149.8,14.5,149.1,14.5z M148.7,5.6c-0.7,0-1.2,0.2-1.6,0.7
			c-0.4,0.4-0.7,1.1-0.7,1.9h4.6c0-0.8-0.2-1.5-0.6-1.9C149.9,5.8,149.4,5.6,148.7,5.6z"/>
		<path class="st0" d="M39.8,31.8c0,1.7-0.4,3-1.3,3.9c-0.9,0.9-2,1.4-3.6,1.4c-1,0-1.8-0.2-2.5-0.6c-0.7-0.4-1.3-1-1.7-1.8
			c-0.4-0.8-0.6-1.7-0.6-2.8c0-1.6,0.4-2.9,1.3-3.9c0.8-0.9,2-1.4,3.6-1.4c1.5,0,2.6,0.5,3.5,1.4C39.4,28.9,39.8,30.2,39.8,31.8z
			 M32.4,31.8c0,2.3,0.9,3.5,2.6,3.5c1.7,0,2.6-1.2,2.6-3.5c0-2.3-0.9-3.5-2.6-3.5c-0.9,0-1.6,0.3-2,0.9S32.4,30.7,32.4,31.8z"/>
		<path class="st0" d="M47.4,28.4h-2.5v8.5h-2.2v-8.5h-1.7v-1l1.7-0.7V26c0-1.2,0.3-2.1,0.8-2.7c0.6-0.6,1.4-0.9,2.6-0.9
			c0.8,0,1.5,0.1,2.2,0.4l-0.6,1.6c-0.5-0.2-1-0.3-1.5-0.3c-0.5,0-0.8,0.2-1.1,0.5c-0.2,0.3-0.3,0.8-0.3,1.4v0.7h2.5V28.4z"/>
		<path class="st0" d="M62.4,36.9l-1.3-4.7c-0.2-0.5-0.4-1.7-0.9-3.5h-0.1c-0.4,1.7-0.6,2.8-0.8,3.5l-1.4,4.7h-2.4l-2.8-10.2h2.2
			l1.3,5c0.3,1.2,0.5,2.3,0.6,3.2h0.1c0.1-0.4,0.2-1,0.3-1.5c0.1-0.6,0.2-1,0.3-1.3l1.5-5.3h2.4l1.5,5.3c0.1,0.3,0.2,0.8,0.3,1.4
			c0.1,0.6,0.2,1.1,0.2,1.4h0.1c0.1-0.8,0.3-1.8,0.6-3.2l1.3-5h2.2l-2.9,10.2H62.4z"/>
		<path class="st0" d="M69.3,24c0-0.4,0.1-0.7,0.3-0.9c0.2-0.2,0.5-0.3,0.9-0.3c0.4,0,0.7,0.1,0.9,0.3c0.2,0.2,0.3,0.5,0.3,0.9
			c0,0.4-0.1,0.7-0.3,0.9c-0.2,0.2-0.5,0.3-0.9,0.3c-0.4,0-0.7-0.1-0.9-0.3C69.4,24.7,69.3,24.4,69.3,24z M71.6,36.9h-2.2V26.7h2.2
			V36.9z"/>
		<path class="st0" d="M83.6,36.9h-2.2v-6.2c0-0.8-0.2-1.4-0.5-1.8s-0.8-0.6-1.5-0.6c-0.9,0-1.6,0.3-2,0.8s-0.6,1.4-0.6,2.7v5.1
			h-2.2V26.7h1.7l0.3,1.3h0.1c0.3-0.5,0.7-0.9,1.3-1.1s1.2-0.4,1.9-0.4c2.4,0,3.7,1.2,3.7,3.7V36.9z"/>
		<path class="st0" d="M95.5,36.9h-2.2v-6.2c0-0.8-0.2-1.4-0.5-1.8s-0.8-0.6-1.5-0.6c-0.9,0-1.6,0.3-2,0.8s-0.6,1.4-0.6,2.7v5.1
			h-2.2V26.7h1.7l0.3,1.3h0.1c0.3-0.5,0.7-0.9,1.3-1.1s1.2-0.4,1.9-0.4c2.4,0,3.7,1.2,3.7,3.7V36.9z"/>
		<path class="st0" d="M98.4,24c0-0.4,0.1-0.7,0.3-0.9c0.2-0.2,0.5-0.3,0.9-0.3c0.4,0,0.7,0.1,0.9,0.3c0.2,0.2,0.3,0.5,0.3,0.9
			c0,0.4-0.1,0.7-0.3,0.9c-0.2,0.2-0.5,0.3-0.9,0.3c-0.4,0-0.7-0.1-0.9-0.3C98.5,24.7,98.4,24.4,98.4,24z M100.7,36.9h-2.2V26.7h2.2
			V36.9z"/>
		<path class="st0" d="M112.7,36.9h-2.2v-6.2c0-0.8-0.2-1.4-0.5-1.8s-0.8-0.6-1.5-0.6c-0.9,0-1.6,0.3-2,0.8s-0.6,1.4-0.6,2.7v5.1
			h-2.2V26.7h1.7l0.3,1.3h0.1c0.3-0.5,0.7-0.9,1.3-1.1s1.2-0.4,1.9-0.4c2.4,0,3.7,1.2,3.7,3.7V36.9z"/>
		<path class="st0" d="M124.3,26.7v1.2l-1.7,0.3c0.2,0.2,0.3,0.5,0.4,0.8c0.1,0.3,0.2,0.6,0.2,1c0,1-0.4,1.9-1.1,2.5
			c-0.7,0.6-1.7,0.9-3,0.9c-0.3,0-0.6,0-0.9-0.1c-0.5,0.3-0.7,0.6-0.7,1c0,0.2,0.1,0.4,0.3,0.5C118,35,118.4,35,119,35h1.8
			c1.1,0,2,0.2,2.6,0.7c0.6,0.5,0.9,1.2,0.9,2.1c0,1.2-0.5,2-1.4,2.7s-2.3,0.9-4.1,0.9c-1.4,0-2.4-0.2-3.2-0.7s-1.1-1.2-1.1-2.1
			c0-0.6,0.2-1.2,0.6-1.6c0.4-0.4,0.9-0.7,1.7-0.9c-0.3-0.1-0.5-0.3-0.7-0.6c-0.2-0.3-0.3-0.6-0.3-0.9c0-0.4,0.1-0.7,0.3-1
			c0.2-0.3,0.5-0.5,1-0.8c-0.5-0.2-1-0.6-1.3-1.1c-0.3-0.5-0.5-1.1-0.5-1.8c0-1.1,0.3-2,1-2.6s1.7-0.9,3-0.9c0.3,0,0.6,0,0.9,0.1
			c0.3,0,0.6,0.1,0.7,0.1H124.3z M116.3,38.5c0,0.5,0.2,0.8,0.6,1.1c0.4,0.3,1,0.4,1.8,0.4c1.2,0,2.1-0.2,2.6-0.5
			c0.6-0.3,0.9-0.8,0.9-1.3c0-0.4-0.2-0.8-0.5-0.9s-0.9-0.3-1.8-0.3h-1.6c-0.6,0-1.1,0.1-1.5,0.4S116.3,38,116.3,38.5z M117.3,30
			c0,0.6,0.2,1.1,0.5,1.5c0.3,0.3,0.8,0.5,1.4,0.5c1.2,0,1.9-0.7,1.9-2c0-0.7-0.2-1.2-0.5-1.5c-0.3-0.4-0.8-0.5-1.4-0.5
			c-0.6,0-1.1,0.2-1.4,0.5C117.4,28.8,117.3,29.3,117.3,30z"/>
	</g>
</g>
</svg>
