<!-- Generator: Adobe Illustrator 24.1.0, SVG Export Plug-In  -->
<svg version="1.1" xmlns="http://www.w3.org/2000/svg" xmlns:xlink="http://www.w3.org/1999/xlink" x="0px" y="0px" width="186.2px"
	 height="44.5px" viewBox="0 0 186.2 44.5" style="enable-background:new 0 0 186.2 44.5;" xml:space="preserve">
<style type="text/css">
	.st0{fill:#002147;}
	.st1{fill:#FFFFFF;}
</style>
<defs>
</defs>
<path class="st0" d="M163.9,44.5H22.3C10,44.5,0,34.6,0,22.3v0C0,10,10,0,22.3,0l141.6,0c12.3,0,22.3,10,22.3,22.3v0
	C186.2,34.6,176.2,44.5,163.9,44.5z"/>
<g>
	<path class="st1" d="M85.1,23.1c0,1-0.4,1.8-1.1,2.4s-1.7,0.9-3,0.9s-2.3-0.2-3.2-0.6V24c0.5,0.2,1.1,0.4,1.7,0.6s1.1,0.2,1.6,0.2
		c0.7,0,1.3-0.1,1.6-0.4s0.5-0.7,0.5-1.1c0-0.4-0.2-0.8-0.5-1.1s-1-0.6-2-1.1c-1-0.4-1.8-0.9-2.2-1.4s-0.6-1.2-0.6-2
		c0-1,0.3-1.7,1-2.2s1.6-0.8,2.7-0.8c1.1,0,2.2,0.2,3.3,0.7l-0.6,1.5c-1-0.4-1.9-0.6-2.7-0.6c-0.6,0-1.1,0.1-1.4,0.4s-0.5,0.6-0.5,1
		c0,0.3,0.1,0.6,0.2,0.8s0.3,0.4,0.6,0.6s0.8,0.4,1.5,0.7c0.8,0.3,1.5,0.7,1.8,1s0.7,0.6,0.9,1S85.1,22.6,85.1,23.1z"/>
	<path class="st1" d="M90.4,24.9c0.4,0,0.9-0.1,1.3-0.2V26c-0.2,0.1-0.5,0.2-0.8,0.2s-0.7,0.1-1,0.1c-1.7,0-2.6-0.9-2.6-2.8v-4.7
		h-1.2v-0.8l1.3-0.7l0.6-1.8h1.1v1.9h2.5v1.4h-2.5v4.6c0,0.4,0.1,0.8,0.3,1S90,24.9,90.4,24.9z"/>
	<path class="st1" d="M98.8,26.2L98.5,25h-0.1c-0.4,0.5-0.8,0.9-1.3,1.1s-1,0.3-1.6,0.3c-0.8,0-1.5-0.2-2-0.7s-0.7-1.1-0.7-1.9
		c0-0.9,0.3-1.6,1-2s1.7-0.7,3-0.7l1.5,0v-0.5c0-0.6-0.1-1-0.4-1.2s-0.7-0.4-1.2-0.4c-0.4,0-0.9,0.1-1.3,0.2s-0.8,0.3-1.2,0.5
		l-0.6-1.3c0.5-0.2,1-0.4,1.5-0.6s1.1-0.2,1.6-0.2c1.1,0,1.9,0.2,2.5,0.7s0.8,1.2,0.8,2.3v5.8H98.8z M96.1,24.9
		c0.7,0,1.2-0.2,1.6-0.6s0.6-0.9,0.6-1.6v-0.8l-1.1,0c-0.9,0-1.5,0.2-1.9,0.4s-0.6,0.7-0.6,1.2c0,0.4,0.1,0.7,0.3,0.9
		S95.6,24.9,96.1,24.9z"/>
	<path class="st1" d="M107.1,17.4c0.4,0,0.7,0,0.9,0.1l-0.2,1.7c-0.3-0.1-0.5-0.1-0.8-0.1c-0.7,0-1.3,0.2-1.8,0.7s-0.7,1.1-0.7,1.9
		v4.5h-1.8v-8.6h1.4l0.2,1.5h0.1c0.3-0.5,0.7-0.9,1.1-1.2S106.6,17.4,107.1,17.4z"/>
	<path class="st1" d="M112.8,24.9c0.4,0,0.9-0.1,1.3-0.2V26c-0.2,0.1-0.5,0.2-0.8,0.2s-0.7,0.1-1,0.1c-1.7,0-2.6-0.9-2.6-2.8v-4.7
		h-1.2v-0.8l1.3-0.7l0.6-1.8h1.1v1.9h2.5v1.4h-2.5v4.6c0,0.4,0.1,0.8,0.3,1S112.5,24.9,112.8,24.9z"/>
</g>
</svg>
