<!-- Generator: Adobe Illustrator 24.1.0, SVG Export Plug-In  -->
<svg version="1.1" xmlns="http://www.w3.org/2000/svg" xmlns:xlink="http://www.w3.org/1999/xlink" x="0px" y="0px" width="656.1px"
	 height="209px" viewBox="0 0 656.1 209" style="enable-background:new 0 0 656.1 209;" xml:space="preserve">
<style type="text/css">
	.st0{opacity:0.25;}
	.st1{fill:#FFFFFF;stroke:#C1C8D3;stroke-width:2;stroke-miterlimit:10;}
</style>
<defs>
</defs>
<g class="st0">
	<line class="st1" x1="1" y1="0" x2="1" y2="202"/>
	<line class="st1" x1="20.2" y1="0" x2="20.2" y2="207"/>
	<line class="st1" x1="39.5" y1="0" x2="39.5" y2="207"/>
	<line class="st1" x1="58.7" y1="0" x2="58.7" y2="207"/>
	<line class="st1" x1="78" y1="0" x2="78" y2="207"/>
	<line class="st1" x1="97.2" y1="0" x2="97.2" y2="207"/>
	<line class="st1" x1="116.4" y1="0" x2="116.4" y2="207"/>
	<line class="st1" x1="135.7" y1="0" x2="135.7" y2="207"/>
	<line class="st1" x1="154.9" y1="0" x2="154.9" y2="207"/>
	<line class="st1" x1="174.1" y1="0" x2="174.1" y2="207"/>
	<line class="st1" x1="193.4" y1="0" x2="193.4" y2="207"/>
	<line class="st1" x1="212.6" y1="0" x2="212.6" y2="207"/>
	<line class="st1" x1="231.9" y1="0" x2="231.9" y2="207"/>
	<line class="st1" x1="251.1" y1="0" x2="251.1" y2="207"/>
	<line class="st1" x1="270.3" y1="0" x2="270.3" y2="207"/>
	<line class="st1" x1="289.6" y1="0" x2="289.6" y2="207"/>
	<line class="st1" x1="308.8" y1="0" x2="308.8" y2="195"/>
	<path class="st1" d="M328.1,209"/>
	<line class="st1" x1="328.1" y1="0" x2="328.1" y2="189"/>
	<line class="st1" x1="347.3" y1="0" x2="347.3" y2="195"/>
	<line class="st1" x1="366.5" y1="0" x2="366.5" y2="207"/>
	<line class="st1" x1="385.8" y1="0" x2="385.8" y2="207"/>
	<line class="st1" x1="405" y1="0" x2="405" y2="207"/>
	<line class="st1" x1="424.2" y1="0" x2="424.2" y2="207"/>
	<line class="st1" x1="443.5" y1="0" x2="443.5" y2="207"/>
	<line class="st1" x1="462.7" y1="0" x2="462.7" y2="207"/>
	<line class="st1" x1="482" y1="0" x2="482" y2="207"/>
	<line class="st1" x1="501.2" y1="0" x2="501.2" y2="207"/>
	<line class="st1" x1="520.4" y1="0" x2="520.4" y2="207"/>
	<line class="st1" x1="539.7" y1="0" x2="539.7" y2="207"/>
	<line class="st1" x1="558.9" y1="0" x2="558.9" y2="207"/>
	<line class="st1" x1="578.1" y1="0" x2="578.1" y2="207"/>
	<line class="st1" x1="597.4" y1="0" x2="597.4" y2="207"/>
	<line class="st1" x1="616.6" y1="0" x2="616.6" y2="207"/>
	<line class="st1" x1="635.9" y1="0" x2="635.9" y2="207"/>
	<line class="st1" x1="655.1" y1="0" x2="655.1" y2="202"/>
	<line class="st1" x1="0.3" y1="22.9" x2="655.3" y2="22.9"/>
	<line class="st1" x1="0.3" y1="45.8" x2="655.3" y2="45.8"/>
	<line class="st1" x1="0.3" y1="68.7" x2="655.3" y2="68.7"/>
	<line class="st1" x1="0.3" y1="91.7" x2="655.3" y2="91.7"/>
	<line class="st1" x1="0.3" y1="114.6" x2="655.3" y2="114.6"/>
	<line class="st1" x1="0.3" y1="137.5" x2="655.3" y2="137.5"/>
	<line class="st1" x1="0.3" y1="160.5" x2="655.3" y2="160.5"/>
	<line class="st1" x1="0.3" y1="183" x2="655.3" y2="183"/>
</g>
</svg>
