<!-- Generator: Adobe Illustrator 24.1.0, SVG Export Plug-In  -->
<svg version="1.1" xmlns="http://www.w3.org/2000/svg" xmlns:xlink="http://www.w3.org/1999/xlink" x="0px" y="0px" width="213.4px"
	 height="40.2px" viewBox="0 0 213.4 40.2" style="enable-background:new 0 0 213.4 40.2;" xml:space="preserve">
<style type="text/css">
	.st0{opacity:0.5;}
	.st1{fill:#192642;}
	.st2{fill:#CCC3CD;}
	.st3{fill:#54355E;}
	.st4{fill:#FFFFFF;}
</style>
<defs>
</defs>
<g>
	<g class="st0">
		<path class="st1" d="M13.4,36.1c0,1.4-0.2,2.4-0.7,3.1c-0.4,0.7-1.1,1-2,1c-0.9,0-1.5-0.3-2-1c-0.5-0.7-0.7-1.7-0.7-3
			c0-1.4,0.2-2.4,0.7-3.1c0.4-0.7,1.1-1,2-1c0.9,0,1.5,0.3,2,1C13.2,33.8,13.4,34.8,13.4,36.1z M9.3,36.1c0,1.1,0.1,1.8,0.3,2.3
			c0.2,0.5,0.6,0.7,1.1,0.7c0.5,0,0.8-0.2,1.1-0.7c0.2-0.5,0.3-1.2,0.3-2.3c0-1.1-0.1-1.8-0.3-2.3c-0.2-0.5-0.6-0.7-1.1-0.7
			c-0.5,0-0.8,0.2-1.1,0.7C9.4,34.3,9.3,35,9.3,36.1z"/>
	</g>
	<g class="st0">
		<path class="st1" d="M29.6,40.1h-1.3V35c0-0.6,0-1.1,0-1.4c-0.1,0.1-0.2,0.2-0.3,0.3c-0.1,0.1-0.5,0.4-1.2,1L26.2,34l2.3-1.8h1.1
			V40.1z"/>
		<path class="st1" d="M37.6,36.1c0,1.4-0.2,2.4-0.7,3.1c-0.4,0.7-1.1,1-2,1c-0.9,0-1.5-0.3-2-1c-0.5-0.7-0.7-1.7-0.7-3
			c0-1.4,0.2-2.4,0.7-3.1c0.4-0.7,1.1-1,2-1c0.9,0,1.5,0.3,2,1C37.3,33.8,37.6,34.8,37.6,36.1z M33.5,36.1c0,1.1,0.1,1.8,0.3,2.3
			c0.2,0.5,0.6,0.7,1.1,0.7c0.5,0,0.8-0.2,1.1-0.7c0.2-0.5,0.3-1.2,0.3-2.3c0-1.1-0.1-1.8-0.3-2.3c-0.2-0.5-0.6-0.7-1.1-0.7
			c-0.5,0-0.8,0.2-1.1,0.7C33.6,34.3,33.5,35,33.5,36.1z"/>
	</g>
	<g class="st0">
		<path class="st1" d="M52.3,40.1h-5.4v-1l2-2c0.6-0.6,1-1.1,1.2-1.3c0.2-0.3,0.3-0.5,0.4-0.7s0.1-0.5,0.1-0.7
			c0-0.4-0.1-0.6-0.3-0.8c-0.2-0.2-0.5-0.3-0.9-0.3c-0.3,0-0.6,0.1-0.9,0.2c-0.3,0.1-0.6,0.3-1,0.6L47,33.1c0.4-0.4,0.9-0.6,1.3-0.8
			c0.4-0.2,0.9-0.2,1.3-0.2c0.7,0,1.3,0.2,1.8,0.6c0.4,0.4,0.7,0.9,0.7,1.5c0,0.4-0.1,0.7-0.2,1c-0.1,0.3-0.3,0.7-0.6,1
			c-0.3,0.3-0.7,0.8-1.3,1.4l-1.4,1.3V39h3.7V40.1z"/>
		<path class="st1" d="M58.6,36.1c0,1.4-0.2,2.4-0.7,3.1c-0.4,0.7-1.1,1-2,1c-0.9,0-1.5-0.3-2-1c-0.5-0.7-0.7-1.7-0.7-3
			c0-1.4,0.2-2.4,0.7-3.1c0.4-0.7,1.1-1,2-1c0.9,0,1.5,0.3,2,1C58.3,33.8,58.6,34.8,58.6,36.1z M54.5,36.1c0,1.1,0.1,1.8,0.3,2.3
			c0.2,0.5,0.6,0.7,1.1,0.7c0.5,0,0.8-0.2,1.1-0.7c0.2-0.5,0.3-1.2,0.3-2.3c0-1.1-0.1-1.8-0.3-2.3c-0.2-0.5-0.6-0.7-1.1-0.7
			c-0.5,0-0.8,0.2-1.1,0.7C54.6,34.3,54.5,35,54.5,36.1z"/>
	</g>
	<g class="st0">
		<path class="st1" d="M73,34c0,0.5-0.1,0.9-0.4,1.2c-0.3,0.3-0.7,0.6-1.2,0.7v0c0.6,0.1,1.1,0.3,1.4,0.6c0.3,0.3,0.5,0.7,0.5,1.3
			c0,0.8-0.3,1.3-0.8,1.8c-0.5,0.4-1.3,0.6-2.3,0.6c-0.9,0-1.6-0.1-2.2-0.4v-1.1c0.3,0.2,0.7,0.3,1.1,0.4c0.4,0.1,0.7,0.1,1.1,0.1
			c0.6,0,1.1-0.1,1.4-0.3c0.3-0.2,0.5-0.6,0.5-1.1c0-0.4-0.2-0.7-0.5-0.9c-0.3-0.2-0.9-0.3-1.6-0.3h-0.7v-1h0.7
			c1.3,0,1.9-0.4,1.9-1.3c0-0.3-0.1-0.6-0.3-0.8c-0.2-0.2-0.5-0.3-1-0.3c-0.3,0-0.6,0-0.9,0.1c-0.3,0.1-0.6,0.2-1,0.5l-0.6-0.9
			c0.7-0.5,1.6-0.8,2.5-0.8c0.8,0,1.4,0.2,1.9,0.5S73,33.4,73,34z"/>
		<path class="st1" d="M79.6,36.1c0,1.4-0.2,2.4-0.7,3.1c-0.4,0.7-1.1,1-2,1c-0.9,0-1.5-0.3-2-1c-0.5-0.7-0.7-1.7-0.7-3
			c0-1.4,0.2-2.4,0.7-3.1c0.4-0.7,1.1-1,2-1c0.9,0,1.5,0.3,2,1C79.4,33.8,79.6,34.8,79.6,36.1z M75.5,36.1c0,1.1,0.1,1.8,0.3,2.3
			c0.2,0.5,0.6,0.7,1.1,0.7c0.5,0,0.8-0.2,1.1-0.7c0.2-0.5,0.3-1.2,0.3-2.3c0-1.1-0.1-1.8-0.3-2.3c-0.2-0.5-0.6-0.7-1.1-0.7
			c-0.5,0-0.8,0.2-1.1,0.7C75.6,34.3,75.5,35,75.5,36.1z"/>
	</g>
	<g class="st0">
		<path class="st1" d="M94.6,38.3h-1.1v1.7h-1.2v-1.7h-3.6v-1l3.6-5.2h1.2v5.1h1.1V38.3z M92.3,37.3v-2c0-0.7,0-1.3,0.1-1.7h0
			c-0.1,0.2-0.3,0.5-0.5,0.9l-2,2.9H92.3z"/>
		<path class="st1" d="M100.6,36.1c0,1.4-0.2,2.4-0.7,3.1c-0.4,0.7-1.1,1-2,1c-0.9,0-1.5-0.3-2-1c-0.5-0.7-0.7-1.7-0.7-3
			c0-1.4,0.2-2.4,0.7-3.1c0.4-0.7,1.1-1,2-1c0.9,0,1.5,0.3,2,1C100.4,33.8,100.6,34.8,100.6,36.1z M96.5,36.1c0,1.1,0.1,1.8,0.3,2.3
			c0.2,0.5,0.6,0.7,1.1,0.7c0.5,0,0.8-0.2,1.1-0.7c0.2-0.5,0.3-1.2,0.3-2.3c0-1.1-0.1-1.8-0.3-2.3c-0.2-0.5-0.6-0.7-1.1-0.7
			c-0.5,0-0.8,0.2-1.1,0.7C96.6,34.3,96.5,35,96.5,36.1z"/>
	</g>
	<g class="st0">
		<path class="st1" d="M112.6,35.1c0.8,0,1.4,0.2,1.9,0.6c0.5,0.4,0.7,1,0.7,1.7c0,0.8-0.3,1.5-0.8,2c-0.5,0.5-1.3,0.7-2.2,0.7
			c-0.9,0-1.6-0.1-2.1-0.4v-1.2c0.3,0.2,0.6,0.3,1,0.4s0.7,0.1,1.1,0.1c0.6,0,1-0.1,1.3-0.4c0.3-0.3,0.4-0.6,0.4-1.1
			c0-0.9-0.6-1.4-1.8-1.4c-0.2,0-0.4,0-0.6,0.1c-0.2,0-0.5,0.1-0.7,0.1l-0.6-0.3l0.3-3.9h4.1v1.1h-3l-0.2,2c0.1,0,0.3,0,0.5-0.1
			C112.1,35.2,112.4,35.1,112.6,35.1z"/>
		<path class="st1" d="M121.6,36.1c0,1.4-0.2,2.4-0.7,3.1c-0.4,0.7-1.1,1-2,1c-0.9,0-1.5-0.3-2-1c-0.5-0.7-0.7-1.7-0.7-3
			c0-1.4,0.2-2.4,0.7-3.1c0.4-0.7,1.1-1,2-1c0.9,0,1.5,0.3,2,1C121.4,33.8,121.6,34.8,121.6,36.1z M117.5,36.1
			c0,1.1,0.1,1.8,0.3,2.3c0.2,0.5,0.6,0.7,1.1,0.7c0.5,0,0.8-0.2,1.1-0.7c0.2-0.5,0.3-1.2,0.3-2.3c0-1.1-0.1-1.8-0.3-2.3
			c-0.2-0.5-0.6-0.7-1.1-0.7c-0.5,0-0.8,0.2-1.1,0.7C117.6,34.3,117.5,35,117.5,36.1z"/>
	</g>
	<g class="st0">
		<path class="st1" d="M131,36.7c0-3.1,1.3-4.6,3.8-4.6c0.4,0,0.7,0,1,0.1v1.1c-0.3-0.1-0.6-0.1-1-0.1c-0.8,0-1.5,0.2-1.9,0.7
			c-0.4,0.5-0.7,1.2-0.7,2.2h0.1c0.2-0.3,0.4-0.5,0.7-0.7c0.3-0.2,0.7-0.2,1.1-0.2c0.7,0,1.3,0.2,1.7,0.7c0.4,0.4,0.6,1,0.6,1.8
			c0,0.8-0.2,1.5-0.7,2c-0.5,0.5-1.1,0.7-1.9,0.7c-0.6,0-1.1-0.1-1.5-0.4c-0.4-0.3-0.7-0.7-1-1.2C131.1,38.1,131,37.4,131,36.7z
			 M133.7,39.1c0.4,0,0.8-0.1,1-0.4c0.2-0.3,0.4-0.7,0.4-1.2c0-0.5-0.1-0.8-0.3-1.1c-0.2-0.3-0.6-0.4-1-0.4c-0.3,0-0.5,0.1-0.8,0.2
			c-0.2,0.1-0.4,0.3-0.5,0.5s-0.2,0.4-0.2,0.6c0,0.5,0.1,0.9,0.4,1.3C132.9,39,133.3,39.1,133.7,39.1z"/>
		<path class="st1" d="M142.6,36.1c0,1.4-0.2,2.4-0.7,3.1c-0.4,0.7-1.1,1-2,1c-0.9,0-1.5-0.3-2-1c-0.5-0.7-0.7-1.7-0.7-3
			c0-1.4,0.2-2.4,0.7-3.1c0.4-0.7,1.1-1,2-1c0.9,0,1.5,0.3,2,1C142.4,33.8,142.6,34.8,142.6,36.1z M138.5,36.1
			c0,1.1,0.1,1.8,0.3,2.3c0.2,0.5,0.6,0.7,1.1,0.7c0.5,0,0.8-0.2,1.1-0.7c0.2-0.5,0.3-1.2,0.3-2.3c0-1.1-0.1-1.8-0.3-2.3
			c-0.2-0.5-0.6-0.7-1.1-0.7c-0.5,0-0.8,0.2-1.1,0.7C138.6,34.3,138.5,35,138.5,36.1z"/>
	</g>
	<g class="st0">
		<path class="st1" d="M152.9,40.1l3.1-6.8h-4.1v-1.1h5.5v0.9l-3.1,7H152.9z"/>
		<path class="st1" d="M163.6,36.1c0,1.4-0.2,2.4-0.7,3.1c-0.4,0.7-1.1,1-2,1c-0.9,0-1.5-0.3-2-1c-0.5-0.7-0.7-1.7-0.7-3
			c0-1.4,0.2-2.4,0.7-3.1c0.4-0.7,1.1-1,2-1c0.9,0,1.5,0.3,2,1C163.4,33.8,163.6,34.8,163.6,36.1z M159.5,36.1
			c0,1.1,0.1,1.8,0.3,2.3c0.2,0.5,0.6,0.7,1.1,0.7c0.5,0,0.8-0.2,1.1-0.7c0.2-0.5,0.3-1.2,0.3-2.3c0-1.1-0.1-1.8-0.3-2.3
			c-0.2-0.5-0.6-0.7-1.1-0.7c-0.5,0-0.8,0.2-1.1,0.7C159.7,34.3,159.5,35,159.5,36.1z"/>
	</g>
	<g class="st0">
		<path class="st1" d="M175.6,32.1c0.7,0,1.3,0.2,1.8,0.5s0.7,0.8,0.7,1.4c0,0.8-0.5,1.5-1.5,1.9c0.6,0.3,1.1,0.6,1.3,1
			c0.3,0.3,0.4,0.7,0.4,1.1c0,0.7-0.2,1.2-0.7,1.6c-0.5,0.4-1.1,0.6-1.9,0.6c-0.9,0-1.5-0.2-2-0.6s-0.7-0.9-0.7-1.6
			c0-0.4,0.1-0.8,0.4-1.2c0.2-0.4,0.7-0.7,1.2-0.9c-0.5-0.3-0.8-0.6-1-0.9c-0.2-0.3-0.3-0.7-0.3-1.1c0-0.6,0.2-1,0.7-1.4
			C174.3,32.2,174.9,32.1,175.6,32.1z M174.2,38c0,0.4,0.1,0.7,0.4,0.9c0.3,0.2,0.6,0.3,1.1,0.3c0.5,0,0.8-0.1,1.1-0.3
			c0.3-0.2,0.4-0.5,0.4-0.9c0-0.3-0.1-0.6-0.4-0.8s-0.6-0.5-1.1-0.7l-0.2-0.1c-0.5,0.2-0.8,0.4-1,0.7S174.2,37.7,174.2,38z
			 M175.6,33.1c-0.4,0-0.7,0.1-0.9,0.3c-0.2,0.2-0.3,0.4-0.3,0.7c0,0.2,0,0.4,0.1,0.5s0.2,0.3,0.3,0.4c0.2,0.1,0.4,0.3,0.8,0.4
			c0.4-0.2,0.7-0.4,0.9-0.6c0.2-0.2,0.3-0.5,0.3-0.7c0-0.3-0.1-0.5-0.3-0.7C176.3,33.1,176,33.1,175.6,33.1z"/>
		<path class="st1" d="M184.6,36.1c0,1.4-0.2,2.4-0.7,3.1c-0.4,0.7-1.1,1-2,1c-0.9,0-1.5-0.3-2-1c-0.5-0.7-0.7-1.7-0.7-3
			c0-1.4,0.2-2.4,0.7-3.1c0.4-0.7,1.1-1,2-1c0.9,0,1.5,0.3,2,1C184.4,33.8,184.6,34.8,184.6,36.1z M180.6,36.1
			c0,1.1,0.1,1.8,0.3,2.3c0.2,0.5,0.6,0.7,1.1,0.7c0.5,0,0.8-0.2,1.1-0.7c0.2-0.5,0.3-1.2,0.3-2.3c0-1.1-0.1-1.8-0.3-2.3
			c-0.2-0.5-0.6-0.7-1.1-0.7c-0.5,0-0.8,0.2-1.1,0.7C180.7,34.3,180.6,35,180.6,36.1z"/>
	</g>
	<g class="st0">
		<path class="st1" d="M194.6,40.1h-1.3V35c0-0.6,0-1.1,0-1.4c-0.1,0.1-0.2,0.2-0.3,0.3c-0.1,0.1-0.5,0.4-1.2,1l-0.6-0.8l2.3-1.8
			h1.1V40.1z"/>
		<path class="st1" d="M202.5,36.1c0,1.4-0.2,2.4-0.7,3.1c-0.4,0.7-1.1,1-2,1c-0.9,0-1.5-0.3-2-1c-0.5-0.7-0.7-1.7-0.7-3
			c0-1.4,0.2-2.4,0.7-3.1c0.4-0.7,1.1-1,2-1c0.9,0,1.5,0.3,2,1C202.3,33.8,202.5,34.8,202.5,36.1z M198.4,36.1
			c0,1.1,0.1,1.8,0.3,2.3c0.2,0.5,0.6,0.7,1.1,0.7c0.5,0,0.8-0.2,1.1-0.7c0.2-0.5,0.3-1.2,0.3-2.3c0-1.1-0.1-1.8-0.3-2.3
			c-0.2-0.5-0.6-0.7-1.1-0.7c-0.5,0-0.8,0.2-1.1,0.7C198.5,34.3,198.4,35,198.4,36.1z"/>
		<path class="st1" d="M208.8,36.1c0,1.4-0.2,2.4-0.7,3.1c-0.4,0.7-1.1,1-2,1c-0.9,0-1.5-0.3-2-1c-0.5-0.7-0.7-1.7-0.7-3
			c0-1.4,0.2-2.4,0.7-3.1c0.4-0.7,1.1-1,2-1c0.9,0,1.5,0.3,2,1C208.6,33.8,208.8,34.8,208.8,36.1z M204.7,36.1
			c0,1.1,0.1,1.8,0.3,2.3c0.2,0.5,0.6,0.7,1.1,0.7c0.5,0,0.8-0.2,1.1-0.7c0.2-0.5,0.3-1.2,0.3-2.3c0-1.1-0.1-1.8-0.3-2.3
			c-0.2-0.5-0.6-0.7-1.1-0.7c-0.5,0-0.8,0.2-1.1,0.7C204.8,34.3,204.7,35,204.7,36.1z"/>
	</g>
	<g>
		<path class="st2" d="M211.4,11.4H4.8c-1.1,0-2-0.9-2-2v0c0-1.1,0.9-2,2-2h206.7c1.1,0,2,0.9,2,2v0
			C213.4,10.5,212.5,11.4,211.4,11.4z"/>
		<path class="st2" d="M89,7.4v4H4.8c-1.1,0-2-0.9-2-2C2.8,8.9,3,8.4,3.3,8c0.4-0.4,0.9-0.6,1.4-0.6H89z"/>
		<g>
			<circle class="st3" cx="9.7" cy="9.7" r="9.7"/>
		</g>
		<circle class="st4" cx="9.7" cy="9.7" r="4.6"/>
	</g>
</g>
</svg>
