<!-- Generator: Adobe Illustrator 24.1.0, SVG Export Plug-In  -->
<svg version="1.1" xmlns="http://www.w3.org/2000/svg" xmlns:xlink="http://www.w3.org/1999/xlink" x="0px" y="0px" width="369.1px"
	 height="213.2px" viewBox="0 0 369.1 213.2" style="enable-background:new 0 0 369.1 213.2;" xml:space="preserve">
<style type="text/css">
	.st0{fill:#F6F4F6;}
	.st1{fill:#54355E;}
	.st2{opacity:0.5;}
	.st3{fill:#192642;}
	.st4{fill:#FFFFFF;}
</style>
<defs>
</defs>
<g>
	<path class="st0" d="M351.9,213.2H17.3c-9.5,0-17.3-7.7-17.3-17.3V90.5h369.1v105.5C369.1,205.5,361.4,213.2,351.9,213.2z"/>
	<path class="st1" d="M369.1,98H0V17.3C0,7.7,7.7,0,17.3,0h334.6c9.5,0,17.3,7.7,17.3,17.3V98z"/>
	<g class="st2">
		<path class="st3" d="M30.3,176.4c0,2.1-0.3,3.7-1,4.8c-0.7,1-1.7,1.6-3.2,1.6c-1.4,0-2.4-0.5-3.1-1.6s-1.1-2.7-1.1-4.7
			c0-2.2,0.3-3.8,1-4.8c0.7-1,1.7-1.5,3.2-1.5c1.4,0,2.4,0.5,3.1,1.6C29.9,172.7,30.3,174.3,30.3,176.4z M23.9,176.4
			c0,1.7,0.2,2.9,0.5,3.6s0.9,1.1,1.7,1.1c0.8,0,1.3-0.4,1.7-1.1c0.4-0.7,0.5-1.9,0.5-3.6c0-1.7-0.2-2.9-0.5-3.6s-0.9-1.1-1.7-1.1
			c-0.8,0-1.3,0.4-1.7,1.1C24.1,173.5,23.9,174.7,23.9,176.4z"/>
	</g>
	<g class="st2">
		<path class="st3" d="M55.6,182.6h-2v-8c0-1,0-1.7,0.1-2.3c-0.1,0.1-0.3,0.3-0.5,0.4c-0.2,0.2-0.8,0.7-1.9,1.6l-1-1.3l3.6-2.9h1.7
			V182.6z"/>
		<path class="st3" d="M68.1,176.4c0,2.1-0.3,3.7-1,4.8c-0.7,1-1.7,1.6-3.2,1.6c-1.4,0-2.4-0.5-3.1-1.6s-1.1-2.7-1.1-4.7
			c0-2.2,0.3-3.8,1-4.8c0.7-1,1.7-1.5,3.2-1.5c1.4,0,2.4,0.5,3.1,1.6C67.7,172.7,68.1,174.3,68.1,176.4z M61.7,176.4
			c0,1.7,0.2,2.9,0.5,3.6s0.9,1.1,1.7,1.1c0.8,0,1.3-0.4,1.7-1.1c0.4-0.7,0.5-1.9,0.5-3.6c0-1.7-0.2-2.9-0.5-3.6
			c-0.4-0.7-0.9-1.1-1.7-1.1c-0.8,0-1.3,0.4-1.7,1.1C61.9,173.5,61.7,174.7,61.7,176.4z"/>
	</g>
	<g class="st2">
		<path class="st3" d="M91,182.6h-8.4v-1.5l3.2-3.2c0.9-1,1.6-1.6,1.9-2s0.5-0.8,0.7-1.1c0.1-0.4,0.2-0.7,0.2-1.1
			c0-0.6-0.2-1-0.5-1.3c-0.3-0.3-0.8-0.5-1.4-0.5c-0.5,0-0.9,0.1-1.4,0.3s-1,0.5-1.5,0.9l-1.1-1.3c0.7-0.6,1.4-1,2-1.2
			s1.3-0.4,2.1-0.4c1.1,0,2.1,0.3,2.8,0.9s1,1.4,1,2.4c0,0.6-0.1,1.1-0.3,1.6c-0.2,0.5-0.5,1-0.9,1.5c-0.4,0.5-1.1,1.3-2.1,2.2
			l-2.1,2.1v0.1H91V182.6z"/>
		<path class="st3" d="M100.9,176.4c0,2.1-0.3,3.7-1,4.8c-0.7,1-1.7,1.6-3.2,1.6c-1.4,0-2.4-0.5-3.1-1.6s-1.1-2.7-1.1-4.7
			c0-2.2,0.3-3.8,1-4.8c0.7-1,1.7-1.5,3.2-1.5c1.4,0,2.4,0.5,3.1,1.6C100.6,172.7,100.9,174.3,100.9,176.4z M94.5,176.4
			c0,1.7,0.2,2.9,0.5,3.6s0.9,1.1,1.7,1.1s1.3-0.4,1.7-1.1c0.4-0.7,0.5-1.9,0.5-3.6c0-1.7-0.2-2.9-0.5-3.6c-0.4-0.7-0.9-1.1-1.7-1.1
			s-1.3,0.4-1.7,1.1C94.7,173.5,94.5,174.7,94.5,176.4z"/>
	</g>
	<g class="st2">
		<path class="st3" d="M123.4,173.1c0,0.8-0.2,1.4-0.7,2c-0.5,0.5-1.1,0.9-1.9,1.1v0.1c1,0.1,1.7,0.4,2.2,0.9c0.5,0.5,0.7,1.1,0.7,2
			c0,1.2-0.4,2.1-1.3,2.7c-0.8,0.6-2,1-3.6,1c-1.4,0-2.5-0.2-3.5-0.7v-1.8c0.5,0.3,1.1,0.5,1.7,0.6c0.6,0.1,1.1,0.2,1.7,0.2
			c1,0,1.7-0.2,2.1-0.5s0.7-0.9,0.7-1.6c0-0.7-0.3-1.1-0.8-1.5s-1.3-0.5-2.5-0.5h-1.1v-1.6h1.1c2,0,3-0.7,3-2c0-0.5-0.2-0.9-0.5-1.2
			s-0.8-0.4-1.5-0.4c-0.5,0-0.9,0.1-1.4,0.2c-0.4,0.1-0.9,0.4-1.5,0.8l-1-1.4c1.1-0.8,2.4-1.2,3.9-1.2c1.2,0,2.2,0.3,2.9,0.8
			C123.1,171.4,123.4,172.1,123.4,173.1z"/>
		<path class="st3" d="M133.8,176.4c0,2.1-0.3,3.7-1,4.8c-0.7,1-1.7,1.6-3.2,1.6c-1.4,0-2.4-0.5-3.1-1.6s-1.1-2.7-1.1-4.7
			c0-2.2,0.3-3.8,1-4.8c0.7-1,1.7-1.5,3.2-1.5c1.4,0,2.4,0.5,3.1,1.6C133.4,172.7,133.8,174.3,133.8,176.4z M127.4,176.4
			c0,1.7,0.2,2.9,0.5,3.6c0.3,0.7,0.9,1.1,1.7,1.1s1.3-0.4,1.7-1.1c0.4-0.7,0.5-1.9,0.5-3.6c0-1.7-0.2-2.9-0.5-3.6
			c-0.4-0.7-0.9-1.1-1.7-1.1s-1.3,0.4-1.7,1.1C127.6,173.5,127.4,174.7,127.4,176.4z"/>
	</g>
	<g class="st2">
		<path class="st3" d="M157.2,179.9h-1.7v2.7h-1.9v-2.7h-5.6v-1.5l5.6-8.2h1.9v8h1.7V179.9z M153.6,178.2v-3.1c0-1.1,0-2,0.1-2.7
			h-0.1c-0.2,0.4-0.4,0.8-0.7,1.4l-3.1,4.5H153.6z"/>
		<path class="st3" d="M166.6,176.4c0,2.1-0.3,3.7-1,4.8c-0.7,1-1.7,1.6-3.2,1.6c-1.4,0-2.4-0.5-3.1-1.6s-1.1-2.7-1.1-4.7
			c0-2.2,0.3-3.8,1-4.8c0.7-1,1.7-1.5,3.2-1.5c1.4,0,2.4,0.5,3.1,1.6C166.3,172.7,166.6,174.3,166.6,176.4z M160.2,176.4
			c0,1.7,0.2,2.9,0.5,3.6s0.9,1.1,1.7,1.1s1.3-0.4,1.7-1.1c0.4-0.7,0.5-1.9,0.5-3.6c0-1.7-0.2-2.9-0.5-3.6c-0.4-0.7-0.9-1.1-1.7-1.1
			s-1.3,0.4-1.7,1.1C160.4,173.5,160.2,174.7,160.2,176.4z"/>
	</g>
	<g class="st2">
		<path class="st3" d="M185.4,174.9c1.2,0,2.2,0.3,3,1c0.7,0.7,1.1,1.6,1.1,2.7c0,1.3-0.4,2.3-1.2,3.1c-0.8,0.7-2,1.1-3.5,1.1
			c-1.4,0-2.5-0.2-3.3-0.7v-1.8c0.5,0.3,1,0.5,1.6,0.6c0.6,0.1,1.1,0.2,1.6,0.2c0.9,0,1.6-0.2,2-0.6c0.5-0.4,0.7-1,0.7-1.8
			c0-1.5-0.9-2.2-2.8-2.2c-0.3,0-0.6,0-1,0.1c-0.4,0.1-0.7,0.1-1,0.2l-0.9-0.5l0.5-6h6.4v1.8h-4.7l-0.3,3.1c0.2,0,0.4-0.1,0.7-0.1
			C184.7,174.9,185,174.9,185.4,174.9z"/>
		<path class="st3" d="M199.5,176.4c0,2.1-0.3,3.7-1,4.8c-0.7,1-1.7,1.6-3.2,1.6c-1.4,0-2.4-0.5-3.1-1.6s-1.1-2.7-1.1-4.7
			c0-2.2,0.3-3.8,1-4.8c0.7-1,1.7-1.5,3.2-1.5c1.4,0,2.4,0.5,3.1,1.6C199.1,172.7,199.5,174.3,199.5,176.4z M193.1,176.4
			c0,1.7,0.2,2.9,0.5,3.6s0.9,1.1,1.7,1.1s1.3-0.4,1.7-1.1c0.4-0.7,0.5-1.9,0.5-3.6c0-1.7-0.2-2.9-0.5-3.6c-0.4-0.7-0.9-1.1-1.7-1.1
			s-1.3,0.4-1.7,1.1C193.3,173.5,193.1,174.7,193.1,176.4z"/>
	</g>
	<g class="st2">
		<path class="st3" d="M214.1,177.3c0-4.8,2-7.2,5.9-7.2c0.6,0,1.1,0,1.6,0.1v1.7c-0.4-0.1-0.9-0.2-1.5-0.2c-1.3,0-2.3,0.4-3,1.1
			c-0.7,0.7-1,1.8-1.1,3.4h0.1c0.3-0.5,0.6-0.8,1.1-1.1c0.5-0.3,1-0.4,1.7-0.4c1.1,0,2,0.3,2.6,1c0.6,0.7,0.9,1.6,0.9,2.8
			c0,1.3-0.4,2.3-1.1,3.1c-0.7,0.8-1.7,1.1-3,1.1c-0.9,0-1.7-0.2-2.3-0.6s-1.2-1-1.5-1.9S214.1,178.4,214.1,177.3z M218.4,181.1
			c0.7,0,1.2-0.2,1.6-0.7c0.4-0.4,0.6-1.1,0.6-1.9c0-0.7-0.2-1.3-0.5-1.7c-0.3-0.4-0.9-0.6-1.6-0.6c-0.4,0-0.8,0.1-1.2,0.3
			c-0.4,0.2-0.6,0.4-0.9,0.8c-0.2,0.3-0.3,0.6-0.3,1c0,0.8,0.2,1.5,0.6,2C217.2,180.8,217.7,181.1,218.4,181.1z"/>
		<path class="st3" d="M232.3,176.4c0,2.1-0.3,3.7-1,4.8c-0.7,1-1.7,1.6-3.2,1.6c-1.4,0-2.4-0.5-3.1-1.6s-1.1-2.7-1.1-4.7
			c0-2.2,0.3-3.8,1-4.8c0.7-1,1.7-1.5,3.2-1.5c1.4,0,2.4,0.5,3.1,1.6C232,172.7,232.3,174.3,232.3,176.4z M225.9,176.4
			c0,1.7,0.2,2.9,0.5,3.6s0.9,1.1,1.7,1.1s1.3-0.4,1.7-1.1c0.4-0.7,0.5-1.9,0.5-3.6c0-1.7-0.2-2.9-0.5-3.6c-0.4-0.7-0.9-1.1-1.7-1.1
			s-1.3,0.4-1.7,1.1C226.1,173.5,225.9,174.7,225.9,176.4z"/>
	</g>
	<g class="st2">
		<path class="st3" d="M248.3,182.6l4.9-10.6h-6.4v-1.7h8.5v1.4l-4.9,10.9H248.3z"/>
		<path class="st3" d="M265.2,176.4c0,2.1-0.3,3.7-1,4.8c-0.7,1-1.7,1.6-3.2,1.6c-1.4,0-2.4-0.5-3.1-1.6s-1.1-2.7-1.1-4.7
			c0-2.2,0.3-3.8,1-4.8c0.7-1,1.7-1.5,3.2-1.5c1.4,0,2.4,0.5,3.1,1.6C264.8,172.7,265.2,174.3,265.2,176.4z M258.8,176.4
			c0,1.7,0.2,2.9,0.5,3.6c0.3,0.7,0.9,1.1,1.7,1.1c0.8,0,1.3-0.4,1.7-1.1c0.4-0.7,0.5-1.9,0.5-3.6c0-1.7-0.2-2.9-0.5-3.6
			c-0.4-0.7-0.9-1.1-1.7-1.1c-0.8,0-1.3,0.4-1.7,1.1C259,173.5,258.8,174.7,258.8,176.4z"/>
	</g>
	<g class="st2">
		<path class="st3" d="M284,170.1c1.2,0,2.1,0.3,2.8,0.8c0.7,0.5,1,1.3,1,2.2c0,1.3-0.8,2.3-2.3,3c1,0.5,1.7,1,2.1,1.5
			c0.4,0.5,0.6,1.1,0.6,1.8c0,1-0.4,1.8-1.1,2.4c-0.7,0.6-1.8,0.9-3,0.9c-1.3,0-2.4-0.3-3.1-0.9c-0.7-0.6-1.1-1.4-1.1-2.4
			c0-0.7,0.2-1.3,0.6-1.9c0.4-0.5,1-1,1.9-1.5c-0.8-0.5-1.3-0.9-1.6-1.4s-0.5-1.1-0.5-1.7c0-0.9,0.4-1.6,1.1-2.1
			C281.9,170.3,282.8,170.1,284,170.1z M281.7,179.4c0,0.6,0.2,1,0.6,1.4c0.4,0.3,1,0.5,1.7,0.5c0.7,0,1.3-0.2,1.7-0.5
			c0.4-0.3,0.6-0.8,0.6-1.4c0-0.5-0.2-0.9-0.6-1.2s-0.9-0.7-1.7-1l-0.2-0.1c-0.7,0.3-1.3,0.7-1.6,1.1
			C281.8,178.4,281.7,178.9,281.7,179.4z M283.9,171.6c-0.6,0-1,0.1-1.4,0.4c-0.3,0.3-0.5,0.7-0.5,1.1c0,0.3,0.1,0.6,0.2,0.8
			s0.3,0.4,0.5,0.6s0.6,0.4,1.2,0.7c0.7-0.3,1.2-0.6,1.4-0.9s0.4-0.7,0.4-1.2c0-0.5-0.2-0.9-0.5-1.1
			C285,171.7,284.5,171.6,283.9,171.6z"/>
		<path class="st3" d="M298,176.4c0,2.1-0.3,3.7-1,4.8c-0.7,1-1.7,1.6-3.2,1.6c-1.4,0-2.4-0.5-3.1-1.6s-1.1-2.7-1.1-4.7
			c0-2.2,0.3-3.8,1-4.8c0.7-1,1.7-1.5,3.2-1.5c1.4,0,2.4,0.5,3.1,1.6C297.7,172.7,298,174.3,298,176.4z M291.6,176.4
			c0,1.7,0.2,2.9,0.5,3.6c0.3,0.7,0.9,1.1,1.7,1.1c0.8,0,1.3-0.4,1.7-1.1c0.4-0.7,0.5-1.9,0.5-3.6c0-1.7-0.2-2.9-0.5-3.6
			c-0.4-0.7-0.9-1.1-1.7-1.1c-0.8,0-1.3,0.4-1.7,1.1C291.8,173.5,291.6,174.7,291.6,176.4z"/>
	</g>
	<g class="st2">
		<path class="st3" d="M313.5,182.6h-2v-8c0-1,0-1.7,0.1-2.3c-0.1,0.1-0.3,0.3-0.5,0.4c-0.2,0.2-0.8,0.7-1.9,1.6l-1-1.3l3.6-2.9h1.7
			V182.6z"/>
		<path class="st3" d="M325.9,176.4c0,2.1-0.3,3.7-1,4.8c-0.7,1-1.7,1.6-3.2,1.6c-1.4,0-2.4-0.5-3.1-1.6s-1.1-2.7-1.1-4.7
			c0-2.2,0.3-3.8,1-4.8c0.7-1,1.7-1.5,3.2-1.5c1.4,0,2.4,0.5,3.1,1.6C325.6,172.7,325.9,174.3,325.9,176.4z M319.6,176.4
			c0,1.7,0.2,2.9,0.5,3.6c0.3,0.7,0.9,1.1,1.7,1.1s1.3-0.4,1.7-1.1c0.4-0.7,0.5-1.9,0.5-3.6c0-1.7-0.2-2.9-0.5-3.6s-0.9-1.1-1.7-1.1
			s-1.3,0.4-1.7,1.1C319.7,173.5,319.6,174.7,319.6,176.4z"/>
		<path class="st3" d="M335.8,176.4c0,2.1-0.3,3.7-1,4.8c-0.7,1-1.7,1.6-3.2,1.6c-1.4,0-2.4-0.5-3.1-1.6s-1.1-2.7-1.1-4.7
			c0-2.2,0.3-3.8,1-4.8c0.7-1,1.7-1.5,3.2-1.5c1.4,0,2.4,0.5,3.1,1.6C335.5,172.7,335.8,174.3,335.8,176.4z M329.4,176.4
			c0,1.7,0.2,2.9,0.5,3.6c0.3,0.7,0.9,1.1,1.7,1.1s1.3-0.4,1.7-1.1c0.4-0.7,0.5-1.9,0.5-3.6c0-1.7-0.2-2.9-0.5-3.6s-0.9-1.1-1.7-1.1
			s-1.3,0.4-1.7,1.1C329.6,173.5,329.4,174.7,329.4,176.4z"/>
	</g>
	<g>
		<g>
			<path class="st4" d="M59.6,31.6h-1.9v-5.3h-5.4v5.3h-1.9V19.8h1.9v4.8h5.4v-4.8h1.9V31.6z"/>
			<path class="st4" d="M70.4,27.1c0,1.4-0.4,2.6-1.1,3.4c-0.7,0.8-1.8,1.2-3.1,1.2c-0.8,0-1.6-0.2-2.2-0.6
				c-0.6-0.4-1.1-0.9-1.5-1.6C62.1,28.8,62,28,62,27.1c0-1.4,0.4-2.6,1.1-3.4c0.7-0.8,1.8-1.2,3.1-1.2c1.3,0,2.3,0.4,3,1.2
				C70,24.6,70.4,25.7,70.4,27.1z M63.9,27.1c0,2,0.8,3.1,2.3,3.1c1.5,0,2.2-1,2.2-3.1c0-2-0.8-3-2.3-3c-0.8,0-1.4,0.3-1.7,0.8
				C64.1,25.4,63.9,26.1,63.9,27.1z"/>
			<path class="st4" d="M79.8,31.6l-1.1-4.1c-0.1-0.4-0.4-1.5-0.8-3.1h-0.1c-0.3,1.4-0.6,2.5-0.7,3.1l-1.2,4.1h-2.1l-2.5-8.9h1.9
				l1.1,4.4c0.3,1.1,0.4,2,0.5,2.8h0c0.1-0.4,0.1-0.8,0.2-1.3c0.1-0.5,0.2-0.9,0.3-1.1l1.3-4.7h2.1l1.3,4.7c0.1,0.3,0.2,0.7,0.3,1.2
				c0.1,0.5,0.2,1,0.2,1.3h0.1c0.1-0.7,0.3-1.6,0.6-2.8l1.1-4.4h1.9l-2.5,8.9H79.8z"/>
			<path class="st4" d="M97.5,31.6l-1.1-4.1c-0.1-0.4-0.4-1.5-0.8-3.1h-0.1c-0.3,1.4-0.6,2.5-0.7,3.1l-1.2,4.1h-2.1L89,22.7h1.9
				l1.1,4.4c0.3,1.1,0.4,2,0.5,2.8h0c0.1-0.4,0.1-0.8,0.2-1.3c0.1-0.5,0.2-0.9,0.3-1.1l1.3-4.7h2.1l1.3,4.7c0.1,0.3,0.2,0.7,0.3,1.2
				c0.1,0.5,0.2,1,0.2,1.3h0.1c0.1-0.7,0.3-1.6,0.6-2.8l1.1-4.4h1.9l-2.5,8.9H97.5z"/>
			<path class="st4" d="M107.5,31.7c-1.4,0-2.5-0.4-3.2-1.2c-0.8-0.8-1.2-1.9-1.2-3.3c0-1.4,0.4-2.6,1.1-3.4c0.7-0.8,1.7-1.2,3-1.2
				c1.2,0,2.1,0.4,2.8,1.1c0.7,0.7,1,1.7,1,2.9v1H105c0,0.9,0.3,1.5,0.7,2c0.4,0.5,1.1,0.7,1.9,0.7c0.5,0,1,0,1.5-0.1
				c0.5-0.1,0.9-0.3,1.5-0.5v1.5c-0.5,0.2-0.9,0.4-1.4,0.5C108.6,31.7,108.1,31.7,107.5,31.7z M107.1,24c-0.6,0-1.1,0.2-1.4,0.6
				c-0.4,0.4-0.6,0.9-0.6,1.7h4c0-0.7-0.2-1.3-0.5-1.7C108.2,24.1,107.7,24,107.1,24z"/>
			<path class="st4" d="M115,31.6h-1.9V19.1h1.9V31.6z"/>
			<path class="st4" d="M119.5,31.6h-1.9V19.1h1.9V31.6z"/>
			<path class="st4" d="M129.5,31.7c-1.1,0-2-0.4-2.6-1.2c-0.6-0.8-0.9-1.9-0.9-3.4c0-1.5,0.3-2.6,0.9-3.4c0.6-0.8,1.5-1.2,2.6-1.2
				c1.2,0,2.1,0.4,2.7,1.3h0.1c-0.1-0.6-0.1-1.1-0.1-1.5v-3.2h1.9v12.5h-1.5l-0.3-1.2h-0.1C131.6,31.3,130.7,31.7,129.5,31.7z
				 M130,30.2c0.8,0,1.3-0.2,1.7-0.7c0.4-0.4,0.5-1.1,0.5-2.1v-0.3c0-1.1-0.2-1.9-0.5-2.4c-0.4-0.5-0.9-0.7-1.7-0.7
				c-0.7,0-1.2,0.3-1.5,0.8c-0.4,0.5-0.5,1.3-0.5,2.3c0,1,0.2,1.7,0.5,2.2C128.8,29.9,129.3,30.2,130,30.2z"/>
			<path class="st4" d="M144.6,27.1c0,1.4-0.4,2.6-1.1,3.4c-0.7,0.8-1.8,1.2-3.1,1.2c-0.8,0-1.6-0.2-2.2-0.6
				c-0.6-0.4-1.1-0.9-1.5-1.6c-0.3-0.7-0.5-1.5-0.5-2.4c0-1.4,0.4-2.6,1.1-3.4c0.7-0.8,1.8-1.2,3.1-1.2c1.3,0,2.3,0.4,3,1.2
				C144.2,24.6,144.6,25.7,144.6,27.1z M138.2,27.1c0,2,0.8,3.1,2.3,3.1c1.5,0,2.2-1,2.2-3.1c0-2-0.8-3-2.3-3
				c-0.8,0-1.4,0.3-1.7,0.8C138.3,25.4,138.2,26.1,138.2,27.1z"/>
			<path class="st4" d="M150.7,31.7c-1.4,0-2.5-0.4-3.2-1.2c-0.8-0.8-1.2-1.9-1.2-3.3c0-1.4,0.4-2.6,1.1-3.4c0.7-0.8,1.7-1.2,3-1.2
				c1.2,0,2.1,0.4,2.8,1.1c0.7,0.7,1,1.7,1,2.9v1h-5.9c0,0.9,0.3,1.5,0.7,2c0.4,0.5,1.1,0.7,1.9,0.7c0.5,0,1,0,1.5-0.1
				c0.5-0.1,0.9-0.3,1.5-0.5v1.5c-0.5,0.2-0.9,0.4-1.4,0.5S151.3,31.7,150.7,31.7z M150.3,24c-0.6,0-1.1,0.2-1.4,0.6
				c-0.4,0.4-0.6,0.9-0.6,1.7h4c0-0.7-0.2-1.3-0.5-1.7S150.9,24,150.3,24z"/>
			<path class="st4" d="M162.2,29c0,0.9-0.3,1.5-0.9,2c-0.6,0.5-1.5,0.7-2.7,0.7c-1.2,0-2.1-0.2-2.8-0.5v-1.6c1,0.5,2,0.7,2.9,0.7
				c1.2,0,1.7-0.4,1.7-1.1c0-0.2-0.1-0.4-0.2-0.6c-0.1-0.1-0.3-0.3-0.6-0.5s-0.7-0.3-1.2-0.5c-1-0.4-1.7-0.8-2.1-1.2
				c-0.4-0.4-0.5-0.9-0.5-1.5c0-0.8,0.3-1.3,0.9-1.8s1.4-0.6,2.5-0.6c1,0,2,0.2,3,0.6l-0.6,1.4c-1-0.4-1.8-0.6-2.4-0.6
				c-1,0-1.5,0.3-1.5,0.9c0,0.3,0.1,0.5,0.4,0.7c0.3,0.2,0.8,0.5,1.7,0.8c0.7,0.3,1.3,0.5,1.6,0.8s0.6,0.5,0.7,0.8
				S162.2,28.6,162.2,29z"/>
			<path class="st4" d="M167.2,22.7h2.1l1.8,5c0.3,0.7,0.5,1.4,0.5,2h0.1c0-0.3,0.1-0.7,0.3-1.1c0.1-0.4,0.8-2.4,2-6h2l-3.8,10
				c-0.7,1.8-1.8,2.8-3.4,2.8c-0.4,0-0.8,0-1.2-0.1v-1.5c0.3,0.1,0.6,0.1,1,0.1c0.9,0,1.5-0.5,1.9-1.6l0.3-0.8L167.2,22.7z"/>
			<path class="st4" d="M185.2,27.1c0,1.4-0.4,2.6-1.1,3.4c-0.7,0.8-1.8,1.2-3.1,1.2c-0.8,0-1.6-0.2-2.2-0.6
				c-0.6-0.4-1.1-0.9-1.5-1.6c-0.3-0.7-0.5-1.5-0.5-2.4c0-1.4,0.4-2.6,1.1-3.4c0.7-0.8,1.8-1.2,3.1-1.2c1.3,0,2.3,0.4,3,1.2
				C184.8,24.6,185.2,25.7,185.2,27.1z M178.7,27.1c0,2,0.8,3.1,2.3,3.1c1.5,0,2.2-1,2.2-3.1c0-2-0.8-3-2.3-3
				c-0.8,0-1.4,0.3-1.7,0.8C178.9,25.4,178.7,26.1,178.7,27.1z"/>
			<path class="st4" d="M193.6,31.6l-0.3-1.2h-0.1c-0.3,0.4-0.6,0.7-1.1,1c-0.5,0.2-1,0.4-1.7,0.4c-1.1,0-1.9-0.3-2.4-0.8
				c-0.5-0.5-0.8-1.3-0.8-2.4v-5.8h1.9v5.5c0,0.7,0.1,1.2,0.4,1.5c0.3,0.3,0.7,0.5,1.3,0.5c0.8,0,1.4-0.2,1.7-0.7s0.6-1.3,0.6-2.4
				v-4.4h1.9v8.9H193.6z"/>
			<path class="st4" d="M202.3,22.5c0.4,0,0.7,0,0.9,0.1l-0.2,1.8c-0.3-0.1-0.5-0.1-0.8-0.1c-0.8,0-1.4,0.2-1.8,0.7
				c-0.5,0.5-0.7,1.1-0.7,1.9v4.6h-1.9v-8.9h1.5l0.2,1.6h0.1c0.3-0.5,0.7-0.9,1.2-1.3C201.2,22.7,201.7,22.5,202.3,22.5z"/>
			<path class="st4" d="M217,27.1c0,1.4-0.4,2.6-1.1,3.4c-0.7,0.8-1.8,1.2-3.1,1.2c-0.8,0-1.6-0.2-2.2-0.6c-0.6-0.4-1.1-0.9-1.5-1.6
				c-0.3-0.7-0.5-1.5-0.5-2.4c0-1.4,0.4-2.6,1.1-3.4c0.7-0.8,1.8-1.2,3.1-1.2c1.3,0,2.3,0.4,3,1.2C216.6,24.6,217,25.7,217,27.1z
				 M210.5,27.1c0,2,0.8,3.1,2.3,3.1c1.5,0,2.2-1,2.2-3.1c0-2-0.8-3-2.3-3c-0.8,0-1.4,0.3-1.7,0.8C210.7,25.4,210.5,26.1,210.5,27.1
				z"/>
			<path class="st4" d="M223.7,22.5c0.4,0,0.7,0,0.9,0.1l-0.2,1.8c-0.3-0.1-0.5-0.1-0.8-0.1c-0.8,0-1.4,0.2-1.8,0.7
				c-0.5,0.5-0.7,1.1-0.7,1.9v4.6h-1.9v-8.9h1.5l0.2,1.6h0.1c0.3-0.5,0.7-0.9,1.2-1.3C222.6,22.7,223.1,22.5,223.7,22.5z"/>
			<path class="st4" d="M233.7,22.7v1l-1.5,0.3c0.1,0.2,0.3,0.4,0.3,0.7c0.1,0.3,0.1,0.6,0.1,0.9c0,0.9-0.3,1.6-0.9,2.2
				c-0.6,0.5-1.5,0.8-2.6,0.8c-0.3,0-0.5,0-0.8-0.1c-0.4,0.3-0.6,0.5-0.6,0.9c0,0.2,0.1,0.4,0.3,0.5c0.2,0.1,0.5,0.2,1,0.2h1.5
				c1,0,1.7,0.2,2.2,0.6c0.5,0.4,0.8,1,0.8,1.8c0,1-0.4,1.8-1.2,2.3s-2,0.8-3.6,0.8c-1.2,0-2.1-0.2-2.8-0.6s-1-1-1-1.8
				c0-0.5,0.2-1,0.5-1.4c0.3-0.4,0.8-0.6,1.4-0.8c-0.3-0.1-0.5-0.3-0.6-0.5c-0.2-0.2-0.2-0.5-0.2-0.8c0-0.3,0.1-0.6,0.3-0.8
				c0.2-0.2,0.5-0.5,0.8-0.7c-0.5-0.2-0.8-0.5-1.1-1c-0.3-0.4-0.4-1-0.4-1.6c0-1,0.3-1.7,0.9-2.2c0.6-0.5,1.5-0.8,2.6-0.8
				c0.3,0,0.5,0,0.8,0.1c0.3,0,0.5,0.1,0.6,0.1H233.7z M226.8,32.9c0,0.4,0.2,0.7,0.5,0.9c0.4,0.2,0.9,0.3,1.5,0.3
				c1,0,1.8-0.1,2.3-0.4c0.5-0.3,0.8-0.7,0.8-1.2c0-0.4-0.1-0.7-0.4-0.8s-0.8-0.2-1.5-0.2h-1.4c-0.5,0-1,0.1-1.3,0.4
				C226.9,32.2,226.8,32.5,226.8,32.9z M227.6,25.6c0,0.6,0.1,1,0.4,1.3c0.3,0.3,0.7,0.4,1.2,0.4c1.1,0,1.6-0.6,1.6-1.7
				c0-0.6-0.1-1-0.4-1.3s-0.7-0.5-1.2-0.5c-0.5,0-1,0.2-1.2,0.5C227.7,24.5,227.6,25,227.6,25.6z"/>
			<path class="st4" d="M240.9,31.6l-0.4-1.2h-0.1c-0.4,0.5-0.9,0.9-1.3,1.1c-0.4,0.2-1,0.3-1.7,0.3c-0.9,0-1.6-0.2-2-0.7
				c-0.5-0.5-0.7-1.1-0.7-2c0-0.9,0.3-1.6,1-2.1c0.7-0.5,1.7-0.7,3.1-0.8l1.5,0v-0.5c0-0.6-0.1-1-0.4-1.3c-0.3-0.3-0.7-0.4-1.2-0.4
				c-0.5,0-0.9,0.1-1.3,0.2s-0.8,0.3-1.2,0.5l-0.6-1.3c0.5-0.3,1-0.4,1.6-0.6c0.6-0.1,1.1-0.2,1.6-0.2c1.1,0,2,0.2,2.6,0.7
				c0.6,0.5,0.9,1.3,0.9,2.3v6H240.9z M238.1,30.3c0.7,0,1.2-0.2,1.6-0.6c0.4-0.4,0.6-0.9,0.6-1.6v-0.8l-1.1,0
				c-0.9,0-1.5,0.2-1.9,0.4c-0.4,0.3-0.6,0.7-0.6,1.2c0,0.4,0.1,0.7,0.4,0.9C237.3,30.2,237.6,30.3,238.1,30.3z"/>
			<path class="st4" d="M252.7,31.6h-1.9v-5.5c0-0.7-0.1-1.2-0.4-1.5s-0.7-0.5-1.3-0.5c-0.8,0-1.4,0.2-1.7,0.7s-0.6,1.3-0.6,2.4v4.4
				h-1.9v-8.9h1.5l0.3,1.2h0.1c0.3-0.4,0.6-0.7,1.1-1c0.5-0.2,1-0.3,1.6-0.3c2.1,0,3.2,1.1,3.2,3.2V31.6z"/>
			<path class="st4" d="M255.2,20.3c0-0.3,0.1-0.6,0.3-0.8c0.2-0.2,0.4-0.3,0.8-0.3c0.3,0,0.6,0.1,0.8,0.3c0.2,0.2,0.3,0.4,0.3,0.8
				c0,0.3-0.1,0.6-0.3,0.8c-0.2,0.2-0.4,0.3-0.8,0.3c-0.3,0-0.6-0.1-0.8-0.3S255.2,20.7,255.2,20.3z M257.2,31.6h-1.9v-8.9h1.9V31.6
				z"/>
			<path class="st4" d="M265.9,29c0,0.9-0.3,1.5-0.9,2c-0.6,0.5-1.5,0.7-2.7,0.7c-1.2,0-2.1-0.2-2.8-0.5v-1.6c1,0.5,2,0.7,2.9,0.7
				c1.2,0,1.7-0.4,1.7-1.1c0-0.2-0.1-0.4-0.2-0.6c-0.1-0.1-0.3-0.3-0.6-0.5c-0.3-0.2-0.7-0.3-1.2-0.5c-1-0.4-1.7-0.8-2.1-1.2
				s-0.5-0.9-0.5-1.5c0-0.8,0.3-1.3,0.9-1.8c0.6-0.4,1.4-0.6,2.5-0.6c1,0,2,0.2,3,0.6l-0.6,1.4c-1-0.4-1.8-0.6-2.4-0.6
				c-1,0-1.5,0.3-1.5,0.9c0,0.3,0.1,0.5,0.4,0.7s0.8,0.5,1.7,0.8c0.7,0.3,1.3,0.5,1.6,0.8c0.3,0.2,0.6,0.5,0.7,0.8
				S265.9,28.6,265.9,29z"/>
			<path class="st4" d="M273.5,31.6l-0.4-1.2H273c-0.4,0.5-0.9,0.9-1.3,1.1c-0.4,0.2-1,0.3-1.7,0.3c-0.9,0-1.6-0.2-2-0.7
				c-0.5-0.5-0.7-1.1-0.7-2c0-0.9,0.3-1.6,1-2.1c0.7-0.5,1.7-0.7,3.1-0.8l1.5,0v-0.5c0-0.6-0.1-1-0.4-1.3c-0.3-0.3-0.7-0.4-1.2-0.4
				c-0.5,0-0.9,0.1-1.3,0.2s-0.8,0.3-1.2,0.5l-0.6-1.3c0.5-0.3,1-0.4,1.6-0.6c0.6-0.1,1.1-0.2,1.6-0.2c1.1,0,2,0.2,2.6,0.7
				c0.6,0.5,0.9,1.3,0.9,2.3v6H273.5z M270.6,30.3c0.7,0,1.2-0.2,1.6-0.6c0.4-0.4,0.6-0.9,0.6-1.6v-0.8l-1.1,0
				c-0.9,0-1.5,0.2-1.9,0.4c-0.4,0.3-0.6,0.7-0.6,1.2c0,0.4,0.1,0.7,0.4,0.9C269.8,30.2,270.2,30.3,270.6,30.3z"/>
			<path class="st4" d="M280.7,30.2c0.5,0,0.9-0.1,1.4-0.2v1.4c-0.2,0.1-0.5,0.2-0.8,0.2c-0.3,0.1-0.7,0.1-1,0.1
				c-1.8,0-2.7-0.9-2.7-2.8v-4.8h-1.2v-0.8l1.3-0.7l0.6-1.9h1.2v2h2.5v1.4h-2.5v4.7c0,0.5,0.1,0.8,0.3,1S280.4,30.2,280.7,30.2z"/>
			<path class="st4" d="M283.8,20.3c0-0.3,0.1-0.6,0.3-0.8c0.2-0.2,0.4-0.3,0.8-0.3c0.3,0,0.6,0.1,0.8,0.3c0.2,0.2,0.3,0.4,0.3,0.8
				c0,0.3-0.1,0.6-0.3,0.8c-0.2,0.2-0.4,0.3-0.8,0.3c-0.3,0-0.6-0.1-0.8-0.3S283.8,20.7,283.8,20.3z M285.8,31.6h-1.9v-8.9h1.9V31.6
				z"/>
			<path class="st4" d="M296.3,27.1c0,1.4-0.4,2.6-1.1,3.4c-0.7,0.8-1.8,1.2-3.1,1.2c-0.8,0-1.6-0.2-2.2-0.6
				c-0.6-0.4-1.1-0.9-1.5-1.6c-0.3-0.7-0.5-1.5-0.5-2.4c0-1.4,0.4-2.6,1.1-3.4c0.7-0.8,1.8-1.2,3.1-1.2c1.3,0,2.3,0.4,3,1.2
				C296,24.6,296.3,25.7,296.3,27.1z M289.9,27.1c0,2,0.8,3.1,2.3,3.1c1.5,0,2.2-1,2.2-3.1c0-2-0.8-3-2.3-3c-0.8,0-1.4,0.3-1.7,0.8
				C290.1,25.4,289.9,26.1,289.9,27.1z"/>
			<path class="st4" d="M306.3,31.6h-1.9v-5.5c0-0.7-0.1-1.2-0.4-1.5s-0.7-0.5-1.3-0.5c-0.8,0-1.4,0.2-1.7,0.7s-0.6,1.3-0.6,2.4v4.4
				h-1.9v-8.9h1.5l0.3,1.2h0.1c0.3-0.4,0.6-0.7,1.1-1c0.5-0.2,1-0.3,1.6-0.3c2.1,0,3.2,1.1,3.2,3.2V31.6z"/>
			<path class="st4" d="M314.5,31.6l-0.4-1.2H314c-0.4,0.5-0.9,0.9-1.3,1.1c-0.4,0.2-1,0.3-1.7,0.3c-0.9,0-1.6-0.2-2-0.7
				c-0.5-0.5-0.7-1.1-0.7-2c0-0.9,0.3-1.6,1-2.1c0.7-0.5,1.7-0.7,3.1-0.8l1.5,0v-0.5c0-0.6-0.1-1-0.4-1.3c-0.3-0.3-0.7-0.4-1.2-0.4
				c-0.5,0-0.9,0.1-1.3,0.2s-0.8,0.3-1.2,0.5l-0.6-1.3c0.5-0.3,1-0.4,1.6-0.6c0.6-0.1,1.1-0.2,1.6-0.2c1.1,0,2,0.2,2.6,0.7
				c0.6,0.5,0.9,1.3,0.9,2.3v6H314.5z M311.7,30.3c0.7,0,1.2-0.2,1.6-0.6c0.4-0.4,0.6-0.9,0.6-1.6v-0.8l-1.1,0
				c-0.9,0-1.5,0.2-1.9,0.4c-0.4,0.3-0.6,0.7-0.6,1.2c0,0.4,0.1,0.7,0.4,0.9C310.8,30.2,311.2,30.3,311.7,30.3z"/>
			<path class="st4" d="M320.3,31.6h-1.9V19.1h1.9V31.6z"/>
			<path class="st4" d="M37.2,55.9c-1.3,0-2.4-0.4-3.1-1.2s-1-1.9-1-3.4c0-1.5,0.4-2.6,1.1-3.4c0.7-0.8,1.8-1.2,3.2-1.2
				c0.9,0,1.8,0.2,2.5,0.5l-0.6,1.5c-0.8-0.3-1.5-0.5-2-0.5c-1.5,0-2.3,1-2.3,3.1c0,1,0.2,1.7,0.6,2.2s0.9,0.8,1.7,0.8
				c0.8,0,1.6-0.2,2.4-0.6v1.6c-0.3,0.2-0.7,0.3-1.1,0.4C38.2,55.9,37.8,55.9,37.2,55.9z"/>
			<path class="st4" d="M47.3,55.8l-0.4-1.2h-0.1c-0.4,0.5-0.9,0.9-1.3,1.1c-0.4,0.2-1,0.3-1.7,0.3c-0.9,0-1.6-0.2-2-0.7
				c-0.5-0.5-0.7-1.1-0.7-2c0-0.9,0.3-1.6,1-2.1c0.7-0.5,1.7-0.7,3.1-0.8l1.5,0v-0.5c0-0.6-0.1-1-0.4-1.3c-0.3-0.3-0.7-0.4-1.2-0.4
				c-0.5,0-0.9,0.1-1.3,0.2s-0.8,0.3-1.2,0.5l-0.6-1.3c0.5-0.3,1-0.4,1.6-0.6c0.6-0.1,1.1-0.2,1.6-0.2c1.1,0,2,0.2,2.6,0.7
				c0.6,0.5,0.9,1.3,0.9,2.3v6H47.3z M44.5,54.5c0.7,0,1.2-0.2,1.6-0.6c0.4-0.4,0.6-0.9,0.6-1.6v-0.8l-1.1,0c-0.9,0-1.5,0.2-1.9,0.4
				c-0.4,0.3-0.6,0.7-0.6,1.2c0,0.4,0.1,0.7,0.4,0.9C43.7,54.4,44,54.5,44.5,54.5z"/>
			<path class="st4" d="M55.8,55.9c-1.1,0-2-0.4-2.6-1.2h-0.1c0.1,0.7,0.1,1.2,0.1,1.4v3.6h-1.9V46.9h1.5c0,0.2,0.1,0.6,0.3,1.2h0.1
				c0.6-0.9,1.5-1.3,2.6-1.3c1.1,0,2,0.4,2.6,1.2c0.6,0.8,0.9,1.9,0.9,3.4s-0.3,2.6-0.9,3.4C57.8,55.5,56.9,55.9,55.8,55.9z
				 M55.3,48.3c-0.7,0-1.3,0.2-1.6,0.7s-0.5,1.1-0.5,2.1v0.3c0,1.1,0.2,1.9,0.5,2.3c0.3,0.5,0.9,0.7,1.7,0.7c0.7,0,1.2-0.3,1.5-0.8
				c0.4-0.5,0.5-1.3,0.5-2.3c0-1-0.2-1.7-0.5-2.3C56.5,48.5,56,48.3,55.3,48.3z"/>
			<path class="st4" d="M67.1,55.8l-0.4-1.2h-0.1c-0.4,0.5-0.9,0.9-1.3,1.1c-0.4,0.2-1,0.3-1.7,0.3c-0.9,0-1.6-0.2-2-0.7
				c-0.5-0.5-0.7-1.1-0.7-2c0-0.9,0.3-1.6,1-2.1c0.7-0.5,1.7-0.7,3.1-0.8l1.5,0v-0.5c0-0.6-0.1-1-0.4-1.3c-0.3-0.3-0.7-0.4-1.2-0.4
				c-0.5,0-0.9,0.1-1.3,0.2c-0.4,0.1-0.8,0.3-1.2,0.5l-0.6-1.3c0.5-0.3,1-0.4,1.6-0.6c0.6-0.1,1.1-0.2,1.6-0.2c1.1,0,2,0.2,2.6,0.7
				s0.9,1.3,0.9,2.3v6H67.1z M64.3,54.5c0.7,0,1.2-0.2,1.6-0.6c0.4-0.4,0.6-0.9,0.6-1.6v-0.8l-1.1,0c-0.9,0-1.5,0.2-1.9,0.4
				s-0.6,0.7-0.6,1.2c0,0.4,0.1,0.7,0.4,0.9C63.5,54.4,63.8,54.5,64.3,54.5z"/>
			<path class="st4" d="M75.6,46.7c1.1,0,2,0.4,2.6,1.2c0.6,0.8,0.9,1.9,0.9,3.4c0,1.5-0.3,2.6-0.9,3.4c-0.6,0.8-1.5,1.2-2.6,1.2
				c-1.1,0-2-0.4-2.6-1.2h-0.1l-0.3,1.1h-1.4V43.3h1.9v3c0,0.2,0,0.5,0,1c0,0.4,0,0.7,0,0.8h0.1C73.5,47.2,74.4,46.7,75.6,46.7z
				 M75.1,48.3c-0.8,0-1.3,0.2-1.6,0.7s-0.5,1.2-0.5,2.2v0.1c0,1.1,0.2,1.9,0.5,2.3c0.3,0.5,0.9,0.7,1.7,0.7c0.7,0,1.2-0.3,1.5-0.8
				c0.3-0.5,0.5-1.3,0.5-2.3C77.2,49.3,76.5,48.3,75.1,48.3z"/>
			<path class="st4" d="M81.2,44.5c0-0.3,0.1-0.6,0.3-0.8c0.2-0.2,0.4-0.3,0.8-0.3c0.3,0,0.6,0.1,0.8,0.3c0.2,0.2,0.3,0.4,0.3,0.8
				c0,0.3-0.1,0.6-0.3,0.8s-0.4,0.3-0.8,0.3c-0.3,0-0.6-0.1-0.8-0.3C81.3,45.1,81.2,44.9,81.2,44.5z M83.2,55.8h-1.9v-8.9h1.9V55.8z
				"/>
			<path class="st4" d="M87.8,55.8h-1.9V43.3h1.9V55.8z"/>
			<path class="st4" d="M90.3,44.5c0-0.3,0.1-0.6,0.3-0.8c0.2-0.2,0.4-0.3,0.8-0.3c0.3,0,0.6,0.1,0.8,0.3c0.2,0.2,0.3,0.4,0.3,0.8
				c0,0.3-0.1,0.6-0.3,0.8s-0.4,0.3-0.8,0.3c-0.3,0-0.6-0.1-0.8-0.3C90.4,45.1,90.3,44.9,90.3,44.5z M92.3,55.8h-1.9v-8.9h1.9V55.8z
				"/>
			<path class="st4" d="M98.3,54.4c0.5,0,0.9-0.1,1.4-0.2v1.4c-0.2,0.1-0.5,0.2-0.8,0.2c-0.3,0.1-0.7,0.1-1,0.1
				c-1.8,0-2.7-0.9-2.7-2.8v-4.8H94v-0.8l1.3-0.7l0.6-1.9h1.2v2h2.5v1.4h-2.5v4.7c0,0.5,0.1,0.8,0.3,1C97.7,54.3,98,54.4,98.3,54.4z
				"/>
			<path class="st4" d="M100.1,46.9h2.1l1.8,5c0.3,0.7,0.5,1.4,0.5,2h0.1c0-0.3,0.1-0.7,0.3-1.1s0.8-2.4,2-6h2l-3.8,10
				c-0.7,1.8-1.8,2.8-3.4,2.8c-0.4,0-0.8,0-1.2-0.1v-1.5c0.3,0.1,0.6,0.1,1,0.1c0.9,0,1.5-0.5,1.9-1.6l0.3-0.8L100.1,46.9z"/>
			<path class="st4" d="M120.5,53.2c0,0.9-0.3,1.5-0.9,2c-0.6,0.5-1.5,0.7-2.7,0.7c-1.2,0-2.1-0.2-2.8-0.5v-1.6c1,0.5,2,0.7,2.9,0.7
				c1.2,0,1.7-0.4,1.7-1.1c0-0.2-0.1-0.4-0.2-0.6c-0.1-0.1-0.3-0.3-0.6-0.5s-0.7-0.3-1.2-0.5c-1-0.4-1.7-0.8-2.1-1.2
				c-0.4-0.4-0.5-0.9-0.5-1.5c0-0.8,0.3-1.3,0.9-1.8s1.4-0.6,2.5-0.6c1,0,2,0.2,3,0.6l-0.6,1.4c-1-0.4-1.8-0.6-2.4-0.6
				c-1,0-1.5,0.3-1.5,0.9c0,0.3,0.1,0.5,0.4,0.7c0.3,0.2,0.8,0.5,1.7,0.8c0.7,0.3,1.3,0.5,1.6,0.8s0.6,0.5,0.7,0.8
				S120.5,52.8,120.5,53.2z"/>
			<path class="st4" d="M128.8,55.8l-0.3-1.2h-0.1c-0.3,0.4-0.6,0.7-1.1,1c-0.5,0.2-1,0.4-1.7,0.4c-1.1,0-1.9-0.3-2.4-0.8
				c-0.5-0.5-0.8-1.3-0.8-2.4v-5.8h1.9v5.5c0,0.7,0.1,1.2,0.4,1.5c0.3,0.3,0.7,0.5,1.3,0.5c0.8,0,1.4-0.2,1.7-0.7
				c0.4-0.5,0.6-1.3,0.6-2.4v-4.4h1.9v8.9H128.8z"/>
			<path class="st4" d="M137.5,55.9c-1.1,0-2-0.4-2.6-1.2h-0.1c0.1,0.7,0.1,1.2,0.1,1.4v3.6H133V46.9h1.5c0,0.2,0.1,0.6,0.3,1.2h0.1
				c0.6-0.9,1.5-1.3,2.6-1.3c1.1,0,2,0.4,2.6,1.2c0.6,0.8,0.9,1.9,0.9,3.4s-0.3,2.6-0.9,3.4S138.6,55.9,137.5,55.9z M137,48.3
				c-0.7,0-1.3,0.2-1.6,0.7s-0.5,1.1-0.5,2.1v0.3c0,1.1,0.2,1.9,0.5,2.3c0.3,0.5,0.9,0.7,1.7,0.7c0.7,0,1.2-0.3,1.5-0.8
				c0.4-0.5,0.5-1.3,0.5-2.3c0-1-0.2-1.7-0.5-2.3C138.2,48.5,137.7,48.3,137,48.3z"/>
			<path class="st4" d="M147.7,55.9c-1.1,0-2-0.4-2.6-1.2H145c0.1,0.7,0.1,1.2,0.1,1.4v3.6h-1.9V46.9h1.5c0,0.2,0.1,0.6,0.3,1.2h0.1
				c0.6-0.9,1.5-1.3,2.6-1.3c1.1,0,2,0.4,2.6,1.2c0.6,0.8,0.9,1.9,0.9,3.4s-0.3,2.6-0.9,3.4C149.7,55.5,148.8,55.9,147.7,55.9z
				 M147.3,48.3c-0.7,0-1.3,0.2-1.6,0.7c-0.3,0.4-0.5,1.1-0.5,2.1v0.3c0,1.1,0.2,1.9,0.5,2.3c0.3,0.5,0.9,0.7,1.7,0.7
				c0.7,0,1.2-0.3,1.5-0.8c0.4-0.5,0.5-1.3,0.5-2.3c0-1-0.2-1.7-0.5-2.3C148.5,48.5,147.9,48.3,147.3,48.3z"/>
			<path class="st4" d="M161.3,51.3c0,1.4-0.4,2.6-1.1,3.4c-0.7,0.8-1.8,1.2-3.1,1.2c-0.8,0-1.6-0.2-2.2-0.6
				c-0.6-0.4-1.1-0.9-1.5-1.6c-0.3-0.7-0.5-1.5-0.5-2.4c0-1.4,0.4-2.6,1.1-3.4c0.7-0.8,1.8-1.2,3.1-1.2c1.3,0,2.3,0.4,3,1.2
				C160.9,48.8,161.3,49.9,161.3,51.3z M154.9,51.3c0,2,0.8,3.1,2.3,3.1c1.5,0,2.2-1,2.2-3.1c0-2-0.8-3-2.3-3
				c-0.8,0-1.4,0.3-1.7,0.8C155,49.6,154.9,50.3,154.9,51.3z"/>
			<path class="st4" d="M168,46.7c0.4,0,0.7,0,0.9,0.1l-0.2,1.8c-0.3-0.1-0.5-0.1-0.8-0.1c-0.8,0-1.4,0.2-1.8,0.7
				c-0.5,0.5-0.7,1.1-0.7,1.9v4.6h-1.9v-8.9h1.5l0.2,1.6h0.1c0.3-0.5,0.7-0.9,1.2-1.3C166.9,46.9,167.4,46.7,168,46.7z"/>
			<path class="st4" d="M173.9,54.4c0.5,0,0.9-0.1,1.4-0.2v1.4c-0.2,0.1-0.5,0.2-0.8,0.2c-0.3,0.1-0.7,0.1-1,0.1
				c-1.8,0-2.7-0.9-2.7-2.8v-4.8h-1.2v-0.8l1.3-0.7l0.6-1.9h1.2v2h2.5v1.4h-2.5v4.7c0,0.5,0.1,0.8,0.3,1
				C173.2,54.3,173.5,54.4,173.9,54.4z"/>
			<path class="st4" d="M184.6,54.4c0.5,0,0.9-0.1,1.4-0.2v1.4c-0.2,0.1-0.5,0.2-0.8,0.2s-0.7,0.1-1,0.1c-1.8,0-2.7-0.9-2.7-2.8
				v-4.8h-1.2v-0.8l1.3-0.7l0.6-1.9h1.2v2h2.5v1.4h-2.5v4.7c0,0.5,0.1,0.8,0.3,1C183.9,54.3,184.2,54.4,184.6,54.4z"/>
			<path class="st4" d="M195.6,55.8h-1.9v-5.5c0-0.7-0.1-1.2-0.4-1.5s-0.7-0.5-1.3-0.5c-0.8,0-1.4,0.2-1.7,0.7
				c-0.4,0.5-0.6,1.3-0.6,2.4v4.4h-1.9V43.3h1.9v3.2c0,0.5,0,1.1-0.1,1.6h0.1c0.3-0.4,0.6-0.8,1.1-1c0.5-0.2,1-0.4,1.6-0.4
				c2.1,0,3.2,1.1,3.2,3.2V55.8z"/>
			<path class="st4" d="M202,55.9c-1.4,0-2.5-0.4-3.2-1.2s-1.2-1.9-1.2-3.3c0-1.4,0.4-2.6,1.1-3.4c0.7-0.8,1.7-1.2,3-1.2
				c1.2,0,2.1,0.4,2.8,1.1c0.7,0.7,1,1.7,1,2.9v1h-5.9c0,0.9,0.3,1.5,0.7,2c0.4,0.5,1.1,0.7,1.9,0.7c0.5,0,1,0,1.5-0.1
				c0.5-0.1,0.9-0.3,1.5-0.5v1.5c-0.5,0.2-0.9,0.4-1.4,0.5S202.7,55.9,202,55.9z M201.7,48.2c-0.6,0-1.1,0.2-1.4,0.6
				c-0.4,0.4-0.6,0.9-0.6,1.7h4c0-0.7-0.2-1.3-0.5-1.7C202.8,48.3,202.3,48.2,201.7,48.2z"/>
			<path class="st4" d="M211.8,44.5c0-0.3,0.1-0.6,0.3-0.8c0.2-0.2,0.4-0.3,0.8-0.3c0.3,0,0.6,0.1,0.8,0.3c0.2,0.2,0.3,0.4,0.3,0.8
				c0,0.3-0.1,0.6-0.3,0.8s-0.4,0.3-0.8,0.3c-0.3,0-0.6-0.1-0.8-0.3C211.9,45.1,211.8,44.9,211.8,44.5z M213.8,55.8h-1.9v-8.9h1.9
				V55.8z"/>
			<path class="st4" d="M224,55.8h-1.9v-5.5c0-0.7-0.1-1.2-0.4-1.5c-0.3-0.3-0.7-0.5-1.2-0.5c-0.7,0-1.3,0.2-1.6,0.7
				c-0.3,0.5-0.5,1.3-0.5,2.4v4.4h-1.9v-8.9h1.5l0.3,1.2h0.1c0.2-0.4,0.6-0.7,1.1-1c0.5-0.2,1-0.3,1.5-0.3c1.4,0,2.3,0.5,2.7,1.4
				h0.1c0.3-0.4,0.6-0.8,1.1-1c0.5-0.2,1-0.4,1.6-0.4c1.1,0,1.8,0.3,2.3,0.8c0.5,0.5,0.7,1.3,0.7,2.4v5.8h-1.9v-5.5
				c0-0.7-0.1-1.2-0.4-1.5c-0.3-0.3-0.7-0.5-1.2-0.5c-0.7,0-1.3,0.2-1.6,0.7c-0.3,0.5-0.5,1.2-0.5,2.1V55.8z"/>
			<path class="st4" d="M236.7,55.9c-1.1,0-2-0.4-2.6-1.2H234c0.1,0.7,0.1,1.2,0.1,1.4v3.6h-1.9V46.9h1.5c0,0.2,0.1,0.6,0.3,1.2h0.1
				c0.6-0.9,1.5-1.3,2.6-1.3c1.1,0,2,0.4,2.6,1.2c0.6,0.8,0.9,1.9,0.9,3.4s-0.3,2.6-0.9,3.4C238.7,55.5,237.8,55.9,236.7,55.9z
				 M236.2,48.3c-0.7,0-1.3,0.2-1.6,0.7c-0.3,0.4-0.5,1.1-0.5,2.1v0.3c0,1.1,0.2,1.9,0.5,2.3c0.3,0.5,0.9,0.7,1.7,0.7
				c0.7,0,1.2-0.3,1.5-0.8c0.4-0.5,0.5-1.3,0.5-2.3c0-1-0.2-1.7-0.5-2.3C237.4,48.5,236.9,48.3,236.2,48.3z"/>
			<path class="st4" d="M244.3,55.8h-1.9V43.3h1.9V55.8z"/>
			<path class="st4" d="M250.9,55.9c-1.4,0-2.5-0.4-3.2-1.2c-0.8-0.8-1.2-1.9-1.2-3.3c0-1.4,0.4-2.6,1.1-3.4c0.7-0.8,1.7-1.2,3-1.2
				c1.2,0,2.1,0.4,2.8,1.1c0.7,0.7,1,1.7,1,2.9v1h-5.9c0,0.9,0.3,1.5,0.7,2c0.4,0.5,1.1,0.7,1.9,0.7c0.5,0,1,0,1.5-0.1
				c0.5-0.1,0.9-0.3,1.5-0.5v1.5c-0.5,0.2-0.9,0.4-1.4,0.5C252,55.9,251.5,55.9,250.9,55.9z M250.5,48.2c-0.6,0-1.1,0.2-1.4,0.6
				c-0.4,0.4-0.6,0.9-0.6,1.7h4c0-0.7-0.2-1.3-0.5-1.7C251.6,48.3,251.1,48.2,250.5,48.2z"/>
			<path class="st4" d="M263.9,55.8H262v-5.5c0-0.7-0.1-1.2-0.4-1.5c-0.3-0.3-0.7-0.5-1.2-0.5c-0.7,0-1.3,0.2-1.6,0.7
				s-0.5,1.3-0.5,2.4v4.4h-1.9v-8.9h1.5l0.3,1.2h0.1c0.2-0.4,0.6-0.7,1.1-1c0.5-0.2,1-0.3,1.5-0.3c1.4,0,2.3,0.5,2.7,1.4h0.1
				c0.3-0.4,0.6-0.8,1.1-1c0.5-0.2,1-0.4,1.6-0.4c1.1,0,1.8,0.3,2.3,0.8c0.5,0.5,0.7,1.3,0.7,2.4v5.8h-1.9v-5.5
				c0-0.7-0.1-1.2-0.4-1.5c-0.3-0.3-0.7-0.5-1.2-0.5c-0.7,0-1.3,0.2-1.6,0.7c-0.3,0.5-0.5,1.2-0.5,2.1V55.8z"/>
			<path class="st4" d="M276,55.9c-1.4,0-2.5-0.4-3.2-1.2c-0.8-0.8-1.2-1.9-1.2-3.3c0-1.4,0.4-2.6,1.1-3.4c0.7-0.8,1.7-1.2,3-1.2
				c1.2,0,2.1,0.4,2.8,1.1c0.7,0.7,1,1.7,1,2.9v1h-5.9c0,0.9,0.3,1.5,0.7,2c0.4,0.5,1.1,0.7,1.9,0.7c0.5,0,1,0,1.5-0.1
				c0.5-0.1,0.9-0.3,1.5-0.5v1.5c-0.5,0.2-0.9,0.4-1.4,0.5C277.2,55.9,276.6,55.9,276,55.9z M275.7,48.2c-0.6,0-1.1,0.2-1.4,0.6
				c-0.4,0.4-0.6,0.9-0.6,1.7h4c0-0.7-0.2-1.3-0.5-1.7C276.8,48.3,276.3,48.2,275.7,48.2z"/>
			<path class="st4" d="M289.4,55.8h-1.9v-5.5c0-0.7-0.1-1.2-0.4-1.5s-0.7-0.5-1.3-0.5c-0.8,0-1.4,0.2-1.7,0.7s-0.6,1.3-0.6,2.4v4.4
				h-1.9v-8.9h1.5l0.3,1.2h0.1c0.3-0.4,0.6-0.7,1.1-1c0.5-0.2,1-0.3,1.6-0.3c2.1,0,3.2,1.1,3.2,3.2V55.8z"/>
			<path class="st4" d="M295.4,54.4c0.5,0,0.9-0.1,1.4-0.2v1.4c-0.2,0.1-0.5,0.2-0.8,0.2c-0.3,0.1-0.7,0.1-1,0.1
				c-1.8,0-2.7-0.9-2.7-2.8v-4.8H291v-0.8l1.3-0.7l0.6-1.9h1.2v2h2.5v1.4h-2.5v4.7c0,0.5,0.1,0.8,0.3,1S295,54.4,295.4,54.4z"/>
			<path class="st4" d="M304.1,55.8l-0.4-1.2h-0.1c-0.4,0.5-0.9,0.9-1.3,1.1c-0.4,0.2-1,0.3-1.7,0.3c-0.9,0-1.6-0.2-2-0.7
				c-0.5-0.5-0.7-1.1-0.7-2c0-0.9,0.3-1.6,1-2.1c0.7-0.5,1.7-0.7,3.1-0.8l1.5,0v-0.5c0-0.6-0.1-1-0.4-1.3c-0.3-0.3-0.7-0.4-1.2-0.4
				c-0.5,0-0.9,0.1-1.3,0.2c-0.4,0.1-0.8,0.3-1.2,0.5l-0.6-1.3c0.5-0.3,1-0.4,1.6-0.6c0.6-0.1,1.1-0.2,1.6-0.2c1.1,0,2,0.2,2.6,0.7
				s0.9,1.3,0.9,2.3v6H304.1z M301.3,54.5c0.7,0,1.2-0.2,1.6-0.6c0.4-0.4,0.6-0.9,0.6-1.6v-0.8l-1.1,0c-0.9,0-1.5,0.2-1.9,0.4
				s-0.6,0.7-0.6,1.2c0,0.4,0.1,0.7,0.4,0.9C300.4,54.4,300.8,54.5,301.3,54.5z"/>
			<path class="st4" d="M311.4,54.4c0.5,0,0.9-0.1,1.4-0.2v1.4c-0.2,0.1-0.5,0.2-0.8,0.2c-0.3,0.1-0.7,0.1-1,0.1
				c-1.8,0-2.7-0.9-2.7-2.8v-4.8H307v-0.8l1.3-0.7l0.6-1.9h1.2v2h2.5v1.4h-2.5v4.7c0,0.5,0.1,0.8,0.3,1
				C310.7,54.3,311,54.4,311.4,54.4z"/>
			<path class="st4" d="M314.4,44.5c0-0.3,0.1-0.6,0.3-0.8c0.2-0.2,0.4-0.3,0.8-0.3c0.3,0,0.6,0.1,0.8,0.3c0.2,0.2,0.3,0.4,0.3,0.8
				c0,0.3-0.1,0.6-0.3,0.8s-0.4,0.3-0.8,0.3c-0.3,0-0.6-0.1-0.8-0.3C314.5,45.1,314.4,44.9,314.4,44.5z M316.4,55.8h-1.9v-8.9h1.9
				V55.8z"/>
			<path class="st4" d="M327,51.3c0,1.4-0.4,2.6-1.1,3.4s-1.8,1.2-3.1,1.2c-0.8,0-1.6-0.2-2.2-0.6c-0.6-0.4-1.1-0.9-1.5-1.6
				c-0.3-0.7-0.5-1.5-0.5-2.4c0-1.4,0.4-2.6,1.1-3.4c0.7-0.8,1.8-1.2,3.1-1.2c1.3,0,2.3,0.4,3,1.2C326.6,48.8,327,49.9,327,51.3z
				 M320.5,51.3c0,2,0.8,3.1,2.3,3.1c1.5,0,2.2-1,2.2-3.1c0-2-0.8-3-2.3-3c-0.8,0-1.4,0.3-1.7,0.8C320.7,49.6,320.5,50.3,320.5,51.3
				z"/>
			<path class="st4" d="M336.9,55.8H335v-5.5c0-0.7-0.1-1.2-0.4-1.5s-0.7-0.5-1.3-0.5c-0.8,0-1.4,0.2-1.7,0.7s-0.6,1.3-0.6,2.4v4.4
				h-1.9v-8.9h1.5l0.3,1.2h0.1c0.3-0.4,0.6-0.7,1.1-1c0.5-0.2,1-0.3,1.6-0.3c2.1,0,3.2,1.1,3.2,3.2V55.8z"/>
			<path class="st4" d="M91.1,75.5c0,1.4-0.4,2.6-1.1,3.4s-1.8,1.2-3.1,1.2c-0.8,0-1.6-0.2-2.2-0.6c-0.6-0.4-1.1-0.9-1.5-1.6
				c-0.3-0.7-0.5-1.5-0.5-2.4c0-1.4,0.4-2.6,1.1-3.4c0.7-0.8,1.8-1.2,3.1-1.2c1.3,0,2.3,0.4,3,1.2S91.1,74.1,91.1,75.5z M84.7,75.5
				c0,2,0.8,3.1,2.3,3.1c1.5,0,2.2-1,2.2-3.1c0-2-0.8-3-2.3-3c-0.8,0-1.4,0.3-1.7,0.8C84.9,73.8,84.7,74.5,84.7,75.5z"/>
			<path class="st4" d="M97.8,72.5h-2.2V80h-1.9v-7.4h-1.5v-0.9l1.5-0.6v-0.6c0-1,0.2-1.8,0.7-2.3c0.5-0.5,1.2-0.8,2.3-0.8
				c0.7,0,1.3,0.1,2,0.3l-0.5,1.4c-0.5-0.1-0.9-0.2-1.3-0.2c-0.4,0-0.7,0.1-0.9,0.4c-0.2,0.3-0.3,0.7-0.3,1.2v0.6h2.2V72.5z"/>
			<path class="st4" d="M102.2,71.1h2.1l1.8,5c0.3,0.7,0.5,1.4,0.5,2h0.1c0-0.3,0.1-0.7,0.3-1.1s0.8-2.4,2-6h2l-3.8,10
				c-0.7,1.8-1.8,2.8-3.4,2.8c-0.4,0-0.8,0-1.2-0.1v-1.5c0.3,0.1,0.6,0.1,1,0.1c0.9,0,1.5-0.5,1.9-1.6l0.3-0.8L102.2,71.1z"/>
			<path class="st4" d="M120.2,75.5c0,1.4-0.4,2.6-1.1,3.4s-1.8,1.2-3.1,1.2c-0.8,0-1.6-0.2-2.2-0.6c-0.6-0.4-1.1-0.9-1.5-1.6
				c-0.3-0.7-0.5-1.5-0.5-2.4c0-1.4,0.4-2.6,1.1-3.4c0.7-0.8,1.8-1.2,3.1-1.2c1.3,0,2.3,0.4,3,1.2C119.8,73,120.2,74.1,120.2,75.5z
				 M113.8,75.5c0,2,0.8,3.1,2.3,3.1c1.5,0,2.2-1,2.2-3.1c0-2-0.8-3-2.3-3c-0.8,0-1.4,0.3-1.7,0.8C113.9,73.8,113.8,74.5,113.8,75.5
				z"/>
			<path class="st4" d="M128.6,80l-0.3-1.2h-0.1c-0.3,0.4-0.6,0.7-1.1,1s-1,0.4-1.7,0.4c-1.1,0-1.9-0.3-2.4-0.8
				c-0.5-0.5-0.8-1.3-0.8-2.4v-5.8h1.9v5.5c0,0.7,0.1,1.2,0.4,1.5c0.3,0.3,0.7,0.5,1.3,0.5c0.8,0,1.4-0.2,1.7-0.7
				c0.4-0.5,0.6-1.3,0.6-2.4v-4.4h1.9V80H128.6z"/>
			<path class="st4" d="M137.3,70.9c0.4,0,0.7,0,0.9,0.1l-0.2,1.8c-0.3-0.1-0.5-0.1-0.8-0.1c-0.8,0-1.4,0.2-1.8,0.7
				c-0.5,0.5-0.7,1.1-0.7,1.9V80h-1.9v-8.9h1.5l0.2,1.6h0.1c0.3-0.5,0.7-0.9,1.2-1.3C136.2,71.1,136.8,70.9,137.3,70.9z"/>
			<path class="st4" d="M148.7,70.9c1.1,0,2,0.4,2.6,1.2c0.6,0.8,0.9,1.9,0.9,3.4c0,1.5-0.3,2.6-0.9,3.4c-0.6,0.8-1.5,1.2-2.6,1.2
				c-1.1,0-2-0.4-2.6-1.2h-0.1l-0.3,1.1h-1.4V67.5h1.9v3c0,0.2,0,0.5,0,1c0,0.4,0,0.7,0,0.8h0.1C146.6,71.4,147.5,70.9,148.7,70.9z
				 M148.2,72.5c-0.8,0-1.3,0.2-1.6,0.7s-0.5,1.2-0.5,2.2v0.1c0,1.1,0.2,1.9,0.5,2.3c0.3,0.5,0.9,0.7,1.7,0.7c0.7,0,1.2-0.3,1.5-0.8
				s0.5-1.3,0.5-2.3C150.3,73.5,149.6,72.5,148.2,72.5z"/>
			<path class="st4" d="M160.6,80l-0.3-1.2h-0.1c-0.3,0.4-0.6,0.7-1.1,1s-1,0.4-1.7,0.4c-1.1,0-1.9-0.3-2.4-0.8
				c-0.5-0.5-0.8-1.3-0.8-2.4v-5.8h1.9v5.5c0,0.7,0.1,1.2,0.4,1.5c0.3,0.3,0.7,0.5,1.3,0.5c0.8,0,1.4-0.2,1.7-0.7
				c0.4-0.5,0.6-1.3,0.6-2.4v-4.4h1.9V80H160.6z"/>
			<path class="st4" d="M170.8,77.4c0,0.9-0.3,1.5-0.9,2c-0.6,0.5-1.5,0.7-2.7,0.7c-1.2,0-2.1-0.2-2.8-0.5V78c1,0.5,2,0.7,2.9,0.7
				c1.2,0,1.7-0.4,1.7-1.1c0-0.2-0.1-0.4-0.2-0.6c-0.1-0.1-0.3-0.3-0.6-0.5c-0.3-0.2-0.7-0.3-1.2-0.5c-1-0.4-1.7-0.8-2.1-1.2
				s-0.5-0.9-0.5-1.5c0-0.8,0.3-1.3,0.9-1.8s1.4-0.6,2.5-0.6c1,0,2,0.2,3,0.6L170,73c-1-0.4-1.8-0.6-2.4-0.6c-1,0-1.5,0.3-1.5,0.9
				c0,0.3,0.1,0.5,0.4,0.7c0.3,0.2,0.8,0.5,1.7,0.8c0.7,0.3,1.3,0.5,1.6,0.8s0.6,0.5,0.7,0.8C170.7,76.6,170.8,77,170.8,77.4z"/>
			<path class="st4" d="M172.7,68.7c0-0.3,0.1-0.6,0.3-0.8c0.2-0.2,0.4-0.3,0.8-0.3c0.3,0,0.6,0.1,0.8,0.3c0.2,0.2,0.3,0.4,0.3,0.8
				c0,0.3-0.1,0.6-0.3,0.8c-0.2,0.2-0.4,0.3-0.8,0.3c-0.3,0-0.6-0.1-0.8-0.3S172.7,69.1,172.7,68.7z M174.7,80h-1.9v-8.9h1.9V80z"/>
			<path class="st4" d="M185.2,80h-1.9v-5.5c0-0.7-0.1-1.2-0.4-1.5s-0.7-0.5-1.3-0.5c-0.8,0-1.4,0.2-1.7,0.7s-0.6,1.3-0.6,2.4V80
				h-1.9v-8.9h1.5l0.3,1.2h0.1c0.3-0.4,0.6-0.7,1.1-1c0.5-0.2,1-0.3,1.6-0.3c2.1,0,3.2,1.1,3.2,3.2V80z"/>
			<path class="st4" d="M191.7,80.1c-1.4,0-2.5-0.4-3.2-1.2c-0.8-0.8-1.2-1.9-1.2-3.3c0-1.4,0.4-2.6,1.1-3.4c0.7-0.8,1.7-1.2,3-1.2
				c1.2,0,2.1,0.4,2.8,1.1c0.7,0.7,1,1.7,1,2.9v1h-5.9c0,0.9,0.3,1.5,0.7,2c0.4,0.5,1.1,0.7,1.9,0.7c0.5,0,1,0,1.5-0.1
				c0.5-0.1,0.9-0.3,1.5-0.5v1.5c-0.5,0.2-0.9,0.4-1.4,0.5S192.3,80.1,191.7,80.1z M191.3,72.4c-0.6,0-1.1,0.2-1.4,0.6
				c-0.4,0.4-0.6,0.9-0.6,1.7h4c0-0.7-0.2-1.3-0.5-1.7S191.9,72.4,191.3,72.4z"/>
			<path class="st4" d="M203.2,77.4c0,0.9-0.3,1.5-0.9,2c-0.6,0.5-1.5,0.7-2.7,0.7c-1.2,0-2.1-0.2-2.8-0.5V78c1,0.5,2,0.7,2.9,0.7
				c1.2,0,1.7-0.4,1.7-1.1c0-0.2-0.1-0.4-0.2-0.6c-0.1-0.1-0.3-0.3-0.6-0.5s-0.7-0.3-1.2-0.5c-1-0.4-1.7-0.8-2.1-1.2
				c-0.4-0.4-0.5-0.9-0.5-1.5c0-0.8,0.3-1.3,0.9-1.8s1.4-0.6,2.5-0.6c1,0,2,0.2,3,0.6l-0.6,1.4c-1-0.4-1.8-0.6-2.4-0.6
				c-1,0-1.5,0.3-1.5,0.9c0,0.3,0.1,0.5,0.4,0.7c0.3,0.2,0.8,0.5,1.7,0.8c0.7,0.3,1.3,0.5,1.6,0.8s0.6,0.5,0.7,0.8
				S203.2,77,203.2,77.4z"/>
			<path class="st4" d="M211.2,77.4c0,0.9-0.3,1.5-0.9,2c-0.6,0.5-1.5,0.7-2.7,0.7c-1.2,0-2.1-0.2-2.8-0.5V78c1,0.5,2,0.7,2.9,0.7
				c1.2,0,1.7-0.4,1.7-1.1c0-0.2-0.1-0.4-0.2-0.6c-0.1-0.1-0.3-0.3-0.6-0.5s-0.7-0.3-1.2-0.5c-1-0.4-1.7-0.8-2.1-1.2
				c-0.4-0.4-0.5-0.9-0.5-1.5c0-0.8,0.3-1.3,0.9-1.8s1.4-0.6,2.5-0.6c1,0,2,0.2,3,0.6l-0.6,1.4c-1-0.4-1.8-0.6-2.4-0.6
				c-1,0-1.5,0.3-1.5,0.9c0,0.3,0.1,0.5,0.4,0.7c0.3,0.2,0.8,0.5,1.7,0.8c0.7,0.3,1.3,0.5,1.6,0.8s0.6,0.5,0.7,0.8
				S211.2,77,211.2,77.4z"/>
			<path class="st4" d="M223.5,77.4c0,0.9-0.3,1.5-0.9,2c-0.6,0.5-1.5,0.7-2.7,0.7c-1.2,0-2.1-0.2-2.8-0.5V78c1,0.5,2,0.7,2.9,0.7
				c1.2,0,1.7-0.4,1.7-1.1c0-0.2-0.1-0.4-0.2-0.6c-0.1-0.1-0.3-0.3-0.6-0.5c-0.3-0.2-0.7-0.3-1.2-0.5c-1-0.4-1.7-0.8-2.1-1.2
				S217,74,217,73.3c0-0.8,0.3-1.3,0.9-1.8s1.4-0.6,2.5-0.6c1,0,2,0.2,3,0.6l-0.6,1.4c-1-0.4-1.8-0.6-2.4-0.6c-1,0-1.5,0.3-1.5,0.9
				c0,0.3,0.1,0.5,0.4,0.7c0.3,0.2,0.8,0.5,1.7,0.8c0.7,0.3,1.3,0.5,1.6,0.8s0.6,0.5,0.7,0.8C223.4,76.6,223.5,77,223.5,77.4z"/>
			<path class="st4" d="M228.8,78.6c0.5,0,0.9-0.1,1.4-0.2v1.4c-0.2,0.1-0.5,0.2-0.8,0.2c-0.3,0.1-0.7,0.1-1,0.1
				c-1.8,0-2.7-0.9-2.7-2.8v-4.8h-1.2v-0.8l1.3-0.7l0.6-1.9h1.2v2h2.5v1.4h-2.5v4.7c0,0.5,0.1,0.8,0.3,1
				C228.2,78.5,228.5,78.6,228.8,78.6z"/>
			<path class="st4" d="M236.5,70.9c0.4,0,0.7,0,0.9,0.1l-0.2,1.8c-0.3-0.1-0.5-0.1-0.8-0.1c-0.8,0-1.4,0.2-1.8,0.7
				s-0.7,1.1-0.7,1.9V80H232v-8.9h1.5l0.2,1.6h0.1c0.3-0.5,0.7-0.9,1.2-1.3C235.4,71.1,235.9,70.9,236.5,70.9z"/>
			<path class="st4" d="M244.6,80l-0.4-1.2h-0.1c-0.4,0.5-0.9,0.9-1.3,1.1c-0.4,0.2-1,0.3-1.7,0.3c-0.9,0-1.6-0.2-2-0.7
				c-0.5-0.5-0.7-1.1-0.7-2c0-0.9,0.3-1.6,1-2.1c0.7-0.5,1.7-0.7,3.1-0.8l1.5,0v-0.5c0-0.6-0.1-1-0.4-1.3c-0.3-0.3-0.7-0.4-1.2-0.4
				c-0.5,0-0.9,0.1-1.3,0.2s-0.8,0.3-1.2,0.5l-0.6-1.3c0.5-0.3,1-0.4,1.6-0.6c0.6-0.1,1.1-0.2,1.6-0.2c1.1,0,2,0.2,2.6,0.7
				c0.6,0.5,0.9,1.3,0.9,2.3v6H244.6z M241.8,78.7c0.7,0,1.2-0.2,1.6-0.6c0.4-0.4,0.6-0.9,0.6-1.6v-0.8l-1.1,0
				c-0.9,0-1.5,0.2-1.9,0.4c-0.4,0.3-0.6,0.7-0.6,1.2c0,0.4,0.1,0.7,0.4,0.9C241,78.6,241.3,78.7,241.8,78.7z"/>
			<path class="st4" d="M251.9,78.6c0.5,0,0.9-0.1,1.4-0.2v1.4c-0.2,0.1-0.5,0.2-0.8,0.2c-0.3,0.1-0.7,0.1-1,0.1
				c-1.8,0-2.7-0.9-2.7-2.8v-4.8h-1.2v-0.8l1.3-0.7l0.6-1.9h1.2v2h2.5v1.4h-2.5v4.7c0,0.5,0.1,0.8,0.3,1S251.5,78.6,251.9,78.6z"/>
			<path class="st4" d="M258.9,80.1c-1.4,0-2.5-0.4-3.2-1.2c-0.8-0.8-1.2-1.9-1.2-3.3c0-1.4,0.4-2.6,1.1-3.4c0.7-0.8,1.7-1.2,3-1.2
				c1.2,0,2.1,0.4,2.8,1.1c0.7,0.7,1,1.7,1,2.9v1h-5.9c0,0.9,0.3,1.5,0.7,2c0.4,0.5,1.1,0.7,1.9,0.7c0.5,0,1,0,1.5-0.1
				c0.5-0.1,0.9-0.3,1.5-0.5v1.5c-0.5,0.2-0.9,0.4-1.4,0.5S259.5,80.1,258.9,80.1z M258.6,72.4c-0.6,0-1.1,0.2-1.4,0.6
				c-0.4,0.4-0.6,0.9-0.6,1.7h4c0-0.7-0.2-1.3-0.5-1.7S259.2,72.4,258.6,72.4z"/>
			<path class="st4" d="M272,71.1v1l-1.5,0.3c0.1,0.2,0.3,0.4,0.3,0.7c0.1,0.3,0.1,0.6,0.1,0.9c0,0.9-0.3,1.6-0.9,2.2
				c-0.6,0.5-1.5,0.8-2.6,0.8c-0.3,0-0.5,0-0.8-0.1c-0.4,0.3-0.6,0.5-0.6,0.9c0,0.2,0.1,0.4,0.3,0.5s0.5,0.2,1,0.2h1.5
				c1,0,1.7,0.2,2.2,0.6s0.8,1,0.8,1.8c0,1-0.4,1.8-1.2,2.3s-2,0.8-3.6,0.8c-1.2,0-2.1-0.2-2.8-0.6s-1-1-1-1.8c0-0.5,0.2-1,0.5-1.4
				c0.3-0.4,0.8-0.6,1.4-0.8c-0.3-0.1-0.5-0.3-0.6-0.5c-0.2-0.2-0.2-0.5-0.2-0.8c0-0.3,0.1-0.6,0.3-0.8c0.2-0.2,0.5-0.5,0.8-0.7
				c-0.5-0.2-0.8-0.5-1.1-1c-0.3-0.4-0.4-1-0.4-1.6c0-1,0.3-1.7,0.9-2.2c0.6-0.5,1.5-0.8,2.6-0.8c0.3,0,0.5,0,0.8,0.1
				c0.3,0,0.5,0.1,0.6,0.1H272z M265,81.3c0,0.4,0.2,0.7,0.5,0.9c0.4,0.2,0.9,0.3,1.5,0.3c1,0,1.8-0.1,2.3-0.4
				c0.5-0.3,0.8-0.7,0.8-1.2c0-0.4-0.1-0.7-0.4-0.8s-0.8-0.2-1.5-0.2h-1.4c-0.5,0-1,0.1-1.3,0.4S265,80.9,265,81.3z M265.8,74
				c0,0.6,0.1,1,0.4,1.3c0.3,0.3,0.7,0.4,1.2,0.4c1.1,0,1.6-0.6,1.6-1.7c0-0.6-0.1-1-0.4-1.3s-0.7-0.5-1.2-0.5c-0.5,0-1,0.2-1.2,0.5
				C266,72.9,265.8,73.4,265.8,74z"/>
			<path class="st4" d="M272.3,71.1h2.1l1.8,5c0.3,0.7,0.5,1.4,0.5,2h0.1c0-0.3,0.1-0.7,0.3-1.1s0.8-2.4,2-6h2l-3.8,10
				c-0.7,1.8-1.8,2.8-3.4,2.8c-0.4,0-0.8,0-1.2-0.1v-1.5c0.3,0.1,0.6,0.1,1,0.1c0.9,0,1.5-0.5,1.9-1.6l0.3-0.8L272.3,71.1z"/>
			<path class="st4" d="M283.4,76.4v-0.5c0-0.6,0.1-1.1,0.3-1.5s0.6-0.8,1.1-1.2c0.6-0.5,1-0.9,1.2-1.2c0.2-0.3,0.3-0.6,0.3-1
				c0-0.4-0.1-0.8-0.4-1c-0.3-0.2-0.7-0.4-1.3-0.4c-0.5,0-1,0.1-1.4,0.2s-0.9,0.3-1.3,0.5l-0.7-1.4c1.1-0.6,2.2-0.9,3.5-0.9
				c1,0,1.9,0.3,2.5,0.8c0.6,0.5,0.9,1.2,0.9,2.1c0,0.4-0.1,0.8-0.2,1.1c-0.1,0.3-0.3,0.6-0.5,0.9c-0.2,0.3-0.6,0.7-1.2,1.1
				c-0.5,0.4-0.8,0.7-1,1c-0.2,0.3-0.3,0.6-0.3,1v0.4H283.4z M283.1,79c0-0.8,0.4-1.2,1.2-1.2c0.4,0,0.7,0.1,0.9,0.3
				c0.2,0.2,0.3,0.5,0.3,0.9c0,0.4-0.1,0.7-0.3,0.9c-0.2,0.2-0.5,0.3-0.9,0.3s-0.7-0.1-0.9-0.3C283.2,79.7,283.1,79.4,283.1,79z"/>
		</g>
	</g>
</g>
</svg>
