<!-- Generator: Adobe Illustrator 24.1.0, SVG Export Plug-In  -->
<svg version="1.1" xmlns="http://www.w3.org/2000/svg" xmlns:xlink="http://www.w3.org/1999/xlink" x="0px" y="0px" width="42.5px"
	 height="42.5px" viewBox="0 0 42.5 42.5" style="enable-background:new 0 0 42.5 42.5;" xml:space="preserve">
<style type="text/css">
	.st0{fill:#FFFFFF;stroke:#002147;stroke-width:1.5;stroke-linecap:round;stroke-miterlimit:10;}
	.st1{fill:#FFFFFF;}
	.st2{fill:none;stroke:#002147;stroke-width:1.5;stroke-linecap:round;stroke-miterlimit:10;}
	.st3{fill:#002147;}
</style>
<defs>
</defs>
<g>
	<circle class="st0" cx="21.2" cy="21.2" r="20.5"/>
	<g>
		<path class="st1" d="M25.8,32.6c4.5-1.8,7.7-6.2,7.7-11.3c0-6.7-5.4-12.2-12.2-12.2"/>
		<g>
			<path class="st2" d="M25.8,32.6c4.5-1.8,7.7-6.2,7.7-11.3c0-5.2-3.3-9.7-7.9-11.4"/>
			<g>
				<polygon class="st3" points="26.9,7.2 21.2,9.1 25.7,13.1 				"/>
			</g>
		</g>
	</g>
	<g>
		<path class="st1" d="M16.9,9.9c-4.6,1.7-7.9,6.2-7.9,11.4c0,6.7,5.4,12.2,12.2,12.2"/>
		<g>
			<path class="st2" d="M16.9,9.9c-4.6,1.7-7.9,6.2-7.9,11.4c0,5.2,3.3,9.7,7.9,11.4"/>
			<g>
				<polygon class="st3" points="15.6,35.3 21.2,33.4 16.8,29.4 				"/>
			</g>
		</g>
	</g>
</g>
</svg>
