<?xml version="1.0" encoding="utf-8"?>
<!-- Generator: Adobe Illustrator 24.1.2, SVG Export Plug-In . SVG Version: 6.00 Build 0)  -->
<svg version="1.1" id="Layer_1" xmlns="http://www.w3.org/2000/svg" xmlns:xlink="http://www.w3.org/1999/xlink" x="0px" y="0px"
	 viewBox="0 0 369.1 213.2" style="enable-background:new 0 0 369.1 213.2;" xml:space="preserve">
<style type="text/css">
	.st0{fill:#F6F4F6;}
	.st1{fill:#54355E;}
	.st2{opacity:0.5;}
	.st3{fill:#192642;}
	.st4{fill:#FFFFFF;}
</style>
<path class="st0" d="M351.9,213.2H17.3c-9.5,0-17.3-7.7-17.3-17.3V90.5h369.1V196C369.1,205.5,361.4,213.2,351.9,213.2z"/>
<path class="st1" d="M369.1,98H0V17.3C0,7.7,7.7,0,17.3,0h334.6c9.5,0,17.3,7.7,17.3,17.3L369.1,98L369.1,98z"/>
<g class="st2">
	<path class="st3" d="M30.3,176.4c0,2.1-0.3,3.7-1,4.8c-0.7,1-1.7,1.6-3.2,1.6c-1.4,0-2.4-0.5-3.1-1.6s-1.1-2.7-1.1-4.7
		c0-2.2,0.3-3.8,1-4.8s1.7-1.5,3.2-1.5c1.4,0,2.4,0.5,3.1,1.6C29.9,172.7,30.3,174.3,30.3,176.4z M23.9,176.4c0,1.7,0.2,2.9,0.5,3.6
		c0.3,0.7,0.9,1.1,1.7,1.1c0.8,0,1.3-0.4,1.7-1.1c0.4-0.7,0.5-1.9,0.5-3.6c0-1.7-0.2-2.9-0.5-3.6s-0.9-1.1-1.7-1.1
		c-0.8,0-1.3,0.4-1.7,1.1S23.9,174.7,23.9,176.4z"/>
</g>
<g class="st2">
	<path class="st3" d="M55.6,182.6h-2v-8c0-1,0-1.7,0.1-2.3c-0.1,0.1-0.3,0.3-0.5,0.4c-0.2,0.2-0.8,0.7-1.9,1.6l-1-1.3l3.6-2.9h1.7
		C55.6,170.1,55.6,182.6,55.6,182.6z"/>
	<path class="st3" d="M68.1,176.4c0,2.1-0.3,3.7-1,4.8c-0.7,1-1.7,1.6-3.2,1.6c-1.4,0-2.4-0.5-3.1-1.6s-1.1-2.7-1.1-4.7
		c0-2.2,0.3-3.8,1-4.8s1.7-1.5,3.2-1.5c1.4,0,2.4,0.5,3.1,1.6C67.7,172.7,68.1,174.3,68.1,176.4z M61.7,176.4c0,1.7,0.2,2.9,0.5,3.6
		c0.3,0.7,0.9,1.1,1.7,1.1c0.8,0,1.3-0.4,1.7-1.1c0.4-0.7,0.5-1.9,0.5-3.6c0-1.7-0.2-2.9-0.5-3.6c-0.4-0.7-0.9-1.1-1.7-1.1
		s-1.3,0.4-1.7,1.1S61.7,174.7,61.7,176.4z"/>
</g>
<g class="st2">
	<path class="st3" d="M91,182.6h-8.4v-1.5l3.2-3.2c0.9-1,1.6-1.6,1.9-2s0.5-0.8,0.7-1.1s0.2-0.7,0.2-1.1c0-0.6-0.2-1-0.5-1.3
		s-0.8-0.5-1.4-0.5c-0.5,0-0.9,0.1-1.4,0.3c-0.4,0.2-1,0.5-1.5,0.9l-1.1-1.3c0.7-0.6,1.4-1,2-1.2s1.3-0.4,2.1-0.4
		c1.1,0,2.1,0.3,2.8,0.9s1,1.4,1,2.4c0,0.6-0.1,1.1-0.3,1.6c-0.2,0.5-0.5,1-0.9,1.5s-1.1,1.3-2.1,2.2l-2.1,2.1v0.1H91V182.6z"/>
	<path class="st3" d="M100.9,176.4c0,2.1-0.3,3.7-1,4.8c-0.7,1-1.7,1.6-3.2,1.6c-1.4,0-2.4-0.5-3.1-1.6s-1.1-2.7-1.1-4.7
		c0-2.2,0.3-3.8,1-4.8s1.7-1.5,3.2-1.5c1.4,0,2.4,0.5,3.1,1.6C100.6,172.7,100.9,174.3,100.9,176.4z M94.5,176.4
		c0,1.7,0.2,2.9,0.5,3.6c0.3,0.7,0.9,1.1,1.7,1.1s1.3-0.4,1.7-1.1c0.4-0.7,0.5-1.9,0.5-3.6c0-1.7-0.2-2.9-0.5-3.6
		c-0.4-0.7-0.9-1.1-1.7-1.1s-1.3,0.4-1.7,1.1S94.5,174.7,94.5,176.4z"/>
</g>
<g class="st2">
	<path class="st3" d="M123.4,173.1c0,0.8-0.2,1.4-0.7,2c-0.5,0.5-1.1,0.9-1.9,1.1v0.1c1,0.1,1.7,0.4,2.2,0.9s0.7,1.1,0.7,2
		c0,1.2-0.4,2.1-1.3,2.7c-0.8,0.6-2,1-3.6,1c-1.4,0-2.5-0.2-3.5-0.7v-1.8c0.5,0.3,1.1,0.5,1.7,0.6s1.1,0.2,1.7,0.2
		c1,0,1.7-0.2,2.1-0.5s0.7-0.9,0.7-1.6c0-0.7-0.3-1.1-0.8-1.5s-1.3-0.5-2.5-0.5h-1.1v-1.6h1.1c2,0,3-0.7,3-2c0-0.5-0.2-0.9-0.5-1.2
		s-0.8-0.4-1.5-0.4c-0.5,0-0.9,0.1-1.4,0.2c-0.4,0.1-0.9,0.4-1.5,0.8l-1-1.4c1.1-0.8,2.4-1.2,3.9-1.2c1.2,0,2.2,0.3,2.9,0.8
		S123.4,172.1,123.4,173.1z"/>
	<path class="st3" d="M133.8,176.4c0,2.1-0.3,3.7-1,4.8c-0.7,1-1.7,1.6-3.2,1.6c-1.4,0-2.4-0.5-3.1-1.6s-1.1-2.7-1.1-4.7
		c0-2.2,0.3-3.8,1-4.8s1.7-1.5,3.2-1.5c1.4,0,2.4,0.5,3.1,1.6C133.4,172.7,133.8,174.3,133.8,176.4z M127.4,176.4
		c0,1.7,0.2,2.9,0.5,3.6c0.3,0.7,0.9,1.1,1.7,1.1s1.3-0.4,1.7-1.1c0.4-0.7,0.5-1.9,0.5-3.6c0-1.7-0.2-2.9-0.5-3.6
		c-0.4-0.7-0.9-1.1-1.7-1.1s-1.3,0.4-1.7,1.1C127.6,173.5,127.4,174.7,127.4,176.4z"/>
</g>
<g class="st2">
	<path class="st3" d="M157.2,179.9h-1.7v2.7h-1.9v-2.7H148v-1.5l5.6-8.2h1.9v8h1.7V179.9z M153.6,178.2v-3.1c0-1.1,0-2,0.1-2.7h-0.1
		c-0.2,0.4-0.4,0.8-0.7,1.4l-3.1,4.5L153.6,178.2L153.6,178.2z"/>
	<path class="st3" d="M166.6,176.4c0,2.1-0.3,3.7-1,4.8c-0.7,1-1.7,1.6-3.2,1.6c-1.4,0-2.4-0.5-3.1-1.6s-1.1-2.7-1.1-4.7
		c0-2.2,0.3-3.8,1-4.8s1.7-1.5,3.2-1.5c1.4,0,2.4,0.5,3.1,1.6C166.3,172.7,166.6,174.3,166.6,176.4z M160.2,176.4
		c0,1.7,0.2,2.9,0.5,3.6c0.3,0.7,0.9,1.1,1.7,1.1s1.3-0.4,1.7-1.1c0.4-0.7,0.5-1.9,0.5-3.6c0-1.7-0.2-2.9-0.5-3.6
		c-0.4-0.7-0.9-1.1-1.7-1.1s-1.3,0.4-1.7,1.1S160.2,174.7,160.2,176.4z"/>
</g>
<g class="st2">
	<path class="st3" d="M185.4,174.9c1.2,0,2.2,0.3,3,1s1.1,1.6,1.1,2.7c0,1.3-0.4,2.3-1.2,3.1c-0.8,0.7-2,1.1-3.5,1.1
		c-1.4,0-2.5-0.2-3.3-0.7v-1.8c0.5,0.3,1,0.5,1.6,0.6s1.1,0.2,1.6,0.2c0.9,0,1.6-0.2,2-0.6c0.5-0.4,0.7-1,0.7-1.8
		c0-1.5-0.9-2.2-2.8-2.2c-0.3,0-0.6,0-1,0.1s-0.7,0.1-1,0.2l-0.9-0.5l0.5-6h6.4v1.8h-4.7l-0.3,3.1c0.2,0,0.4-0.1,0.7-0.1
		C184.7,174.9,185,174.9,185.4,174.9z"/>
	<path class="st3" d="M199.5,176.4c0,2.1-0.3,3.7-1,4.8c-0.7,1-1.7,1.6-3.2,1.6c-1.4,0-2.4-0.5-3.1-1.6s-1.1-2.7-1.1-4.7
		c0-2.2,0.3-3.8,1-4.8s1.7-1.5,3.2-1.5c1.4,0,2.4,0.5,3.1,1.6C199.1,172.7,199.5,174.3,199.5,176.4z M193.1,176.4
		c0,1.7,0.2,2.9,0.5,3.6c0.3,0.7,0.9,1.1,1.7,1.1s1.3-0.4,1.7-1.1c0.4-0.7,0.5-1.9,0.5-3.6c0-1.7-0.2-2.9-0.5-3.6
		c-0.4-0.7-0.9-1.1-1.7-1.1s-1.3,0.4-1.7,1.1S193.1,174.7,193.1,176.4z"/>
</g>
<g class="st2">
	<path class="st3" d="M214.1,177.3c0-4.8,2-7.2,5.9-7.2c0.6,0,1.1,0,1.6,0.1v1.7c-0.4-0.1-0.9-0.2-1.5-0.2c-1.3,0-2.3,0.4-3,1.1
		c-0.7,0.7-1,1.8-1.1,3.4h0.1c0.3-0.5,0.6-0.8,1.1-1.1c0.5-0.2,1-0.4,1.7-0.4c1.1,0,2,0.3,2.6,1s0.9,1.6,0.9,2.8
		c0,1.3-0.4,2.3-1.1,3.1c-0.7,0.8-1.7,1.1-3,1.1c-0.9,0-1.7-0.2-2.3-0.6c-0.7-0.4-1.2-1-1.5-1.9
		C214.3,179.4,214.1,178.4,214.1,177.3z M218.4,181.1c0.7,0,1.2-0.2,1.6-0.7s0.6-1.1,0.6-1.9c0-0.7-0.2-1.3-0.5-1.7
		s-0.9-0.6-1.6-0.6c-0.4,0-0.8,0.1-1.2,0.3s-0.6,0.4-0.9,0.8c-0.2,0.3-0.3,0.6-0.3,1c0,0.8,0.2,1.5,0.6,2
		C217.2,180.8,217.7,181.1,218.4,181.1z"/>
	<path class="st3" d="M232.3,176.4c0,2.1-0.3,3.7-1,4.8c-0.7,1-1.7,1.6-3.2,1.6c-1.4,0-2.4-0.5-3.1-1.6s-1.1-2.7-1.1-4.7
		c0-2.2,0.3-3.8,1-4.8s1.7-1.5,3.2-1.5c1.4,0,2.4,0.5,3.1,1.6C232,172.7,232.3,174.3,232.3,176.4z M225.9,176.4
		c0,1.7,0.2,2.9,0.5,3.6c0.3,0.7,0.9,1.1,1.7,1.1s1.3-0.4,1.7-1.1c0.4-0.7,0.5-1.9,0.5-3.6c0-1.7-0.2-2.9-0.5-3.6
		c-0.4-0.7-0.9-1.1-1.7-1.1s-1.3,0.4-1.7,1.1S225.9,174.7,225.9,176.4z"/>
</g>
<g class="st2">
	<path class="st3" d="M248.3,182.6l4.9-10.6h-6.4v-1.7h8.5v1.4l-4.9,10.9L248.3,182.6L248.3,182.6z"/>
	<path class="st3" d="M265.2,176.4c0,2.1-0.3,3.7-1,4.8c-0.7,1-1.7,1.6-3.2,1.6c-1.4,0-2.4-0.5-3.1-1.6s-1.1-2.7-1.1-4.7
		c0-2.2,0.3-3.8,1-4.8s1.7-1.5,3.2-1.5c1.4,0,2.4,0.5,3.1,1.6C264.8,172.7,265.2,174.3,265.2,176.4z M258.8,176.4
		c0,1.7,0.2,2.9,0.5,3.6c0.3,0.7,0.9,1.1,1.7,1.1c0.8,0,1.3-0.4,1.7-1.1c0.4-0.7,0.5-1.9,0.5-3.6c0-1.7-0.2-2.9-0.5-3.6
		c-0.4-0.7-0.9-1.1-1.7-1.1c-0.8,0-1.3,0.4-1.7,1.1C259,173.5,258.8,174.7,258.8,176.4z"/>
</g>
<g class="st2">
	<path class="st3" d="M284,170.1c1.2,0,2.1,0.3,2.8,0.8c0.7,0.5,1,1.3,1,2.2c0,1.3-0.8,2.3-2.3,3c1,0.5,1.7,1,2.1,1.5
		s0.6,1.1,0.6,1.8c0,1-0.4,1.8-1.1,2.4s-1.8,0.9-3,0.9c-1.3,0-2.4-0.3-3.1-0.9c-0.7-0.6-1.1-1.4-1.1-2.4c0-0.7,0.2-1.3,0.6-1.9
		c0.4-0.5,1-1,1.9-1.5c-0.8-0.4-1.3-0.9-1.6-1.4c-0.3-0.5-0.5-1.1-0.5-1.7c0-0.9,0.4-1.6,1.1-2.1S282.8,170.1,284,170.1z
		 M281.7,179.4c0,0.6,0.2,1,0.6,1.4c0.4,0.3,1,0.5,1.7,0.5s1.3-0.2,1.7-0.5s0.6-0.8,0.6-1.4c0-0.5-0.2-0.9-0.6-1.2s-0.9-0.7-1.7-1
		l-0.2-0.1c-0.7,0.3-1.3,0.7-1.6,1.1S281.7,178.9,281.7,179.4z M283.9,171.6c-0.6,0-1,0.1-1.4,0.4s-0.5,0.7-0.5,1.1
		c0,0.3,0.1,0.6,0.2,0.8s0.3,0.4,0.5,0.6c0.2,0.2,0.6,0.4,1.2,0.7c0.7-0.3,1.2-0.6,1.4-0.9c0.3-0.3,0.4-0.7,0.4-1.2
		s-0.2-0.9-0.5-1.1C285,171.7,284.5,171.6,283.9,171.6z"/>
	<path class="st3" d="M298,176.4c0,2.1-0.3,3.7-1,4.8c-0.7,1-1.7,1.6-3.2,1.6c-1.4,0-2.4-0.5-3.1-1.6s-1.1-2.7-1.1-4.7
		c0-2.2,0.3-3.8,1-4.8s1.7-1.5,3.2-1.5c1.4,0,2.4,0.5,3.1,1.6C297.7,172.7,298,174.3,298,176.4z M291.6,176.4c0,1.7,0.2,2.9,0.5,3.6
		c0.3,0.7,0.9,1.1,1.7,1.1c0.8,0,1.3-0.4,1.7-1.1c0.4-0.7,0.5-1.9,0.5-3.6c0-1.7-0.2-2.9-0.5-3.6c-0.4-0.7-0.9-1.1-1.7-1.1
		c-0.8,0-1.3,0.4-1.7,1.1C291.8,173.5,291.6,174.7,291.6,176.4z"/>
</g>
<g class="st2">
	<path class="st3" d="M313.5,182.6h-2v-8c0-1,0-1.7,0.1-2.3c-0.1,0.1-0.3,0.3-0.5,0.4c-0.2,0.2-0.8,0.7-1.9,1.6l-1-1.3l3.6-2.9h1.7
		L313.5,182.6L313.5,182.6z"/>
	<path class="st3" d="M325.9,176.4c0,2.1-0.3,3.7-1,4.8c-0.7,1-1.7,1.6-3.2,1.6c-1.4,0-2.4-0.5-3.1-1.6s-1.1-2.7-1.1-4.7
		c0-2.2,0.3-3.8,1-4.8s1.7-1.5,3.2-1.5c1.4,0,2.4,0.5,3.1,1.6C325.6,172.7,325.9,174.3,325.9,176.4z M319.6,176.4
		c0,1.7,0.2,2.9,0.5,3.6c0.3,0.7,0.9,1.1,1.7,1.1s1.3-0.4,1.7-1.1c0.4-0.7,0.5-1.9,0.5-3.6c0-1.7-0.2-2.9-0.5-3.6s-0.9-1.1-1.7-1.1
		s-1.3,0.4-1.7,1.1C319.7,173.5,319.6,174.7,319.6,176.4z"/>
	<path class="st3" d="M335.8,176.4c0,2.1-0.3,3.7-1,4.8c-0.7,1-1.7,1.6-3.2,1.6c-1.4,0-2.4-0.5-3.1-1.6s-1.1-2.7-1.1-4.7
		c0-2.2,0.3-3.8,1-4.8s1.7-1.5,3.2-1.5c1.4,0,2.4,0.5,3.1,1.6C335.5,172.7,335.8,174.3,335.8,176.4z M329.4,176.4
		c0,1.7,0.2,2.9,0.5,3.6c0.3,0.7,0.9,1.1,1.7,1.1s1.3-0.4,1.7-1.1c0.4-0.7,0.5-1.9,0.5-3.6c0-1.7-0.2-2.9-0.5-3.6s-0.9-1.1-1.7-1.1
		s-1.3,0.4-1.7,1.1C329.6,173.5,329.4,174.7,329.4,176.4z"/>
</g>
<g>
	<g>
		<path class="st4" d="M81.2,29.1h-1.9v-5.3h-5.4v5.3h-1.9V17.3h1.9v4.8h5.4v-4.8h1.9V29.1z"/>
		<path class="st4" d="M91.9,24.6c0,1.4-0.4,2.6-1.1,3.4s-1.8,1.2-3.1,1.2c-0.8,0-1.6-0.2-2.2-0.6c-0.6-0.4-1.1-0.9-1.5-1.6
			c-0.3-0.7-0.5-1.5-0.5-2.4c0-1.4,0.4-2.6,1.1-3.4c0.7-0.8,1.8-1.2,3.1-1.2c1.3,0,2.3,0.4,3,1.2C91.6,22.1,91.9,23.2,91.9,24.6z
			 M85.5,24.6c0,2,0.8,3.1,2.3,3.1c1.5,0,2.2-1,2.2-3.1c0-2-0.8-3-2.3-3c-0.8,0-1.4,0.3-1.7,0.8C85.6,22.9,85.5,23.6,85.5,24.6z"/>
		<path class="st4" d="M101.4,29.1l-1.1-4.1c-0.1-0.4-0.4-1.5-0.8-3.1h-0.1c-0.3,1.4-0.6,2.5-0.7,3.1l-1.2,4.1h-2.1l-2.5-8.9h1.9
			l1.1,4.4c0.3,1.1,0.4,2,0.5,2.8h0c0.1-0.4,0.1-0.8,0.2-1.3c0.1-0.5,0.2-0.9,0.3-1.1l1.3-4.7h2.1l1.3,4.7c0.1,0.3,0.2,0.7,0.3,1.2
			s0.2,1,0.2,1.3h0.1c0.1-0.7,0.3-1.6,0.6-2.8l1.1-4.4h1.9l-2.5,8.9H101.4z"/>
		<path class="st4" d="M119.1,29.1l-1.1-4.1c-0.1-0.4-0.4-1.5-0.8-3.1h-0.1c-0.3,1.4-0.6,2.5-0.7,3.1l-1.2,4.1h-2.1l-2.5-8.9h1.9
			l1.1,4.4c0.3,1.1,0.4,2,0.5,2.8h0c0.1-0.4,0.1-0.8,0.2-1.3c0.1-0.5,0.2-0.9,0.3-1.1l1.3-4.7h2.1l1.3,4.7c0.1,0.3,0.2,0.7,0.3,1.2
			s0.2,1,0.2,1.3h0.1c0.1-0.7,0.3-1.6,0.6-2.8l1.1-4.4h1.9l-2.5,8.9H119.1z"/>
		<path class="st4" d="M129.1,29.2c-1.4,0-2.5-0.4-3.2-1.2c-0.8-0.8-1.2-1.9-1.2-3.3c0-1.4,0.4-2.6,1.1-3.4c0.7-0.8,1.7-1.2,3-1.2
			c1.2,0,2.1,0.4,2.8,1.1c0.7,0.7,1,1.7,1,2.9v1h-5.9c0,0.9,0.3,1.5,0.7,2c0.4,0.5,1.1,0.7,1.9,0.7c0.5,0,1,0,1.5-0.1
			c0.5-0.1,0.9-0.3,1.5-0.5v1.5c-0.5,0.2-0.9,0.4-1.4,0.5C130.2,29.2,129.7,29.2,129.1,29.2z M128.7,21.5c-0.6,0-1.1,0.2-1.4,0.6
			c-0.4,0.4-0.6,0.9-0.6,1.7h4c0-0.7-0.2-1.3-0.5-1.7C129.8,21.6,129.3,21.5,128.7,21.5z"/>
		<path class="st4" d="M136.5,29.1h-1.9V16.6h1.9V29.1z"/>
		<path class="st4" d="M141.1,29.1h-1.9V16.6h1.9V29.1z"/>
		<path class="st4" d="M151.1,29.2c-1.1,0-2-0.4-2.6-1.2c-0.6-0.8-0.9-1.9-0.9-3.4c0-1.5,0.3-2.6,0.9-3.4c0.6-0.8,1.5-1.2,2.6-1.2
			c1.2,0,2.1,0.4,2.7,1.3h0.1c-0.1-0.6-0.1-1.1-0.1-1.5v-3.2h1.9v12.5h-1.5l-0.3-1.2h-0.1C153.1,28.8,152.2,29.2,151.1,29.2z
			 M151.6,27.7c0.8,0,1.3-0.2,1.7-0.7c0.4-0.4,0.5-1.1,0.5-2.1v-0.3c0-1.1-0.2-1.9-0.5-2.4s-0.9-0.7-1.7-0.7c-0.7,0-1.2,0.3-1.5,0.8
			c-0.4,0.5-0.5,1.3-0.5,2.3c0,1,0.2,1.7,0.5,2.2C150.4,27.4,150.9,27.7,151.6,27.7z"/>
		<path class="st4" d="M166.2,24.6c0,1.4-0.4,2.6-1.1,3.4s-1.8,1.2-3.1,1.2c-0.8,0-1.6-0.2-2.2-0.6c-0.6-0.4-1.1-0.9-1.5-1.6
			c-0.3-0.7-0.5-1.5-0.5-2.4c0-1.4,0.4-2.6,1.1-3.4c0.7-0.8,1.8-1.2,3.1-1.2c1.3,0,2.3,0.4,3,1.2C165.8,22.1,166.2,23.2,166.2,24.6z
			 M159.7,24.6c0,2,0.8,3.1,2.3,3.1c1.5,0,2.2-1,2.2-3.1c0-2-0.8-3-2.3-3c-0.8,0-1.4,0.3-1.7,0.8C159.9,22.9,159.7,23.6,159.7,24.6z
			"/>
		<path class="st4" d="M172.2,29.2c-1.4,0-2.5-0.4-3.2-1.2c-0.8-0.8-1.2-1.9-1.2-3.3c0-1.4,0.4-2.6,1.1-3.4c0.7-0.8,1.7-1.2,3-1.2
			c1.2,0,2.1,0.4,2.8,1.1c0.7,0.7,1,1.7,1,2.9v1h-5.9c0,0.9,0.3,1.5,0.7,2c0.4,0.5,1.1,0.7,1.9,0.7c0.5,0,1,0,1.5-0.1
			c0.5-0.1,0.9-0.3,1.5-0.5v1.5c-0.5,0.2-0.9,0.4-1.4,0.5C173.4,29.2,172.8,29.2,172.2,29.2z M171.9,21.5c-0.6,0-1.1,0.2-1.4,0.6
			c-0.4,0.4-0.6,0.9-0.6,1.7h4c0-0.7-0.2-1.3-0.5-1.7C172.9,21.6,172.5,21.5,171.9,21.5z"/>
		<path class="st4" d="M183.8,26.5c0,0.9-0.3,1.5-0.9,2c-0.6,0.5-1.5,0.7-2.7,0.7c-1.2,0-2.1-0.2-2.8-0.5v-1.6c1,0.5,2,0.7,2.9,0.7
			c1.2,0,1.7-0.4,1.7-1.1c0-0.2-0.1-0.4-0.2-0.6c-0.1-0.1-0.3-0.3-0.6-0.5c-0.3-0.2-0.7-0.3-1.2-0.5c-1-0.4-1.7-0.8-2.1-1.2
			c-0.4-0.4-0.5-0.9-0.5-1.5c0-0.8,0.3-1.3,0.9-1.8s1.4-0.6,2.5-0.6c1,0,2,0.2,3,0.6l-0.6,1.4c-1-0.4-1.8-0.6-2.4-0.6
			c-1,0-1.5,0.3-1.5,0.9c0,0.3,0.1,0.5,0.4,0.7s0.8,0.5,1.7,0.8c0.7,0.3,1.3,0.5,1.6,0.8s0.6,0.5,0.7,0.8
			C183.7,25.7,183.8,26.1,183.8,26.5z"/>
		<path class="st4" d="M188.7,20.2h2.1l1.8,5c0.3,0.7,0.5,1.4,0.5,2h0.1c0-0.3,0.1-0.7,0.3-1.1c0.1-0.4,0.8-2.4,2-6h2l-3.8,10
			c-0.7,1.8-1.8,2.8-3.4,2.8c-0.4,0-0.8,0-1.2-0.1v-1.5c0.3,0.1,0.6,0.1,1,0.1c0.9,0,1.5-0.5,1.9-1.6l0.3-0.8L188.7,20.2z"/>
		<path class="st4" d="M206.8,24.6c0,1.4-0.4,2.6-1.1,3.4s-1.8,1.2-3.1,1.2c-0.8,0-1.6-0.2-2.2-0.6c-0.6-0.4-1.1-0.9-1.5-1.6
			c-0.3-0.7-0.5-1.5-0.5-2.4c0-1.4,0.4-2.6,1.1-3.4c0.7-0.8,1.8-1.2,3.1-1.2c1.3,0,2.3,0.4,3,1.2S206.8,23.2,206.8,24.6z
			 M200.3,24.6c0,2,0.8,3.1,2.3,3.1c1.5,0,2.2-1,2.2-3.1c0-2-0.8-3-2.3-3c-0.8,0-1.4,0.3-1.7,0.8C200.5,22.9,200.3,23.6,200.3,24.6z
			"/>
		<path class="st4" d="M215.2,29.1l-0.3-1.2h-0.1c-0.3,0.4-0.6,0.7-1.1,1c-0.5,0.2-1,0.4-1.7,0.4c-1.1,0-1.9-0.3-2.4-0.8
			c-0.5-0.5-0.8-1.3-0.8-2.4v-5.8h1.9v5.5c0,0.7,0.1,1.2,0.4,1.5c0.3,0.3,0.7,0.5,1.3,0.5c0.8,0,1.4-0.2,1.7-0.7
			c0.4-0.5,0.6-1.3,0.6-2.4v-4.4h1.9v8.9H215.2z"/>
		<path class="st4" d="M223.8,20c0.4,0,0.7,0,0.9,0.1l-0.2,1.8c-0.3-0.1-0.5-0.1-0.8-0.1c-0.8,0-1.4,0.2-1.8,0.7
			c-0.5,0.5-0.7,1.1-0.7,1.9v4.6h-1.9v-8.9h1.5l0.2,1.6h0.1c0.3-0.5,0.7-0.9,1.2-1.3C222.8,20.2,223.3,20,223.8,20z"/>
		<path class="st4" d="M235.2,20c1.1,0,2,0.4,2.6,1.2c0.6,0.8,0.9,1.9,0.9,3.4c0,1.5-0.3,2.6-0.9,3.4c-0.6,0.8-1.5,1.2-2.6,1.2
			c-1.1,0-2-0.4-2.6-1.2h-0.1l-0.3,1.1h-1.4V16.6h1.9v3c0,0.2,0,0.5,0,1c0,0.4,0,0.7,0,0.8h0.1C233.2,20.5,234.1,20,235.2,20z
			 M234.7,21.6c-0.8,0-1.3,0.2-1.6,0.7s-0.5,1.2-0.5,2.2v0.1c0,1.1,0.2,1.9,0.5,2.3c0.3,0.5,0.9,0.7,1.7,0.7c0.7,0,1.2-0.3,1.5-0.8
			c0.3-0.5,0.5-1.3,0.5-2.3C236.8,22.6,236.1,21.6,234.7,21.6z"/>
		<path class="st4" d="M247.2,29.1l-0.3-1.2h-0.1c-0.3,0.4-0.6,0.7-1.1,1c-0.5,0.2-1,0.4-1.7,0.4c-1.1,0-1.9-0.3-2.4-0.8
			c-0.5-0.5-0.8-1.3-0.8-2.4v-5.8h1.9v5.5c0,0.7,0.1,1.2,0.4,1.5c0.3,0.3,0.7,0.5,1.3,0.5c0.8,0,1.4-0.2,1.7-0.7
			c0.4-0.5,0.6-1.3,0.6-2.4v-4.4h1.9v8.9H247.2z"/>
		<path class="st4" d="M257.3,26.5c0,0.9-0.3,1.5-0.9,2c-0.6,0.5-1.5,0.7-2.7,0.7c-1.2,0-2.1-0.2-2.8-0.5v-1.6c1,0.5,2,0.7,2.9,0.7
			c1.2,0,1.7-0.4,1.7-1.1c0-0.2-0.1-0.4-0.2-0.6c-0.1-0.1-0.3-0.3-0.6-0.5s-0.7-0.3-1.2-0.5c-1-0.4-1.7-0.8-2.1-1.2
			c-0.4-0.4-0.5-0.9-0.5-1.5c0-0.8,0.3-1.3,0.9-1.8s1.4-0.6,2.5-0.6c1,0,2,0.2,3,0.6l-0.6,1.4c-1-0.4-1.8-0.6-2.4-0.6
			c-1,0-1.5,0.3-1.5,0.9c0,0.3,0.1,0.5,0.4,0.7c0.3,0.2,0.8,0.5,1.7,0.8c0.7,0.3,1.3,0.5,1.6,0.8c0.3,0.2,0.6,0.5,0.7,0.8
			S257.3,26.1,257.3,26.5z"/>
		<path class="st4" d="M259.2,17.8c0-0.3,0.1-0.6,0.3-0.8c0.2-0.2,0.4-0.3,0.8-0.3c0.3,0,0.6,0.1,0.8,0.3c0.2,0.2,0.3,0.4,0.3,0.8
			c0,0.3-0.1,0.6-0.3,0.8s-0.4,0.3-0.8,0.3c-0.3,0-0.6-0.1-0.8-0.3S259.2,18.2,259.2,17.8z M261.2,29.1h-1.9v-8.9h1.9V29.1z"/>
		<path class="st4" d="M271.7,29.1h-1.9v-5.5c0-0.7-0.1-1.2-0.4-1.5s-0.7-0.5-1.3-0.5c-0.8,0-1.4,0.2-1.7,0.7s-0.6,1.3-0.6,2.4v4.4
			h-1.9v-8.9h1.5l0.3,1.2h0.1c0.3-0.4,0.6-0.7,1.1-1c0.5-0.2,1-0.3,1.6-0.3c2.1,0,3.2,1.1,3.2,3.2V29.1z"/>
		<path class="st4" d="M278.2,29.2c-1.4,0-2.5-0.4-3.2-1.2s-1.2-1.9-1.2-3.3c0-1.4,0.4-2.6,1.1-3.4c0.7-0.8,1.7-1.2,3-1.2
			c1.2,0,2.1,0.4,2.8,1.1c0.7,0.7,1,1.7,1,2.9v1h-5.9c0,0.9,0.3,1.5,0.7,2c0.4,0.5,1.1,0.7,1.9,0.7c0.5,0,1,0,1.5-0.1
			c0.5-0.1,0.9-0.3,1.5-0.5v1.5c-0.5,0.2-0.9,0.4-1.4,0.5C279.4,29.2,278.8,29.2,278.2,29.2z M277.9,21.5c-0.6,0-1.1,0.2-1.4,0.6
			c-0.4,0.4-0.6,0.9-0.6,1.7h4c0-0.7-0.2-1.3-0.5-1.7S278.5,21.5,277.9,21.5z"/>
		<path class="st4" d="M289.8,26.5c0,0.9-0.3,1.5-0.9,2c-0.6,0.5-1.5,0.7-2.7,0.7c-1.2,0-2.1-0.2-2.8-0.5v-1.6c1,0.5,2,0.7,2.9,0.7
			c1.2,0,1.7-0.4,1.7-1.1c0-0.2-0.1-0.4-0.2-0.6c-0.1-0.1-0.3-0.3-0.6-0.5s-0.7-0.3-1.2-0.5c-1-0.4-1.7-0.8-2.1-1.2
			c-0.4-0.4-0.5-0.9-0.5-1.5c0-0.8,0.3-1.3,0.9-1.8s1.4-0.6,2.5-0.6c1,0,2,0.2,3,0.6l-0.6,1.4c-1-0.4-1.8-0.6-2.4-0.6
			c-1,0-1.5,0.3-1.5,0.9c0,0.3,0.1,0.5,0.4,0.7c0.3,0.2,0.8,0.5,1.7,0.8c0.7,0.3,1.3,0.5,1.6,0.8c0.3,0.2,0.6,0.5,0.7,0.8
			S289.8,26.1,289.8,26.5z"/>
		<path class="st4" d="M297.8,26.5c0,0.9-0.3,1.5-0.9,2c-0.6,0.5-1.5,0.7-2.7,0.7c-1.2,0-2.1-0.2-2.8-0.5v-1.6c1,0.5,2,0.7,2.9,0.7
			c1.2,0,1.7-0.4,1.7-1.1c0-0.2-0.1-0.4-0.2-0.6c-0.1-0.1-0.3-0.3-0.6-0.5s-0.7-0.3-1.2-0.5c-1-0.4-1.7-0.8-2.1-1.2
			c-0.4-0.4-0.5-0.9-0.5-1.5c0-0.8,0.3-1.3,0.9-1.8s1.4-0.6,2.5-0.6c1,0,2,0.2,3,0.6l-0.6,1.4c-1-0.4-1.8-0.6-2.4-0.6
			c-1,0-1.5,0.3-1.5,0.9c0,0.3,0.1,0.5,0.4,0.7c0.3,0.2,0.8,0.5,1.7,0.8c0.7,0.3,1.3,0.5,1.6,0.8c0.3,0.2,0.6,0.5,0.7,0.8
			S297.8,26.1,297.8,26.5z"/>
		<path class="st4" d="M69.4,50.7c0,0.9-0.3,1.5-0.9,2c-0.6,0.5-1.5,0.7-2.7,0.7c-1.2,0-2.1-0.2-2.8-0.5v-1.6c1,0.5,2,0.7,2.9,0.7
			c1.2,0,1.7-0.4,1.7-1.1c0-0.2-0.1-0.4-0.2-0.6c-0.1-0.1-0.3-0.3-0.6-0.5c-0.3-0.2-0.7-0.3-1.2-0.5c-1-0.4-1.7-0.8-2.1-1.2
			c-0.4-0.4-0.5-0.9-0.5-1.5c0-0.8,0.3-1.3,0.9-1.8s1.4-0.6,2.5-0.6c1,0,2,0.2,3,0.6l-0.6,1.4c-1-0.4-1.8-0.6-2.4-0.6
			c-1,0-1.5,0.3-1.5,0.9c0,0.3,0.1,0.5,0.4,0.7s0.8,0.5,1.7,0.8c0.7,0.3,1.3,0.5,1.6,0.8s0.6,0.5,0.7,0.8
			C69.3,49.9,69.4,50.3,69.4,50.7z"/>
		<path class="st4" d="M74.7,51.9c0.5,0,0.9-0.1,1.4-0.2v1.4c-0.2,0.1-0.5,0.2-0.8,0.2c-0.3,0.1-0.7,0.1-1,0.1
			c-1.8,0-2.7-0.9-2.7-2.8v-4.8h-1.2V45l1.3-0.7l0.6-1.9h1.2v2H76v1.4h-2.5v4.7c0,0.5,0.1,0.8,0.3,1C74.1,51.8,74.4,51.9,74.7,51.9z
			"/>
		<path class="st4" d="M82.4,44.2c0.4,0,0.7,0,0.9,0.1l-0.2,1.8C82.9,46,82.6,46,82.3,46c-0.8,0-1.4,0.2-1.8,0.7
			c-0.5,0.5-0.7,1.1-0.7,1.9v4.6h-1.9v-8.9h1.5l0.2,1.6h0.1c0.3-0.5,0.7-0.9,1.2-1.3C81.3,44.4,81.8,44.2,82.4,44.2z"/>
		<path class="st4" d="M90.5,53.3L90.1,52h-0.1c-0.4,0.5-0.9,0.9-1.3,1.1c-0.4,0.2-1,0.3-1.7,0.3c-0.9,0-1.6-0.2-2-0.7
			c-0.5-0.5-0.7-1.1-0.7-2c0-0.9,0.3-1.6,1-2.1c0.7-0.5,1.7-0.7,3.1-0.8l1.5,0v-0.5c0-0.6-0.1-1-0.4-1.3c-0.3-0.3-0.7-0.4-1.2-0.4
			c-0.5,0-0.9,0.1-1.3,0.2s-0.8,0.3-1.2,0.5L85.2,45c0.5-0.3,1-0.4,1.6-0.6c0.6-0.1,1.1-0.2,1.6-0.2c1.1,0,2,0.2,2.6,0.7
			s0.9,1.3,0.9,2.3v6H90.5z M87.7,52c0.7,0,1.2-0.2,1.6-0.6c0.4-0.4,0.6-0.9,0.6-1.6V49l-1.1,0c-0.9,0-1.5,0.2-1.9,0.4
			s-0.6,0.7-0.6,1.2c0,0.4,0.1,0.7,0.4,0.9C86.9,51.9,87.2,52,87.7,52z"/>
		<path class="st4" d="M97.8,51.9c0.5,0,0.9-0.1,1.4-0.2v1.4c-0.2,0.1-0.5,0.2-0.8,0.2c-0.3,0.1-0.7,0.1-1,0.1
			c-1.8,0-2.7-0.9-2.7-2.8v-4.8h-1.2V45l1.3-0.7l0.6-1.9h1.2v2h2.5v1.4h-2.5v4.7c0,0.5,0.1,0.8,0.3,1C97.1,51.8,97.4,51.9,97.8,51.9
			z"/>
		<path class="st4" d="M104.8,53.4c-1.4,0-2.5-0.4-3.2-1.2c-0.8-0.8-1.2-1.9-1.2-3.3c0-1.4,0.4-2.6,1.1-3.4c0.7-0.8,1.7-1.2,3-1.2
			c1.2,0,2.1,0.4,2.8,1.1c0.7,0.7,1,1.7,1,2.9v1h-5.9c0,0.9,0.3,1.5,0.7,2c0.4,0.5,1.1,0.7,1.9,0.7c0.5,0,1,0,1.5-0.1
			c0.5-0.1,0.9-0.3,1.5-0.5v1.5c-0.5,0.2-0.9,0.4-1.4,0.5C106,53.4,105.4,53.4,104.8,53.4z M104.5,45.7c-0.6,0-1.1,0.2-1.4,0.6
			c-0.4,0.4-0.6,0.9-0.6,1.7h4c0-0.7-0.2-1.3-0.5-1.7C105.5,45.9,105.1,45.7,104.5,45.7z"/>
		<path class="st4" d="M117.9,44.4v1l-1.5,0.3c0.1,0.2,0.3,0.4,0.3,0.7s0.1,0.6,0.1,0.9c0,0.9-0.3,1.6-0.9,2.2
			c-0.6,0.5-1.5,0.8-2.6,0.8c-0.3,0-0.5,0-0.8-0.1c-0.4,0.3-0.6,0.5-0.6,0.9c0,0.2,0.1,0.4,0.3,0.5c0.2,0.1,0.5,0.2,1,0.2h1.5
			c1,0,1.7,0.2,2.2,0.6c0.5,0.4,0.8,1,0.8,1.8c0,1-0.4,1.8-1.2,2.3s-2,0.8-3.6,0.8c-1.2,0-2.1-0.2-2.8-0.6s-1-1-1-1.8
			c0-0.5,0.2-1,0.5-1.4c0.3-0.4,0.8-0.6,1.4-0.8c-0.3-0.1-0.5-0.3-0.6-0.5c-0.2-0.2-0.2-0.5-0.2-0.8c0-0.3,0.1-0.6,0.3-0.8
			c0.2-0.2,0.5-0.5,0.8-0.7c-0.5-0.2-0.8-0.5-1.1-1c-0.3-0.4-0.4-1-0.4-1.6c0-1,0.3-1.7,0.9-2.2s1.5-0.8,2.6-0.8
			c0.3,0,0.5,0,0.8,0.1c0.3,0,0.5,0.1,0.6,0.1H117.9z M110.9,54.6c0,0.4,0.2,0.7,0.5,0.9c0.4,0.2,0.9,0.3,1.5,0.3
			c1,0,1.8-0.1,2.3-0.4c0.5-0.3,0.8-0.7,0.8-1.2c0-0.4-0.1-0.7-0.4-0.8s-0.8-0.2-1.5-0.2h-1.4c-0.5,0-1,0.1-1.3,0.4
			C111.1,53.9,110.9,54.2,110.9,54.6z M111.7,47.3c0,0.6,0.1,1,0.4,1.3s0.7,0.4,1.2,0.4c1.1,0,1.6-0.6,1.6-1.7c0-0.6-0.1-1-0.4-1.3
			s-0.7-0.5-1.2-0.5c-0.5,0-1,0.2-1.2,0.5C111.9,46.2,111.7,46.7,111.7,47.3z"/>
		<path class="st4" d="M118.2,44.4h2.1l1.8,5c0.3,0.7,0.5,1.4,0.5,2h0.1c0-0.3,0.1-0.7,0.3-1.1s0.8-2.4,2-6h2l-3.8,10
			c-0.7,1.8-1.8,2.8-3.4,2.8c-0.4,0-0.8,0-1.2-0.1v-1.5c0.3,0.1,0.6,0.1,1,0.1c0.9,0,1.5-0.5,1.9-1.6l0.3-0.8L118.2,44.4z"/>
		<path class="st4" d="M138.6,50.7c0,0.9-0.3,1.5-0.9,2c-0.6,0.5-1.5,0.7-2.7,0.7c-1.2,0-2.1-0.2-2.8-0.5v-1.6c1,0.5,2,0.7,2.9,0.7
			c1.2,0,1.7-0.4,1.7-1.1c0-0.2-0.1-0.4-0.2-0.6c-0.1-0.1-0.3-0.3-0.6-0.5c-0.3-0.2-0.7-0.3-1.2-0.5c-1-0.4-1.7-0.8-2.1-1.2
			c-0.4-0.4-0.5-0.9-0.5-1.5c0-0.8,0.3-1.3,0.9-1.8s1.4-0.6,2.5-0.6c1,0,2,0.2,3,0.6l-0.6,1.4c-1-0.4-1.8-0.6-2.4-0.6
			c-1,0-1.5,0.3-1.5,0.9c0,0.3,0.1,0.5,0.4,0.7s0.8,0.5,1.7,0.8c0.7,0.3,1.3,0.5,1.6,0.8s0.6,0.5,0.7,0.8
			C138.5,49.9,138.6,50.3,138.6,50.7z"/>
		<path class="st4" d="M146.9,53.3l-0.3-1.2h-0.1c-0.3,0.4-0.6,0.7-1.1,1s-1,0.4-1.7,0.4c-1.1,0-1.9-0.3-2.4-0.8
			c-0.5-0.5-0.8-1.3-0.8-2.4v-5.8h1.9v5.5c0,0.7,0.1,1.2,0.4,1.5c0.3,0.3,0.7,0.5,1.3,0.5c0.8,0,1.4-0.2,1.7-0.7s0.6-1.3,0.6-2.4
			v-4.4h1.9v8.9H146.9z"/>
		<path class="st4" d="M155.5,53.4c-1.1,0-2-0.4-2.6-1.2h-0.1c0.1,0.7,0.1,1.2,0.1,1.4v3.6H151V44.4h1.5c0,0.2,0.1,0.6,0.3,1.2h0.1
			c0.6-0.9,1.5-1.3,2.6-1.3c1.1,0,2,0.4,2.6,1.2c0.6,0.8,0.9,1.9,0.9,3.4s-0.3,2.6-0.9,3.4C157.5,53,156.6,53.4,155.5,53.4z
			 M155.1,45.8c-0.7,0-1.3,0.2-1.6,0.7s-0.5,1.1-0.5,2.1v0.3c0,1.1,0.2,1.9,0.5,2.3c0.3,0.5,0.9,0.7,1.7,0.7c0.7,0,1.2-0.3,1.5-0.8
			c0.4-0.5,0.5-1.3,0.5-2.3c0-1-0.2-1.7-0.5-2.3C156.3,46,155.8,45.8,155.1,45.8z"/>
		<path class="st4" d="M165.8,53.4c-1.1,0-2-0.4-2.6-1.2H163c0.1,0.7,0.1,1.2,0.1,1.4v3.6h-1.9V44.4h1.5c0,0.2,0.1,0.6,0.3,1.2h0.1
			c0.6-0.9,1.5-1.3,2.6-1.3c1.1,0,2,0.4,2.6,1.2c0.6,0.8,0.9,1.9,0.9,3.4s-0.3,2.6-0.9,3.4C167.8,53,166.9,53.4,165.8,53.4z
			 M165.3,45.8c-0.7,0-1.3,0.2-1.6,0.7s-0.5,1.1-0.5,2.1v0.3c0,1.1,0.2,1.9,0.5,2.3c0.3,0.5,0.9,0.7,1.7,0.7c0.7,0,1.2-0.3,1.5-0.8
			c0.4-0.5,0.5-1.3,0.5-2.3c0-1-0.2-1.7-0.5-2.3C166.5,46,166,45.8,165.3,45.8z"/>
		<path class="st4" d="M179.4,48.8c0,1.4-0.4,2.6-1.1,3.4s-1.8,1.2-3.1,1.2c-0.8,0-1.6-0.2-2.2-0.6c-0.6-0.4-1.1-0.9-1.5-1.6
			c-0.3-0.7-0.5-1.5-0.5-2.4c0-1.4,0.4-2.6,1.1-3.4c0.7-0.8,1.8-1.2,3.1-1.2c1.3,0,2.3,0.4,3,1.2C179,46.3,179.4,47.4,179.4,48.8z
			 M172.9,48.8c0,2,0.8,3.1,2.3,3.1c1.5,0,2.2-1,2.2-3.1c0-2-0.8-3-2.3-3c-0.8,0-1.4,0.3-1.7,0.8C173.1,47.1,172.9,47.8,172.9,48.8z
			"/>
		<path class="st4" d="M186,44.2c0.4,0,0.7,0,0.9,0.1l-0.2,1.8c-0.3-0.1-0.5-0.1-0.8-0.1c-0.8,0-1.4,0.2-1.8,0.7
			c-0.5,0.5-0.7,1.1-0.7,1.9v4.6h-1.9v-8.9h1.5l0.2,1.6h0.1c0.3-0.5,0.7-0.9,1.2-1.3C185,44.4,185.5,44.2,186,44.2z"/>
		<path class="st4" d="M191.9,51.9c0.5,0,0.9-0.1,1.4-0.2v1.4c-0.2,0.1-0.5,0.2-0.8,0.2c-0.3,0.1-0.7,0.1-1,0.1
			c-1.8,0-2.7-0.9-2.7-2.8v-4.8h-1.2V45l1.3-0.7l0.6-1.9h1.2v2h2.5v1.4h-2.5v4.7c0,0.5,0.1,0.8,0.3,1
			C191.3,51.8,191.6,51.9,191.9,51.9z"/>
		<path class="st4" d="M202.7,51.9c0.5,0,0.9-0.1,1.4-0.2v1.4c-0.2,0.1-0.5,0.2-0.8,0.2s-0.7,0.1-1,0.1c-1.8,0-2.7-0.9-2.7-2.8v-4.8
			h-1.2V45l1.3-0.7l0.6-1.9h1.2v2h2.5v1.4h-2.5v4.7c0,0.5,0.1,0.8,0.3,1S202.3,51.9,202.7,51.9z"/>
		<path class="st4" d="M213.6,53.3h-1.9v-5.5c0-0.7-0.1-1.2-0.4-1.5s-0.7-0.5-1.3-0.5c-0.8,0-1.4,0.2-1.7,0.7
			c-0.4,0.5-0.6,1.3-0.6,2.4v4.4h-1.9V40.8h1.9V44c0,0.5,0,1.1-0.1,1.6h0.1c0.3-0.4,0.6-0.8,1.1-1c0.5-0.2,1-0.4,1.6-0.4
			c2.1,0,3.2,1.1,3.2,3.2V53.3z"/>
		<path class="st4" d="M220.1,53.4c-1.4,0-2.5-0.4-3.2-1.2s-1.2-1.9-1.2-3.3c0-1.4,0.4-2.6,1.1-3.4c0.7-0.8,1.7-1.2,3-1.2
			c1.2,0,2.1,0.4,2.8,1.1c0.7,0.7,1,1.7,1,2.9v1h-5.9c0,0.9,0.3,1.5,0.7,2c0.4,0.5,1.1,0.7,1.9,0.7c0.5,0,1,0,1.5-0.1
			c0.5-0.1,0.9-0.3,1.5-0.5v1.5c-0.5,0.2-0.9,0.4-1.4,0.5C221.2,53.4,220.7,53.4,220.1,53.4z M219.8,45.7c-0.6,0-1.1,0.2-1.4,0.6
			c-0.4,0.4-0.6,0.9-0.6,1.7h4c0-0.7-0.2-1.3-0.5-1.7S220.4,45.7,219.8,45.7z"/>
		<path class="st4" d="M234.4,45.8h-2.2v7.4h-1.9v-7.4h-1.5v-0.9l1.5-0.6v-0.6c0-1,0.2-1.8,0.7-2.3c0.5-0.5,1.2-0.8,2.3-0.8
			c0.7,0,1.3,0.1,2,0.3l-0.5,1.4c-0.5-0.1-0.9-0.2-1.3-0.2c-0.4,0-0.7,0.1-0.9,0.4c-0.2,0.3-0.3,0.7-0.3,1.2v0.6h2.2V45.8z"/>
		<path class="st4" d="M242.2,53.3l-0.3-1.2h-0.1c-0.3,0.4-0.6,0.7-1.1,1c-0.5,0.2-1,0.4-1.7,0.4c-1.1,0-1.9-0.3-2.4-0.8
			c-0.5-0.5-0.8-1.3-0.8-2.4v-5.8h1.9v5.5c0,0.7,0.1,1.2,0.4,1.5c0.3,0.3,0.7,0.5,1.3,0.5c0.8,0,1.4-0.2,1.7-0.7
			c0.4-0.5,0.6-1.3,0.6-2.4v-4.4h1.9v8.9H242.2z"/>
		<path class="st4" d="M248.2,53.3h-1.9V40.8h1.9V53.3z"/>
		<path class="st4" d="M255.4,45.8h-2.2v7.4h-1.9v-7.4h-1.5v-0.9l1.5-0.6v-0.6c0-1,0.2-1.8,0.7-2.3c0.5-0.5,1.2-0.8,2.3-0.8
			c0.7,0,1.3,0.1,2,0.3l-0.5,1.4c-0.5-0.1-0.9-0.2-1.3-0.2c-0.4,0-0.7,0.1-0.9,0.4c-0.2,0.3-0.3,0.7-0.3,1.2v0.6h2.2V45.8z
			 M256.8,42c0-0.3,0.1-0.6,0.3-0.8c0.2-0.2,0.4-0.3,0.8-0.3c0.3,0,0.6,0.1,0.8,0.3c0.2,0.2,0.3,0.4,0.3,0.8c0,0.3-0.1,0.6-0.3,0.8
			s-0.4,0.3-0.8,0.3c-0.3,0-0.6-0.1-0.8-0.3C256.9,42.6,256.8,42.4,256.8,42z M258.8,53.3h-1.9v-8.9h1.9V53.3z"/>
		<path class="st4" d="M263.4,53.3h-1.9V40.8h1.9V53.3z"/>
		<path class="st4" d="M273.5,53.3h-1.9v-5.5c0-0.7-0.1-1.2-0.4-1.5c-0.3-0.3-0.7-0.5-1.2-0.5c-0.7,0-1.3,0.2-1.6,0.7
			s-0.5,1.3-0.5,2.4v4.4h-1.9v-8.9h1.5l0.3,1.2h0.1c0.2-0.4,0.6-0.7,1.1-1c0.5-0.2,1-0.3,1.5-0.3c1.4,0,2.3,0.5,2.7,1.4h0.1
			c0.3-0.4,0.6-0.8,1.1-1c0.5-0.2,1-0.4,1.6-0.4c1.1,0,1.8,0.3,2.3,0.8c0.5,0.5,0.7,1.3,0.7,2.4v5.8h-1.9v-5.5
			c0-0.7-0.1-1.2-0.4-1.5c-0.3-0.3-0.7-0.5-1.2-0.5c-0.7,0-1.3,0.2-1.6,0.7c-0.3,0.5-0.5,1.2-0.5,2.1V53.3z"/>
		<path class="st4" d="M285.6,53.4c-1.4,0-2.5-0.4-3.2-1.2c-0.8-0.8-1.2-1.9-1.2-3.3c0-1.4,0.4-2.6,1.1-3.4c0.7-0.8,1.7-1.2,3-1.2
			c1.2,0,2.1,0.4,2.8,1.1c0.7,0.7,1,1.7,1,2.9v1h-5.9c0,0.9,0.3,1.5,0.7,2c0.4,0.5,1.1,0.7,1.9,0.7c0.5,0,1,0,1.5-0.1
			c0.5-0.1,0.9-0.3,1.5-0.5v1.5c-0.5,0.2-0.9,0.4-1.4,0.5S286.2,53.4,285.6,53.4z M285.3,45.7c-0.6,0-1.1,0.2-1.4,0.6
			c-0.4,0.4-0.6,0.9-0.6,1.7h4c0-0.7-0.2-1.3-0.5-1.7C286.4,45.9,285.9,45.7,285.3,45.7z"/>
		<path class="st4" d="M299,53.3h-1.9v-5.5c0-0.7-0.1-1.2-0.4-1.5s-0.7-0.5-1.3-0.5c-0.8,0-1.4,0.2-1.7,0.7s-0.6,1.3-0.6,2.4v4.4
			h-1.9v-8.9h1.5l0.3,1.2h0.1c0.3-0.4,0.6-0.7,1.1-1c0.5-0.2,1-0.3,1.6-0.3c2.1,0,3.2,1.1,3.2,3.2V53.3z"/>
		<path class="st4" d="M305,51.9c0.5,0,0.9-0.1,1.4-0.2v1.4c-0.2,0.1-0.5,0.2-0.8,0.2s-0.7,0.1-1,0.1c-1.8,0-2.7-0.9-2.7-2.8v-4.8
			h-1.2V45l1.3-0.7l0.6-1.9h1.2v2h2.5v1.4h-2.5v4.7c0,0.5,0.1,0.8,0.3,1S304.6,51.9,305,51.9z"/>
		<path class="st4" d="M83.5,73c0,1.4-0.4,2.6-1.1,3.4s-1.8,1.2-3.1,1.2c-0.8,0-1.6-0.2-2.2-0.6c-0.6-0.4-1.1-0.9-1.5-1.6
			c-0.3-0.7-0.5-1.5-0.5-2.4c0-1.4,0.4-2.6,1.1-3.4c0.7-0.8,1.8-1.2,3.1-1.2c1.3,0,2.3,0.4,3,1.2C83.1,70.5,83.5,71.6,83.5,73z
			 M77,73c0,2,0.8,3.1,2.3,3.1c1.5,0,2.2-1,2.2-3.1c0-2-0.8-3-2.3-3c-0.8,0-1.4,0.3-1.7,0.8C77.2,71.3,77,72,77,73z"/>
		<path class="st4" d="M90.1,70h-2.2v7.4H86V70h-1.5v-0.9l1.5-0.6V68c0-1,0.2-1.8,0.7-2.3c0.5-0.5,1.2-0.8,2.3-0.8
			c0.7,0,1.3,0.1,2,0.3l-0.5,1.4c-0.5-0.1-0.9-0.2-1.3-0.2c-0.4,0-0.7,0.1-0.9,0.4c-0.2,0.3-0.3,0.7-0.3,1.2v0.6h2.2V70z"/>
		<path class="st4" d="M94.5,68.6h2.1l1.8,5c0.3,0.7,0.5,1.4,0.5,2H99c0-0.3,0.1-0.7,0.3-1.1s0.8-2.4,2-6h2l-3.8,10
			c-0.7,1.8-1.8,2.8-3.4,2.8c-0.4,0-0.8,0-1.2-0.1v-1.5c0.3,0.1,0.6,0.1,1,0.1c0.9,0,1.5-0.5,1.9-1.6l0.3-0.8L94.5,68.6z"/>
		<path class="st4" d="M112.5,73c0,1.4-0.4,2.6-1.1,3.4s-1.8,1.2-3.1,1.2c-0.8,0-1.6-0.2-2.2-0.6c-0.6-0.4-1.1-0.9-1.5-1.6
			c-0.3-0.7-0.5-1.5-0.5-2.4c0-1.4,0.4-2.6,1.1-3.4c0.7-0.8,1.8-1.2,3.1-1.2c1.3,0,2.3,0.4,3,1.2C112.2,70.5,112.5,71.6,112.5,73z
			 M106.1,73c0,2,0.8,3.1,2.3,3.1c1.5,0,2.2-1,2.2-3.1c0-2-0.8-3-2.3-3c-0.8,0-1.4,0.3-1.7,0.8C106.3,71.3,106.1,72,106.1,73z"/>
		<path class="st4" d="M121,77.5l-0.3-1.2h-0.1c-0.3,0.4-0.6,0.7-1.1,1s-1,0.4-1.7,0.4c-1.1,0-1.9-0.3-2.4-0.8
			c-0.5-0.5-0.8-1.3-0.8-2.4v-5.8h1.9v5.5c0,0.7,0.1,1.2,0.4,1.5c0.3,0.3,0.7,0.5,1.3,0.5c0.8,0,1.4-0.2,1.7-0.7s0.6-1.3,0.6-2.4
			v-4.4h1.9v8.9H121z"/>
		<path class="st4" d="M129.6,68.4c0.4,0,0.7,0,0.9,0.1l-0.2,1.8c-0.3-0.1-0.5-0.1-0.8-0.1c-0.8,0-1.4,0.2-1.8,0.7
			c-0.5,0.5-0.7,1.1-0.7,1.9v4.6h-1.9v-8.9h1.5l0.2,1.6h0.1c0.3-0.5,0.7-0.9,1.2-1.3C128.6,68.6,129.1,68.4,129.6,68.4z"/>
		<path class="st4" d="M140.4,77.6c-1.4,0-2.5-0.4-3.2-1.2c-0.8-0.8-1.2-1.9-1.2-3.3c0-1.4,0.4-2.6,1.1-3.4c0.7-0.8,1.7-1.2,3-1.2
			c1.2,0,2.1,0.4,2.8,1.1c0.7,0.7,1,1.7,1,2.9v1h-5.9c0,0.9,0.3,1.5,0.7,2c0.4,0.5,1.1,0.7,1.9,0.7c0.5,0,1,0,1.5-0.1
			c0.5-0.1,0.9-0.3,1.5-0.5V77c-0.5,0.2-0.9,0.4-1.4,0.5C141.5,77.6,141,77.6,140.4,77.6z M140,69.9c-0.6,0-1.1,0.2-1.4,0.6
			c-0.4,0.4-0.6,0.9-0.6,1.7h4c0-0.7-0.2-1.3-0.5-1.7C141.1,70.1,140.6,69.9,140,69.9z"/>
		<path class="st4" d="M153.8,77.5h-1.9V72c0-0.7-0.1-1.2-0.4-1.5s-0.7-0.5-1.3-0.5c-0.8,0-1.4,0.2-1.7,0.7s-0.6,1.3-0.6,2.4v4.4
			H146v-8.9h1.5l0.3,1.2h0.1c0.3-0.4,0.6-0.7,1.1-1c0.5-0.2,1-0.3,1.6-0.3c2.1,0,3.2,1.1,3.2,3.2V77.5z"/>
		<path class="st4" d="M159.7,76.1c0.5,0,0.9-0.1,1.4-0.2v1.4c-0.2,0.1-0.5,0.2-0.8,0.2c-0.3,0.1-0.7,0.1-1,0.1
			c-1.8,0-2.7-0.9-2.7-2.8V70h-1.2v-0.8l1.3-0.7l0.6-1.9h1.2v2h2.5V70h-2.5v4.7c0,0.5,0.1,0.8,0.3,1C159,76,159.3,76.1,159.7,76.1z"
			/>
		<path class="st4" d="M166.7,77.6c-1.4,0-2.5-0.4-3.2-1.2c-0.8-0.8-1.2-1.9-1.2-3.3c0-1.4,0.4-2.6,1.1-3.4c0.7-0.8,1.7-1.2,3-1.2
			c1.2,0,2.1,0.4,2.8,1.1c0.7,0.7,1,1.7,1,2.9v1h-5.9c0,0.9,0.3,1.5,0.7,2c0.4,0.5,1.1,0.7,1.9,0.7c0.5,0,1,0,1.5-0.1
			c0.5-0.1,0.9-0.3,1.5-0.5V77c-0.5,0.2-0.9,0.4-1.4,0.5C167.9,77.6,167.3,77.6,166.7,77.6z M166.4,69.9c-0.6,0-1.1,0.2-1.4,0.6
			c-0.4,0.4-0.6,0.9-0.6,1.7h4c0-0.7-0.2-1.3-0.5-1.7C167.4,70.1,167,69.9,166.4,69.9z"/>
		<path class="st4" d="M176.8,68.4c0.4,0,0.7,0,0.9,0.1l-0.2,1.8c-0.3-0.1-0.5-0.1-0.8-0.1c-0.8,0-1.4,0.2-1.8,0.7
			c-0.5,0.5-0.7,1.1-0.7,1.9v4.6h-1.9v-8.9h1.5l0.2,1.6h0.1c0.3-0.5,0.7-0.9,1.2-1.3C175.7,68.6,176.3,68.4,176.8,68.4z"/>
		<path class="st4" d="M183.9,77.6c-1.1,0-2-0.4-2.6-1.2h-0.1c0.1,0.7,0.1,1.2,0.1,1.4v3.6h-1.9V68.6h1.5c0,0.2,0.1,0.6,0.3,1.2h0.1
			c0.6-0.9,1.5-1.3,2.6-1.3c1.1,0,2,0.4,2.6,1.2c0.6,0.8,0.9,1.9,0.9,3.4s-0.3,2.6-0.9,3.4C185.9,77.2,185,77.6,183.9,77.6z
			 M183.4,70c-0.7,0-1.3,0.2-1.6,0.7s-0.5,1.1-0.5,2.1V73c0,1.1,0.2,1.9,0.5,2.3c0.3,0.5,0.9,0.7,1.7,0.7c0.7,0,1.2-0.3,1.5-0.8
			c0.4-0.5,0.5-1.3,0.5-2.3c0-1-0.2-1.7-0.5-2.3C184.6,70.2,184.1,70,183.4,70z"/>
		<path class="st4" d="M194.1,68.4c0.4,0,0.7,0,0.9,0.1l-0.2,1.8c-0.3-0.1-0.5-0.1-0.8-0.1c-0.8,0-1.4,0.2-1.8,0.7s-0.7,1.1-0.7,1.9
			v4.6h-1.9v-8.9h1.5l0.2,1.6h0.1c0.3-0.5,0.7-0.9,1.2-1.3C193.1,68.6,193.6,68.4,194.1,68.4z"/>
		<path class="st4" d="M196.6,66.3c0-0.3,0.1-0.6,0.3-0.8c0.2-0.2,0.4-0.3,0.8-0.3c0.3,0,0.6,0.1,0.8,0.3c0.2,0.2,0.3,0.4,0.3,0.8
			c0,0.3-0.1,0.6-0.3,0.8s-0.4,0.3-0.8,0.3c-0.3,0-0.6-0.1-0.8-0.3S196.6,66.6,196.6,66.3z M198.6,77.5h-1.9v-8.9h1.9V77.5z"/>
		<path class="st4" d="M207.2,74.9c0,0.9-0.3,1.5-0.9,2c-0.6,0.5-1.5,0.7-2.7,0.7c-1.2,0-2.1-0.2-2.8-0.5v-1.6c1,0.5,2,0.7,2.9,0.7
			c1.2,0,1.7-0.4,1.7-1.1c0-0.2-0.1-0.4-0.2-0.6c-0.1-0.1-0.3-0.3-0.6-0.5s-0.7-0.3-1.2-0.5c-1-0.4-1.7-0.8-2.1-1.2
			c-0.4-0.4-0.5-0.9-0.5-1.5c0-0.8,0.3-1.3,0.9-1.8s1.4-0.6,2.5-0.6c1,0,2,0.2,3,0.6l-0.6,1.4c-1-0.4-1.8-0.6-2.4-0.6
			c-1,0-1.5,0.3-1.5,0.9c0,0.3,0.1,0.5,0.4,0.7c0.3,0.2,0.8,0.5,1.7,0.8c0.7,0.3,1.3,0.5,1.6,0.8c0.3,0.2,0.6,0.5,0.7,0.8
			S207.2,74.5,207.2,74.9z"/>
		<path class="st4" d="M213.1,77.6c-1.4,0-2.5-0.4-3.2-1.2s-1.2-1.9-1.2-3.3c0-1.4,0.4-2.6,1.1-3.4c0.7-0.8,1.7-1.2,3-1.2
			c1.2,0,2.1,0.4,2.8,1.1c0.7,0.7,1,1.7,1,2.9v1h-5.9c0,0.9,0.3,1.5,0.7,2c0.4,0.5,1.1,0.7,1.9,0.7c0.5,0,1,0,1.5-0.1
			c0.5-0.1,0.9-0.3,1.5-0.5V77c-0.5,0.2-0.9,0.4-1.4,0.5C214.3,77.6,213.8,77.6,213.1,77.6z M212.8,69.9c-0.6,0-1.1,0.2-1.4,0.6
			c-0.4,0.4-0.6,0.9-0.6,1.7h4c0-0.7-0.2-1.3-0.5-1.7S213.4,69.9,212.8,69.9z"/>
		<path class="st4" d="M227.5,77.6c-1.1,0-2-0.4-2.6-1.2h-0.1c0.1,0.7,0.1,1.2,0.1,1.4v3.6H223V68.6h1.5c0,0.2,0.1,0.6,0.3,1.2h0.1
			c0.6-0.9,1.5-1.3,2.6-1.3c1.1,0,2,0.4,2.6,1.2c0.6,0.8,0.9,1.9,0.9,3.4s-0.3,2.6-0.9,3.4C229.5,77.2,228.6,77.6,227.5,77.6z
			 M227,70c-0.7,0-1.3,0.2-1.6,0.7s-0.5,1.1-0.5,2.1V73c0,1.1,0.2,1.9,0.5,2.3c0.3,0.5,0.9,0.7,1.7,0.7c0.7,0,1.2-0.3,1.5-0.8
			c0.4-0.5,0.5-1.3,0.5-2.3c0-1-0.2-1.7-0.5-2.3C228.2,70.2,227.7,70,227,70z"/>
		<path class="st4" d="M239.5,77.5l-0.3-1.2h-0.1c-0.3,0.4-0.6,0.7-1.1,1c-0.5,0.2-1,0.4-1.7,0.4c-1.1,0-1.9-0.3-2.4-0.8
			c-0.5-0.5-0.8-1.3-0.8-2.4v-5.8h1.9v5.5c0,0.7,0.1,1.2,0.4,1.5c0.3,0.3,0.7,0.5,1.3,0.5c0.8,0,1.4-0.2,1.7-0.7
			c0.4-0.5,0.6-1.3,0.6-2.4v-4.4h1.9v8.9H239.5z"/>
		<path class="st4" d="M248.2,68.4c0.4,0,0.7,0,0.9,0.1l-0.2,1.8c-0.3-0.1-0.5-0.1-0.8-0.1c-0.8,0-1.4,0.2-1.8,0.7
			c-0.5,0.5-0.7,1.1-0.7,1.9v4.6h-1.9v-8.9h1.5l0.2,1.6h0.1c0.3-0.5,0.7-0.9,1.2-1.3C247.1,68.6,247.6,68.4,248.2,68.4z"/>
		<path class="st4" d="M255.2,77.6c-1.1,0-2-0.4-2.6-1.2h-0.1c0.1,0.7,0.1,1.2,0.1,1.4v3.6h-1.9V68.6h1.5c0,0.2,0.1,0.6,0.3,1.2h0.1
			c0.6-0.9,1.5-1.3,2.6-1.3c1.1,0,2,0.4,2.6,1.2c0.6,0.8,0.9,1.9,0.9,3.4s-0.3,2.6-0.9,3.4C257.2,77.2,256.4,77.6,255.2,77.6z
			 M254.8,70c-0.7,0-1.3,0.2-1.6,0.7s-0.5,1.1-0.5,2.1V73c0,1.1,0.2,1.9,0.5,2.3c0.3,0.5,0.9,0.7,1.7,0.7c0.7,0,1.2-0.3,1.5-0.8
			c0.4-0.5,0.5-1.3,0.5-2.3c0-1-0.2-1.7-0.5-2.3C256,70.2,255.5,70,254.8,70z"/>
		<path class="st4" d="M268.8,73c0,1.4-0.4,2.6-1.1,3.4s-1.8,1.2-3.1,1.2c-0.8,0-1.6-0.2-2.2-0.6c-0.6-0.4-1.1-0.9-1.5-1.6
			c-0.3-0.7-0.5-1.5-0.5-2.4c0-1.4,0.4-2.6,1.1-3.4c0.7-0.8,1.8-1.2,3.1-1.2c1.3,0,2.3,0.4,3,1.2C268.5,70.5,268.8,71.6,268.8,73z
			 M262.4,73c0,2,0.8,3.1,2.3,3.1c1.5,0,2.2-1,2.2-3.1c0-2-0.8-3-2.3-3c-0.8,0-1.4,0.3-1.7,0.8C262.6,71.3,262.4,72,262.4,73z"/>
		<path class="st4" d="M277,74.9c0,0.9-0.3,1.5-0.9,2c-0.6,0.5-1.5,0.7-2.7,0.7c-1.2,0-2.1-0.2-2.8-0.5v-1.6c1,0.5,2,0.7,2.9,0.7
			c1.2,0,1.7-0.4,1.7-1.1c0-0.2-0.1-0.4-0.2-0.6c-0.1-0.1-0.3-0.3-0.6-0.5s-0.7-0.3-1.2-0.5c-1-0.4-1.7-0.8-2.1-1.2
			c-0.4-0.4-0.5-0.9-0.5-1.5c0-0.8,0.3-1.3,0.9-1.8s1.4-0.6,2.5-0.6c1,0,2,0.2,3,0.6l-0.6,1.4c-1-0.4-1.8-0.6-2.4-0.6
			c-1,0-1.5,0.3-1.5,0.9c0,0.3,0.1,0.5,0.4,0.7c0.3,0.2,0.8,0.5,1.7,0.8c0.7,0.3,1.3,0.5,1.6,0.8c0.3,0.2,0.6,0.5,0.7,0.8
			S277,74.5,277,74.9z"/>
		<path class="st4" d="M282.9,77.6c-1.4,0-2.5-0.4-3.2-1.2s-1.2-1.9-1.2-3.3c0-1.4,0.4-2.6,1.1-3.4c0.7-0.8,1.7-1.2,3-1.2
			c1.2,0,2.1,0.4,2.8,1.1c0.7,0.7,1,1.7,1,2.9v1h-5.9c0,0.9,0.3,1.5,0.7,2c0.4,0.5,1.1,0.7,1.9,0.7c0.5,0,1,0,1.5-0.1
			c0.5-0.1,0.9-0.3,1.5-0.5V77c-0.5,0.2-0.9,0.4-1.4,0.5C284,77.6,283.5,77.6,282.9,77.6z M282.5,69.9c-0.6,0-1.1,0.2-1.4,0.6
			c-0.4,0.4-0.6,0.9-0.6,1.7h4c0-0.7-0.2-1.3-0.5-1.7S283.1,69.9,282.5,69.9z"/>
		<path class="st4" d="M289.4,73.9v-0.5c0-0.6,0.1-1.1,0.3-1.5s0.6-0.8,1.1-1.2c0.6-0.5,1-0.9,1.2-1.2c0.2-0.3,0.3-0.6,0.3-1
			c0-0.4-0.2-0.8-0.4-1c-0.3-0.2-0.7-0.4-1.3-0.4c-0.5,0-1,0.1-1.4,0.2c-0.4,0.1-0.9,0.3-1.3,0.5l-0.7-1.4c1.1-0.6,2.2-0.9,3.5-0.9
			c1,0,1.9,0.3,2.5,0.8c0.6,0.5,0.9,1.2,0.9,2.1c0,0.4-0.1,0.8-0.2,1.1c-0.1,0.3-0.3,0.6-0.5,0.9c-0.2,0.3-0.6,0.7-1.2,1.1
			c-0.5,0.4-0.8,0.7-1,1c-0.2,0.3-0.3,0.6-0.3,1v0.4H289.4z M289.1,76.5c0-0.8,0.4-1.2,1.2-1.2c0.4,0,0.7,0.1,0.9,0.3
			c0.2,0.2,0.3,0.5,0.3,0.9c0,0.4-0.1,0.7-0.3,0.9c-0.2,0.2-0.5,0.3-0.9,0.3s-0.7-0.1-0.9-0.3C289.2,77.2,289.1,76.9,289.1,76.5z"/>
	</g>
</g>
</svg>
