<!-- Generator: Adobe Illustrator 24.1.0, SVG Export Plug-In  -->
<svg version="1.1" xmlns="http://www.w3.org/2000/svg" xmlns:xlink="http://www.w3.org/1999/xlink" x="0px" y="0px" width="173.9px"
	 height="39.8px" viewBox="0 0 173.9 39.8" style="enable-background:new 0 0 173.9 39.8;" xml:space="preserve">
<style type="text/css">
	.st0{fill:#002147;stroke:#002147;stroke-width:0.8721;stroke-miterlimit:10;}
	.st1{fill:#FFFFFF;}
</style>
<defs>
</defs>
<g>
	<path class="st0" d="M154,39.3H19.9c-10.7,0-19.5-8.7-19.5-19.5v0C0.4,9.1,9.1,0.4,19.9,0.4H154c10.7,0,19.5,8.7,19.5,19.5v0
		C173.4,30.6,164.7,39.3,154,39.3z"/>
	<g>
		<path class="st1" d="M69.5,18h4.2v5.7c-0.7,0.2-1.3,0.4-2,0.5s-1.3,0.1-2.1,0.1c-1.7,0-3.1-0.5-4-1.5s-1.4-2.5-1.4-4.3
			c0-1.8,0.5-3.3,1.6-4.3s2.5-1.6,4.4-1.6c1.2,0,2.3,0.2,3.4,0.7l-0.7,1.6c-0.9-0.4-1.9-0.6-2.8-0.6c-1.2,0-2.2,0.4-2.9,1.1
			c-0.7,0.8-1.1,1.8-1.1,3.1c0,1.4,0.3,2.5,1,3.2s1.6,1.1,2.8,1.1c0.6,0,1.2-0.1,1.9-0.2v-2.9h-2.4V18z"/>
		<path class="st1" d="M83.9,19.9c0,1.4-0.4,2.5-1.1,3.3c-0.7,0.8-1.7,1.2-3,1.2c-0.8,0-1.5-0.2-2.1-0.5c-0.6-0.4-1.1-0.9-1.4-1.6
			c-0.3-0.7-0.5-1.5-0.5-2.4c0-1.4,0.4-2.5,1.1-3.3c0.7-0.8,1.7-1.2,3-1.2c1.2,0,2.2,0.4,3,1.2C83.5,17.4,83.9,18.5,83.9,19.9z
			 M77.6,19.9c0,2,0.7,3,2.2,3c1.5,0,2.2-1,2.2-3c0-2-0.7-3-2.2-3c-0.8,0-1.3,0.3-1.7,0.8C77.8,18.2,77.6,18.9,77.6,19.9z"/>
		<path class="st1" d="M89.2,22.9c0.4,0,0.9-0.1,1.3-0.2v1.4c-0.2,0.1-0.5,0.2-0.8,0.2c-0.3,0.1-0.7,0.1-1,0.1
			c-1.7,0-2.6-0.9-2.6-2.8V17H85v-0.8l1.3-0.7l0.6-1.8H88v1.9h2.5V17H88v4.6c0,0.4,0.1,0.8,0.3,1S88.9,22.9,89.2,22.9z"/>
		<path class="st1" d="M96.3,13.3c0-0.3,0.1-0.6,0.3-0.8c0.2-0.2,0.4-0.3,0.8-0.3c0.3,0,0.6,0.1,0.8,0.3c0.2,0.2,0.3,0.4,0.3,0.8
			c0,0.3-0.1,0.6-0.3,0.7s-0.4,0.3-0.8,0.3c-0.3,0-0.6-0.1-0.8-0.3S96.3,13.6,96.3,13.3z M98.3,24.2h-1.8v-8.6h1.8V24.2z"/>
		<path class="st1" d="M104.1,22.9c0.4,0,0.9-0.1,1.3-0.2v1.4c-0.2,0.1-0.5,0.2-0.8,0.2c-0.3,0.1-0.7,0.1-1,0.1
			c-1.7,0-2.6-0.9-2.6-2.8V17h-1.2v-0.8l1.3-0.7l0.6-1.8h1.1v1.9h2.5V17h-2.5v4.6c0,0.4,0.1,0.8,0.3,1S103.8,22.9,104.1,22.9z"/>
		<path class="st1" d="M106.9,23.2c0-0.4,0.1-0.7,0.3-0.9c0.2-0.2,0.5-0.3,0.9-0.3c0.4,0,0.7,0.1,0.9,0.3c0.2,0.2,0.3,0.5,0.3,0.9
			c0,0.4-0.1,0.7-0.3,0.9c-0.2,0.2-0.5,0.3-0.8,0.3c-0.4,0-0.7-0.1-0.9-0.3C107,23.9,106.9,23.6,106.9,23.2z M108.8,20.7h-1.4
			l-0.4-8h2.2L108.8,20.7z"/>
	</g>
</g>
</svg>
