<!-- Generator: Adobe Illustrator 24.1.0, SVG Export Plug-In  -->
<svg version="1.1" xmlns="http://www.w3.org/2000/svg" xmlns:xlink="http://www.w3.org/1999/xlink" x="0px" y="0px" width="550.7px"
	 height="147px" viewBox="0 0 550.7 147" style="enable-background:new 0 0 550.7 147;" xml:space="preserve">
<style type="text/css">
	.st0{fill:#D5CCD6;}
	.st1{fill:#816684;}
	.st2{fill:#AB99AD;}
	.st3{fill:none;stroke:#57335B;stroke-width:2;stroke-linecap:round;stroke-linejoin:round;stroke-miterlimit:10;}
	.st4{enable-background:new    ;}
</style>
<defs>
</defs>
<g>
	<polygon class="st0" points="334.6,16.6 355.8,28.9 377.1,16.6 355.9,4.3 	"/>
</g>
<g>
	<polygon class="st1" points="334.6,16.6 334.7,41.1 355.8,53.4 355.8,28.9 	"/>
</g>
<g>
	<polygon class="st2" points="355.8,28.9 355.8,53.4 377.1,41.1 377.1,16.6 	"/>
</g>
<line class="st3" x1="345.3" y1="34.6" x2="265.4" y2="80.4"/>
<g>
	<g class="st4">
		<g>
			<polygon class="st0" points="216.1,16.6 194.9,28.9 173.6,16.6 194.8,4.3 			"/>
		</g>
		<g>
			<polygon class="st2" points="216.1,16.6 216,41.1 194.9,53.4 194.9,28.9 			"/>
		</g>
		<g>
			<polygon class="st1" points="194.9,28.9 194.9,53.4 173.6,41.1 173.6,16.6 			"/>
		</g>
	</g>
</g>
<line class="st3" x1="205.4" y1="34.6" x2="285.2" y2="80.4"/>
<g>
	<g class="st4">
		<g>
			<polygon class="st0" points="296.1,62.6 274.9,74.9 253.6,62.6 274.8,50.3 			"/>
		</g>
		<g>
			<polygon class="st2" points="296.1,62.6 296,87.1 274.9,99.4 274.9,74.9 			"/>
		</g>
		<g>
			<polygon class="st1" points="274.9,74.9 274.9,99.4 253.6,87.1 253.6,62.6 			"/>
		</g>
	</g>
</g>
<line class="st3" x1="263.5" y1="80.7" x2="181.5" y2="129.2"/>
<g>
	<g class="st4">
		<g>
			<polygon class="st0" points="43.8,12.3 22.7,24.6 1.4,12.3 22.5,0 			"/>
		</g>
		<g>
			<polygon class="st2" points="43.8,12.3 43.7,36.7 22.6,49 22.7,24.6 			"/>
		</g>
		<g>
			<polygon class="st1" points="22.7,24.6 22.6,49 1.3,36.7 1.4,12.3 			"/>
		</g>
	</g>
</g>
<line class="st3" x1="33.2" y1="30.3" x2="113" y2="76"/>
<g>
	<g class="st4">
		<g>
			<polygon class="st0" points="123.8,58.3 102.7,70.6 81.4,58.3 102.5,46 			"/>
		</g>
		<g>
			<polygon class="st2" points="123.8,58.3 123.7,82.7 102.6,95 102.7,70.6 			"/>
		</g>
		<g>
			<polygon class="st1" points="102.7,70.6 102.6,95 81.3,82.7 81.4,58.3 			"/>
		</g>
	</g>
</g>
<line class="st3" x1="113" y1="76" x2="187.3" y2="118.6"/>
<g>
	<g class="st4">
		<g>
			<polygon class="st0" points="214.8,110.3 193.7,122.6 172.4,110.3 193.5,98 			"/>
		</g>
		<g>
			<polygon class="st2" points="214.8,110.3 214.7,134.7 193.6,147 193.7,122.6 			"/>
		</g>
		<g>
			<polygon class="st1" points="193.7,122.6 193.6,147 172.3,134.7 172.4,110.3 			"/>
		</g>
	</g>
</g>
<line class="st3" x1="91.2" y1="76.4" x2="9.3" y2="124.8"/>
<g>
	<g class="st4">
		<g>
			<polygon class="st0" points="42.5,105.6 21.3,117.9 0.1,105.6 21.2,93.3 			"/>
		</g>
		<g>
			<polygon class="st2" points="42.5,105.6 42.4,130.1 21.3,142.4 21.3,117.9 			"/>
		</g>
		<g>
			<polygon class="st1" points="21.3,117.9 21.3,142.4 0,130.1 0.1,105.6 			"/>
		</g>
	</g>
</g>
<line class="st3" x1="287.2" y1="80.7" x2="369.2" y2="129.2"/>
<g>
	<polygon class="st0" points="506.9,12.3 528,24.6 549.3,12.3 528.2,0 	"/>
</g>
<g>
	<polygon class="st1" points="506.9,12.3 507,36.7 528.1,49 528,24.6 	"/>
</g>
<g>
	<polygon class="st2" points="528,24.6 528.1,49 549.4,36.7 549.3,12.3 	"/>
</g>
<line class="st3" x1="517.5" y1="30.3" x2="437.7" y2="76"/>
<g>
	<polygon class="st0" points="426.9,58.3 448,70.6 469.3,58.3 448.2,46 	"/>
</g>
<g>
	<polygon class="st1" points="426.9,58.3 427,82.7 448.1,95 448,70.6 	"/>
</g>
<g>
	<polygon class="st2" points="448,70.6 448.1,95 469.4,82.7 469.3,58.3 	"/>
</g>
<line class="st3" x1="437.7" y1="76" x2="363.4" y2="118.6"/>
<g>
	<polygon class="st0" points="335.9,110.3 357,122.6 378.3,110.3 357.2,98 	"/>
</g>
<g>
	<polygon class="st1" points="335.9,110.3 336,134.7 357.1,147 357,122.6 	"/>
</g>
<g>
	<polygon class="st2" points="357,122.6 357.1,147 378.4,134.7 378.3,110.3 	"/>
</g>
<line class="st3" x1="459.5" y1="76.4" x2="541.4" y2="124.8"/>
<g>
	<polygon class="st0" points="508.2,105.6 529.3,117.9 550.6,105.6 529.5,93.3 	"/>
</g>
<g>
	<polygon class="st1" points="508.2,105.6 508.3,130.1 529.4,142.4 529.3,117.9 	"/>
</g>
<g>
	<polygon class="st2" points="529.3,117.9 529.4,142.4 550.7,130.1 550.6,105.6 	"/>
</g>
</svg>
