<?xml version="1.0" encoding="utf-8"?>
<!-- Generator: Adobe Illustrator 24.1.2, SVG Export Plug-In . SVG Version: 6.00 Build 0)  -->
<svg version="1.1" id="Layer_1" xmlns="http://www.w3.org/2000/svg" xmlns:xlink="http://www.w3.org/1999/xlink" x="0px" y="0px"
	 viewBox="0 0 204.6 46" style="enable-background:new 0 0 204.6 46;" xml:space="preserve">
<style type="text/css">
	.st0{fill:#192642;}
	.st1{fill:none;stroke:#002147;stroke-width:1.5;stroke-linecap:round;stroke-miterlimit:10;}
</style>
<g>
	<path class="st0" d="M66.9,15.5h1.9l-4,11.4h-2l-4-11.4h1.9l2.4,7.1c0.1,0.3,0.3,0.8,0.4,1.3s0.2,0.9,0.3,1.2
		c0.1-0.4,0.2-0.9,0.3-1.4s0.3-0.9,0.3-1.2L66.9,15.5z"/>
	<path class="st0" d="M70,16c0-0.3,0.1-0.6,0.3-0.8c0.2-0.2,0.4-0.2,0.8-0.2c0.3,0,0.6,0.1,0.8,0.3c0.2,0.2,0.2,0.4,0.2,0.7
		c0,0.3-0.1,0.6-0.3,0.7c-0.2,0.1-0.4,0.3-0.7,0.3c-0.3,0-0.6-0.1-0.8-0.3C70.1,16.5,70,16.3,70,16z M72,26.9h-1.9v-8.6h1.8L72,26.9
		L72,26.9z"/>
	<path class="st0" d="M78.4,27.1c-1.3,0-2.4-0.4-3.2-1.2c-0.8-0.8-1.1-1.9-1.1-3.2c0-1.4,0.4-2.5,1.1-3.3s1.7-1.2,2.9-1.2
		c1.1,0,2,0.3,2.7,1s1,1.6,1,2.9v1H76c0,0.8,0.3,1.5,0.7,1.9c0.4,0.5,1,0.7,1.8,0.7c0.5,0,1,0,1.4-0.1s0.9-0.3,1.4-0.5v1.5
		c-0.4,0.2-0.9,0.4-1.4,0.5C79.5,27,79,27.1,78.4,27.1z M78,19.5c-0.6,0-1.1,0.2-1.4,0.6S76.1,21,76,21.7h3.9c0-0.7-0.2-1.3-0.5-1.6
		C79.1,19.7,78.6,19.5,78,19.5z"/>
	<path class="st0" d="M90.9,26.9l-1.1-4c-0.1-0.4-0.4-1.4-0.7-3H89c-0.3,1.4-0.5,2.4-0.7,3l-1.1,4h-2l-2.4-8.6h1.9l1.1,4.3
		c0.2,1.1,0.4,2,0.5,2.7l0,0c0.1-0.4,0.1-0.8,0.2-1.3s0.2-0.9,0.3-1.1l1.3-4.5h2l1.3,4.5c0.1,0.3,0.2,0.6,0.3,1.2s0.2,0.9,0.2,1.2
		H92c0.1-0.6,0.3-1.5,0.5-2.7l1.1-4.3h1.8L93,26.9H90.9z"/>
	<g>
		<path class="st0" d="M107.1,18.1c0.4,0,0.7,0,0.9,0.1l-0.2,1.7c-0.3-0.1-0.5-0.1-0.8-0.1c-0.7,0-1.3,0.2-1.8,0.7s-0.7,1.1-0.7,1.9
			v4.5h-1.8v-8.6h1.4l0.2,1.5h0.1c0.3-0.5,0.7-0.9,1.1-1.2S106.6,18.1,107.1,18.1z"/>
		<path class="st0" d="M113.4,27.1c-1.3,0-2.4-0.4-3.2-1.2s-1.1-1.9-1.1-3.2c0-1.4,0.4-2.5,1.1-3.3s1.7-1.2,2.9-1.2
			c1.1,0,2,0.3,2.7,1s1,1.6,1,2.9v1H111c0,0.8,0.3,1.5,0.7,1.9c0.4,0.5,1,0.7,1.8,0.7c0.5,0,1,0,1.4-0.1s0.9-0.3,1.4-0.5v1.5
			c-0.4,0.2-0.9,0.4-1.4,0.5C114.5,27,114,27.1,113.4,27.1z M113.1,19.5c-0.6,0-1.1,0.2-1.4,0.6s-0.6,0.9-0.6,1.6h3.9
			c0-0.7-0.2-1.3-0.5-1.6C114.1,19.7,113.6,19.5,113.1,19.5z"/>
		<path class="st0" d="M124.6,24.5c0,0.8-0.3,1.5-0.9,1.9c-0.6,0.5-1.5,0.7-2.6,0.7c-1.2,0-2.1-0.2-2.8-0.5V25c1,0.5,2,0.7,2.8,0.7
			c1.1,0,1.7-0.3,1.7-1c0-0.2-0.1-0.4-0.2-0.5s-0.3-0.3-0.6-0.5s-0.7-0.3-1.2-0.5c-1-0.4-1.7-0.8-2-1.2s-0.5-0.9-0.5-1.5
			c0-0.7,0.3-1.3,0.9-1.7c0.6-0.4,1.4-0.6,2.4-0.6s2,0.2,2.9,0.6l-0.6,1.4c-0.9-0.4-1.7-0.6-2.4-0.6c-1,0-1.5,0.3-1.5,0.8
			c0,0.3,0.1,0.5,0.4,0.7s0.8,0.4,1.7,0.8c0.7,0.3,1.2,0.5,1.6,0.8c0.3,0.2,0.6,0.5,0.7,0.8S124.6,24.1,124.6,24.5z"/>
		<path class="st0" d="M132.7,26.9l-0.3-1.1h-0.1c-0.3,0.4-0.6,0.7-1.1,0.9c-0.5,0.2-1,0.3-1.6,0.3c-1,0-1.8-0.3-2.3-0.8
			s-0.8-1.3-0.8-2.4v-5.6h1.9v5.3c0,0.7,0.1,1.2,0.4,1.5c0.3,0.3,0.7,0.5,1.3,0.5c0.8,0,1.3-0.2,1.7-0.7s0.5-1.2,0.5-2.3v-4.3h1.8
			v8.6L132.7,26.9L132.7,26.9z"/>
		<path class="st0" d="M138.6,26.9h-1.8V14.8h1.8V26.9z"/>
		<path class="st0" d="M144.5,25.6c0.4,0,0.9-0.1,1.3-0.2v1.4c-0.2,0.1-0.5,0.2-0.8,0.2s-0.7,0.1-1,0.1c-1.7,0-2.6-0.9-2.6-2.8v-4.7
			h-1.2v-0.8l1.3-0.7l0.6-1.8h1.1v1.9h2.5v1.4h-2.5v4.6c0,0.4,0.1,0.8,0.3,1C143.8,25.5,144.1,25.6,144.5,25.6z"/>
	</g>
</g>
<path class="st1" d="M181.6,45.3H23c-12.3,0-22.3-10-22.3-22.3l0,0c0-12.3,10-22.3,22.3-22.3h158.6c12.3,0,22.3,10,22.3,22.3l0,0
	C203.8,35.3,193.9,45.3,181.6,45.3z"/>
</svg>
