<!-- Generator: Adobe Illustrator 24.1.0, SVG Export Plug-In  -->
<svg version="1.1" xmlns="http://www.w3.org/2000/svg" xmlns:xlink="http://www.w3.org/1999/xlink" x="0px" y="0px" width="34.8px"
	 height="34.8px" viewBox="0 0 34.8 34.8" style="enable-background:new 0 0 34.8 34.8;" xml:space="preserve">
<style type="text/css">
	.st0{fill:#EF4735;}
	.st1{fill:#FFFFFF;}
</style>
<defs>
</defs>
<g>
	<g>
		<path class="st0" d="M17.4,33.8C8.3,33.8,1,26.4,1,17.4S8.3,1,17.4,1s16.4,7.3,16.4,16.4S26.4,33.8,17.4,33.8z"/>
		<path class="st1" d="M17.4,2c8.5,0,15.4,6.9,15.4,15.4s-6.9,15.4-15.4,15.4S2,25.9,2,17.4S8.9,2,17.4,2 M17.4,0
			C7.8,0,0,7.8,0,17.4s7.8,17.4,17.4,17.4S34.8,27,34.8,17.4S27,0,17.4,0L17.4,0z"/>
	</g>
	<circle class="st1" cx="17.4" cy="17.4" r="8.2"/>
</g>
</svg>
