<!-- Generator: Adobe Illustrator 24.1.0, SVG Export Plug-In  -->
<svg version="1.1" xmlns="http://www.w3.org/2000/svg" xmlns:xlink="http://www.w3.org/1999/xlink" x="0px" y="0px" width="251.5px"
	 height="39.6px" viewBox="0 0 251.5 39.6" style="enable-background:new 0 0 251.5 39.6;" xml:space="preserve">
<style type="text/css">
	.st0{fill:#F52685;}
	.st1{fill:#A30D61;}
	.st2{fill:#2F2F2F;}
</style>
<defs>
</defs>
<g>
	<g>
		<g>
			<path class="st0" d="M221.4,7.6l-0.3,0.5v4.4l0.2,0.2V8.4h0.2v4.6l0.2,0.2V8.4h0.2v4.8l0.2-0.2V8.4h0.2v4.3l0.2-0.2V8.1l-0.3-0.5
				H221.4z M221.9,7.3c0.4,0,0.6-0.3,0.6-0.6c0-0.4-0.3-0.6-0.6-0.6c-0.4,0-0.6,0.3-0.6,0.6C221.2,7,221.5,7.3,221.9,7.3 M223.6,5
				l-14.4-5l-14.5,5l14.5,5l12.1-4.2l-11.7-4l0.7-0.2l11.7,4L223.6,5z"/>
		</g>
		<polygon class="st0" points="217.8,12.4 217.8,7.6 209.2,10.5 209.2,15.3 		"/>
		<polygon class="st1" points="200.6,12.4 200.6,7.6 209.2,10.5 209.2,15.3 		"/>
		<g>
			<path class="st0" d="M248,35.4v-7.5c0.1-0.2,0.3-0.4,0.5-0.7c0.2-0.2,0.5-0.4,0.7-0.6c0.3-0.2,0.5-0.3,0.9-0.4
				c0.3-0.1,0.6-0.2,0.8-0.2h0.3c0.1,0,0.2,0,0.3,0v-1.2c-0.7,0-1.4,0.2-1.9,0.6c-0.6,0.4-1.1,0.8-1.5,1.4v-1.8h-1.1v10.3H248z
				 M236.9,29.8c0-0.4,0.1-0.9,0.3-1.4c0.2-0.5,0.4-0.9,0.7-1.3c0.3-0.4,0.7-0.7,1.1-0.9c0.5-0.2,1-0.4,1.6-0.4
				c0.6,0,1.2,0.1,1.7,0.4c0.5,0.2,0.9,0.6,1.2,0.9c0.3,0.4,0.5,0.8,0.7,1.3c0.2,0.5,0.2,0.9,0.2,1.4H236.9z M243.1,35.3
				c0.7-0.3,1.2-0.7,1.8-1.2l-0.6-0.7c-0.4,0.5-0.9,0.8-1.5,1.1c-0.6,0.2-1.2,0.4-1.8,0.4c-0.6,0-1.2-0.1-1.6-0.3
				c-0.5-0.2-0.9-0.5-1.2-0.9c-0.3-0.4-0.6-0.8-0.8-1.3c-0.2-0.5-0.3-1-0.3-1.6h8.6v-0.3c0-0.7-0.1-1.4-0.3-2.1
				c-0.2-0.7-0.5-1.2-0.9-1.7c-0.4-0.5-0.9-0.9-1.5-1.2c-0.6-0.3-1.3-0.4-2.1-0.4c-0.7,0-1.4,0.1-2,0.4c-0.6,0.3-1.1,0.7-1.6,1.1
				c-0.4,0.5-0.8,1.1-1,1.7c-0.2,0.7-0.4,1.4-0.4,2.1c0,0.8,0.1,1.5,0.4,2.2c0.3,0.7,0.6,1.2,1.1,1.7c0.5,0.5,1,0.9,1.6,1.1
				c0.6,0.3,1.3,0.4,2.1,0.4C241.7,35.7,242.4,35.6,243.1,35.3 M234.9,35.5c0.3-0.1,0.5-0.3,0.7-0.5l-0.4-0.8
				c-0.1,0.1-0.3,0.2-0.5,0.3c-0.2,0.1-0.4,0.1-0.7,0.1c-0.4,0-0.6-0.1-0.8-0.4c-0.2-0.3-0.3-0.6-0.3-1v-7.1h2.1v-1H233v-2.8h-1.1
				v2.8h-1.7v1h1.7v7.3c0,0.7,0.2,1.3,0.5,1.6c0.3,0.4,0.8,0.6,1.5,0.6C234.3,35.7,234.6,35.6,234.9,35.5 M225.8,35.4v-7.5
				c0.1-0.2,0.3-0.4,0.5-0.7c0.2-0.2,0.5-0.4,0.7-0.6c0.3-0.2,0.6-0.3,0.9-0.4c0.3-0.1,0.6-0.2,0.8-0.2h0.3c0.1,0,0.2,0,0.3,0v-1.2
				c-0.7,0-1.4,0.2-2,0.6c-0.6,0.4-1.1,0.8-1.5,1.4v-1.8h-1.1v10.3H225.8z M217,34.1c-0.5-0.5-0.8-1.1-0.8-1.8
				c0-0.7,0.3-1.3,0.8-1.8c0.5-0.5,1.2-0.7,2-0.7c0.6,0,1.2,0.1,1.7,0.4c0.5,0.2,1,0.6,1.4,1.1v2.3c-0.4,0.5-0.8,0.8-1.4,1.1
				c-0.5,0.2-1.1,0.4-1.7,0.4C218.2,34.8,217.5,34.6,217,34.1 M223.2,35.4v-7.2c0-0.6-0.1-1.1-0.3-1.5c-0.2-0.4-0.5-0.8-0.8-1
				c-0.3-0.3-0.7-0.5-1.2-0.6c-0.5-0.1-0.9-0.2-1.5-0.2c-0.9,0-1.6,0.1-2.2,0.4c-0.6,0.3-1.2,0.7-1.7,1.3l0.6,0.8
				c0.5-0.5,1-0.9,1.5-1.2c0.5-0.2,1.1-0.3,1.7-0.3c0.8,0,1.4,0.2,2,0.6c0.5,0.4,0.8,1,0.8,1.7v2.1c-0.9-1-2-1.5-3.5-1.5
				c-0.5,0-0.9,0.1-1.3,0.2c-0.4,0.1-0.8,0.4-1.1,0.6c-0.3,0.3-0.6,0.6-0.8,1.1c-0.2,0.4-0.3,0.9-0.3,1.5c0,0.6,0.1,1,0.3,1.5
				c0.2,0.4,0.5,0.8,0.8,1.1c0.3,0.3,0.7,0.5,1.2,0.7c0.4,0.1,0.9,0.2,1.3,0.2c1.4,0,2.6-0.5,3.5-1.5v1.2H223.2z M213.8,35.4V28
				c0-2.1-0.9-3.1-2.8-3.1c-0.4,0-0.7,0.1-1.1,0.2c-0.3,0.1-0.7,0.3-1,0.4c-0.3,0.2-0.6,0.4-0.8,0.6c-0.2,0.2-0.4,0.5-0.6,0.7
				c-0.1-0.3-0.2-0.5-0.3-0.7c-0.1-0.2-0.3-0.4-0.5-0.6c-0.2-0.2-0.5-0.3-0.8-0.4c-0.3-0.1-0.7-0.2-1.1-0.2c-0.4,0-0.7,0.1-1.1,0.2
				c-0.4,0.1-0.7,0.3-1,0.5c-0.3,0.2-0.6,0.4-0.8,0.6c-0.2,0.2-0.4,0.4-0.5,0.6v-1.6h-1.1v10.3h1.1v-7.8c0.2-0.2,0.3-0.4,0.6-0.7
				c0.2-0.2,0.5-0.4,0.7-0.6c0.3-0.2,0.5-0.3,0.8-0.4c0.3-0.1,0.6-0.1,0.8-0.1c0.7,0,1.3,0.2,1.6,0.6c0.3,0.4,0.5,1,0.5,1.7v7.2h1.1
				v-7.8c0.1-0.2,0.3-0.4,0.5-0.7c0.2-0.2,0.5-0.4,0.7-0.6c0.3-0.2,0.5-0.3,0.8-0.4c0.3-0.1,0.6-0.1,0.9-0.1c0.7,0,1.2,0.2,1.6,0.6
				c0.3,0.4,0.5,1,0.5,1.7v7.2H213.8z M197.1,35.5c0.5-0.2,0.9-0.4,1.2-0.6c0.3-0.3,0.6-0.6,0.7-1c0.2-0.4,0.2-0.8,0.2-1.2
				c0-0.7-0.2-1.2-0.5-1.6c-0.3-0.4-0.7-0.7-1.2-0.9c-0.5-0.2-1-0.4-1.6-0.5c-0.6-0.1-1.1-0.3-1.6-0.4c-0.5-0.1-0.9-0.3-1.2-0.6
				c-0.3-0.2-0.5-0.6-0.5-1c0-0.5,0.2-1,0.7-1.3c0.5-0.4,1.1-0.5,1.9-0.5c0.7,0,1.3,0.1,1.8,0.4c0.5,0.2,0.9,0.6,1.2,1l0.6-0.8
				c-0.4-0.4-0.9-0.8-1.5-1.1c-0.6-0.3-1.3-0.4-2.2-0.4c-0.6,0-1.1,0.1-1.6,0.2c-0.5,0.2-0.8,0.4-1.1,0.6c-0.3,0.3-0.5,0.6-0.7,0.9
				c-0.2,0.3-0.2,0.7-0.2,1.1c0,0.6,0.2,1.1,0.5,1.4c0.3,0.4,0.7,0.6,1.2,0.8c0.5,0.2,1,0.4,1.6,0.5c0.6,0.1,1.1,0.3,1.6,0.4
				c0.5,0.2,0.9,0.4,1.2,0.6c0.3,0.3,0.5,0.6,0.5,1.1c0,0.6-0.2,1.1-0.7,1.5c-0.5,0.4-1.2,0.6-2,0.6c-0.7,0-1.4-0.1-2-0.4
				c-0.6-0.3-1-0.7-1.4-1.1l-0.7,0.8c0.5,0.6,1.1,1,1.7,1.2c0.6,0.3,1.4,0.4,2.2,0.4C196,35.7,196.6,35.6,197.1,35.5"/>
			<path class="st2" d="M189.7,35.5c0.3-0.1,0.5-0.3,0.7-0.5l-0.4-0.9c-0.1,0.1-0.3,0.2-0.5,0.3c-0.2,0.1-0.4,0.1-0.7,0.1
				c-0.4,0-0.6-0.1-0.8-0.4c-0.2-0.3-0.3-0.6-0.3-1v-7.1h2.1v-1h-2.1v-2.8h-1.1v2.8H185v1h1.7v7.3c0,0.7,0.2,1.3,0.5,1.6
				c0.3,0.4,0.8,0.6,1.5,0.6C189.1,35.7,189.5,35.6,189.7,35.5 M176.3,29.8c0-0.4,0.1-0.9,0.3-1.4c0.2-0.5,0.4-0.9,0.7-1.3
				c0.3-0.4,0.7-0.7,1.1-0.9c0.5-0.2,1-0.4,1.6-0.4c0.6,0,1.2,0.1,1.7,0.4c0.5,0.2,0.9,0.6,1.2,0.9c0.3,0.4,0.5,0.8,0.7,1.3
				c0.1,0.5,0.2,0.9,0.2,1.4H176.3z M182.5,35.3c0.7-0.3,1.2-0.7,1.8-1.2l-0.6-0.7c-0.4,0.5-1,0.8-1.5,1.1c-0.6,0.2-1.2,0.4-1.8,0.4
				c-0.6,0-1.2-0.1-1.6-0.3c-0.5-0.2-0.9-0.5-1.2-0.9c-0.3-0.4-0.6-0.8-0.8-1.3c-0.2-0.5-0.3-1-0.3-1.6h8.6v-0.3
				c0-0.7-0.1-1.4-0.3-2.1c-0.2-0.7-0.5-1.2-0.9-1.7c-0.4-0.5-0.9-0.9-1.5-1.2c-0.6-0.3-1.3-0.4-2.1-0.4c-0.7,0-1.4,0.1-2,0.4
				c-0.6,0.3-1.1,0.7-1.6,1.1c-0.4,0.5-0.8,1.1-1,1.7c-0.2,0.7-0.4,1.4-0.4,2.1c0,0.8,0.1,1.5,0.4,2.2c0.3,0.7,0.6,1.2,1.1,1.7
				c0.5,0.5,1,0.9,1.6,1.1c0.6,0.3,1.3,0.4,2.1,0.4C181.1,35.7,181.8,35.6,182.5,35.3 M168,34.3c-0.4-0.2-0.8-0.5-1.1-0.9
				c-0.3-0.4-0.5-0.9-0.7-1.4c-0.2-0.5-0.2-1.1-0.2-1.7c0-0.6,0.1-1.2,0.2-1.7c0.2-0.5,0.4-1,0.7-1.4c0.3-0.4,0.7-0.7,1.1-0.9
				c0.4-0.2,0.9-0.3,1.5-0.3c0.4,0,0.7,0.1,1,0.1c0.3,0.1,0.7,0.2,1,0.4c0.3,0.2,0.6,0.4,0.8,0.6c0.2,0.2,0.4,0.5,0.6,0.7v5
				c-0.2,0.3-0.4,0.5-0.6,0.7c-0.2,0.2-0.5,0.4-0.8,0.6c-0.3,0.2-0.6,0.3-1,0.4c-0.3,0.1-0.7,0.1-1,0.1
				C169,34.7,168.4,34.5,168,34.3 M171.2,39.4c0.6-0.1,1.1-0.4,1.5-0.7c0.4-0.3,0.8-0.8,1-1.3c0.2-0.5,0.4-1.2,0.4-2V25.2h-1.1v1.7
				c-0.4-0.6-0.9-1.1-1.5-1.4c-0.6-0.3-1.3-0.5-2-0.5c-0.7,0-1.3,0.1-1.9,0.4c-0.6,0.3-1.1,0.6-1.5,1.1c-0.4,0.5-0.7,1-0.9,1.7
				c-0.2,0.7-0.3,1.4-0.3,2.2c0,0.8,0.1,1.6,0.3,2.2c0.2,0.7,0.5,1.2,0.9,1.7c0.4,0.5,0.9,0.8,1.5,1.1c0.6,0.2,1.2,0.4,1.9,0.4
				c0.8,0,1.5-0.2,2.1-0.6c0.6-0.4,1.1-0.8,1.5-1.3v1.6c0,0.6-0.1,1.1-0.3,1.5c-0.2,0.4-0.4,0.8-0.8,1c-0.3,0.3-0.7,0.5-1.1,0.6
				c-0.4,0.1-0.9,0.2-1.3,0.2c-0.8,0-1.4-0.1-1.9-0.3c-0.5-0.2-1-0.6-1.5-1.1l-0.6,0.8c0.3,0.3,0.6,0.6,0.9,0.8
				c0.3,0.2,0.6,0.4,0.9,0.5c0.3,0.1,0.7,0.2,1,0.2c0.4,0,0.8,0.1,1.2,0.1C170,39.6,170.6,39.5,171.2,39.4"/>
		</g>
	</g>
	<g>
		<rect y="26.7" class="st2" width="1" height="8.4"/>
		<g>
			<path class="st2" d="M10.7,35.2H9.5l-4.6-7.1h0C4.9,28.9,5,29.7,5,30.4v4.8H4.1v-8.4h1.1l4.6,7.1h0c0-0.1,0-0.4-0.1-1
				c0-0.6,0-1,0-1.2v-4.8h0.9V35.2z"/>
			<path class="st2" d="M21.2,27.5c-0.9,0-1.7,0.3-2.2,0.9c-0.5,0.6-0.8,1.5-0.8,2.5c0,1.1,0.3,2,0.8,2.6c0.5,0.6,1.3,0.9,2.2,0.9
				c0.6,0,1.3-0.1,2-0.3v0.9c-0.6,0.2-1.3,0.3-2.2,0.3c-1.2,0-2.2-0.4-2.9-1.1c-0.7-0.8-1-1.8-1-3.2c0-0.9,0.2-1.6,0.5-2.3
				c0.3-0.7,0.8-1.2,1.4-1.5c0.6-0.4,1.3-0.5,2.2-0.5c0.9,0,1.7,0.2,2.3,0.5l-0.4,0.8C22.5,27.6,21.8,27.5,21.2,27.5"/>
			<path class="st2" d="M26.4,30.9c0,1.1,0.2,2,0.7,2.6c0.5,0.6,1.2,0.9,2.1,0.9c0.9,0,1.6-0.3,2.1-0.9c0.5-0.6,0.7-1.5,0.7-2.6
				c0-1.1-0.2-2-0.7-2.6c-0.5-0.6-1.2-0.9-2.1-0.9c-0.9,0-1.6,0.3-2.1,0.9C26.7,28.9,26.4,29.8,26.4,30.9 M33.1,30.9
				c0,1.3-0.3,2.4-1,3.2c-0.7,0.8-1.6,1.2-2.8,1.2c-1.2,0-2.2-0.4-2.9-1.1c-0.7-0.8-1-1.8-1-3.2c0-1.4,0.3-2.4,1-3.2
				c0.7-0.8,1.6-1.1,2.9-1.1c1.2,0,2.2,0.4,2.8,1.2C32.8,28.5,33.1,29.6,33.1,30.9"/>
		</g>
		<polygon class="st2" points="35.8,35.2 35.8,26.7 36.8,26.7 36.8,34.3 40.5,34.3 40.5,35.2 		"/>
		<polygon class="st2" points="42.7,35.2 42.7,26.7 43.7,26.7 43.7,34.3 47.4,34.3 47.4,35.2 		"/>
		<g>
			<path class="st2" d="M53.5,31.6l-1-2.6c-0.1-0.3-0.3-0.7-0.4-1.2c-0.1,0.4-0.2,0.8-0.4,1.2l-1,2.6H53.5z M54.9,35.2l-1.1-2.7
				h-3.4l-1,2.7h-1l3.3-8.5h0.8l3.3,8.5H54.9z"/>
			<path class="st2" d="M58.8,31.2v3.2h1.8c0.7,0,1.2-0.1,1.5-0.4c0.3-0.3,0.5-0.7,0.5-1.2c0-0.5-0.2-0.9-0.5-1.2
				c-0.4-0.2-0.9-0.4-1.6-0.4H58.8z M58.8,30.3h1.6c0.7,0,1.2-0.1,1.5-0.3c0.3-0.2,0.5-0.6,0.5-1.1c0-0.5-0.2-0.8-0.5-1
				c-0.3-0.2-0.9-0.3-1.6-0.3h-1.4V30.3z M57.8,26.7h2.4c1.1,0,1.9,0.2,2.4,0.5c0.5,0.3,0.7,0.9,0.7,1.6c0,0.5-0.1,0.9-0.4,1.2
				s-0.7,0.5-1.2,0.6v0.1c1.3,0.2,1.9,0.9,1.9,2c0,0.8-0.3,1.3-0.8,1.8c-0.5,0.4-1.2,0.6-2.1,0.6h-2.9V26.7z"/>
			<path class="st2" d="M66.9,30.9c0,1.1,0.2,2,0.7,2.6c0.5,0.6,1.2,0.9,2.1,0.9c0.9,0,1.6-0.3,2.1-0.9c0.5-0.6,0.7-1.5,0.7-2.6
				c0-1.1-0.2-2-0.7-2.6c-0.5-0.6-1.2-0.9-2.1-0.9c-0.9,0-1.6,0.3-2.1,0.9C67.1,28.9,66.9,29.8,66.9,30.9 M73.6,30.9
				c0,1.3-0.3,2.4-1,3.2c-0.7,0.8-1.6,1.2-2.8,1.2c-1.2,0-2.2-0.4-2.9-1.1c-0.7-0.8-1-1.8-1-3.2c0-1.4,0.3-2.4,1-3.2
				c0.7-0.8,1.6-1.1,2.9-1.1c1.2,0,2.2,0.4,2.8,1.2C73.3,28.5,73.6,29.6,73.6,30.9"/>
			<path class="st2" d="M77.2,30.8h1.3c0.7,0,1.2-0.1,1.5-0.4c0.3-0.3,0.5-0.7,0.5-1.2c0-0.6-0.2-1-0.5-1.2
				c-0.3-0.2-0.9-0.4-1.6-0.4h-1.3V30.8z M77.2,31.6v3.5h-1v-8.4h2.3c1,0,1.8,0.2,2.3,0.6c0.5,0.4,0.7,1,0.7,1.8
				c0,1.1-0.6,1.9-1.7,2.3l2.3,3.8H81l-2-3.5H77.2z"/>
			<path class="st2" d="M88.3,31.6l-1-2.6c-0.1-0.3-0.3-0.7-0.4-1.2c-0.1,0.4-0.2,0.8-0.4,1.2l-1,2.6H88.3z M89.6,35.2l-1.1-2.7
				h-3.4l-1,2.7h-1l3.3-8.5h0.8l3.3,8.5H89.6z"/>
		</g>
		<polygon class="st2" points="95.2,35.2 94.2,35.2 94.2,27.6 91.5,27.6 91.5,26.7 97.9,26.7 97.9,27.6 95.2,27.6 		"/>
		<rect x="99.9" y="26.7" class="st2" width="1" height="8.4"/>
		<g>
			<path class="st2" d="M104.6,30.9c0,1.1,0.2,2,0.7,2.6c0.5,0.6,1.2,0.9,2.1,0.9c0.9,0,1.6-0.3,2.1-0.9c0.5-0.6,0.7-1.5,0.7-2.6
				c0-1.1-0.2-2-0.7-2.6c-0.5-0.6-1.2-0.9-2.1-0.9c-0.9,0-1.6,0.3-2.1,0.9C104.8,28.9,104.6,29.8,104.6,30.9 M111.3,30.9
				c0,1.3-0.3,2.4-1,3.2c-0.7,0.8-1.6,1.2-2.8,1.2c-1.2,0-2.2-0.4-2.9-1.1c-0.7-0.8-1-1.8-1-3.2c0-1.4,0.3-2.4,1-3.2
				c0.7-0.8,1.6-1.1,2.9-1.1c1.2,0,2.2,0.4,2.8,1.2C110.9,28.5,111.3,29.6,111.3,30.9"/>
			<path class="st2" d="M120.5,35.2h-1.1l-4.6-7.1h0c0.1,0.8,0.1,1.6,0.1,2.3v4.8h-0.9v-8.4h1.1l4.6,7.1h0c0-0.1,0-0.4-0.1-1
				c0-0.6,0-1,0-1.2v-4.8h0.9V35.2z"/>
			<path class="st2" d="M134.8,35.2h-1l-1.7-5.7c-0.1-0.2-0.2-0.6-0.3-0.9c-0.1-0.4-0.2-0.6-0.2-0.7c-0.1,0.5-0.2,1.1-0.4,1.7
				l-1.7,5.6h-1l-2.2-8.4h1l1.3,5.2c0.2,0.7,0.3,1.4,0.4,2c0.1-0.7,0.3-1.4,0.5-2.1l1.5-5.1h1l1.6,5.2c0.2,0.6,0.3,1.3,0.5,2
				c0.1-0.5,0.2-1.2,0.4-2l1.3-5.2h1L134.8,35.2z"/>
		</g>
		<rect x="139.2" y="26.7" class="st2" width="1" height="8.4"/>
		<polygon class="st2" points="145.8,35.2 144.8,35.2 144.8,27.6 142.2,27.6 142.2,26.7 148.5,26.7 148.5,27.6 145.8,27.6 		"/>
		<polygon class="st2" points="156.9,35.2 156,35.2 156,31.2 151.5,31.2 151.5,35.2 150.5,35.2 150.5,26.7 151.5,26.7 151.5,30.3 
			156,30.3 156,26.7 156.9,26.7 		"/>
	</g>
</g>
</svg>
