<?xml version="1.0" encoding="utf-8"?>
<!-- Generator: Adobe Illustrator 24.1.2, SVG Export Plug-In . SVG Version: 6.00 Build 0)  -->
<svg version="1.1" id="Layer_1" xmlns="http://www.w3.org/2000/svg" xmlns:xlink="http://www.w3.org/1999/xlink" x="0px" y="0px"
	 viewBox="0 0 666.8 506" style="enable-background:new 0 0 666.8 506;" xml:space="preserve">
<style type="text/css">
	.st0{fill:#FFFFFF;stroke:#62778D;stroke-linecap:round;stroke-miterlimit:10;}
	.st1{opacity:0.5;}
	.st2{fill:#192642;}
	.st3{fill:#CCC3CD;}
	.st4{fill:#54355E;}
	.st5{fill:#FFFFFF;}
	.st6{fill:#002147;}
	.st7{fill:#FFFFFF;stroke:#002147;stroke-width:1.5;stroke-linecap:round;stroke-miterlimit:10;}
</style>
<path class="st0" d="M645.2,505.5H21.6c-11.7,0-21.1-9.5-21.1-21.1V21.6C0.5,10,10,0.5,21.6,0.5h623.6c11.7,0,21.1,9.5,21.1,21.1
	v462.7C666.3,496,656.9,505.5,645.2,505.5z"/>
<g>
	<g>
		<g class="st1">
			<path class="st2" d="M186.8,224.4c0,2.1-0.3,3.7-1,4.8s-1.7,1.6-3.2,1.6c-1.4,0-2.4-0.5-3.1-1.6s-1.1-2.7-1.1-4.7
				c0-2.2,0.3-3.8,1-4.8s1.7-1.5,3.2-1.5c1.4,0,2.4,0.5,3.1,1.6S186.8,222.4,186.8,224.4z M180.5,224.4c0,1.7,0.2,2.9,0.5,3.6
				c0.3,0.7,0.9,1.1,1.7,1.1s1.3-0.4,1.7-1.1c0.4-0.7,0.5-1.9,0.5-3.6c0-1.7-0.2-2.9-0.5-3.6c-0.3-0.7-0.9-1.1-1.7-1.1
				s-1.3,0.4-1.7,1.1C180.6,221.6,180.5,222.8,180.5,224.4z"/>
		</g>
		<g class="st1">
			<path class="st2" d="M212.2,230.6h-2v-8c0-1,0-1.7,0.1-2.3c-0.1,0.1-0.3,0.3-0.5,0.4c-0.2,0.2-0.8,0.7-1.9,1.6l-1-1.3l3.6-2.9
				h1.7L212.2,230.6L212.2,230.6z"/>
			<path class="st2" d="M224.6,224.4c0,2.1-0.3,3.7-1,4.8s-1.7,1.6-3.2,1.6c-1.4,0-2.4-0.5-3.1-1.6c-0.7-1.1-1.1-2.7-1.1-4.7
				c0-2.2,0.3-3.8,1-4.8s1.7-1.5,3.2-1.5c1.4,0,2.4,0.5,3.1,1.6C224.3,220.8,224.6,222.4,224.6,224.4z M218.2,224.4
				c0,1.7,0.2,2.9,0.5,3.6c0.3,0.7,0.9,1.1,1.7,1.1s1.3-0.4,1.7-1.1c0.4-0.7,0.5-1.9,0.5-3.6c0-1.7-0.2-2.9-0.5-3.6
				c-0.4-0.7-0.9-1.1-1.7-1.1s-1.3,0.4-1.7,1.1C218.4,221.6,218.2,222.8,218.2,224.4z"/>
		</g>
		<g class="st1">
			<path class="st2" d="M247.6,230.6h-8.4v-1.5l3.2-3.2c0.9-1,1.6-1.6,1.9-2s0.5-0.8,0.7-1.1c0.1-0.4,0.2-0.7,0.2-1.1
				c0-0.6-0.2-1-0.5-1.3s-0.8-0.5-1.4-0.5c-0.5,0-0.9,0.1-1.4,0.3s-1,0.5-1.5,0.9l-1.1-1.4c0.7-0.6,1.4-1,2-1.2s1.3-0.4,2.1-0.4
				c1.1,0,2.1,0.3,2.8,0.9c0.7,0.6,1,1.4,1,2.4c0,0.6-0.1,1.1-0.3,1.6s-0.5,1-0.9,1.5s-1.1,1.3-2.1,2.2l-2.1,2.1v0.1h5.9
				L247.6,230.6L247.6,230.6z"/>
			<path class="st2" d="M257.5,224.4c0,2.1-0.3,3.7-1,4.8c-0.7,1.1-1.7,1.6-3.2,1.6c-1.4,0-2.4-0.5-3.1-1.6
				c-0.7-1.1-1.1-2.7-1.1-4.7c0-2.2,0.3-3.8,1-4.8s1.7-1.5,3.2-1.5c1.4,0,2.4,0.5,3.1,1.6C257.1,220.8,257.5,222.4,257.5,224.4z
				 M251.1,224.4c0,1.7,0.2,2.9,0.5,3.6c0.3,0.7,0.9,1.1,1.7,1.1s1.3-0.4,1.7-1.1c0.4-0.7,0.5-1.9,0.5-3.6c0-1.7-0.2-2.9-0.5-3.6
				c-0.4-0.7-0.9-1.1-1.7-1.1s-1.3,0.4-1.7,1.1C251.3,221.6,251.1,222.8,251.1,224.4z"/>
		</g>
		<g class="st1">
			<path class="st2" d="M280,221.1c0,0.8-0.2,1.4-0.7,2c-0.5,0.5-1.1,0.9-1.9,1.1v0.1c1,0.1,1.7,0.4,2.2,0.9s0.7,1.1,0.7,2
				c0,1.2-0.4,2.1-1.3,2.7c-0.8,0.6-2,1-3.6,1c-1.4,0-2.5-0.2-3.5-0.7v-1.8c0.5,0.3,1.1,0.5,1.7,0.6s1.1,0.2,1.7,0.2
				c1,0,1.7-0.2,2.1-0.5c0.5-0.4,0.7-0.9,0.7-1.6c0-0.7-0.3-1.1-0.8-1.5c-0.5-0.3-1.3-0.5-2.5-0.5h-1.1v-1.6h1.1c2,0,3-0.7,3-2
				c0-0.5-0.2-0.9-0.5-1.2s-0.8-0.4-1.5-0.4c-0.5,0-0.9,0.1-1.4,0.2c-0.4,0.1-0.9,0.4-1.5,0.8l-1-1.4c1.1-0.8,2.4-1.2,3.9-1.2
				c1.2,0,2.2,0.3,2.9,0.8C279.6,219.4,280,220.2,280,221.1z"/>
			<path class="st2" d="M290.3,224.4c0,2.1-0.3,3.7-1,4.8s-1.7,1.6-3.2,1.6c-1.4,0-2.4-0.5-3.1-1.6s-1.1-2.7-1.1-4.7
				c0-2.2,0.3-3.8,1-4.8s1.7-1.5,3.2-1.5c1.4,0,2.4,0.5,3.1,1.6C290,220.8,290.3,222.4,290.3,224.4z M283.9,224.4
				c0,1.7,0.2,2.9,0.5,3.6s0.9,1.1,1.7,1.1s1.3-0.4,1.7-1.1c0.4-0.7,0.5-1.9,0.5-3.6c0-1.7-0.2-2.9-0.5-3.6
				c-0.4-0.7-0.9-1.1-1.7-1.1s-1.3,0.4-1.7,1.1C284.1,221.6,283.9,222.8,283.9,224.4z"/>
		</g>
		<g class="st1">
			<path class="st2" d="M313.7,227.9H312v2.7h-1.9v-2.7h-5.6v-1.5l5.6-8.2h1.9v8h1.7V227.9z M310.1,226.3v-3.1c0-1.1,0-2,0.1-2.7
				h-0.1c-0.2,0.4-0.4,0.8-0.7,1.4l-3.1,4.5L310.1,226.3L310.1,226.3z"/>
			<path class="st2" d="M323.2,224.4c0,2.1-0.3,3.7-1,4.8s-1.7,1.6-3.2,1.6c-1.4,0-2.4-0.5-3.1-1.6s-1.1-2.7-1.1-4.7
				c0-2.2,0.3-3.8,1-4.8s1.7-1.5,3.2-1.5c1.4,0,2.4,0.5,3.1,1.6C322.8,220.8,323.2,222.4,323.2,224.4z M316.8,224.4
				c0,1.7,0.2,2.9,0.5,3.6s0.9,1.1,1.7,1.1s1.3-0.4,1.7-1.1c0.4-0.7,0.5-1.9,0.5-3.6c0-1.7-0.2-2.9-0.5-3.6
				c-0.4-0.7-0.9-1.1-1.7-1.1s-1.3,0.4-1.7,1.1C317,221.6,316.8,222.8,316.8,224.4z"/>
		</g>
		<g class="st1">
			<path class="st2" d="M342,222.9c1.2,0,2.2,0.3,3,1c0.7,0.7,1.1,1.6,1.1,2.7c0,1.3-0.4,2.3-1.2,3.1c-0.8,0.7-2,1.1-3.5,1.1
				c-1.4,0-2.5-0.2-3.3-0.7v-1.8c0.5,0.3,1,0.5,1.6,0.6s1.1,0.2,1.6,0.2c0.9,0,1.6-0.2,2-0.6c0.5-0.4,0.7-1,0.7-1.8
				c0-1.5-0.9-2.2-2.8-2.2c-0.3,0-0.6,0-1,0.1s-0.7,0.1-1,0.2l-0.9-0.5l0.5-6h6.4v1.8h-4.7l-0.3,3.1c0.2,0,0.4-0.1,0.7-0.1
				C341.2,222.9,341.6,222.9,342,222.9z"/>
			<path class="st2" d="M356,224.4c0,2.1-0.3,3.7-1,4.8s-1.7,1.6-3.2,1.6c-1.4,0-2.4-0.5-3.1-1.6s-1.1-2.7-1.1-4.7
				c0-2.2,0.3-3.8,1-4.8s1.7-1.5,3.2-1.5c1.4,0,2.4,0.5,3.1,1.6C355.7,220.8,356,222.4,356,224.4z M349.6,224.4
				c0,1.7,0.2,2.9,0.5,3.6s0.9,1.1,1.7,1.1s1.3-0.4,1.7-1.1c0.4-0.7,0.5-1.9,0.5-3.6c0-1.7-0.2-2.9-0.5-3.6
				c-0.4-0.7-0.9-1.1-1.7-1.1s-1.3,0.4-1.7,1.1C349.8,221.6,349.6,222.8,349.6,224.4z"/>
		</g>
		<g class="st1">
			<path class="st2" d="M370.7,225.3c0-4.8,2-7.2,5.9-7.2c0.6,0,1.1,0,1.6,0.1v1.7c-0.4-0.1-0.9-0.2-1.5-0.2c-1.3,0-2.3,0.4-3,1.1
				c-0.7,0.7-1,1.8-1.1,3.4h0.1c0.3-0.5,0.6-0.8,1.1-1.1c0.5-0.2,1-0.4,1.7-0.4c1.1,0,2,0.3,2.6,1s0.9,1.6,0.9,2.8
				c0,1.3-0.4,2.3-1.1,3.1s-1.7,1.1-3,1.1c-0.9,0-1.7-0.2-2.3-0.6c-0.7-0.4-1.2-1-1.5-1.9C370.8,227.5,370.7,226.5,370.7,225.3z
				 M375,229.1c0.7,0,1.2-0.2,1.6-0.7c0.4-0.4,0.6-1.1,0.6-1.9c0-0.7-0.2-1.3-0.5-1.7s-0.9-0.6-1.6-0.6c-0.4,0-0.8,0.1-1.2,0.3
				c-0.4,0.2-0.6,0.4-0.9,0.8s-0.3,0.6-0.3,1c0,0.8,0.2,1.5,0.6,2C373.8,228.9,374.3,229.1,375,229.1z"/>
			<path class="st2" d="M388.9,224.4c0,2.1-0.3,3.7-1,4.8s-1.7,1.6-3.2,1.6c-1.4,0-2.4-0.5-3.1-1.6s-1.1-2.7-1.1-4.7
				c0-2.2,0.3-3.8,1-4.8s1.7-1.5,3.2-1.5c1.4,0,2.4,0.5,3.1,1.6C388.5,220.8,388.9,222.4,388.9,224.4z M382.5,224.4
				c0,1.7,0.2,2.9,0.5,3.6s0.9,1.1,1.7,1.1s1.3-0.4,1.7-1.1c0.4-0.7,0.5-1.9,0.5-3.6c0-1.7-0.2-2.9-0.5-3.6
				c-0.4-0.7-0.9-1.1-1.7-1.1s-1.3,0.4-1.7,1.1C382.7,221.6,382.5,222.8,382.5,224.4z"/>
		</g>
		<g class="st1">
			<path class="st2" d="M404.9,230.6l4.9-10.6h-6.4v-1.7h8.5v1.4l-4.9,10.9L404.9,230.6L404.9,230.6z"/>
			<path class="st2" d="M421.7,224.4c0,2.1-0.3,3.7-1,4.8s-1.7,1.6-3.2,1.6c-1.4,0-2.4-0.5-3.1-1.6s-1.1-2.7-1.1-4.7
				c0-2.2,0.3-3.8,1-4.8s1.7-1.5,3.2-1.5c1.4,0,2.4,0.5,3.1,1.6C421.4,220.8,421.7,222.4,421.7,224.4z M415.3,224.4
				c0,1.7,0.2,2.9,0.5,3.6c0.3,0.7,0.9,1.1,1.7,1.1c0.8,0,1.3-0.4,1.7-1.1c0.4-0.7,0.5-1.9,0.5-3.6c0-1.7-0.2-2.9-0.5-3.6
				c-0.4-0.7-0.9-1.1-1.7-1.1c-0.8,0-1.3,0.4-1.7,1.1C415.5,221.6,415.3,222.8,415.3,224.4z"/>
		</g>
		<g class="st1">
			<path class="st2" d="M440.5,218.1c1.2,0,2.1,0.3,2.8,0.8c0.7,0.5,1,1.3,1,2.2c0,1.3-0.8,2.3-2.3,3c1,0.5,1.7,1,2.1,1.5
				s0.6,1.1,0.6,1.8c0,1-0.4,1.8-1.1,2.4c-0.7,0.6-1.8,0.9-3,0.9c-1.3,0-2.4-0.3-3.1-0.9c-0.7-0.6-1.1-1.4-1.1-2.4
				c0-0.7,0.2-1.3,0.6-1.9c0.4-0.5,1-1,1.9-1.5c-0.8-0.5-1.3-0.9-1.6-1.4s-0.5-1.1-0.5-1.7c0-0.9,0.4-1.6,1.1-2.1
				C438.5,218.4,439.4,218.1,440.5,218.1z M438.2,227.4c0,0.6,0.2,1,0.6,1.4c0.4,0.3,1,0.5,1.7,0.5s1.3-0.2,1.7-0.5
				c0.4-0.3,0.6-0.8,0.6-1.4c0-0.5-0.2-0.9-0.6-1.2c-0.4-0.4-0.9-0.7-1.7-1l-0.2-0.1c-0.7,0.3-1.3,0.7-1.6,1.1
				C438.4,226.5,438.2,226.9,438.2,227.4z M440.5,219.6c-0.6,0-1,0.1-1.4,0.4c-0.3,0.3-0.5,0.7-0.5,1.1c0,0.3,0.1,0.6,0.2,0.8
				s0.3,0.4,0.5,0.6c0.2,0.2,0.6,0.4,1.2,0.7c0.7-0.3,1.2-0.6,1.4-0.9c0.3-0.3,0.4-0.7,0.4-1.2s-0.2-0.9-0.5-1.1
				C441.5,219.8,441.1,219.6,440.5,219.6z"/>
			<path class="st2" d="M454.6,224.4c0,2.1-0.3,3.7-1,4.8s-1.7,1.6-3.2,1.6c-1.4,0-2.4-0.5-3.1-1.6s-1.1-2.7-1.1-4.7
				c0-2.2,0.3-3.8,1-4.8s1.7-1.5,3.2-1.5c1.4,0,2.4,0.5,3.1,1.6C454.2,220.8,454.6,222.4,454.6,224.4z M448.2,224.4
				c0,1.7,0.2,2.9,0.5,3.6c0.3,0.7,0.9,1.1,1.7,1.1c0.8,0,1.3-0.4,1.7-1.1c0.4-0.7,0.5-1.9,0.5-3.6c0-1.7-0.2-2.9-0.5-3.6
				c-0.4-0.7-0.9-1.1-1.7-1.1c-0.8,0-1.3,0.4-1.7,1.1C448.4,221.6,448.2,222.8,448.2,224.4z"/>
		</g>
		<g class="st1">
			<path class="st2" d="M470.1,230.6h-2v-8c0-1,0-1.7,0.1-2.3c-0.1,0.1-0.3,0.3-0.5,0.4c-0.2,0.2-0.8,0.7-1.9,1.6l-1-1.3l3.6-2.9
				h1.7L470.1,230.6L470.1,230.6z"/>
			<path class="st2" d="M482.5,224.4c0,2.1-0.3,3.7-1,4.8s-1.7,1.6-3.2,1.6c-1.4,0-2.4-0.5-3.1-1.6s-1.1-2.7-1.1-4.7
				c0-2.2,0.3-3.8,1-4.8s1.7-1.5,3.2-1.5c1.4,0,2.4,0.5,3.1,1.6S482.5,222.4,482.5,224.4z M476.1,224.4c0,1.7,0.2,2.9,0.5,3.6
				c0.3,0.7,0.9,1.1,1.7,1.1s1.3-0.4,1.7-1.1c0.4-0.7,0.5-1.9,0.5-3.6c0-1.7-0.2-2.9-0.5-3.6s-0.9-1.1-1.7-1.1s-1.3,0.4-1.7,1.1
				C476.3,221.6,476.1,222.8,476.1,224.4z"/>
			<path class="st2" d="M492.4,224.4c0,2.1-0.3,3.7-1,4.8s-1.7,1.6-3.2,1.6c-1.4,0-2.4-0.5-3.1-1.6s-1.1-2.7-1.1-4.7
				c0-2.2,0.3-3.8,1-4.8s1.7-1.5,3.2-1.5c1.4,0,2.4,0.5,3.1,1.6S492.4,222.4,492.4,224.4z M486,224.4c0,1.7,0.2,2.9,0.5,3.6
				s0.9,1.1,1.7,1.1c0.8,0,1.3-0.4,1.7-1.1c0.4-0.7,0.5-1.9,0.5-3.6c0-1.7-0.2-2.9-0.5-3.6s-0.9-1.1-1.7-1.1c-0.8,0-1.3,0.4-1.7,1.1
				C486.2,221.6,486,222.8,486,224.4z"/>
		</g>
		<g>
			<path class="st3" d="M496.4,185.8H173.3c-1.7,0-3.1-1.4-3.1-3.1l0,0c0-1.7,1.4-3.1,3.1-3.1h323.1c1.7,0,3.1,1.4,3.1,3.1l0,0
				C499.6,184.4,498.2,185.8,496.4,185.8z"/>
			<path class="st3" d="M305,179.6v6.2H173.3c-1.7,0-3.1-1.4-3.1-3.1c0-0.9,0.3-1.6,0.9-2.2c0.6-0.6,1.3-0.9,2.2-0.9H305z"/>
			<g>
				<circle class="st4" cx="181.1" cy="183.1" r="15.2"/>
			</g>
			<circle class="st5" cx="181.1" cy="183.1" r="7.1"/>
		</g>
	</g>
	<path class="st6" d="M94.7,87.3c0,1.9-0.5,3.3-1.5,4.3s-2.5,1.5-4.4,1.5h-3.2V81.7h3.5c1.8,0,3.2,0.5,4.1,1.5S94.7,85.6,94.7,87.3z
		 M93.3,87.4c0-1.5-0.4-2.6-1.1-3.4s-1.9-1.1-3.3-1.1H87V92h1.6c1.6,0,2.8-0.4,3.6-1.2C92.9,90.1,93.3,88.9,93.3,87.4z"/>
	<path class="st6" d="M101,84.4c0.4,0,0.7,0,1,0.1l-0.2,1.2c-0.4-0.1-0.7-0.1-0.9-0.1c-0.7,0-1.3,0.3-1.8,0.8s-0.7,1.3-0.7,2.1v4.6
		h-1.3v-8.6h1.1l0.1,1.6h0.1c0.3-0.6,0.7-1,1.1-1.3C100,84.6,100.5,84.4,101,84.4z"/>
	<path class="st6" d="M108.9,93.2l-0.3-1.2h-0.1c-0.4,0.5-0.9,0.9-1.3,1.1s-1,0.3-1.6,0.3c-0.8,0-1.5-0.2-2-0.7s-0.7-1.1-0.7-1.9
		c0-1.7,1.4-2.6,4.1-2.7h1.5v-0.5c0-0.7-0.1-1.2-0.4-1.5s-0.8-0.5-1.4-0.5c-0.7,0-1.5,0.2-2.4,0.7l-0.4-1c0.4-0.2,0.9-0.4,1.4-0.5
		s1-0.2,1.5-0.2c1,0,1.8,0.2,2.3,0.7s0.7,1.2,0.7,2.2v5.8h-0.9C108.9,93.3,108.9,93.2,108.9,93.2z M106,92.2c0.8,0,1.4-0.2,1.9-0.7
		c0.5-0.4,0.7-1.1,0.7-1.9v-0.8l-1.3,0.1c-1,0-1.8,0.2-2.2,0.5c-0.5,0.3-0.7,0.7-0.7,1.3c0,0.5,0.1,0.8,0.4,1.1
		C105.1,92.1,105.4,92.2,106,92.2z"/>
	<path class="st6" d="M119.5,84.6v0.8l-1.6,0.2c0.1,0.2,0.3,0.4,0.4,0.7c0.1,0.3,0.2,0.6,0.2,1c0,0.8-0.3,1.5-0.9,2
		s-1.4,0.8-2.4,0.8c-0.3,0-0.5,0-0.7-0.1c-0.6,0.3-0.8,0.7-0.8,1.1c0,0.2,0.1,0.4,0.3,0.5c0.2,0.1,0.5,0.2,1,0.2h1.5
		c0.9,0,1.6,0.2,2.1,0.6s0.7,1,0.7,1.7c0,0.9-0.4,1.7-1.1,2.2c-0.8,0.5-1.9,0.7-3.3,0.7c-1.1,0-2-0.2-2.6-0.6s-0.9-1-0.9-1.8
		c0-0.5,0.2-1,0.5-1.4s0.8-0.6,1.4-0.8c-0.2-0.1-0.4-0.3-0.6-0.5c-0.1-0.2-0.2-0.4-0.2-0.7c0-0.3,0.1-0.6,0.2-0.8s0.4-0.5,0.8-0.7
		c-0.4-0.2-0.8-0.5-1.1-0.9s-0.4-0.9-0.4-1.5c0-0.9,0.3-1.7,0.8-2.2s1.4-0.8,2.4-0.8c0.4,0,0.9,0.1,1.2,0.2h3.1V84.6z M112.7,94.6
		c0,0.5,0.2,0.8,0.6,1.1c0.4,0.2,1,0.4,1.7,0.4c1.1,0,1.9-0.2,2.4-0.5s0.8-0.8,0.8-1.3s-0.1-0.8-0.4-1S117,93,116.2,93h-1.6
		c-0.6,0-1,0.1-1.4,0.4S112.7,94.1,112.7,94.6z M113.4,87.3c0,0.6,0.2,1.1,0.5,1.4s0.8,0.5,1.4,0.5c1.3,0,1.9-0.6,1.9-1.8
		c0-1.3-0.6-1.9-1.9-1.9c-0.6,0-1.1,0.2-1.4,0.5S113.4,86.7,113.4,87.3z"/>
	<path class="st6" d="M128.2,92.2c0.2,0,0.5,0,0.7-0.1c0.2,0,0.4-0.1,0.5-0.1v1c-0.1,0.1-0.3,0.1-0.6,0.2c-0.3,0-0.5,0.1-0.7,0.1
		c-1.7,0-2.5-0.9-2.5-2.6v-5.1h-1.3V85l1.2-0.5l0.5-1.8h0.8v2h2.5v1h-2.5v5c0,0.5,0.1,0.9,0.4,1.2C127.4,92.1,127.8,92.2,128.2,92.2
		z"/>
	<path class="st6" d="M136.9,93.2v-5.5c0-0.7-0.2-1.2-0.5-1.6s-0.8-0.5-1.5-0.5c-0.9,0-1.6,0.2-2,0.7s-0.6,1.3-0.6,2.4v4.5H131V81
		h1.3v3.7c0,0.4,0,0.8-0.1,1.1h0.1c0.3-0.4,0.6-0.7,1.1-1c0.5-0.2,1-0.4,1.6-0.4c1,0,1.8,0.2,2.4,0.7c0.5,0.5,0.8,1.3,0.8,2.4v5.6
		h-1.3L136.9,93.2L136.9,93.2z"/>
	<path class="st6" d="M144.5,93.3c-1.3,0-2.3-0.4-3-1.2c-0.7-0.8-1.1-1.8-1.1-3.2c0-1.4,0.3-2.5,1-3.3s1.6-1.2,2.7-1.2
		c1.1,0,1.9,0.4,2.5,1.1s0.9,1.6,0.9,2.8v0.8h-5.9c0,1,0.3,1.8,0.8,2.3s1.2,0.8,2,0.8c0.9,0,1.8-0.2,2.7-0.6v1.2
		c-0.5,0.2-0.9,0.3-1.3,0.4C145.4,93.3,145.1,93.3,144.5,93.3z M144.2,85.5c-0.7,0-1.2,0.2-1.6,0.7c-0.4,0.4-0.6,1.1-0.7,1.9h4.5
		c0-0.8-0.2-1.4-0.5-1.9C145.4,85.7,144.9,85.5,144.2,85.5z"/>
	<path class="st6" d="M159.6,90.8c0,0.8-0.3,1.4-0.9,1.8c-0.6,0.4-1.4,0.6-2.5,0.6s-2-0.2-2.7-0.5v-1.2c0.4,0.2,0.9,0.4,1.3,0.5
		c0.5,0.1,0.9,0.2,1.4,0.2c0.7,0,1.2-0.1,1.6-0.3c0.4-0.2,0.5-0.5,0.5-1c0-0.3-0.1-0.6-0.4-0.9c-0.3-0.2-0.9-0.5-1.7-0.8
		s-1.4-0.6-1.7-0.8c-0.3-0.2-0.6-0.5-0.8-0.8s-0.2-0.6-0.2-1c0-0.7,0.3-1.2,0.9-1.7c0.6-0.4,1.3-0.6,2.3-0.6c0.9,0,1.8,0.2,2.7,0.6
		l-0.5,1.1c-0.9-0.4-1.6-0.5-2.3-0.5c-0.6,0-1.1,0.1-1.4,0.3c-0.3,0.2-0.5,0.5-0.5,0.8c0,0.2,0.1,0.4,0.2,0.6s0.3,0.3,0.6,0.5
		c0.3,0.1,0.8,0.4,1.5,0.6c1,0.4,1.7,0.7,2.1,1.1C159.5,89.8,159.6,90.3,159.6,90.8z"/>
	<path class="st6" d="M163,93.2h-1.3V81h1.3V93.2z"/>
	<path class="st6" d="M165.6,82.3c0-0.3,0.1-0.5,0.2-0.7c0.1-0.1,0.3-0.2,0.5-0.2s0.4,0.1,0.5,0.2s0.2,0.4,0.2,0.6
		c0,0.3-0.1,0.5-0.2,0.7c-0.2,0.1-0.3,0.2-0.5,0.2s-0.4-0.1-0.5-0.2S165.6,82.6,165.6,82.3z M167,93.2h-1.3v-8.6h1.3V93.2z"/>
	<path class="st6" d="M175.6,92L175.6,92c-0.7,0.9-1.6,1.3-2.8,1.3c-1.1,0-2-0.4-2.6-1.1s-0.9-1.9-0.9-3.3s0.3-2.5,0.9-3.3
		c0.6-0.8,1.5-1.2,2.6-1.2c1.2,0,2.1,0.4,2.7,1.3h0.1l-0.1-0.6v-0.6V81h1.3v12.2h-1.1L175.6,92z M173,92.2c0.9,0,1.5-0.2,1.9-0.7
		s0.6-1.3,0.6-2.3v-0.3c0-1.2-0.2-2.1-0.6-2.6s-1-0.8-1.9-0.8c-0.8,0-1.3,0.3-1.7,0.9s-0.6,1.4-0.6,2.5s0.2,1.9,0.6,2.5
		C171.6,92,172.2,92.2,173,92.2z"/>
	<path class="st6" d="M183.2,93.3c-1.3,0-2.3-0.4-3-1.2c-0.7-0.8-1.1-1.8-1.1-3.2c0-1.4,0.3-2.5,1-3.3s1.6-1.2,2.7-1.2
		s1.9,0.4,2.5,1.1s0.9,1.6,0.9,2.8v0.8h-5.9c0,1,0.3,1.8,0.8,2.3s1.2,0.8,2,0.8c0.9,0,1.8-0.2,2.7-0.6v1.2c-0.5,0.2-0.9,0.3-1.3,0.4
		C184.1,93.3,183.8,93.3,183.2,93.3z M182.8,85.5c-0.7,0-1.2,0.2-1.6,0.7c-0.4,0.4-0.6,1.1-0.7,1.9h4.5c0-0.8-0.2-1.4-0.5-1.9
		C184,85.7,183.5,85.5,182.8,85.5z"/>
	<path class="st6" d="M192.5,84.4c0.4,0,0.7,0,1,0.1l-0.2,1.2c-0.4-0.1-0.7-0.1-0.9-0.1c-0.7,0-1.3,0.3-1.8,0.8s-0.7,1.3-0.7,2.1
		v4.6h-1.3v-8.6h1.1l0.1,1.6h0.1c0.3-0.6,0.7-1,1.1-1.3C191.4,84.6,191.9,84.4,192.5,84.4z"/>
	<path class="st6" d="M200.6,90.8c0,0.8-0.3,1.4-0.9,1.8c-0.6,0.4-1.4,0.6-2.5,0.6s-2-0.2-2.7-0.5v-1.2c0.4,0.2,0.9,0.4,1.3,0.5
		c0.5,0.1,0.9,0.2,1.4,0.2c0.7,0,1.2-0.1,1.6-0.3c0.4-0.2,0.5-0.5,0.5-1c0-0.3-0.1-0.6-0.4-0.9c-0.3-0.2-0.9-0.5-1.7-0.8
		s-1.4-0.6-1.7-0.8c-0.3-0.2-0.6-0.5-0.8-0.8s-0.2-0.6-0.2-1c0-0.7,0.3-1.2,0.9-1.7c0.6-0.4,1.3-0.6,2.3-0.6c0.9,0,1.8,0.2,2.7,0.6
		l-0.5,1.1c-0.9-0.4-1.6-0.5-2.3-0.5c-0.6,0-1.1,0.1-1.4,0.3c-0.3,0.2-0.5,0.5-0.5,0.8c0,0.2,0.1,0.4,0.2,0.6s0.3,0.3,0.6,0.5
		c0.3,0.1,0.8,0.4,1.5,0.6c1,0.4,1.7,0.7,2.1,1.1C200.5,89.8,200.6,90.3,200.6,90.8z"/>
	<path class="st6" d="M212.1,93.2l-0.3-1.2h-0.1c-0.4,0.5-0.9,0.9-1.3,1.1s-1,0.3-1.6,0.3c-0.8,0-1.5-0.2-2-0.7s-0.7-1.1-0.7-1.9
		c0-1.7,1.4-2.6,4.1-2.7h1.5v-0.5c0-0.7-0.1-1.2-0.4-1.5s-0.8-0.5-1.4-0.5c-0.7,0-1.5,0.2-2.4,0.7l-0.4-1c0.4-0.2,0.9-0.4,1.4-0.5
		s1-0.2,1.5-0.2c1,0,1.8,0.2,2.3,0.7s0.7,1.2,0.7,2.2v5.8h-0.9L212.1,93.2L212.1,93.2z M209.2,92.2c0.8,0,1.4-0.2,1.9-0.7
		c0.5-0.4,0.7-1.1,0.7-1.9v-0.8l-1.3,0.1c-1,0-1.8,0.2-2.2,0.5c-0.5,0.3-0.7,0.7-0.7,1.3c0,0.5,0.1,0.8,0.4,1.1
		C208.3,92.1,208.7,92.2,209.2,92.2z"/>
	<path class="st6" d="M219.2,93.3c-1.2,0-2.2-0.4-2.9-1.1c-0.7-0.8-1-1.8-1-3.2c0-1.4,0.3-2.5,1-3.3s1.7-1.2,2.9-1.2
		c0.4,0,0.8,0,1.2,0.1s0.7,0.2,1,0.3L221,86c-0.3-0.1-0.6-0.2-0.9-0.3c-0.3-0.1-0.6-0.1-0.9-0.1c-1.7,0-2.6,1.1-2.6,3.3
		c0,1.1,0.2,1.9,0.6,2.4c0.4,0.5,1.1,0.8,1.9,0.8c0.7,0,1.4-0.2,2.2-0.5v1.1C220.8,93.2,220.1,93.3,219.2,93.3z"/>
	<path class="st6" d="M226.8,93.3c-1.2,0-2.2-0.4-2.9-1.1c-0.7-0.8-1-1.8-1-3.2c0-1.4,0.3-2.5,1-3.3s1.7-1.2,2.9-1.2
		c0.4,0,0.8,0,1.2,0.1s0.7,0.2,1,0.3l-0.4,1.1c-0.3-0.1-0.6-0.2-0.9-0.3c-0.3-0.1-0.6-0.1-0.9-0.1c-1.7,0-2.6,1.1-2.6,3.3
		c0,1.1,0.2,1.9,0.6,2.4c0.4,0.5,1.1,0.8,1.9,0.8c0.7,0,1.4-0.2,2.2-0.5v1.1C228.4,93.2,227.7,93.3,226.8,93.3z"/>
	<path class="st6" d="M238.4,88.9c0,1.4-0.4,2.5-1.1,3.3c-0.7,0.8-1.7,1.2-2.9,1.2c-0.8,0-1.4-0.2-2-0.5s-1.1-0.9-1.4-1.5
		s-0.5-1.5-0.5-2.4c0-1.4,0.3-2.5,1-3.3s1.7-1.2,2.9-1.2s2.1,0.4,2.9,1.2S238.4,87.5,238.4,88.9z M231.9,88.9c0,1.1,0.2,1.9,0.7,2.5
		c0.4,0.6,1.1,0.9,1.9,0.9s1.5-0.3,1.9-0.9s0.7-1.4,0.7-2.5s-0.2-1.9-0.7-2.5c-0.4-0.6-1.1-0.8-1.9-0.8c-0.8,0-1.5,0.3-1.9,0.8
		C232.1,86.9,231.9,87.8,231.9,88.9z"/>
	<path class="st6" d="M244.6,84.4c0.4,0,0.7,0,1,0.1l-0.2,1.2c-0.4-0.1-0.7-0.1-0.9-0.1c-0.7,0-1.3,0.3-1.8,0.8s-0.7,1.3-0.7,2.1
		v4.6h-1.3v-8.6h1.1l0.1,1.6h0.1c0.3-0.6,0.7-1,1.1-1.3C243.5,84.6,244,84.4,244.6,84.4z"/>
	<path class="st6" d="M253,92L253,92c-0.7,0.9-1.6,1.3-2.8,1.3c-1.1,0-2-0.4-2.6-1.1s-0.9-1.9-0.9-3.3s0.3-2.5,0.9-3.3
		c0.6-0.8,1.5-1.2,2.6-1.2c1.2,0,2.1,0.4,2.7,1.3h0.1l-0.1-0.6v-0.6V81h1.3v12.2h-1.1L253,92z M250.4,92.2c0.9,0,1.5-0.2,1.9-0.7
		s0.6-1.3,0.6-2.3v-0.3c0-1.2-0.2-2.1-0.6-2.6c-0.4-0.5-1-0.8-1.9-0.8c-0.8,0-1.3,0.3-1.7,0.9s-0.6,1.4-0.6,2.5s0.2,1.9,0.6,2.5
		C249.1,92,249.7,92.2,250.4,92.2z"/>
	<path class="st6" d="M256.9,82.3c0-0.3,0.1-0.5,0.2-0.7c0.1-0.1,0.3-0.2,0.5-0.2s0.4,0.1,0.5,0.2s0.2,0.4,0.2,0.6
		c0,0.3-0.1,0.5-0.2,0.7c-0.2,0.1-0.3,0.2-0.5,0.2s-0.4-0.1-0.5-0.2S256.9,82.6,256.9,82.3z M258.3,93.2H257v-8.6h1.3V93.2z"/>
	<path class="st6" d="M266.9,93.2v-5.5c0-0.7-0.2-1.2-0.5-1.6s-0.8-0.5-1.5-0.5c-0.9,0-1.6,0.2-2,0.7s-0.6,1.3-0.6,2.4v4.5H261v-8.6
		h1.1l0.2,1.2h0.1c0.3-0.4,0.6-0.7,1.1-1c0.5-0.2,1-0.3,1.6-0.3c1,0,1.8,0.2,2.3,0.7s0.8,1.3,0.8,2.4v5.6
		C268.2,93.2,266.9,93.2,266.9,93.2z"/>
	<path class="st6" d="M277.9,84.6v0.8l-1.6,0.2c0.1,0.2,0.3,0.4,0.4,0.7c0.1,0.3,0.2,0.6,0.2,1c0,0.8-0.3,1.5-0.9,2
		s-1.4,0.8-2.4,0.8c-0.3,0-0.5,0-0.7-0.1c-0.6,0.3-0.8,0.7-0.8,1.1c0,0.2,0.1,0.4,0.3,0.5c0.2,0.1,0.5,0.2,1,0.2h1.5
		c0.9,0,1.6,0.2,2.1,0.6s0.7,1,0.7,1.7c0,0.9-0.4,1.7-1.1,2.2c-0.8,0.5-1.9,0.7-3.3,0.7c-1.1,0-2-0.2-2.6-0.6s-0.9-1-0.9-1.8
		c0-0.5,0.2-1,0.5-1.4s0.8-0.6,1.4-0.8c-0.2-0.1-0.4-0.3-0.6-0.5c-0.1-0.2-0.2-0.4-0.2-0.7c0-0.3,0.1-0.6,0.2-0.8s0.4-0.5,0.8-0.7
		c-0.4-0.2-0.8-0.5-1.1-0.9s-0.4-0.9-0.4-1.5c0-0.9,0.3-1.7,0.8-2.2s1.4-0.8,2.4-0.8c0.4,0,0.9,0.1,1.2,0.2h3.1V84.6z M271.1,94.6
		c0,0.5,0.2,0.8,0.6,1.1c0.4,0.2,1,0.4,1.7,0.4c1.1,0,1.9-0.2,2.4-0.5s0.8-0.8,0.8-1.3s-0.1-0.8-0.4-1s-0.8-0.3-1.6-0.3H273
		c-0.6,0-1,0.1-1.4,0.4S271.1,94.1,271.1,94.6z M271.8,87.3c0,0.6,0.2,1.1,0.5,1.4s0.8,0.5,1.4,0.5c1.3,0,1.9-0.6,1.9-1.8
		c0-1.3-0.6-1.9-1.9-1.9c-0.6,0-1.1,0.2-1.4,0.5S271.8,86.7,271.8,87.3z"/>
	<path class="st6" d="M286.6,92.2c0.2,0,0.5,0,0.7-0.1c0.2,0,0.4-0.1,0.5-0.1v1c-0.1,0.1-0.3,0.1-0.6,0.2c-0.3,0-0.5,0.1-0.7,0.1
		c-1.7,0-2.5-0.9-2.5-2.6v-5.1h-1.2V85l1.2-0.5l0.5-1.8h0.8v2h2.5v1h-2.5v5c0,0.5,0.1,0.9,0.4,1.2C285.8,92.1,286.1,92.2,286.6,92.2
		z"/>
	<path class="st6" d="M296.8,88.9c0,1.4-0.4,2.5-1.1,3.3s-1.7,1.2-2.9,1.2c-0.8,0-1.4-0.2-2-0.5s-1.1-0.9-1.4-1.5s-0.5-1.5-0.5-2.4
		c0-1.4,0.3-2.5,1-3.3s1.7-1.2,2.9-1.2c1.2,0,2.1,0.4,2.9,1.2S296.8,87.5,296.8,88.9z M290.3,88.9c0,1.1,0.2,1.9,0.7,2.5
		c0.4,0.6,1.1,0.9,1.9,0.9s1.5-0.3,1.9-0.9s0.7-1.4,0.7-2.5s-0.2-1.9-0.7-2.5c-0.4-0.6-1.1-0.8-1.9-0.8s-1.5,0.3-1.9,0.8
		C290.5,86.9,290.3,87.8,290.3,88.9z"/>
	<path class="st6" d="M301.9,84.6h1.4l1.9,4.9c0.4,1.1,0.7,1.9,0.8,2.4h0.1c0.1-0.3,0.2-0.7,0.4-1.4c0.2-0.6,0.9-2.6,2.1-5.9h1.4
		l-3.7,9.8c-0.4,1-0.8,1.6-1.3,2.1c-0.5,0.4-1.1,0.6-1.8,0.6c-0.4,0-0.8,0-1.2-0.1v-1c0.3,0.1,0.6,0.1,1,0.1c0.9,0,1.5-0.5,1.9-1.5
		l0.5-1.2L301.9,84.6z"/>
	<path class="st6" d="M318.7,88.9c0,1.4-0.4,2.5-1.1,3.3s-1.7,1.2-2.9,1.2c-0.8,0-1.4-0.2-2-0.5s-1.1-0.9-1.4-1.5s-0.5-1.5-0.5-2.4
		c0-1.4,0.3-2.5,1-3.3s1.7-1.2,2.9-1.2c1.2,0,2.1,0.4,2.9,1.2S318.7,87.5,318.7,88.9z M312.2,88.9c0,1.1,0.2,1.9,0.7,2.5
		c0.4,0.6,1.1,0.9,1.9,0.9s1.5-0.3,1.9-0.9s0.7-1.4,0.7-2.5s-0.2-1.9-0.7-2.5c-0.4-0.6-1.1-0.8-1.9-0.8s-1.5,0.3-1.9,0.8
		C312.4,86.9,312.2,87.8,312.2,88.9z"/>
	<path class="st6" d="M322.2,84.6v5.6c0,0.7,0.2,1.2,0.5,1.6s0.8,0.5,1.5,0.5c0.9,0,1.6-0.2,2-0.7s0.6-1.3,0.6-2.4v-4.5h1.3v8.6H327
		l-0.2-1.1h-0.1c-0.3,0.4-0.6,0.7-1.1,1c-0.5,0.2-1,0.3-1.6,0.3c-1,0-1.8-0.2-2.3-0.7s-0.8-1.3-0.8-2.4v-5.6h1.3L322.2,84.6
		L322.2,84.6z"/>
	<path class="st6" d="M334.7,84.4c0.4,0,0.7,0,1,0.1l-0.2,1.2c-0.4-0.1-0.7-0.1-0.9-0.1c-0.7,0-1.3,0.3-1.8,0.8s-0.7,1.3-0.7,2.1
		v4.6h-1.3v-8.6h1.1l0.1,1.6h0.1c0.3-0.6,0.7-1,1.1-1.3C333.7,84.6,334.2,84.4,334.7,84.4z"/>
	<path class="st6" d="M346.8,93.2l-0.3-1.2h-0.1c-0.4,0.5-0.9,0.9-1.3,1.1s-1,0.3-1.6,0.3c-0.8,0-1.5-0.2-2-0.7s-0.7-1.1-0.7-1.9
		c0-1.7,1.4-2.6,4.1-2.7h1.5v-0.5c0-0.7-0.1-1.2-0.4-1.5s-0.8-0.5-1.4-0.5c-0.7,0-1.5,0.2-2.4,0.7l-0.4-1c0.4-0.2,0.9-0.4,1.4-0.5
		s1-0.2,1.5-0.2c1,0,1.8,0.2,2.3,0.7s0.7,1.2,0.7,2.2v5.8h-0.9L346.8,93.2L346.8,93.2z M343.8,92.2c0.8,0,1.4-0.2,1.9-0.7
		c0.5-0.4,0.7-1.1,0.7-1.9v-0.8l-1.3,0.1c-1,0-1.8,0.2-2.2,0.5c-0.5,0.3-0.7,0.7-0.7,1.3c0,0.5,0.1,0.8,0.4,1.1
		C342.9,92.1,343.3,92.2,343.8,92.2z"/>
	<path class="st6" d="M356.3,93.2v-5.5c0-0.7-0.2-1.2-0.5-1.6s-0.8-0.5-1.5-0.5c-0.9,0-1.6,0.2-2,0.7s-0.6,1.3-0.6,2.4v4.5h-1.3
		v-8.6h1.1l0.2,1.2h0.1c0.3-0.4,0.6-0.7,1.1-1c0.5-0.2,1-0.3,1.6-0.3c1,0,1.8,0.2,2.3,0.7s0.8,1.3,0.8,2.4v5.6
		C357.6,93.2,356.3,93.2,356.3,93.2z"/>
	<path class="st6" d="M365.7,90.8c0,0.8-0.3,1.4-0.9,1.8s-1.4,0.6-2.5,0.6s-2-0.2-2.7-0.5v-1.2c0.4,0.2,0.9,0.4,1.3,0.5
		c0.5,0.1,0.9,0.2,1.4,0.2c0.7,0,1.2-0.1,1.6-0.3c0.4-0.2,0.5-0.5,0.5-1c0-0.3-0.1-0.6-0.4-0.9c-0.3-0.2-0.9-0.5-1.7-0.8
		c-0.8-0.3-1.4-0.6-1.7-0.8c-0.3-0.2-0.6-0.5-0.8-0.8s-0.2-0.6-0.2-1c0-0.7,0.3-1.2,0.9-1.7c0.6-0.4,1.3-0.6,2.3-0.6
		c0.9,0,1.8,0.2,2.7,0.6L365,86c-0.9-0.4-1.6-0.5-2.3-0.5c-0.6,0-1.1,0.1-1.4,0.3c-0.3,0.2-0.5,0.5-0.5,0.8c0,0.2,0.1,0.4,0.2,0.6
		s0.3,0.3,0.6,0.5c0.3,0.1,0.8,0.4,1.5,0.6c1,0.4,1.7,0.7,2.1,1.1S365.7,90.3,365.7,90.8z"/>
	<path class="st6" d="M374.8,93.2l-1.6-5c-0.1-0.3-0.3-1-0.6-2.1h-0.1c-0.2,0.9-0.4,1.6-0.5,2.1l-1.6,5h-1.5l-2.3-8.6h1.4
		c0.6,2.2,1,3.8,1.3,4.9s0.5,1.9,0.5,2.3h0.1c0.1-0.3,0.1-0.7,0.3-1.2c0.1-0.5,0.2-0.8,0.3-1.1l1.6-4.9h1.4l1.5,4.9
		c0.3,0.9,0.5,1.6,0.6,2.3h0.1c0-0.2,0.1-0.5,0.2-0.9s0.6-2.5,1.6-6.3h1.3l-2.4,8.6C376.4,93.2,374.8,93.2,374.8,93.2z"/>
	<path class="st6" d="M383.9,93.3c-1.3,0-2.3-0.4-3-1.2c-0.7-0.8-1.1-1.8-1.1-3.2c0-1.4,0.3-2.5,1-3.3s1.6-1.2,2.7-1.2
		s1.9,0.4,2.5,1.1s0.9,1.6,0.9,2.8v0.8H381c0,1,0.3,1.8,0.8,2.3s1.2,0.8,2,0.8c0.9,0,1.8-0.2,2.7-0.6v1.2c-0.5,0.2-0.9,0.3-1.3,0.4
		S384.5,93.3,383.9,93.3z M383.6,85.5c-0.7,0-1.2,0.2-1.6,0.7c-0.4,0.4-0.6,1.1-0.7,1.9h4.5c0-0.8-0.2-1.4-0.5-1.9
		C384.8,85.7,384.2,85.5,383.6,85.5z"/>
	<path class="st6" d="M393.2,84.4c0.4,0,0.7,0,1,0.1l-0.2,1.2c-0.4-0.1-0.7-0.1-0.9-0.1c-0.7,0-1.3,0.3-1.8,0.8s-0.7,1.3-0.7,2.1
		v4.6h-1.3v-8.6h1.1l0.1,1.6h0.1c0.3-0.6,0.7-1,1.1-1.3C392.1,84.6,392.6,84.4,393.2,84.4z"/>
	<path class="st6" d="M402.7,92.2c0.2,0,0.5,0,0.7-0.1c0.2,0,0.4-0.1,0.5-0.1v1c-0.1,0.1-0.3,0.1-0.6,0.2c-0.3,0-0.5,0.1-0.7,0.1
		c-1.7,0-2.5-0.9-2.5-2.6v-5.1h-1.2V85l1.2-0.5l0.5-1.8h0.8v2h2.5v1h-2.6v5c0,0.5,0.1,0.9,0.4,1.2C402,92.1,402.3,92.2,402.7,92.2z"
		/>
	<path class="st6" d="M413,88.9c0,1.4-0.4,2.5-1.1,3.3s-1.7,1.2-2.9,1.2c-0.8,0-1.4-0.2-2-0.5s-1.1-0.9-1.4-1.5s-0.5-1.5-0.5-2.4
		c0-1.4,0.3-2.5,1-3.3s1.7-1.2,2.9-1.2c1.2,0,2.1,0.4,2.9,1.2S413,87.5,413,88.9z M406.5,88.9c0,1.1,0.2,1.9,0.7,2.5
		c0.4,0.6,1.1,0.9,1.9,0.9s1.5-0.3,1.9-0.9s0.7-1.4,0.7-2.5s-0.2-1.9-0.7-2.5c-0.4-0.6-1.1-0.8-1.9-0.8s-1.5,0.3-1.9,0.8
		C406.7,86.9,406.5,87.8,406.5,88.9z"/>
	<path class="st6" d="M422.2,92.2c0.2,0,0.5,0,0.7-0.1c0.2,0,0.4-0.1,0.5-0.1v1c-0.1,0.1-0.3,0.1-0.6,0.2c-0.3,0-0.5,0.1-0.7,0.1
		c-1.7,0-2.5-0.9-2.5-2.6v-5.1h-1.3V85l1.2-0.5l0.5-1.8h0.8v2h2.5v1h-2.5v5c0,0.5,0.1,0.9,0.4,1.2C421.4,92.1,421.8,92.2,422.2,92.2
		z"/>
	<path class="st6" d="M430.9,93.2v-5.5c0-0.7-0.2-1.2-0.5-1.6s-0.8-0.5-1.5-0.5c-0.9,0-1.6,0.2-2,0.7s-0.6,1.3-0.6,2.4v4.5H425V81
		h1.3v3.7c0,0.4,0,0.8-0.1,1.1h0.1c0.3-0.4,0.6-0.7,1.1-1c0.5-0.2,1-0.4,1.6-0.4c1,0,1.8,0.2,2.4,0.7c0.5,0.5,0.8,1.3,0.8,2.4v5.6
		h-1.3V93.2z"/>
	<path class="st6" d="M438.5,93.3c-1.3,0-2.3-0.4-3-1.2c-0.7-0.8-1.1-1.8-1.1-3.2c0-1.4,0.3-2.5,1-3.3s1.6-1.2,2.7-1.2
		s1.9,0.4,2.5,1.1s0.9,1.6,0.9,2.8v0.8h-5.9c0,1,0.3,1.8,0.8,2.3s1.2,0.8,2,0.8c0.9,0,1.8-0.2,2.7-0.6v1.2c-0.5,0.2-0.9,0.3-1.3,0.4
		S439.1,93.3,438.5,93.3z M438.2,85.5c-0.7,0-1.2,0.2-1.6,0.7c-0.4,0.4-0.6,1.1-0.7,1.9h4.5c0-0.8-0.2-1.4-0.5-1.9
		C439.4,85.7,438.8,85.5,438.2,85.5z"/>
	<path class="st6" d="M451.9,84.4c0.4,0,0.7,0,1,0.1l-0.2,1.2c-0.4-0.1-0.7-0.1-0.9-0.1c-0.7,0-1.3,0.3-1.8,0.8s-0.7,1.3-0.7,2.1
		v4.6H448v-8.6h1.1l0.1,1.6h0.1c0.3-0.6,0.7-1,1.1-1.3C450.9,84.6,451.4,84.4,451.9,84.4z"/>
	<path class="st6" d="M458.2,93.3c-1.3,0-2.3-0.4-3-1.2c-0.7-0.8-1.1-1.8-1.1-3.2c0-1.4,0.3-2.5,1-3.3s1.6-1.2,2.7-1.2
		s1.9,0.4,2.5,1.1s0.9,1.6,0.9,2.8v0.8h-5.9c0,1,0.3,1.8,0.8,2.3s1.2,0.8,2,0.8c0.9,0,1.8-0.2,2.7-0.6v1.2c-0.5,0.2-0.9,0.3-1.3,0.4
		S458.8,93.3,458.2,93.3z M457.8,85.5c-0.7,0-1.2,0.2-1.6,0.7c-0.4,0.4-0.6,1.1-0.7,1.9h4.5c0-0.8-0.2-1.4-0.5-1.9
		C459,85.7,458.5,85.5,457.8,85.5z"/>
	<path class="st6" d="M464.8,93.2h-1.3V81h1.3V93.2z"/>
	<path class="st6" d="M471.2,93.3c-1.3,0-2.3-0.4-3-1.2c-0.7-0.8-1.1-1.8-1.1-3.2c0-1.4,0.3-2.5,1-3.3s1.6-1.2,2.7-1.2
		s1.9,0.4,2.5,1.1s0.9,1.6,0.9,2.8v0.8h-5.9c0,1,0.3,1.8,0.8,2.3s1.2,0.8,2,0.8c0.9,0,1.8-0.2,2.7-0.6v1.2c-0.5,0.2-0.9,0.3-1.3,0.4
		S471.8,93.3,471.2,93.3z M470.8,85.5c-0.7,0-1.2,0.2-1.6,0.7c-0.4,0.4-0.6,1.1-0.7,1.9h4.5c0-0.8-0.2-1.4-0.5-1.9
		C472,85.7,471.5,85.5,470.8,85.5z"/>
	<path class="st6" d="M478.4,93.2l-3.2-8.6h1.4l1.8,5.1c0.4,1.2,0.7,2,0.7,2.3h0.1c0.1-0.3,0.2-0.8,0.5-1.7s1-2.8,2.1-5.7h1.4
		l-3.2,8.6C480,93.2,478.4,93.2,478.4,93.2z"/>
	<path class="st6" d="M489.8,93.2l-0.3-1.2h-0.1c-0.4,0.5-0.9,0.9-1.3,1.1s-1,0.3-1.6,0.3c-0.8,0-1.5-0.2-2-0.7s-0.7-1.1-0.7-1.9
		c0-1.7,1.4-2.6,4.1-2.7h1.5v-0.5c0-0.7-0.1-1.2-0.4-1.5s-0.8-0.5-1.4-0.5c-0.7,0-1.5,0.2-2.4,0.7l-0.4-1c0.4-0.2,0.9-0.4,1.4-0.5
		s1-0.2,1.5-0.2c1,0,1.8,0.2,2.3,0.7s0.7,1.2,0.7,2.2v5.8h-0.9L489.8,93.2L489.8,93.2z M486.9,92.2c0.8,0,1.4-0.2,1.9-0.7
		c0.5-0.4,0.7-1.1,0.7-1.9v-0.8l-1.3,0.1c-1,0-1.8,0.2-2.2,0.5c-0.5,0.3-0.7,0.7-0.7,1.3c0,0.5,0.1,0.8,0.4,1.1
		C486,92.1,486.4,92.2,486.9,92.2z"/>
	<path class="st6" d="M499.3,93.2v-5.5c0-0.7-0.2-1.2-0.5-1.6s-0.8-0.5-1.5-0.5c-0.9,0-1.6,0.2-2,0.7s-0.6,1.3-0.6,2.4v4.5h-1.3
		v-8.6h1.1l0.2,1.2h0.1c0.3-0.4,0.6-0.7,1.1-1c0.5-0.2,1-0.3,1.6-0.3c1,0,1.8,0.2,2.3,0.7s0.8,1.3,0.8,2.4v5.6
		C500.6,93.2,499.3,93.2,499.3,93.2z"/>
	<path class="st6" d="M506.1,92.2c0.2,0,0.5,0,0.7-0.1c0.2,0,0.4-0.1,0.5-0.1v1c-0.1,0.1-0.3,0.1-0.6,0.2c-0.3,0-0.5,0.1-0.7,0.1
		c-1.7,0-2.5-0.9-2.5-2.6v-5.1h-1.2V85l1.2-0.5l0.5-1.8h0.8v2h2.5v1h-2.5v5c0,0.5,0.1,0.9,0.4,1.2C505.3,92.1,505.6,92.2,506.1,92.2
		z"/>
	<path class="st6" d="M516.1,93.3c-1.1,0-2-0.4-2.6-1.2c-0.6-0.8-0.9-1.9-0.9-3.2c0-1.4,0.3-2.5,0.9-3.3c0.6-0.8,1.5-1.2,2.6-1.2
		c1.2,0,2.1,0.4,2.7,1.3h0.1l0.2-1.2h1v12.4h-1.3v-3.7c0-0.5,0-1,0.1-1.3h-0.1C518.2,92.9,517.3,93.3,516.1,93.3z M516.3,92.2
		c0.9,0,1.5-0.2,1.9-0.7s0.6-1.2,0.6-2.3v-0.3c0-1.2-0.2-2.1-0.6-2.6c-0.4-0.5-1-0.8-1.9-0.8c-0.8,0-1.3,0.3-1.7,0.9
		s-0.6,1.4-0.6,2.5s0.2,1.9,0.6,2.5C515,91.9,515.6,92.2,516.3,92.2z"/>
	<path class="st6" d="M524.1,84.6v5.6c0,0.7,0.2,1.2,0.5,1.6s0.8,0.5,1.5,0.5c0.9,0,1.6-0.2,2-0.7s0.6-1.3,0.6-2.4v-4.5h1.3v8.6
		h-1.1l-0.2-1.1h-0.1c-0.3,0.4-0.6,0.7-1.1,1c-0.5,0.2-1,0.3-1.6,0.3c-1,0-1.8-0.2-2.3-0.7s-0.8-1.3-0.8-2.4v-5.6h1.3L524.1,84.6
		L524.1,84.6z"/>
	<path class="st6" d="M536.3,93.3c-1.3,0-2.3-0.4-3-1.2c-0.7-0.8-1.1-1.8-1.1-3.2c0-1.4,0.3-2.5,1-3.3s1.6-1.2,2.7-1.2
		c1.1,0,1.9,0.4,2.5,1.1s0.9,1.6,0.9,2.8v0.8h-5.9c0,1,0.3,1.8,0.8,2.3s1.2,0.8,2,0.8c0.9,0,1.8-0.2,2.7-0.6v1.2
		c-0.5,0.2-0.9,0.3-1.3,0.4S536.9,93.3,536.3,93.3z M536,85.5c-0.7,0-1.2,0.2-1.6,0.7c-0.4,0.4-0.6,1.1-0.7,1.9h4.5
		c0-0.8-0.2-1.4-0.5-1.9C537.2,85.7,536.7,85.5,536,85.5z"/>
	<path class="st6" d="M547.2,90.8c0,0.8-0.3,1.4-0.9,1.8c-0.6,0.4-1.4,0.6-2.5,0.6s-2-0.2-2.7-0.5v-1.2c0.4,0.2,0.9,0.4,1.3,0.5
		c0.5,0.1,0.9,0.2,1.4,0.2c0.7,0,1.2-0.1,1.6-0.3c0.4-0.2,0.5-0.5,0.5-1c0-0.3-0.1-0.6-0.4-0.9c-0.3-0.2-0.9-0.5-1.7-0.8
		s-1.4-0.6-1.7-0.8c-0.3-0.2-0.6-0.5-0.8-0.8s-0.2-0.6-0.2-1c0-0.7,0.3-1.2,0.9-1.7c0.6-0.4,1.3-0.6,2.3-0.6c0.9,0,1.8,0.2,2.7,0.6
		l-0.5,1.1c-0.9-0.4-1.6-0.5-2.3-0.5c-0.6,0-1.1,0.1-1.4,0.3c-0.3,0.2-0.5,0.5-0.5,0.8c0,0.2,0.1,0.4,0.2,0.6
		c0.1,0.2,0.3,0.3,0.6,0.5c0.3,0.1,0.8,0.4,1.5,0.6c1,0.4,1.7,0.7,2.1,1.1S547.2,90.3,547.2,90.8z"/>
	<path class="st6" d="M552.1,92.2c0.2,0,0.5,0,0.7-0.1c0.2,0,0.4-0.1,0.5-0.1v1c-0.1,0.1-0.3,0.1-0.6,0.2c-0.3,0-0.5,0.1-0.7,0.1
		c-1.7,0-2.5-0.9-2.5-2.6v-5.1h-1.2V85l1.2-0.5l0.5-1.8h0.8v2h2.5v1h-2.5v5c0,0.5,0.1,0.9,0.4,1.2C551.3,92.1,551.7,92.2,552.1,92.2
		z"/>
	<path class="st6" d="M554.9,82.3c0-0.3,0.1-0.5,0.2-0.7c0.1-0.1,0.3-0.2,0.5-0.2s0.4,0.1,0.5,0.2s0.2,0.4,0.2,0.6
		c0,0.3-0.1,0.5-0.2,0.7c-0.2,0.1-0.3,0.2-0.5,0.2s-0.4-0.1-0.5-0.2C554.9,82.8,554.9,82.6,554.9,82.3z M556.3,93.2H555v-8.6h1.3
		V93.2z"/>
	<path class="st6" d="M566.4,88.9c0,1.4-0.4,2.5-1.1,3.3c-0.7,0.8-1.7,1.2-2.9,1.2c-0.8,0-1.4-0.2-2-0.5s-1.1-0.9-1.4-1.5
		s-0.5-1.5-0.5-2.4c0-1.4,0.3-2.5,1-3.3s1.7-1.2,2.9-1.2s2.1,0.4,2.9,1.2S566.4,87.5,566.4,88.9z M559.9,88.9c0,1.1,0.2,1.9,0.7,2.5
		c0.4,0.6,1.1,0.9,1.9,0.9s1.5-0.3,1.9-0.9s0.7-1.4,0.7-2.5s-0.2-1.9-0.7-2.5c-0.4-0.6-1.1-0.8-1.9-0.8c-0.8,0-1.5,0.3-1.9,0.8
		C560.1,86.9,559.9,87.8,559.9,88.9z"/>
	<path class="st6" d="M574.6,93.2v-5.5c0-0.7-0.2-1.2-0.5-1.6s-0.8-0.5-1.5-0.5c-0.9,0-1.6,0.2-2,0.7s-0.6,1.3-0.6,2.4v4.5h-1.3
		v-8.6h1.1l0.2,1.2h0.1c0.3-0.4,0.6-0.7,1.1-1c0.5-0.2,1-0.3,1.6-0.3c1,0,1.8,0.2,2.3,0.7s0.8,1.3,0.8,2.4v5.6
		C575.9,93.2,574.6,93.2,574.6,93.2z"/>
	<path class="st6" d="M578.3,92.3c0-0.3,0.1-0.6,0.2-0.8s0.4-0.3,0.7-0.3s0.5,0.1,0.7,0.3s0.3,0.4,0.3,0.8c0,0.3-0.1,0.6-0.3,0.8
		c-0.2,0.2-0.4,0.3-0.7,0.3s-0.5-0.1-0.7-0.2S578.3,92.7,578.3,92.3z"/>
	<path class="st6" d="M80.8,114.4v4.8h-1.3v-11.5h3.1c1.4,0,2.4,0.3,3.1,0.8s1,1.3,1,2.4c0,1.5-0.8,2.5-2.3,3.1l3.1,5.1h-1.6
		l-2.8-4.8L80.8,114.4L80.8,114.4z M80.8,113.3h1.8c0.9,0,1.6-0.2,2.1-0.6c0.4-0.4,0.7-0.9,0.7-1.7c0-0.8-0.2-1.3-0.7-1.6
		c-0.4-0.3-1.2-0.5-2.1-0.5h-1.7v4.4C80.9,113.3,80.8,113.3,80.8,113.3z"/>
	<path class="st6" d="M92.8,119.3c-1.3,0-2.3-0.4-3-1.2s-1.1-1.8-1.1-3.2s0.3-2.5,1-3.3s1.6-1.2,2.7-1.2s1.9,0.4,2.5,1.1
		s0.9,1.6,0.9,2.8v0.8h-5.9c0,1,0.3,1.8,0.8,2.3s1.2,0.8,2,0.8c0.9,0,1.8-0.2,2.7-0.6v1.2c-0.5,0.2-0.9,0.3-1.3,0.4
		S93.4,119.3,92.8,119.3z M92.4,111.5c-0.7,0-1.2,0.2-1.6,0.7c-0.4,0.4-0.6,1.1-0.7,1.9h4.5c0-0.8-0.2-1.4-0.5-1.9
		C93.6,111.7,93.1,111.5,92.4,111.5z"/>
	<path class="st6" d="M109.1,119.2v-5.6c0-0.7-0.1-1.2-0.4-1.5s-0.7-0.5-1.4-0.5c-0.8,0-1.4,0.2-1.8,0.7s-0.6,1.2-0.6,2.1v4.8h-1.3
		v-5.6c0-0.7-0.1-1.2-0.4-1.5s-0.7-0.5-1.4-0.5c-0.8,0-1.4,0.2-1.8,0.7s-0.6,1.3-0.6,2.4v4.5h-1.3v-8.6h1.1l0.2,1.2h0.1
		c0.2-0.4,0.6-0.7,1-1s0.9-0.4,1.5-0.4c1.3,0,2.2,0.5,2.6,1.5h0.1c0.3-0.4,0.6-0.8,1.1-1.1c0.5-0.3,1-0.4,1.7-0.4
		c1,0,1.7,0.2,2.2,0.7s0.7,1.3,0.7,2.4v5.6h-1.3L109.1,119.2L109.1,119.2z"/>
	<path class="st6" d="M116.7,119.3c-1.3,0-2.3-0.4-3-1.2s-1.1-1.8-1.1-3.2s0.3-2.5,1-3.3s1.6-1.2,2.7-1.2s1.9,0.4,2.5,1.1
		s0.9,1.6,0.9,2.8v0.8h-5.9c0,1,0.3,1.8,0.8,2.3s1.2,0.8,2,0.8c0.9,0,1.8-0.2,2.7-0.6v1.2c-0.5,0.2-0.9,0.3-1.3,0.4
		S117.2,119.3,116.7,119.3z M116.3,111.5c-0.7,0-1.2,0.2-1.6,0.7c-0.4,0.4-0.6,1.1-0.7,1.9h4.5c0-0.8-0.2-1.4-0.5-1.9
		C117.5,111.7,117,111.5,116.3,111.5z"/>
	<path class="st6" d="M132.9,119.2v-5.6c0-0.7-0.1-1.2-0.4-1.5s-0.7-0.5-1.4-0.5c-0.8,0-1.4,0.2-1.8,0.7c-0.4,0.5-0.6,1.2-0.6,2.1
		v4.8h-1.3v-5.6c0-0.7-0.1-1.2-0.4-1.5s-0.7-0.5-1.4-0.5c-0.8,0-1.4,0.2-1.8,0.7s-0.6,1.3-0.6,2.4v4.5h-1.3v-8.6h1.1l0.2,1.2h0.1
		c0.2-0.4,0.6-0.7,1-1s0.9-0.4,1.5-0.4c1.3,0,2.2,0.5,2.6,1.5h0.1c0.3-0.4,0.6-0.8,1.1-1.1c0.5-0.3,1-0.4,1.7-0.4
		c1,0,1.7,0.2,2.2,0.7s0.7,1.3,0.7,2.4v5.6h-1.3L132.9,119.2L132.9,119.2z"/>
	<path class="st6" d="M140.9,110.5c1.1,0,2,0.4,2.6,1.2c0.6,0.8,0.9,1.9,0.9,3.3s-0.3,2.5-0.9,3.3s-1.5,1.2-2.6,1.2
		c-0.6,0-1.1-0.1-1.5-0.3c-0.5-0.2-0.8-0.5-1.2-0.9h-0.1l-0.3,1.1h-0.9v-12.2h1.3v3c0,0.7,0,1.3-0.1,1.8h0.1
		C138.8,110.9,139.7,110.5,140.9,110.5z M140.7,111.5c-0.9,0-1.5,0.3-1.9,0.8s-0.6,1.4-0.6,2.6s0.2,2.1,0.6,2.6s1,0.8,1.9,0.8
		c0.8,0,1.4-0.3,1.8-0.9c0.4-0.6,0.6-1.4,0.6-2.5s-0.2-1.9-0.6-2.5C142.1,111.8,141.5,111.5,140.7,111.5z"/>
	<path class="st6" d="M150.3,119.3c-1.3,0-2.3-0.4-3-1.2c-0.7-0.8-1.1-1.8-1.1-3.2s0.3-2.5,1-3.3s1.6-1.2,2.7-1.2s1.9,0.4,2.5,1.1
		s0.9,1.6,0.9,2.8v0.8h-5.9c0,1,0.3,1.8,0.8,2.3s1.2,0.8,2,0.8c0.9,0,1.8-0.2,2.7-0.6v1.2c-0.5,0.2-0.9,0.3-1.3,0.4
		C151.2,119.3,150.9,119.3,150.3,119.3z M150,111.5c-0.7,0-1.2,0.2-1.6,0.7c-0.4,0.4-0.6,1.1-0.7,1.9h4.5c0-0.8-0.2-1.4-0.5-1.9
		C151.2,111.7,150.6,111.5,150,111.5z"/>
	<path class="st6" d="M159.6,110.4c0.4,0,0.7,0,1,0.1l-0.2,1.2c-0.4-0.1-0.7-0.1-0.9-0.1c-0.7,0-1.3,0.3-1.8,0.8s-0.7,1.3-0.7,2.1
		v4.6h-1.3v-8.6h1.1l0.1,1.6h0.1c0.3-0.6,0.7-1,1.1-1.3C158.6,110.6,159,110.4,159.6,110.4z"/>
	<path class="st6" d="M169.1,118.2c0.2,0,0.5,0,0.7-0.1c0.2,0,0.4-0.1,0.5-0.1v1c-0.1,0.1-0.3,0.1-0.6,0.2c-0.3,0-0.5,0.1-0.7,0.1
		c-1.7,0-2.5-0.9-2.5-2.6v-5.1h-1.2V111l1.2-0.5l0.5-1.8h0.8v2h2.5v1h-2.5v5c0,0.5,0.1,0.9,0.4,1.2
		C168.4,118.1,168.7,118.2,169.1,118.2z"/>
	<path class="st6" d="M177.9,119.2v-5.5c0-0.7-0.2-1.2-0.5-1.6s-0.8-0.5-1.5-0.5c-0.9,0-1.6,0.2-2,0.7s-0.6,1.3-0.6,2.4v4.5H172V107
		h1.3v3.7c0,0.4,0,0.8-0.1,1.1h0.1c0.3-0.4,0.6-0.7,1.1-1c0.5-0.2,1-0.4,1.6-0.4c1,0,1.8,0.2,2.4,0.7c0.5,0.5,0.8,1.3,0.8,2.4v5.6
		h-1.3L177.9,119.2L177.9,119.2z"/>
	<path class="st6" d="M187.1,119.2l-0.3-1.2h-0.1c-0.4,0.5-0.9,0.9-1.3,1.1c-0.4,0.2-1,0.3-1.6,0.3c-0.8,0-1.5-0.2-2-0.7
		s-0.7-1.1-0.7-1.9c0-1.7,1.4-2.6,4.1-2.7h1.5v-0.5c0-0.7-0.1-1.2-0.4-1.5s-0.8-0.5-1.4-0.5c-0.7,0-1.5,0.2-2.4,0.7l-0.4-1
		c0.4-0.2,0.9-0.4,1.4-0.5s1-0.2,1.5-0.2c1,0,1.8,0.2,2.3,0.7s0.7,1.2,0.7,2.2v5.8h-0.9L187.1,119.2L187.1,119.2z M184.2,118.2
		c0.8,0,1.4-0.2,1.9-0.7c0.5-0.4,0.7-1.1,0.7-1.9v-0.8l-1.3,0.1c-1,0-1.8,0.2-2.2,0.5c-0.5,0.3-0.7,0.7-0.7,1.3
		c0,0.5,0.1,0.8,0.4,1.1C183.3,118.1,183.7,118.2,184.2,118.2z"/>
	<path class="st6" d="M193.5,118.2c0.2,0,0.5,0,0.7-0.1c0.2,0,0.4-0.1,0.5-0.1v1c-0.1,0.1-0.3,0.1-0.6,0.2c-0.3,0-0.5,0.1-0.7,0.1
		c-1.7,0-2.5-0.9-2.5-2.6v-5.1h-1.2V111l1.2-0.5l0.5-1.8h0.8v2h2.5v1h-2.5v5c0,0.5,0.1,0.9,0.4,1.2
		C192.7,118.1,193.1,118.2,193.5,118.2z"/>
	<path class="st6" d="M204.7,119.2h-1.3v-8.1c0-0.7,0-1.3,0.1-1.9c-0.1,0.1-0.2,0.2-0.4,0.3c-0.1,0.1-0.8,0.6-1.9,1.5l-0.7-0.9
		l3-2.3h1.1L204.7,119.2L204.7,119.2z"/>
	<path class="st6" d="M224.8,119.2v-5.6c0-0.7-0.1-1.2-0.4-1.5s-0.7-0.5-1.4-0.5c-0.8,0-1.4,0.2-1.8,0.7s-0.6,1.2-0.6,2.1v4.8h-1.3
		v-5.6c0-0.7-0.1-1.2-0.4-1.5s-0.7-0.5-1.4-0.5c-0.8,0-1.4,0.2-1.8,0.7s-0.6,1.3-0.6,2.4v4.5h-1.3v-8.6h1.1l0.2,1.2h0.1
		c0.2-0.4,0.6-0.7,1-1s0.9-0.4,1.5-0.4c1.3,0,2.2,0.5,2.6,1.5h0.1c0.3-0.4,0.6-0.8,1.1-1.1c0.5-0.3,1-0.4,1.7-0.4
		c1,0,1.7,0.2,2.2,0.7s0.7,1.3,0.7,2.4v5.6h-1.3L224.8,119.2L224.8,119.2z"/>
	<path class="st6" d="M232.3,119.3c-1.3,0-2.3-0.4-3-1.2c-0.7-0.8-1.1-1.8-1.1-3.2s0.3-2.5,1-3.3s1.6-1.2,2.7-1.2s1.9,0.4,2.5,1.1
		s0.9,1.6,0.9,2.8v0.8h-5.9c0,1,0.3,1.8,0.8,2.3s1.2,0.8,2,0.8c0.9,0,1.8-0.2,2.7-0.6v1.2c-0.5,0.2-0.9,0.3-1.3,0.4
		C233.2,119.3,232.9,119.3,232.3,119.3z M232,111.5c-0.7,0-1.2,0.2-1.6,0.7c-0.4,0.4-0.6,1.1-0.7,1.9h4.5c0-0.8-0.2-1.4-0.5-1.9
		C233.2,111.7,232.7,111.5,232,111.5z"/>
	<path class="st6" d="M243,119.2l-0.3-1.2h-0.1c-0.4,0.5-0.9,0.9-1.3,1.1c-0.4,0.2-1,0.3-1.6,0.3c-0.8,0-1.5-0.2-2-0.7
		s-0.7-1.1-0.7-1.9c0-1.7,1.4-2.6,4.1-2.7h1.5v-0.5c0-0.7-0.1-1.2-0.4-1.5s-0.8-0.5-1.4-0.5c-0.7,0-1.5,0.2-2.4,0.7l-0.4-1
		c0.4-0.2,0.9-0.4,1.4-0.5s1-0.2,1.5-0.2c1,0,1.8,0.2,2.3,0.7s0.7,1.2,0.7,2.2v5.8H243V119.2L243,119.2z M240,118.2
		c0.8,0,1.4-0.2,1.9-0.7c0.5-0.4,0.7-1.1,0.7-1.9v-0.8l-1.3,0.1c-1,0-1.8,0.2-2.2,0.5c-0.5,0.3-0.7,0.7-0.7,1.3
		c0,0.5,0.1,0.8,0.4,1.1C239.1,118.1,239.5,118.2,240,118.2z"/>
	<path class="st6" d="M252.5,119.2v-5.5c0-0.7-0.2-1.2-0.5-1.6s-0.8-0.5-1.5-0.5c-0.9,0-1.6,0.2-2,0.7s-0.6,1.3-0.6,2.4v4.5h-1.3
		v-8.6h1.1l0.2,1.2h0.1c0.3-0.4,0.6-0.7,1.1-1c0.5-0.2,1-0.3,1.6-0.3c1,0,1.8,0.2,2.3,0.7s0.8,1.3,0.8,2.4v5.6
		C253.8,119.2,252.5,119.2,252.5,119.2z"/>
	<path class="st6" d="M261.9,116.8c0,0.8-0.3,1.4-0.9,1.8s-1.4,0.6-2.5,0.6s-2-0.2-2.7-0.5v-1.2c0.4,0.2,0.9,0.4,1.3,0.5
		c0.5,0.1,0.9,0.2,1.4,0.2c0.7,0,1.2-0.1,1.6-0.3s0.5-0.5,0.5-1c0-0.3-0.1-0.6-0.4-0.9c-0.3-0.2-0.9-0.5-1.7-0.8
		c-0.8-0.3-1.4-0.6-1.7-0.8c-0.3-0.2-0.6-0.5-0.8-0.8s-0.2-0.6-0.2-1c0-0.7,0.3-1.2,0.9-1.7c0.6-0.4,1.3-0.6,2.3-0.6
		c0.9,0,1.8,0.2,2.7,0.6l-0.5,1.1c-0.9-0.4-1.6-0.5-2.3-0.5c-0.6,0-1.1,0.1-1.4,0.3c-0.3,0.2-0.5,0.5-0.5,0.8c0,0.2,0.1,0.4,0.2,0.6
		s0.3,0.3,0.6,0.5c0.3,0.1,0.8,0.4,1.5,0.6c1,0.4,1.7,0.7,2.1,1.1S261.9,116.3,261.9,116.8z"/>
	<path class="st6" d="M267,111.5c0.1-0.5,0.3-1.1,0.6-1.8c0.3-0.7,0.5-1.4,0.8-2h1.7c-0.3,1.4-0.6,2.7-0.8,3.9h-2.2L267,111.5z
		 M270.7,111.5c0.1-0.5,0.3-1.1,0.6-1.8c0.3-0.7,0.5-1.4,0.8-2h1.7c-0.3,1.4-0.6,2.7-0.8,3.9h-2.2L270.7,111.5z"/>
	<path class="st6" d="M285.5,119.2h-3.1l-5-8.6h-0.1c0.1,1.5,0.1,2.6,0.1,3.3v5.4h-2.2v-11.6h3.1l5,8.6h0.1
		c-0.1-1.5-0.1-2.5-0.1-3.1v-5.5h2.2V119.2z"/>
	<path class="st6" d="M296.1,114.8c0,1.4-0.4,2.5-1.1,3.3c-0.8,0.8-1.8,1.2-3.1,1.2c-0.8,0-1.6-0.2-2.2-0.6s-1.1-0.9-1.5-1.6
		s-0.5-1.5-0.5-2.4c0-1.4,0.4-2.5,1.1-3.3s1.8-1.2,3.1-1.2c0.8,0,1.6,0.2,2.2,0.5c0.6,0.4,1.1,0.9,1.5,1.6
		C296,113.1,296.1,113.9,296.1,114.8z M290.1,114.8c0,0.9,0.1,1.5,0.4,2c0.3,0.4,0.7,0.7,1.4,0.7c0.6,0,1.1-0.2,1.4-0.7
		c0.3-0.4,0.4-1.1,0.4-2s-0.1-1.5-0.4-1.9s-0.7-0.6-1.4-0.6c-0.6,0-1.1,0.2-1.4,0.6S290.1,113.9,290.1,114.8z"/>
	<path class="st6" d="M301.8,117.4c0.4,0,0.9-0.1,1.5-0.3v1.8c-0.6,0.3-1.3,0.4-2.2,0.4c-1,0-1.6-0.2-2.1-0.7
		c-0.4-0.5-0.7-1.2-0.7-2.2v-4.2h-1.1v-1l1.3-0.8l0.7-1.8h1.5v1.9h2.4v1.8h-2.4v4.2c0,0.3,0.1,0.6,0.3,0.8
		C301.2,117.3,301.5,117.4,301.8,117.4z"/>
	<path class="st6" d="M314.8,119.2l-0.5-1.2h-0.1c-0.4,0.5-0.8,0.9-1.2,1.1s-1,0.3-1.7,0.3c-0.8,0-1.5-0.2-2-0.7s-0.7-1.2-0.7-2
		c0-0.9,0.3-1.6,1-2.1c0.6-0.4,1.6-0.7,2.9-0.7h1.5v-0.4c0-0.9-0.5-1.3-1.4-1.3c-0.7,0-1.5,0.2-2.5,0.6l-0.8-1.6
		c1-0.5,2.1-0.8,3.3-0.8c1.2,0,2.1,0.3,2.7,0.8s0.9,1.3,0.9,2.3v5.8h-1.4L314.8,119.2L314.8,119.2z M314.1,115.1h-0.9
		c-0.7,0-1.2,0.1-1.5,0.4c-0.3,0.2-0.5,0.6-0.5,1c0,0.7,0.4,1,1.2,1c0.6,0,1-0.2,1.3-0.5s0.5-0.7,0.5-1.3v-0.6H314.1L314.1,115.1z"
		/>
	<path class="st6" d="M322.6,117.4c0.4,0,0.9-0.1,1.5-0.3v1.8c-0.6,0.3-1.3,0.4-2.2,0.4c-1,0-1.6-0.2-2.1-0.7
		c-0.4-0.5-0.7-1.2-0.7-2.2v-4.2H318v-1l1.3-0.8l0.7-1.8h1.5v1.9h2.4v1.8h-2.4v4.2c0,0.3,0.1,0.6,0.3,0.8
		C322,117.3,322.2,117.4,322.6,117.4z"/>
	<path class="st6" d="M335.5,119.2L335,118h-0.1c-0.4,0.5-0.8,0.9-1.2,1.1s-1,0.3-1.7,0.3c-0.8,0-1.5-0.2-2-0.7s-0.7-1.2-0.7-2
		c0-0.9,0.3-1.6,1-2.1c0.6-0.4,1.6-0.7,2.9-0.7h1.5v-0.4c0-0.9-0.5-1.3-1.4-1.3c-0.7,0-1.5,0.2-2.5,0.6l-0.8-1.6
		c1-0.5,2.1-0.8,3.3-0.8c1.2,0,2.1,0.3,2.7,0.8s0.9,1.3,0.9,2.3v5.8h-1.4L335.5,119.2L335.5,119.2z M334.8,115.1h-0.9
		c-0.7,0-1.2,0.1-1.5,0.4c-0.3,0.2-0.5,0.6-0.5,1c0,0.7,0.4,1,1.2,1c0.6,0,1-0.2,1.3-0.5s0.5-0.7,0.5-1.3v-0.6H334.8L334.8,115.1z"
		/>
	<path class="st6" d="M342,119.2h-2.4V107h2.4V119.2z"/>
	<path class="st6" d="M346.9,119.2h-2.4V107h2.4V119.2z"/>
	<path class="st6" d="M351.4,107.9c-0.3,1-0.7,2.3-1.4,3.7h-1.7c0.4-1.5,0.6-2.8,0.8-3.9h2.2L351.4,107.9z M355.1,107.9
		c-0.3,1-0.7,2.3-1.4,3.7H352c0.4-1.5,0.6-2.8,0.8-3.9h2.2L355.1,107.9z"/>
	<path class="st6" d="M366.1,119.2l-0.3-1.2h-0.1c-0.4,0.5-0.9,0.9-1.3,1.1s-1,0.3-1.6,0.3c-0.8,0-1.5-0.2-2-0.7s-0.7-1.1-0.7-1.9
		c0-1.7,1.4-2.6,4.1-2.7h1.5v-0.5c0-0.7-0.1-1.2-0.4-1.5s-0.8-0.5-1.4-0.5c-0.7,0-1.5,0.2-2.4,0.7l-0.4-1c0.4-0.2,0.9-0.4,1.4-0.5
		s1-0.2,1.5-0.2c1,0,1.8,0.2,2.3,0.7s0.7,1.2,0.7,2.2v5.8h-0.9L366.1,119.2L366.1,119.2z M363.1,118.2c0.8,0,1.4-0.2,1.9-0.7
		c0.5-0.4,0.7-1.1,0.7-1.9v-0.8l-1.3,0.1c-1,0-1.8,0.2-2.2,0.5c-0.5,0.3-0.7,0.7-0.7,1.3c0,0.5,0.1,0.8,0.4,1.1
		C362.2,118.1,362.6,118.2,363.1,118.2z"/>
	<path class="st6" d="M375.6,119.2v-5.5c0-0.7-0.2-1.2-0.5-1.6s-0.8-0.5-1.5-0.5c-0.9,0-1.6,0.2-2,0.7s-0.6,1.3-0.6,2.4v4.5h-1.3
		v-8.6h1.1l0.2,1.2h0.1c0.3-0.4,0.6-0.7,1.1-1c0.5-0.2,1-0.3,1.6-0.3c1,0,1.8,0.2,2.3,0.7s0.8,1.3,0.8,2.4v5.6
		C376.9,119.2,375.6,119.2,375.6,119.2z"/>
	<path class="st6" d="M385.4,118L385.4,118c-0.7,0.9-1.6,1.3-2.8,1.3c-1.1,0-2-0.4-2.6-1.1s-0.9-1.9-0.9-3.3s0.3-2.5,0.9-3.3
		s1.5-1.2,2.6-1.2c1.2,0,2.1,0.4,2.7,1.3h0.1l-0.1-0.6v-0.6V107h1.3v12.2h-1.1L385.4,118z M382.8,118.2c0.9,0,1.5-0.2,1.9-0.7
		s0.6-1.3,0.6-2.3v-0.3c0-1.2-0.2-2.1-0.6-2.6s-1-0.8-1.9-0.8c-0.8,0-1.3,0.3-1.7,0.9c-0.4,0.6-0.6,1.4-0.6,2.5s0.2,1.9,0.6,2.5
		C381.4,118,382,118.2,382.8,118.2z"/>
	<path class="st6" d="M397.7,119.2h-1.3v-8.1c0-0.7,0-1.3,0.1-1.9c-0.1,0.1-0.2,0.2-0.4,0.3c-0.1,0.1-0.8,0.6-1.9,1.5l-0.7-0.9
		l3-2.3h1.1L397.7,119.2L397.7,119.2z"/>
	<path class="st6" d="M409.6,113.4c0,2-0.3,3.4-0.9,4.4s-1.6,1.5-2.9,1.5c-1.2,0-2.2-0.5-2.8-1.5c-0.6-1-1-2.5-1-4.4
		c0-2,0.3-3.5,0.9-4.4c0.6-1,1.6-1.4,2.8-1.4c1.2,0,2.2,0.5,2.8,1.5C409.3,110.1,409.6,111.5,409.6,113.4z M403.4,113.4
		c0,1.7,0.2,2.9,0.6,3.6s1,1.1,1.9,1.1s1.5-0.4,1.9-1.2s0.6-2,0.6-3.6s-0.2-2.8-0.6-3.6c-0.4-0.8-1-1.1-1.9-1.1s-1.5,0.4-1.9,1.1
		C403.6,110.6,403.4,111.8,403.4,113.4z"/>
	<path class="st6" d="M418.8,113.4c0,2-0.3,3.4-0.9,4.4s-1.6,1.5-2.9,1.5c-1.2,0-2.2-0.5-2.8-1.5c-0.6-1-1-2.5-1-4.4
		c0-2,0.3-3.5,0.9-4.4c0.6-1,1.6-1.4,2.8-1.4c1.2,0,2.2,0.5,2.8,1.5C418.4,110.1,418.8,111.5,418.8,113.4z M412.5,113.4
		c0,1.7,0.2,2.9,0.6,3.6s1,1.1,1.9,1.1s1.5-0.4,1.9-1.2s0.6-2,0.6-3.6s-0.2-2.8-0.6-3.6c-0.4-0.8-1-1.1-1.9-1.1s-1.5,0.4-1.9,1.1
		C412.7,110.6,412.5,111.8,412.5,113.4z"/>
	<path class="st6" d="M436,119.2v-5.6c0-0.7-0.1-1.2-0.4-1.5s-0.7-0.5-1.4-0.5c-0.8,0-1.4,0.2-1.8,0.7s-0.6,1.2-0.6,2.1v4.8h-1.3
		v-5.6c0-0.7-0.1-1.2-0.4-1.5s-0.7-0.5-1.4-0.5c-0.8,0-1.4,0.2-1.8,0.7s-0.6,1.3-0.6,2.4v4.5H425v-8.6h1.1l0.2,1.2h0.1
		c0.2-0.4,0.6-0.7,1-1s0.9-0.4,1.5-0.4c1.3,0,2.2,0.5,2.6,1.5h0.1c0.3-0.4,0.6-0.8,1.1-1.1c0.5-0.3,1-0.4,1.7-0.4
		c1,0,1.7,0.2,2.2,0.7s0.7,1.3,0.7,2.4v5.6H436V119.2L436,119.2z"/>
	<path class="st6" d="M443.6,119.3c-1.3,0-2.3-0.4-3-1.2s-1.1-1.8-1.1-3.2s0.3-2.5,1-3.3s1.6-1.2,2.7-1.2s1.9,0.4,2.5,1.1
		s0.9,1.6,0.9,2.8v0.8h-5.9c0,1,0.3,1.8,0.8,2.3s1.2,0.8,2,0.8c0.9,0,1.8-0.2,2.7-0.6v1.2c-0.5,0.2-0.9,0.3-1.3,0.4
		S444.2,119.3,443.6,119.3z M443.2,111.5c-0.7,0-1.2,0.2-1.6,0.7c-0.4,0.4-0.6,1.1-0.7,1.9h4.5c0-0.8-0.2-1.4-0.5-1.9
		C444.4,111.7,443.9,111.5,443.2,111.5z"/>
	<path class="st6" d="M454.2,119.2l-0.3-1.2h-0.1c-0.4,0.5-0.9,0.9-1.3,1.1s-1,0.3-1.6,0.3c-0.8,0-1.5-0.2-2-0.7s-0.7-1.1-0.7-1.9
		c0-1.7,1.4-2.6,4.1-2.7h1.5v-0.5c0-0.7-0.1-1.2-0.4-1.5s-0.8-0.5-1.4-0.5c-0.7,0-1.5,0.2-2.4,0.7l-0.4-1c0.4-0.2,0.9-0.4,1.4-0.5
		s1-0.2,1.5-0.2c1,0,1.8,0.2,2.3,0.7s0.7,1.2,0.7,2.2v5.8h-0.9L454.2,119.2L454.2,119.2z M451.3,118.2c0.8,0,1.4-0.2,1.9-0.7
		c0.5-0.4,0.7-1.1,0.7-1.9v-0.8l-1.3,0.1c-1,0-1.8,0.2-2.2,0.5c-0.5,0.3-0.7,0.7-0.7,1.3c0,0.5,0.1,0.8,0.4,1.1
		C450.4,118.1,450.8,118.2,451.3,118.2z"/>
	<path class="st6" d="M463.7,119.2v-5.5c0-0.7-0.2-1.2-0.5-1.6s-0.8-0.5-1.5-0.5c-0.9,0-1.6,0.2-2,0.7s-0.6,1.3-0.6,2.4v4.5h-1.3
		v-8.6h1.1l0.2,1.2h0.1c0.3-0.4,0.6-0.7,1.1-1c0.5-0.2,1-0.3,1.6-0.3c1,0,1.8,0.2,2.3,0.7s0.8,1.3,0.8,2.4v5.6
		C465,119.2,463.7,119.2,463.7,119.2z"/>
	<path class="st6" d="M473.2,116.8c0,0.8-0.3,1.4-0.9,1.8s-1.4,0.6-2.5,0.6s-2-0.2-2.7-0.5v-1.2c0.4,0.2,0.9,0.4,1.3,0.5
		c0.5,0.1,0.9,0.2,1.4,0.2c0.7,0,1.2-0.1,1.6-0.3s0.5-0.5,0.5-1c0-0.3-0.1-0.6-0.4-0.9c-0.3-0.2-0.9-0.5-1.7-0.8
		c-0.8-0.3-1.4-0.6-1.7-0.8c-0.3-0.2-0.6-0.5-0.8-0.8s-0.2-0.6-0.2-1c0-0.7,0.3-1.2,0.9-1.7c0.6-0.4,1.3-0.6,2.3-0.6
		c0.9,0,1.8,0.2,2.7,0.6l-0.5,1.1c-0.9-0.4-1.6-0.5-2.3-0.5c-0.6,0-1.1,0.1-1.4,0.3c-0.3,0.2-0.5,0.5-0.5,0.8c0,0.2,0.1,0.4,0.2,0.6
		s0.3,0.3,0.6,0.5c0.3,0.1,0.8,0.4,1.5,0.6c1,0.4,1.7,0.7,2.1,1.1S473.2,116.3,473.2,116.8z"/>
	<path class="st6" d="M478.3,111.5c0.1-0.5,0.3-1.1,0.6-1.8c0.3-0.7,0.5-1.4,0.8-2h1.7c-0.3,1.4-0.6,2.7-0.8,3.9h-2.2L478.3,111.5z
		 M481.9,111.5c0.1-0.5,0.3-1.1,0.6-1.8c0.3-0.7,0.5-1.4,0.8-2h1.7c-0.3,1.4-0.6,2.7-0.8,3.9H482L481.9,111.5z"/>
	<path class="st6" d="M491.5,109.6c-0.9,0-1.6,0.3-2.1,1s-0.8,1.6-0.8,2.9c0,2.5,1,3.8,2.9,3.8c0.8,0,1.8-0.2,2.9-0.6v2
		c-0.9,0.4-2,0.6-3.1,0.6c-1.7,0-2.9-0.5-3.8-1.5s-1.3-2.5-1.3-4.3c0-1.2,0.2-2.2,0.6-3.1s1.1-1.6,1.9-2.1s1.8-0.7,2.8-0.7
		c1.1,0,2.2,0.3,3.3,0.8l-0.8,2c-0.4-0.2-0.9-0.4-1.3-0.5C492.3,109.7,491.9,109.6,491.5,109.6z"/>
	<path class="st6" d="M504.6,114.8c0,1.4-0.4,2.5-1.1,3.3c-0.8,0.8-1.8,1.2-3.1,1.2c-0.8,0-1.6-0.2-2.2-0.6s-1.1-0.9-1.5-1.6
		s-0.5-1.5-0.5-2.4c0-1.4,0.4-2.5,1.1-3.3s1.8-1.2,3.1-1.2c0.8,0,1.6,0.2,2.2,0.5c0.6,0.4,1.1,0.9,1.5,1.6
		C504.4,113.1,504.6,113.9,504.6,114.8z M498.5,114.8c0,0.9,0.1,1.5,0.4,2c0.3,0.4,0.7,0.7,1.4,0.7c0.6,0,1.1-0.2,1.4-0.7
		c0.3-0.4,0.4-1.1,0.4-2s-0.1-1.5-0.4-1.9s-0.7-0.6-1.4-0.6c-0.6,0-1.1,0.2-1.4,0.6S498.5,113.9,498.5,114.8z"/>
	<path class="st6" d="M514.4,119.2H512v-5.1c0-0.6-0.1-1.1-0.3-1.4c-0.2-0.3-0.5-0.5-1-0.5c-0.6,0-1.1,0.2-1.3,0.7
		c-0.3,0.4-0.4,1.2-0.4,2.2v4.1h-2.4v-8.7h1.8l0.3,1.1h0.1c0.2-0.4,0.6-0.7,1-0.9s1-0.3,1.5-0.3c1.3,0,2.2,0.4,2.7,1.3h0.2
		c0.2-0.4,0.6-0.7,1-0.9c0.5-0.2,1-0.3,1.5-0.3c1,0,1.7,0.3,2.2,0.8s0.8,1.3,0.8,2.4v5.7h-2.4v-5.1c0-0.6-0.1-1.1-0.3-1.4
		s-0.5-0.5-1-0.5c-0.6,0-1,0.2-1.3,0.6s-0.4,1.1-0.4,2L514.4,119.2L514.4,119.2z"/>
	<path class="st6" d="M527.1,119.3c-1,0-1.8-0.4-2.4-1.1h-0.1c0.1,0.7,0.1,1.2,0.1,1.3v3.5h-2.4v-12.6h1.9l0.3,1.1h0.1
		c0.6-0.9,1.4-1.3,2.5-1.3c1,0,1.8,0.4,2.4,1.2s0.9,1.9,0.9,3.3c0,0.9-0.1,1.7-0.4,2.4s-0.7,1.2-1.2,1.6S527.7,119.3,527.1,119.3z
		 M526.4,112.2c-0.6,0-1,0.2-1.3,0.5c-0.3,0.4-0.4,1-0.4,1.8v0.3c0,0.9,0.1,1.6,0.4,2s0.7,0.6,1.3,0.6c1.1,0,1.6-0.9,1.6-2.6
		c0-0.9-0.1-1.5-0.4-1.9S526.9,112.2,526.4,112.2z"/>
	<path class="st6" d="M534.8,119.2h-2.4V107h2.4V119.2z"/>
	<path class="st6" d="M541.2,119.3c-1.4,0-2.5-0.4-3.3-1.2s-1.2-1.9-1.2-3.3c0-1.5,0.4-2.6,1.1-3.4c0.7-0.8,1.7-1.2,3-1.2
		c1.2,0,2.2,0.4,2.9,1.1s1,1.7,1,2.9v1.2h-5.6c0,0.7,0.2,1.2,0.6,1.6c0.4,0.4,0.9,0.6,1.6,0.6c0.5,0,1-0.1,1.5-0.2s1-0.3,1.5-0.5
		v1.8c-0.4,0.2-0.9,0.4-1.3,0.5S541.9,119.3,541.2,119.3z M540.9,112c-0.5,0-0.9,0.2-1.2,0.5s-0.5,0.8-0.5,1.4h3.3
		c0-0.6-0.2-1-0.5-1.4S541.4,112,540.9,112z"/>
	<path class="st6" d="M550.4,117.4c0.4,0,0.9-0.1,1.5-0.3v1.8c-0.6,0.3-1.3,0.4-2.2,0.4c-1,0-1.6-0.2-2.1-0.7
		c-0.4-0.5-0.7-1.2-0.7-2.2v-4.2h-1.1v-1l1.3-0.8l0.7-1.8h1.5v1.9h2.4v1.8h-2.4v4.2c0,0.3,0.1,0.6,0.3,0.8
		C549.8,117.3,550.1,117.4,550.4,117.4z"/>
	<path class="st6" d="M557.6,119.3c-1.4,0-2.5-0.4-3.3-1.2s-1.2-1.9-1.2-3.3c0-1.5,0.4-2.6,1.1-3.4c0.7-0.8,1.7-1.2,3-1.2
		c1.2,0,2.2,0.4,2.9,1.1s1,1.7,1,2.9v1.2h-5.6c0,0.7,0.2,1.2,0.6,1.6c0.4,0.4,0.9,0.6,1.6,0.6c0.5,0,1-0.1,1.5-0.2s1-0.3,1.5-0.5
		v1.8c-0.4,0.2-0.9,0.4-1.3,0.5S558.3,119.3,557.6,119.3z M557.3,112c-0.5,0-0.9,0.2-1.2,0.5s-0.5,0.8-0.5,1.4h3.3
		c0-0.6-0.2-1-0.5-1.4S557.8,112,557.3,112z"/>
	<path class="st6" d="M565.5,119.2h-2.4V107h2.4V119.2z"/>
	<path class="st6" d="M566.8,110.4h2.6l1.6,4.9c0.1,0.4,0.2,0.9,0.3,1.5l0,0c0.1-0.5,0.2-1,0.3-1.5l1.6-4.9h2.6l-3.7,9.9
		c-0.3,0.9-0.8,1.6-1.4,2s-1.4,0.7-2.2,0.7c-0.4,0-0.8,0-1.2-0.1V121c0.3,0.1,0.6,0.1,0.9,0.1c0.4,0,0.8-0.1,1.1-0.4
		s0.6-0.6,0.7-1.2l0.1-0.4L566.8,110.4z"/>
	<path class="st6" d="M576.8,118c0-0.4,0.1-0.8,0.4-1c0.2-0.2,0.6-0.3,1-0.3s0.8,0.1,1,0.3s0.4,0.6,0.4,1s-0.1,0.7-0.4,1
		c-0.2,0.2-0.6,0.4-1,0.4s-0.8-0.1-1-0.3C576.9,118.8,576.8,118.5,576.8,118z"/>
	<path class="st6" d="M583.7,107.9c-0.3,1-0.7,2.3-1.4,3.7h-1.7c0.4-1.5,0.6-2.8,0.8-3.9h2.2L583.7,107.9z M587.3,107.9
		c-0.3,1-0.7,2.3-1.4,3.7h-1.6c0.4-1.5,0.6-2.8,0.8-3.9h2.2V107.9z"/>
	<g>
		<g>
			<path class="st6" d="M112.6,280.7h3.2c1.5,0,2.6,0.2,3.3,0.7s1,1.2,1,2.1c0,0.7-0.2,1.2-0.6,1.7c-0.4,0.4-0.9,0.7-1.7,0.9v0.1
				c1.7,0.3,2.6,1.2,2.6,2.7c0,1-0.3,1.8-1,2.4s-1.7,0.9-2.9,0.9h-4L112.6,280.7L112.6,280.7z M113.9,285.6h2.2c0.9,0,1.6-0.1,2-0.4
				s0.6-0.8,0.6-1.5c0-0.6-0.2-1.1-0.7-1.4s-1.2-0.4-2.2-0.4h-2L113.9,285.6L113.9,285.6z M113.9,286.8v4.3h2.4
				c0.9,0,1.6-0.2,2.1-0.5c0.5-0.4,0.7-0.9,0.7-1.7c0-0.7-0.2-1.2-0.7-1.6c-0.5-0.3-1.2-0.5-2.2-0.5L113.9,286.8L113.9,286.8z"/>
			<path class="st6" d="M126.3,292.3c-1.3,0-2.3-0.4-3-1.2c-0.7-0.8-1.1-1.8-1.1-3.2c0-1.4,0.3-2.5,1-3.3s1.6-1.2,2.7-1.2
				s1.9,0.4,2.5,1.1c0.6,0.7,0.9,1.6,0.9,2.8v0.8h-5.9c0,1,0.3,1.8,0.8,2.3s1.2,0.8,2,0.8c0.9,0,1.8-0.2,2.7-0.6v1.2
				c-0.5,0.2-0.9,0.3-1.3,0.4S126.9,292.3,126.3,292.3z M126,284.5c-0.7,0-1.2,0.2-1.6,0.7c-0.4,0.4-0.6,1.1-0.7,1.9h4.5
				c0-0.8-0.2-1.4-0.5-1.9C127.2,284.7,126.7,284.5,126,284.5z"/>
			<path class="st6" d="M141.7,292.2v-5.5c0-0.7-0.2-1.2-0.5-1.6s-0.8-0.5-1.5-0.5c-0.9,0-1.6,0.2-2,0.7s-0.6,1.3-0.6,2.4v4.5h-1.3
				V280h1.3v3.7c0,0.4,0,0.8-0.1,1.1h0.1c0.3-0.4,0.6-0.7,1.1-1c0.5-0.2,1-0.4,1.6-0.4c1,0,1.8,0.2,2.4,0.7c0.5,0.5,0.8,1.3,0.8,2.4
				v5.6L141.7,292.2L141.7,292.2z"/>
			<path class="st6" d="M153.1,287.9c0,1.4-0.4,2.5-1.1,3.3s-1.7,1.2-2.9,1.2c-0.8,0-1.4-0.2-2-0.5s-1.1-0.9-1.4-1.5
				s-0.5-1.5-0.5-2.4c0-1.4,0.3-2.5,1-3.3s1.7-1.2,2.9-1.2s2.1,0.4,2.9,1.2S153.1,286.5,153.1,287.9z M146.6,287.9
				c0,1.1,0.2,1.9,0.7,2.5c0.4,0.6,1.1,0.9,1.9,0.9s1.5-0.3,1.9-0.9s0.7-1.4,0.7-2.5s-0.2-1.9-0.7-2.5c-0.4-0.6-1.1-0.8-1.9-0.8
				s-1.5,0.3-1.9,0.8C146.8,285.9,146.6,286.8,146.6,287.9z"/>
			<path class="st6" d="M161.2,292.2v-5.5c0-0.7-0.2-1.2-0.5-1.6s-0.8-0.5-1.5-0.5c-0.9,0-1.6,0.2-2,0.7s-0.6,1.3-0.6,2.4v4.5h-1.3
				v-8.6h1.1l0.2,1.2h0.1c0.3-0.4,0.6-0.7,1.1-1c0.5-0.2,1-0.3,1.6-0.3c1,0,1.8,0.2,2.3,0.7s0.8,1.3,0.8,2.4v5.6L161.2,292.2
				L161.2,292.2z"/>
			<path class="st6" d="M168.8,292.3c-1.3,0-2.3-0.4-3-1.2c-0.7-0.8-1.1-1.8-1.1-3.2c0-1.4,0.3-2.5,1-3.3s1.6-1.2,2.7-1.2
				s1.9,0.4,2.5,1.1s0.9,1.6,0.9,2.8v0.8h-5.9c0,1,0.3,1.8,0.8,2.3s1.2,0.8,2,0.8c0.9,0,1.8-0.2,2.7-0.6v1.2
				c-0.5,0.2-0.9,0.3-1.3,0.4C169.7,292.3,169.4,292.3,168.8,292.3z M168.4,284.5c-0.7,0-1.2,0.2-1.6,0.7c-0.4,0.4-0.6,1.1-0.7,1.9
				h4.5c0-0.8-0.2-1.4-0.5-1.9C169.6,284.7,169.1,284.5,168.4,284.5z"/>
			<path class="st6" d="M179.7,289.8c0,0.8-0.3,1.4-0.9,1.8s-1.4,0.6-2.5,0.6s-2-0.2-2.7-0.5v-1.2c0.4,0.2,0.9,0.4,1.3,0.5
				c0.5,0.1,0.9,0.2,1.4,0.2c0.7,0,1.2-0.1,1.6-0.3c0.4-0.2,0.5-0.5,0.5-1c0-0.3-0.1-0.6-0.4-0.9c-0.3-0.2-0.9-0.5-1.7-0.8
				s-1.4-0.6-1.7-0.8c-0.3-0.2-0.6-0.5-0.8-0.8s-0.2-0.6-0.2-1c0-0.7,0.3-1.2,0.9-1.7c0.6-0.4,1.3-0.6,2.3-0.6
				c0.9,0,1.8,0.2,2.7,0.6L179,285c-0.9-0.4-1.6-0.5-2.3-0.5c-0.6,0-1.1,0.1-1.4,0.3c-0.3,0.2-0.5,0.5-0.5,0.8
				c0,0.2,0.1,0.4,0.2,0.6c0.1,0.2,0.3,0.3,0.6,0.5c0.3,0.1,0.8,0.4,1.5,0.6c1,0.4,1.7,0.7,2.1,1.1
				C179.6,288.8,179.7,289.3,179.7,289.8z"/>
			<path class="st6" d="M184.5,291.2c0.2,0,0.5,0,0.7-0.1c0.2,0,0.4-0.1,0.5-0.1v1c-0.1,0.1-0.3,0.1-0.6,0.2c-0.3,0-0.5,0.1-0.7,0.1
				c-1.7,0-2.5-0.9-2.5-2.6v-5.1h-1.2V284l1.2-0.5l0.5-1.8h0.8v2h2.5v1h-2.5v5c0,0.5,0.1,0.9,0.4,1.2
				C183.8,291.1,184.1,291.2,184.5,291.2z"/>
			<path class="st6" d="M196.8,292.2l-0.3-1.2h-0.1c-0.4,0.5-0.9,0.9-1.3,1.1c-0.4,0.2-1,0.3-1.6,0.3c-0.8,0-1.5-0.2-2-0.7
				s-0.7-1.1-0.7-1.9c0-1.7,1.4-2.6,4.1-2.7h1.5v-0.5c0-0.7-0.1-1.2-0.4-1.5s-0.8-0.5-1.4-0.5c-0.7,0-1.5,0.2-2.4,0.7l-0.4-1
				c0.4-0.2,0.9-0.4,1.4-0.5s1-0.2,1.5-0.2c1,0,1.8,0.2,2.3,0.7s0.7,1.2,0.7,2.2v5.8L196.8,292.2L196.8,292.2z M193.9,291.2
				c0.8,0,1.4-0.2,1.9-0.7c0.5-0.4,0.7-1.1,0.7-1.9v-0.8l-1.3,0.1c-1,0-1.8,0.2-2.2,0.5c-0.5,0.3-0.7,0.7-0.7,1.3
				c0,0.5,0.1,0.8,0.4,1.1C193,291.1,193.4,291.2,193.9,291.2z"/>
			<path class="st6" d="M204.5,283.5c1.1,0,2,0.4,2.6,1.2c0.6,0.8,0.9,1.9,0.9,3.3s-0.3,2.5-0.9,3.3c-0.6,0.8-1.5,1.2-2.6,1.2
				c-0.6,0-1.1-0.1-1.5-0.3c-0.5-0.2-0.8-0.5-1.2-0.9h-0.1l-0.3,1.1h-0.9v-12.2h1.3v3c0,0.7,0,1.3-0.1,1.8h0.1
				C202.4,283.9,203.3,283.5,204.5,283.5z M204.3,284.5c-0.9,0-1.5,0.3-1.9,0.8s-0.6,1.4-0.6,2.6s0.2,2.1,0.6,2.6s1,0.8,1.9,0.8
				c0.8,0,1.4-0.3,1.8-0.9c0.4-0.6,0.6-1.4,0.6-2.5s-0.2-1.9-0.6-2.5S205.1,284.5,204.3,284.5z"/>
			<path class="st6" d="M217.7,287.9c0,1.4-0.4,2.5-1.1,3.3c-0.7,0.8-1.7,1.2-2.9,1.2c-0.8,0-1.4-0.2-2-0.5s-1.1-0.9-1.4-1.5
				s-0.5-1.5-0.5-2.4c0-1.4,0.3-2.5,1-3.3s1.7-1.2,2.9-1.2s2.1,0.4,2.9,1.2S217.7,286.5,217.7,287.9z M211.2,287.9
				c0,1.1,0.2,1.9,0.7,2.5c0.4,0.6,1.1,0.9,1.9,0.9s1.5-0.3,1.9-0.9s0.7-1.4,0.7-2.5s-0.2-1.9-0.7-2.5c-0.4-0.6-1.1-0.8-1.9-0.8
				c-0.8,0-1.5,0.3-1.9,0.8C211.4,285.9,211.2,286.8,211.2,287.9z"/>
			<path class="st6" d="M221.2,283.6v5.6c0,0.7,0.2,1.2,0.5,1.6s0.8,0.5,1.5,0.5c0.9,0,1.6-0.2,2-0.7s0.6-1.3,0.6-2.4v-4.5h1.3v8.6
				H226l-0.2-1.1h-0.1c-0.3,0.4-0.6,0.7-1.1,1c-0.5,0.2-1,0.3-1.6,0.3c-1,0-1.8-0.2-2.3-0.7s-0.8-1.3-0.8-2.4v-5.6h1.3L221.2,283.6
				L221.2,283.6z"/>
			<path class="st6" d="M232.5,291.2c0.2,0,0.5,0,0.7-0.1c0.2,0,0.4-0.1,0.5-0.1v1c-0.1,0.1-0.3,0.1-0.6,0.2c-0.3,0-0.5,0.1-0.7,0.1
				c-1.7,0-2.5-0.9-2.5-2.6v-5.1h-1.2V284l1.2-0.5l0.5-1.8h0.8v2h2.5v1h-2.5v5c0,0.5,0.1,0.9,0.4,1.2
				C231.8,291.1,232.1,291.2,232.5,291.2z"/>
			<path class="st6" d="M238.2,283.6h1.4l1.9,4.9c0.4,1.1,0.7,1.9,0.8,2.4h0.1c0.1-0.3,0.2-0.7,0.4-1.4c0.2-0.6,0.9-2.6,2.1-5.9h1.4
				l-3.7,9.8c-0.4,1-0.8,1.6-1.3,2.1c-0.5,0.4-1.1,0.6-1.8,0.6c-0.4,0-0.8,0-1.2-0.1v-1c0.3,0.1,0.6,0.1,1,0.1
				c0.9,0,1.5-0.5,1.9-1.5l0.5-1.2L238.2,283.6z"/>
			<path class="st6" d="M255,287.9c0,1.4-0.4,2.5-1.1,3.3s-1.7,1.2-2.9,1.2c-0.8,0-1.4-0.2-2-0.5s-1.1-0.9-1.4-1.5s-0.5-1.5-0.5-2.4
				c0-1.4,0.3-2.5,1-3.3s1.7-1.2,2.9-1.2s2.1,0.4,2.9,1.2S255,286.5,255,287.9z M248.5,287.9c0,1.1,0.2,1.9,0.7,2.5
				c0.4,0.6,1.1,0.9,1.9,0.9s1.5-0.3,1.9-0.9s0.7-1.4,0.7-2.5s-0.2-1.9-0.7-2.5c-0.4-0.6-1.1-0.8-1.9-0.8s-1.5,0.3-1.9,0.8
				C248.7,285.9,248.5,286.8,248.5,287.9z"/>
			<path class="st6" d="M258.5,283.6v5.6c0,0.7,0.2,1.2,0.5,1.6s0.8,0.5,1.5,0.5c0.9,0,1.6-0.2,2-0.7s0.6-1.3,0.6-2.4v-4.5h1.3v8.6
				h-1.1l-0.2-1.1H263c-0.3,0.4-0.6,0.7-1.1,1c-0.5,0.2-1,0.3-1.6,0.3c-1,0-1.8-0.2-2.3-0.7s-0.8-1.3-0.8-2.4v-5.6h1.3V283.6
				L258.5,283.6z"/>
			<path class="st6" d="M271,283.4c0.4,0,0.7,0,1,0.1l-0.2,1.2c-0.4-0.1-0.7-0.1-0.9-0.1c-0.7,0-1.3,0.3-1.8,0.8s-0.7,1.3-0.7,2.1
				v4.6h-1.3v-8.6h1.1l0.1,1.6h0.1c0.3-0.6,0.7-1,1.1-1.3C270,283.6,270.5,283.4,271,283.4z"/>
			<path class="st6" d="M281.4,292.3c-1.3,0-2.3-0.4-3-1.2c-0.7-0.8-1.1-1.8-1.1-3.2c0-1.4,0.3-2.5,1-3.3s1.6-1.2,2.7-1.2
				s1.9,0.4,2.5,1.1s0.9,1.6,0.9,2.8v0.8h-5.9c0,1,0.3,1.8,0.8,2.3s1.2,0.8,2,0.8c0.9,0,1.8-0.2,2.7-0.6v1.2
				c-0.5,0.2-0.9,0.3-1.3,0.4S282,292.3,281.4,292.3z M281.1,284.5c-0.7,0-1.2,0.2-1.6,0.7c-0.4,0.4-0.6,1.1-0.7,1.9h4.5
				c0-0.8-0.2-1.4-0.5-1.9C282.3,284.7,281.8,284.5,281.1,284.5z"/>
			<path class="st6" d="M292.6,292.2v-5.5c0-0.7-0.2-1.2-0.5-1.6s-0.8-0.5-1.5-0.5c-0.9,0-1.6,0.2-2,0.7s-0.6,1.3-0.6,2.4v4.5h-1.3
				v-8.6h1.1l0.2,1.2h0.1c0.3-0.4,0.6-0.7,1.1-1c0.5-0.2,1-0.3,1.6-0.3c1,0,1.8,0.2,2.3,0.7s0.8,1.3,0.8,2.4v5.6L292.6,292.2
				L292.6,292.2z"/>
			<path class="st6" d="M299.4,291.2c0.2,0,0.5,0,0.7-0.1c0.2,0,0.4-0.1,0.5-0.1v1c-0.1,0.1-0.3,0.1-0.6,0.2c-0.3,0-0.5,0.1-0.7,0.1
				c-1.7,0-2.5-0.9-2.5-2.6v-5.1h-1.2V284l1.2-0.5l0.5-1.8h0.8v2h2.5v1h-2.5v5c0,0.5,0.1,0.9,0.4,1.2
				C298.6,291.1,298.9,291.2,299.4,291.2z"/>
			<path class="st6" d="M305.9,292.3c-1.3,0-2.3-0.4-3-1.2c-0.7-0.8-1.1-1.8-1.1-3.2c0-1.4,0.3-2.5,1-3.3s1.6-1.2,2.7-1.2
				s1.9,0.4,2.5,1.1s0.9,1.6,0.9,2.8v0.8H303c0,1,0.3,1.8,0.8,2.3s1.2,0.8,2,0.8c0.9,0,1.8-0.2,2.7-0.6v1.2
				c-0.5,0.2-0.9,0.3-1.3,0.4S306.4,292.3,305.9,292.3z M305.5,284.5c-0.7,0-1.2,0.2-1.6,0.7c-0.4,0.4-0.6,1.1-0.7,1.9h4.5
				c0-0.8-0.2-1.4-0.5-1.9C306.7,284.7,306.2,284.5,305.5,284.5z"/>
			<path class="st6" d="M315.1,283.4c0.4,0,0.7,0,1,0.1l-0.2,1.2c-0.4-0.1-0.7-0.1-0.9-0.1c-0.7,0-1.3,0.3-1.8,0.8s-0.7,1.3-0.7,2.1
				v4.6h-1.3v-8.6h1.1l0.1,1.6h0.1c0.3-0.6,0.7-1,1.1-1.3C314.1,283.6,314.6,283.4,315.1,283.4z"/>
			<path class="st6" d="M321.7,292.3c-0.6,0-1.1-0.1-1.5-0.3c-0.5-0.2-0.8-0.5-1.2-0.9h-0.1c0.1,0.5,0.1,1,0.1,1.4v3.5h-1.3v-12.4
				h1.1l0.2,1.2h0.1c0.3-0.5,0.7-0.8,1.2-1c0.4-0.2,1-0.3,1.5-0.3c1.1,0,2,0.4,2.6,1.2c0.6,0.8,0.9,1.9,0.9,3.3s-0.3,2.5-0.9,3.3
				C323.7,291.9,322.9,292.3,321.7,292.3z M321.6,284.5c-0.9,0-1.5,0.2-1.9,0.7s-0.6,1.3-0.6,2.3v0.3c0,1.2,0.2,2.1,0.6,2.6
				s1,0.8,1.9,0.8c0.7,0,1.3-0.3,1.7-0.9c0.4-0.6,0.6-1.4,0.6-2.5s-0.2-1.9-0.6-2.5S322.3,284.5,321.6,284.5z"/>
			<path class="st6" d="M331.5,283.4c0.4,0,0.7,0,1,0.1l-0.2,1.2c-0.4-0.1-0.7-0.1-0.9-0.1c-0.7,0-1.3,0.3-1.8,0.8s-0.7,1.3-0.7,2.1
				v4.6h-1.3v-8.6h1.1l0.1,1.6h0.1c0.3-0.6,0.7-1,1.1-1.3C330.4,283.6,330.9,283.4,331.5,283.4z"/>
			<path class="st6" d="M334,281.3c0-0.3,0.1-0.5,0.2-0.7c0.1-0.1,0.3-0.2,0.5-0.2s0.4,0.1,0.5,0.2s0.2,0.4,0.2,0.6
				c0,0.3-0.1,0.5-0.2,0.7c-0.2,0.1-0.3,0.2-0.5,0.2s-0.4-0.1-0.5-0.2S334,281.6,334,281.3z M335.4,292.2h-1.3v-8.6h1.3V292.2z"/>
			<path class="st6" d="M343.7,289.8c0,0.8-0.3,1.4-0.9,1.8s-1.4,0.6-2.5,0.6s-2-0.2-2.7-0.5v-1.2c0.4,0.2,0.9,0.4,1.3,0.5
				c0.5,0.1,0.9,0.2,1.4,0.2c0.7,0,1.2-0.1,1.6-0.3c0.4-0.2,0.5-0.5,0.5-1c0-0.3-0.1-0.6-0.4-0.9c-0.3-0.2-0.9-0.5-1.7-0.8
				c-0.8-0.3-1.4-0.6-1.7-0.8c-0.3-0.2-0.6-0.5-0.8-0.8s-0.2-0.6-0.2-1c0-0.7,0.3-1.2,0.9-1.7c0.6-0.4,1.3-0.6,2.3-0.6
				c0.9,0,1.8,0.2,2.7,0.6L343,285c-0.9-0.4-1.6-0.5-2.3-0.5c-0.6,0-1.1,0.1-1.4,0.3c-0.3,0.2-0.5,0.5-0.5,0.8
				c0,0.2,0.1,0.4,0.2,0.6s0.3,0.3,0.6,0.5c0.3,0.1,0.8,0.4,1.5,0.6c1,0.4,1.7,0.7,2.1,1.1S343.7,289.3,343.7,289.8z"/>
			<path class="st6" d="M349.4,292.3c-1.3,0-2.3-0.4-3-1.2c-0.7-0.8-1.1-1.8-1.1-3.2c0-1.4,0.3-2.5,1-3.3s1.6-1.2,2.7-1.2
				s1.9,0.4,2.5,1.1s0.9,1.6,0.9,2.8v0.8h-5.9c0,1,0.3,1.8,0.8,2.3s1.2,0.8,2,0.8c0.9,0,1.8-0.2,2.7-0.6v1.2
				c-0.5,0.2-0.9,0.3-1.3,0.4S350,292.3,349.4,292.3z M349,284.5c-0.7,0-1.2,0.2-1.6,0.7c-0.4,0.4-0.6,1.1-0.7,1.9h4.5
				c0-0.8-0.2-1.4-0.5-1.9C350.2,284.7,349.7,284.5,349,284.5z"/>
			<path class="st6" d="M365.9,292.2l-1.6-5c-0.1-0.3-0.3-1-0.6-2.1h-0.1c-0.2,0.9-0.4,1.6-0.5,2.1l-1.6,5H360l-2.3-8.6h1.4
				c0.6,2.2,1,3.8,1.3,4.9s0.5,1.9,0.5,2.3h0.1c0.1-0.3,0.1-0.7,0.3-1.2c0.1-0.5,0.2-0.8,0.3-1.1l1.6-4.9h1.4l1.5,4.9
				c0.3,0.9,0.5,1.6,0.6,2.3h0.1c0-0.2,0.1-0.5,0.2-0.9s0.6-2.5,1.6-6.3h1.3l-2.4,8.6L365.9,292.2L365.9,292.2z"/>
			<path class="st6" d="M377.2,292.2v-5.5c0-0.7-0.2-1.2-0.5-1.6s-0.8-0.5-1.5-0.5c-0.9,0-1.6,0.2-2,0.7s-0.6,1.3-0.6,2.4v4.5h-1.3
				V280h1.3v3.7c0,0.4,0,0.8-0.1,1.1h0.1c0.3-0.4,0.6-0.7,1.1-1c0.5-0.2,1-0.4,1.6-0.4c1,0,1.8,0.2,2.4,0.7c0.5,0.5,0.8,1.3,0.8,2.4
				v5.6L377.2,292.2L377.2,292.2z"/>
			<path class="st6" d="M384.8,292.3c-1.3,0-2.3-0.4-3-1.2c-0.7-0.8-1.1-1.8-1.1-3.2c0-1.4,0.3-2.5,1-3.3s1.6-1.2,2.7-1.2
				s1.9,0.4,2.5,1.1s0.9,1.6,0.9,2.8v0.8h-5.9c0,1,0.3,1.8,0.8,2.3s1.2,0.8,2,0.8c0.9,0,1.8-0.2,2.7-0.6v1.2
				c-0.5,0.2-0.9,0.3-1.3,0.4S385.4,292.3,384.8,292.3z M384.4,284.5c-0.7,0-1.2,0.2-1.6,0.7c-0.4,0.4-0.6,1.1-0.7,1.9h4.5
				c0-0.8-0.2-1.4-0.5-1.9C385.6,284.7,385.1,284.5,384.4,284.5z"/>
			<path class="st6" d="M396,292.2v-5.5c0-0.7-0.2-1.2-0.5-1.6s-0.8-0.5-1.5-0.5c-0.9,0-1.6,0.2-2,0.7s-0.6,1.3-0.6,2.4v4.5h-1.3
				v-8.6h1.1l0.2,1.2h0.1c0.3-0.4,0.6-0.7,1.1-1c0.5-0.2,1-0.3,1.6-0.3c1,0,1.8,0.2,2.3,0.7s0.8,1.3,0.8,2.4v5.6L396,292.2
				L396,292.2z"/>
			<path class="st6" d="M410,291L410,291c-0.7,0.9-1.6,1.3-2.8,1.3c-1.1,0-2-0.4-2.6-1.1s-0.9-1.9-0.9-3.3s0.3-2.5,0.9-3.3
				s1.5-1.2,2.6-1.2c1.2,0,2.1,0.4,2.7,1.3h0.1l-0.1-0.6v-0.6V280h1.3v12.2h-1.1L410,291z M407.4,291.2c0.9,0,1.5-0.2,1.9-0.7
				s0.6-1.3,0.6-2.3v-0.3c0-1.2-0.2-2.1-0.6-2.6s-1-0.8-1.9-0.8c-0.8,0-1.3,0.3-1.7,0.9c-0.4,0.6-0.6,1.4-0.6,2.5s0.2,1.9,0.6,2.5
				C406,291,406.6,291.2,407.4,291.2z"/>
			<path class="st6" d="M417.6,292.3c-1.3,0-2.3-0.4-3-1.2c-0.7-0.8-1.1-1.8-1.1-3.2c0-1.4,0.3-2.5,1-3.3s1.6-1.2,2.7-1.2
				s1.9,0.4,2.5,1.1s0.9,1.6,0.9,2.8v0.8h-5.9c0,1,0.3,1.8,0.8,2.3s1.2,0.8,2,0.8c0.9,0,1.8-0.2,2.7-0.6v1.2
				c-0.5,0.2-0.9,0.3-1.3,0.4S418.1,292.3,417.6,292.3z M417.2,284.5c-0.7,0-1.2,0.2-1.6,0.7c-0.4,0.4-0.6,1.1-0.7,1.9h4.5
				c0-0.8-0.2-1.4-0.5-1.9C418.4,284.7,417.9,284.5,417.2,284.5z"/>
			<path class="st6" d="M426.3,292.3c-1.2,0-2.2-0.4-2.9-1.1c-0.7-0.8-1-1.8-1-3.2c0-1.4,0.3-2.5,1-3.3s1.7-1.2,2.9-1.2
				c0.4,0,0.8,0,1.2,0.1c0.4,0.1,0.7,0.2,1,0.3l-0.4,1.1c-0.3-0.1-0.6-0.2-0.9-0.3c-0.3-0.1-0.6-0.1-0.9-0.1c-1.7,0-2.6,1.1-2.6,3.3
				c0,1.1,0.2,1.9,0.6,2.4s1.1,0.8,1.9,0.8c0.7,0,1.4-0.2,2.2-0.5v1.1C427.9,292.2,427.2,292.3,426.3,292.3z"/>
			<path class="st6" d="M430.4,281.3c0-0.3,0.1-0.5,0.2-0.7c0.1-0.1,0.3-0.2,0.5-0.2s0.4,0.1,0.5,0.2s0.2,0.4,0.2,0.6
				c0,0.3-0.1,0.5-0.2,0.7c-0.2,0.1-0.3,0.2-0.5,0.2s-0.4-0.1-0.5-0.2S430.4,281.6,430.4,281.3z M431.8,292.2h-1.3v-8.6h1.3V292.2z"
				/>
			<path class="st6" d="M440.4,291L440.4,291c-0.7,0.9-1.6,1.3-2.8,1.3c-1.1,0-2-0.4-2.6-1.1s-0.9-1.9-0.9-3.3s0.3-2.5,0.9-3.3
				s1.5-1.2,2.6-1.2c1.2,0,2.1,0.4,2.7,1.3h0.1l-0.1-0.6v-0.6V280h1.3v12.2h-1.1L440.4,291z M437.8,291.2c0.9,0,1.5-0.2,1.9-0.7
				s0.6-1.3,0.6-2.3v-0.3c0-1.2-0.2-2.1-0.6-2.6s-1-0.8-1.9-0.8c-0.8,0-1.3,0.3-1.7,0.9c-0.4,0.6-0.6,1.4-0.6,2.5s0.2,1.9,0.6,2.5
				C436.4,291,437,291.2,437.8,291.2z"/>
			<path class="st6" d="M444.3,281.3c0-0.3,0.1-0.5,0.2-0.7c0.1-0.1,0.3-0.2,0.5-0.2s0.4,0.1,0.5,0.2s0.2,0.4,0.2,0.6
				c0,0.3-0.1,0.5-0.2,0.7c-0.2,0.1-0.3,0.2-0.5,0.2s-0.4-0.1-0.5-0.2C444.3,281.8,444.3,281.6,444.3,281.3z M445.7,292.2h-1.3v-8.6
				h1.3V292.2z"/>
			<path class="st6" d="M454.3,292.2v-5.5c0-0.7-0.2-1.2-0.5-1.6s-0.8-0.5-1.5-0.5c-0.9,0-1.6,0.2-2,0.7s-0.6,1.3-0.6,2.4v4.5h-1.3
				v-8.6h1.1l0.2,1.2h0.1c0.3-0.4,0.6-0.7,1.1-1c0.5-0.2,1-0.3,1.6-0.3c1,0,1.8,0.2,2.3,0.7s0.8,1.3,0.8,2.4v5.6L454.3,292.2
				L454.3,292.2z"/>
			<path class="st6" d="M465.3,283.6v0.8l-1.6,0.2c0.1,0.2,0.3,0.4,0.4,0.7c0.1,0.3,0.2,0.6,0.2,1c0,0.8-0.3,1.5-0.9,2
				s-1.4,0.8-2.4,0.8c-0.3,0-0.5,0-0.7-0.1c-0.6,0.3-0.8,0.7-0.8,1.1c0,0.2,0.1,0.4,0.3,0.5c0.2,0.1,0.5,0.2,1,0.2h1.5
				c0.9,0,1.6,0.2,2.1,0.6s0.7,1,0.7,1.7c0,0.9-0.4,1.7-1.1,2.2c-0.8,0.5-1.9,0.7-3.3,0.7c-1.1,0-2-0.2-2.6-0.6s-0.9-1-0.9-1.8
				c0-0.5,0.2-1,0.5-1.4s0.8-0.6,1.4-0.8c-0.2-0.1-0.4-0.3-0.6-0.5c-0.1-0.2-0.2-0.4-0.2-0.7c0-0.3,0.1-0.6,0.2-0.8s0.4-0.5,0.8-0.7
				c-0.4-0.2-0.8-0.5-1.1-0.9s-0.4-0.9-0.4-1.5c0-0.9,0.3-1.7,0.8-2.2s1.4-0.8,2.4-0.8c0.4,0,0.9,0.1,1.2,0.2L465.3,283.6
				L465.3,283.6z M458.4,293.6c0,0.5,0.2,0.8,0.6,1.1c0.4,0.2,1,0.4,1.7,0.4c1.1,0,1.9-0.2,2.4-0.5s0.8-0.8,0.8-1.3s-0.1-0.8-0.4-1
				s-0.8-0.3-1.6-0.3h-1.6c-0.6,0-1,0.1-1.4,0.4S458.4,293.1,458.4,293.6z M459.1,286.3c0,0.6,0.2,1.1,0.5,1.4s0.8,0.5,1.4,0.5
				c1.3,0,1.9-0.6,1.9-1.8c0-1.3-0.6-1.9-1.9-1.9c-0.6,0-1.1,0.2-1.4,0.5S459.1,285.7,459.1,286.3z"/>
			<path class="st6" d="M478.6,287.9c0,1.4-0.4,2.5-1.1,3.3s-1.7,1.2-2.9,1.2c-0.8,0-1.4-0.2-2-0.5s-1.1-0.9-1.4-1.5
				s-0.5-1.5-0.5-2.4c0-1.4,0.3-2.5,1-3.3s1.7-1.2,2.9-1.2c1.2,0,2.1,0.4,2.9,1.2S478.6,286.5,478.6,287.9z M472,287.9
				c0,1.1,0.2,1.9,0.7,2.5c0.4,0.6,1.1,0.9,1.9,0.9s1.5-0.3,1.9-0.9s0.7-1.4,0.7-2.5s-0.2-1.9-0.7-2.5c-0.4-0.6-1.1-0.8-1.9-0.8
				s-1.5,0.3-1.9,0.8C472.3,285.9,472,286.8,472,287.9z"/>
			<path class="st6" d="M486.7,292.2v-5.5c0-0.7-0.2-1.2-0.5-1.6s-0.8-0.5-1.5-0.5c-0.9,0-1.6,0.2-2,0.7s-0.6,1.3-0.6,2.4v4.5h-1.3
				v-8.6h1.1l0.2,1.2h0.1c0.3-0.4,0.6-0.7,1.1-1c0.5-0.2,1-0.3,1.6-0.3c1,0,1.8,0.2,2.3,0.7s0.8,1.3,0.8,2.4v5.6L486.7,292.2
				L486.7,292.2z"/>
			<path class="st6" d="M500.1,292.2l-0.3-1.2h-0.1c-0.4,0.5-0.9,0.9-1.3,1.1s-1,0.3-1.6,0.3c-0.8,0-1.5-0.2-2-0.7s-0.7-1.1-0.7-1.9
				c0-1.7,1.4-2.6,4.1-2.7h1.5v-0.5c0-0.7-0.1-1.2-0.4-1.5s-0.8-0.5-1.4-0.5c-0.7,0-1.5,0.2-2.4,0.7l-0.4-1c0.4-0.2,0.9-0.4,1.4-0.5
				s1-0.2,1.5-0.2c1,0,1.8,0.2,2.3,0.7s0.7,1.2,0.7,2.2v5.8L500.1,292.2L500.1,292.2z M497.1,291.2c0.8,0,1.4-0.2,1.9-0.7
				c0.5-0.4,0.7-1.1,0.7-1.9v-0.8l-1.3,0.1c-1,0-1.8,0.2-2.2,0.5c-0.5,0.3-0.7,0.7-0.7,1.3c0,0.5,0.1,0.8,0.4,1.1
				C496.2,291.1,496.6,291.2,497.1,291.2z"/>
			<path class="st6" d="M511.8,283.4c0.4,0,0.7,0,1,0.1l-0.2,1.2c-0.4-0.1-0.7-0.1-0.9-0.1c-0.7,0-1.3,0.3-1.8,0.8s-0.7,1.3-0.7,2.1
				v4.6h-1.3v-8.6h1.1l0.1,1.6h0.1c0.3-0.6,0.7-1,1.1-1.3C510.7,283.6,511.2,283.4,511.8,283.4z"/>
			<path class="st6" d="M519.7,292.2l-0.3-1.2h-0.1c-0.4,0.5-0.9,0.9-1.3,1.1c-0.4,0.2-1,0.3-1.6,0.3c-0.8,0-1.5-0.2-2-0.7
				s-0.7-1.1-0.7-1.9c0-1.7,1.4-2.6,4.1-2.7h1.5v-0.5c0-0.7-0.1-1.2-0.4-1.5s-0.8-0.5-1.4-0.5c-0.7,0-1.5,0.2-2.4,0.7l-0.4-1
				c0.4-0.2,0.9-0.4,1.4-0.5s1-0.2,1.5-0.2c1,0,1.8,0.2,2.3,0.7s0.7,1.2,0.7,2.2v5.8L519.7,292.2L519.7,292.2z M516.7,291.2
				c0.8,0,1.4-0.2,1.9-0.7c0.5-0.4,0.7-1.1,0.7-1.9v-0.8l-1.3,0.1c-1,0-1.8,0.2-2.2,0.5c-0.5,0.3-0.7,0.7-0.7,1.3
				c0,0.5,0.1,0.8,0.4,1.1C515.8,291.1,516.2,291.2,516.7,291.2z"/>
			<path class="st6" d="M526.1,291.2c0.2,0,0.5,0,0.7-0.1c0.2,0,0.4-0.1,0.5-0.1v1c-0.1,0.1-0.3,0.1-0.6,0.2c-0.3,0-0.5,0.1-0.7,0.1
				c-1.7,0-2.5-0.9-2.5-2.6v-5.1h-1.2V284l1.2-0.5l0.5-1.8h0.8v2h2.5v1h-2.5v5c0,0.5,0.1,0.9,0.4,1.2
				C525.3,291.1,525.6,291.2,526.1,291.2z"/>
			<path class="st6" d="M528.8,281.3c0-0.3,0.1-0.5,0.2-0.7c0.1-0.1,0.3-0.2,0.5-0.2s0.4,0.1,0.5,0.2s0.2,0.4,0.2,0.6
				c0,0.3-0.1,0.5-0.2,0.7c-0.2,0.1-0.3,0.2-0.5,0.2s-0.4-0.1-0.5-0.2S528.8,281.6,528.8,281.3z M530.2,292.2h-1.3v-8.6h1.3V292.2z"
				/>
			<path class="st6" d="M538.8,292.2v-5.5c0-0.7-0.2-1.2-0.5-1.6s-0.8-0.5-1.5-0.5c-0.9,0-1.6,0.2-2,0.7s-0.6,1.3-0.6,2.4v4.5h-1.3
				v-8.6h1.1l0.2,1.2h0.1c0.3-0.4,0.6-0.7,1.1-1c0.5-0.2,1-0.3,1.6-0.3c1,0,1.8,0.2,2.3,0.7s0.8,1.3,0.8,2.4v5.6L538.8,292.2
				L538.8,292.2z"/>
			<path class="st6" d="M549.8,283.6v0.8l-1.6,0.2c0.1,0.2,0.3,0.4,0.4,0.7c0.1,0.3,0.2,0.6,0.2,1c0,0.8-0.3,1.5-0.9,2
				s-1.4,0.8-2.4,0.8c-0.3,0-0.5,0-0.7-0.1c-0.6,0.3-0.8,0.7-0.8,1.1c0,0.2,0.1,0.4,0.3,0.5s0.5,0.2,1,0.2h1.5
				c0.9,0,1.6,0.2,2.1,0.6s0.7,1,0.7,1.7c0,0.9-0.4,1.7-1.1,2.2c-0.8,0.5-1.9,0.7-3.3,0.7c-1.1,0-2-0.2-2.6-0.6s-0.9-1-0.9-1.8
				c0-0.5,0.2-1,0.5-1.4s0.8-0.6,1.4-0.8c-0.2-0.1-0.4-0.3-0.6-0.5c-0.1-0.2-0.2-0.4-0.2-0.7c0-0.3,0.1-0.6,0.2-0.8s0.4-0.5,0.8-0.7
				c-0.4-0.2-0.8-0.5-1.1-0.9s-0.4-0.9-0.4-1.5c0-0.9,0.3-1.7,0.8-2.2s1.4-0.8,2.4-0.8c0.4,0,0.9,0.1,1.2,0.2L549.8,283.6
				L549.8,283.6z M543,293.6c0,0.5,0.2,0.8,0.6,1.1c0.4,0.2,1,0.4,1.7,0.4c1.1,0,1.9-0.2,2.4-0.5s0.8-0.8,0.8-1.3s-0.1-0.8-0.4-1
				s-0.8-0.3-1.6-0.3h-1.6c-0.6,0-1,0.1-1.4,0.4S543,293.1,543,293.6z M543.7,286.3c0,0.6,0.2,1.1,0.5,1.4s0.8,0.5,1.4,0.5
				c1.3,0,1.9-0.6,1.9-1.8c0-1.3-0.6-1.9-1.9-1.9c-0.6,0-1.1,0.2-1.4,0.5S543.7,285.7,543.7,286.3z"/>
			<path class="st6" d="M551.4,291.3c0-0.3,0.1-0.6,0.2-0.8s0.4-0.3,0.7-0.3s0.5,0.1,0.7,0.3s0.3,0.4,0.3,0.8c0,0.3-0.1,0.6-0.3,0.8
				c-0.2,0.2-0.4,0.3-0.7,0.3s-0.5-0.1-0.7-0.2S551.4,291.7,551.4,291.3z"/>
			<path class="st6" d="M189.7,333.8c-1.3,0-2.2,0.4-3,1.3s-1.1,2-1.1,3.4c0,1.5,0.4,2.7,1.1,3.5s1.7,1.2,3,1.2
				c0.8,0,1.7-0.1,2.7-0.4v1.2c-0.8,0.3-1.8,0.4-2.9,0.4c-1.7,0-3-0.5-3.9-1.5s-1.4-2.5-1.4-4.4c0-1.2,0.2-2.2,0.7-3.1
				c0.4-0.9,1.1-1.6,1.9-2c0.8-0.5,1.8-0.7,2.9-0.7c1.2,0,2.2,0.2,3.1,0.7l-0.6,1.1C191.4,334,190.5,333.8,189.7,333.8z"/>
			<path class="st6" d="M196,344.2h-1.3V332h1.3V344.2z"/>
			<path class="st6" d="M198.6,333.3c0-0.3,0.1-0.5,0.2-0.7c0.1-0.1,0.3-0.2,0.5-0.2s0.4,0.1,0.5,0.2s0.2,0.4,0.2,0.6
				c0,0.3-0.1,0.5-0.2,0.7c-0.2,0.1-0.3,0.2-0.5,0.2s-0.4-0.1-0.5-0.2S198.6,333.6,198.6,333.3z M200,344.2h-1.3v-8.6h1.3V344.2z"/>
			<path class="st6" d="M206.2,344.3c-1.2,0-2.2-0.4-2.9-1.1c-0.7-0.8-1-1.8-1-3.2c0-1.4,0.3-2.5,1-3.3s1.7-1.2,2.9-1.2
				c0.4,0,0.8,0,1.2,0.1s0.7,0.2,1,0.3L208,337c-0.3-0.1-0.6-0.2-0.9-0.3c-0.3-0.1-0.6-0.1-0.9-0.1c-1.7,0-2.6,1.1-2.6,3.3
				c0,1.1,0.2,1.9,0.6,2.4c0.4,0.5,1.1,0.8,1.9,0.8c0.7,0,1.4-0.2,2.2-0.5v1.1C207.8,344.2,207.1,344.3,206.2,344.3z"/>
			<path class="st6" d="M211.7,339.8c0.2-0.3,0.6-0.7,1-1.2l2.8-2.9h1.5l-3.5,3.6l3.7,4.9h-1.6l-3-4l-1,0.8v3.2h-1.3V332h1.3v6.4
				C211.7,338.7,211.7,339.2,211.7,339.8L211.7,339.8z"/>
			<path class="st6" d="M230.3,339.9c0,1.4-0.4,2.5-1.1,3.3c-0.7,0.8-1.7,1.2-2.9,1.2c-0.8,0-1.4-0.2-2-0.5s-1.1-0.9-1.4-1.5
				s-0.5-1.5-0.5-2.4c0-1.4,0.3-2.5,1-3.3s1.7-1.2,2.9-1.2s2.1,0.4,2.9,1.2S230.3,338.5,230.3,339.9z M223.8,339.9
				c0,1.1,0.2,1.9,0.7,2.5c0.4,0.6,1.1,0.9,1.9,0.9s1.5-0.3,1.9-0.9s0.7-1.4,0.7-2.5s-0.2-1.9-0.7-2.5c-0.4-0.6-1.1-0.8-1.9-0.8
				c-0.8,0-1.5,0.3-1.9,0.8C224,337.9,223.8,338.8,223.8,339.9z"/>
			<path class="st6" d="M238.5,344.2v-5.5c0-0.7-0.2-1.2-0.5-1.6s-0.8-0.5-1.5-0.5c-0.9,0-1.6,0.2-2,0.7s-0.6,1.3-0.6,2.4v4.5h-1.3
				v-8.6h1.1l0.2,1.2h0.1c0.3-0.4,0.6-0.7,1.1-1c0.5-0.2,1-0.3,1.6-0.3c1,0,1.8,0.2,2.3,0.7s0.8,1.3,0.8,2.4v5.6L238.5,344.2
				L238.5,344.2z"/>
			<path class="st6" d="M249.4,343.2c0.2,0,0.5,0,0.7-0.1c0.2,0,0.4-0.1,0.5-0.1v1c-0.1,0.1-0.3,0.1-0.6,0.2c-0.3,0-0.5,0.1-0.7,0.1
				c-1.7,0-2.5-0.9-2.5-2.6v-5.1h-1.2V336l1.2-0.5l0.5-1.8h0.8v2h2.5v1h-2.5v5c0,0.5,0.1,0.9,0.4,1.2
				C248.6,343.1,248.9,343.2,249.4,343.2z"/>
			<path class="st6" d="M258.1,344.2v-5.5c0-0.7-0.2-1.2-0.5-1.6s-0.8-0.5-1.5-0.5c-0.9,0-1.6,0.2-2,0.7s-0.6,1.3-0.6,2.4v4.5h-1.3
				V332h1.3v3.7c0,0.4,0,0.8-0.1,1.1h0.1c0.3-0.4,0.6-0.7,1.1-1c0.5-0.2,1-0.4,1.6-0.4c1,0,1.8,0.2,2.4,0.7c0.5,0.5,0.8,1.3,0.8,2.4
				v5.6L258.1,344.2L258.1,344.2z"/>
			<path class="st6" d="M265.7,344.3c-1.3,0-2.3-0.4-3-1.2c-0.7-0.8-1.1-1.8-1.1-3.2c0-1.4,0.3-2.5,1-3.3s1.6-1.2,2.7-1.2
				s1.9,0.4,2.5,1.1s0.9,1.6,0.9,2.8v0.8h-5.9c0,1,0.3,1.8,0.8,2.3s1.2,0.8,2,0.8c0.9,0,1.8-0.2,2.7-0.6v1.2
				c-0.5,0.2-0.9,0.3-1.3,0.4S266.3,344.3,265.7,344.3z M265.3,336.5c-0.7,0-1.2,0.2-1.6,0.7c-0.4,0.4-0.6,1.1-0.7,1.9h4.5
				c0-0.8-0.2-1.4-0.5-1.9C266.5,336.7,266,336.5,265.3,336.5z"/>
			<path class="st6" d="M324.8,336.6h-2.2v7.6h-1.3v-7.6h-1.5V336l1.5-0.5V335c0-2.1,0.9-3.2,2.8-3.2c0.5,0,1,0.1,1.6,0.3l-0.3,1
				c-0.5-0.2-0.9-0.2-1.3-0.2c-0.5,0-0.9,0.2-1.1,0.5s-0.4,0.8-0.4,1.6v0.6h2.2L324.8,336.6L324.8,336.6z"/>
			<path class="st6" d="M333.7,339.9c0,1.4-0.4,2.5-1.1,3.3s-1.7,1.2-2.9,1.2c-0.8,0-1.4-0.2-2-0.5s-1.1-0.9-1.4-1.5
				s-0.5-1.5-0.5-2.4c0-1.4,0.3-2.5,1-3.3s1.7-1.2,2.9-1.2c1.2,0,2.1,0.4,2.9,1.2S333.7,338.5,333.7,339.9z M327.2,339.9
				c0,1.1,0.2,1.9,0.7,2.5c0.4,0.6,1.1,0.9,1.9,0.9s1.5-0.3,1.9-0.9s0.7-1.4,0.7-2.5s-0.2-1.9-0.7-2.5c-0.4-0.6-1.1-0.8-1.9-0.8
				s-1.5,0.3-1.9,0.8C327.4,337.9,327.2,338.8,327.2,339.9z"/>
			<path class="st6" d="M339.9,335.4c0.4,0,0.7,0,1,0.1l-0.2,1.2c-0.4-0.1-0.7-0.1-0.9-0.1c-0.7,0-1.3,0.3-1.8,0.8s-0.7,1.3-0.7,2.1
				v4.6H336v-8.6h1.1l0.1,1.6h0.1c0.3-0.6,0.7-1,1.1-1.3C338.9,335.6,339.4,335.4,339.9,335.4z"/>
			<path class="st6" d="M357.6,344.2v-5.6c0-0.7-0.1-1.2-0.4-1.5s-0.7-0.5-1.4-0.5c-0.8,0-1.4,0.2-1.8,0.7s-0.6,1.2-0.6,2.1v4.8
				h-1.3v-5.6c0-0.7-0.1-1.2-0.4-1.5s-0.7-0.5-1.4-0.5c-0.8,0-1.4,0.2-1.8,0.7s-0.6,1.3-0.6,2.4v4.5h-1.3v-8.6h1.1l0.2,1.2h0.1
				c0.2-0.4,0.6-0.7,1-1s0.9-0.4,1.5-0.4c1.3,0,2.2,0.5,2.6,1.5h0.1c0.3-0.4,0.6-0.8,1.1-1.1c0.5-0.3,1-0.4,1.7-0.4
				c1,0,1.7,0.2,2.2,0.7s0.7,1.3,0.7,2.4v5.6L357.6,344.2L357.6,344.2z"/>
			<path class="st6" d="M369,339.9c0,1.4-0.4,2.5-1.1,3.3s-1.7,1.2-2.9,1.2c-0.8,0-1.4-0.2-2-0.5s-1.1-0.9-1.4-1.5s-0.5-1.5-0.5-2.4
				c0-1.4,0.3-2.5,1-3.3s1.7-1.2,2.9-1.2c1.2,0,2.1,0.4,2.9,1.2S369,338.5,369,339.9z M362.4,339.9c0,1.1,0.2,1.9,0.7,2.5
				c0.4,0.6,1.1,0.9,1.9,0.9s1.5-0.3,1.9-0.9s0.7-1.4,0.7-2.5s-0.2-1.9-0.7-2.5c-0.4-0.6-1.1-0.8-1.9-0.8s-1.5,0.3-1.9,0.8
				S362.4,338.8,362.4,339.9z"/>
			<path class="st6" d="M375.1,335.4c0.4,0,0.7,0,1,0.1l-0.2,1.2c-0.4-0.1-0.7-0.1-0.9-0.1c-0.7,0-1.3,0.3-1.8,0.8s-0.7,1.3-0.7,2.1
				v4.6h-1.3v-8.6h1.1l0.1,1.6h0.1c0.3-0.6,0.7-1,1.1-1.3C374.1,335.6,374.6,335.4,375.1,335.4z"/>
			<path class="st6" d="M381.4,344.3c-1.3,0-2.3-0.4-3-1.2c-0.7-0.8-1.1-1.8-1.1-3.2c0-1.4,0.3-2.5,1-3.3s1.6-1.2,2.7-1.2
				s1.9,0.4,2.5,1.1s0.9,1.6,0.9,2.8v0.8h-5.9c0,1,0.3,1.8,0.8,2.3s1.2,0.8,2,0.8c0.9,0,1.8-0.2,2.7-0.6v1.2
				c-0.5,0.2-0.9,0.3-1.3,0.4S382,344.3,381.4,344.3z M381,336.5c-0.7,0-1.2,0.2-1.6,0.7c-0.4,0.4-0.6,1.1-0.7,1.9h4.5
				c0-0.8-0.2-1.4-0.5-1.9C382.2,336.7,381.7,336.5,381,336.5z"/>
			<path class="st6" d="M390.8,333.3c0-0.3,0.1-0.5,0.2-0.7c0.1-0.1,0.3-0.2,0.5-0.2s0.4,0.1,0.5,0.2s0.2,0.4,0.2,0.6
				c0,0.3-0.1,0.5-0.2,0.7c-0.2,0.1-0.3,0.2-0.5,0.2s-0.4-0.1-0.5-0.2S390.8,333.6,390.8,333.3z M392.2,344.2h-1.3v-8.6h1.3V344.2z"
				/>
			<path class="st6" d="M400.8,344.2v-5.5c0-0.7-0.2-1.2-0.5-1.6s-0.8-0.5-1.5-0.5c-0.9,0-1.6,0.2-2,0.7s-0.6,1.3-0.6,2.4v4.5h-1.3
				v-8.6h1.1l0.2,1.2h0.1c0.3-0.4,0.6-0.7,1.1-1c0.5-0.2,1-0.3,1.6-0.3c1,0,1.8,0.2,2.3,0.7s0.8,1.3,0.8,2.4v5.6L400.8,344.2
				L400.8,344.2z"/>
			<path class="st6" d="M408.6,336.6h-2.2v7.6h-1.3v-7.6h-1.5V336l1.5-0.5V335c0-2.1,0.9-3.2,2.8-3.2c0.5,0,1,0.1,1.6,0.3l-0.3,1
				c-0.5-0.2-0.9-0.2-1.3-0.2c-0.5,0-0.9,0.2-1.1,0.5s-0.4,0.8-0.4,1.6v0.6h2.2L408.6,336.6L408.6,336.6z"/>
			<path class="st6" d="M417.6,339.9c0,1.4-0.4,2.5-1.1,3.3s-1.7,1.2-2.9,1.2c-0.8,0-1.4-0.2-2-0.5s-1.1-0.9-1.4-1.5
				s-0.5-1.5-0.5-2.4c0-1.4,0.3-2.5,1-3.3s1.7-1.2,2.9-1.2c1.2,0,2.1,0.4,2.9,1.2S417.6,338.5,417.6,339.9z M411.1,339.9
				c0,1.1,0.2,1.9,0.7,2.5c0.4,0.6,1.1,0.9,1.9,0.9s1.5-0.3,1.9-0.9s0.7-1.4,0.7-2.5s-0.2-1.9-0.7-2.5c-0.4-0.6-1.1-0.8-1.9-0.8
				s-1.5,0.3-1.9,0.8C411.3,337.9,411.1,338.8,411.1,339.9z"/>
			<path class="st6" d="M423.8,335.4c0.4,0,0.7,0,1,0.1l-0.2,1.2c-0.4-0.1-0.7-0.1-0.9-0.1c-0.7,0-1.3,0.3-1.8,0.8s-0.7,1.3-0.7,2.1
				v4.6h-1.3v-8.6h1.1l0.1,1.6h0.1c0.3-0.6,0.7-1,1.1-1.3C422.7,335.6,423.2,335.4,423.8,335.4z"/>
			<path class="st6" d="M437.3,344.2v-5.6c0-0.7-0.1-1.2-0.4-1.5s-0.7-0.5-1.4-0.5c-0.8,0-1.4,0.2-1.8,0.7s-0.6,1.2-0.6,2.1v4.8
				h-1.3v-5.6c0-0.7-0.1-1.2-0.4-1.5s-0.7-0.5-1.4-0.5c-0.8,0-1.4,0.2-1.8,0.7s-0.6,1.3-0.6,2.4v4.5h-1.3v-8.6h1.1l0.2,1.2h0.1
				c0.2-0.4,0.6-0.7,1-1s0.9-0.4,1.5-0.4c1.3,0,2.2,0.5,2.6,1.5h0.1c0.3-0.4,0.6-0.8,1.1-1.1c0.5-0.3,1-0.4,1.7-0.4
				c1,0,1.7,0.2,2.2,0.7s0.7,1.3,0.7,2.4v5.6L437.3,344.2L437.3,344.2z"/>
			<path class="st6" d="M446.5,344.2l-0.3-1.2h-0.1c-0.4,0.5-0.9,0.9-1.3,1.1s-1,0.3-1.6,0.3c-0.8,0-1.5-0.2-2-0.7s-0.7-1.1-0.7-1.9
				c0-1.7,1.4-2.6,4.1-2.7h1.5v-0.5c0-0.7-0.1-1.2-0.4-1.5s-0.8-0.5-1.4-0.5c-0.7,0-1.5,0.2-2.4,0.7l-0.4-1c0.4-0.2,0.9-0.4,1.4-0.5
				s1-0.2,1.5-0.2c1,0,1.8,0.2,2.3,0.7s0.7,1.2,0.7,2.2v5.8L446.5,344.2L446.5,344.2z M443.6,343.2c0.8,0,1.4-0.2,1.9-0.7
				c0.5-0.4,0.7-1.1,0.7-1.9v-0.8l-1.3,0.1c-1,0-1.8,0.2-2.2,0.5c-0.5,0.3-0.7,0.7-0.7,1.3c0,0.5,0.1,0.8,0.4,1.1
				C442.7,343.1,443.1,343.2,443.6,343.2z"/>
			<path class="st6" d="M452.9,343.2c0.2,0,0.5,0,0.7-0.1c0.2,0,0.4-0.1,0.5-0.1v1c-0.1,0.1-0.3,0.1-0.6,0.2c-0.3,0-0.5,0.1-0.7,0.1
				c-1.7,0-2.5-0.9-2.5-2.6v-5.1h-1.2V336l1.2-0.5l0.5-1.8h0.8v2h2.5v1h-2.5v5c0,0.5,0.1,0.9,0.4,1.2
				C452.2,343.1,452.5,343.2,452.9,343.2z"/>
			<path class="st6" d="M455.7,333.3c0-0.3,0.1-0.5,0.2-0.7c0.1-0.1,0.3-0.2,0.5-0.2s0.4,0.1,0.5,0.2s0.2,0.4,0.2,0.6
				c0,0.3-0.1,0.5-0.2,0.7c-0.2,0.1-0.3,0.2-0.5,0.2s-0.4-0.1-0.5-0.2S455.7,333.6,455.7,333.3z M457.1,344.2h-1.3v-8.6h1.3V344.2z"
				/>
			<path class="st6" d="M467.3,339.9c0,1.4-0.4,2.5-1.1,3.3s-1.7,1.2-2.9,1.2c-0.8,0-1.4-0.2-2-0.5s-1.1-0.9-1.4-1.5
				s-0.5-1.5-0.5-2.4c0-1.4,0.3-2.5,1-3.3s1.7-1.2,2.9-1.2c1.2,0,2.1,0.4,2.9,1.2S467.3,338.5,467.3,339.9z M460.7,339.9
				c0,1.1,0.2,1.9,0.7,2.5c0.4,0.6,1.1,0.9,1.9,0.9s1.5-0.3,1.9-0.9s0.7-1.4,0.7-2.5s-0.2-1.9-0.7-2.5c-0.4-0.6-1.1-0.8-1.9-0.8
				s-1.5,0.3-1.9,0.8C460.9,337.9,460.7,338.8,460.7,339.9z"/>
			<path class="st6" d="M475.4,344.2v-5.5c0-0.7-0.2-1.2-0.5-1.6s-0.8-0.5-1.5-0.5c-0.9,0-1.6,0.2-2,0.7s-0.6,1.3-0.6,2.4v4.5h-1.3
				v-8.6h1.1l0.2,1.2h0.1c0.3-0.4,0.6-0.7,1.1-1c0.5-0.2,1-0.3,1.6-0.3c1,0,1.8,0.2,2.3,0.7s0.8,1.3,0.8,2.4v5.6L475.4,344.2
				L475.4,344.2z"/>
			<path class="st6" d="M479.2,343.3c0-0.3,0.1-0.6,0.2-0.8s0.4-0.3,0.7-0.3c0.3,0,0.5,0.1,0.7,0.3s0.3,0.4,0.3,0.8
				c0,0.3-0.1,0.6-0.3,0.8c-0.2,0.2-0.4,0.3-0.7,0.3c-0.3,0-0.5-0.1-0.7-0.2S479.2,343.7,479.2,343.3z"/>
		</g>
		<g>
			<circle class="st7" cx="296.4" cy="339.7" r="16"/>
			<g>
				<path class="st6" d="M295.7,342.7v-0.6c0-0.8,0.1-1.5,0.4-2s0.7-1.1,1.4-1.7c1-0.8,1.6-1.4,1.8-1.8c0.2-0.4,0.4-0.9,0.4-1.5
					c0-0.7-0.2-1.3-0.7-1.7c-0.5-0.4-1.1-0.6-2-0.6c-0.6,0-1.1,0.1-1.6,0.2s-1.1,0.4-1.8,0.7l-0.6-1.4c1.3-0.7,2.7-1,4.2-1
					c1.3,0,2.4,0.3,3.1,1s1.1,1.6,1.1,2.8c0,0.5-0.1,1-0.2,1.4s-0.3,0.8-0.6,1.1c-0.3,0.3-0.8,0.9-1.7,1.7c-0.7,0.6-1.2,1.1-1.4,1.5
					c-0.2,0.4-0.3,0.9-0.3,1.6v0.3H295.7z M295.2,345.9c0-1,0.4-1.4,1.3-1.4c0.4,0,0.7,0.1,0.9,0.4c0.2,0.2,0.3,0.6,0.3,1.1
					c0,0.4-0.1,0.8-0.3,1s-0.5,0.4-0.9,0.4s-0.7-0.1-0.9-0.3C295.3,346.7,295.2,346.4,295.2,345.9z"/>
			</g>
		</g>
	</g>
</g>
</svg>
