<!-- Generator: Adobe Illustrator 24.1.0, SVG Export Plug-In  -->
<svg version="1.1" xmlns="http://www.w3.org/2000/svg" xmlns:xlink="http://www.w3.org/1999/xlink" x="0px" y="0px" width="515.6px"
	 height="515.6px" viewBox="0 0 515.6 515.6" style="enable-background:new 0 0 515.6 515.6;" xml:space="preserve">
<style type="text/css">
	.st0{fill:#E8ECEE;}
	.st1{fill:#E3E8EB;}
	.st2{fill:#EBEEF0;}
	.st3{fill:#31506D;}
	.st4{fill:#192642;}
	.st5{fill:#FFFFFF;}
</style>
<defs>
</defs>
<rect x="53.3" y="1.8" class="st0" width="231.1" height="229.4"/>
<path class="st1" d="M513.1,231.1H284.5V1.9h208.6c11,0,20,9,20,20V231.1z"/>
<rect x="53.3" y="231.1" class="st1" width="231.1" height="231.1"/>
<rect x="284.5" y="231.1" class="st2" width="228.7" height="231.1"/>
<path class="st3" d="M284.5,462.3v53.3H71.1c-9.8,0-17.8-8-17.8-17.8v-35.6H284.5z"/>
<path class="st4" d="M515.6,284.5v213.4c0,9.8-8,17.8-17.8,17.8H284.5v-53.3h228.7V284.5H515.6z"/>
<path class="st3" d="M53.3,231.2v231.1H17.8c-9.8,0-17.8-8-17.8-17.8V231.2H53.3z"/>
<path class="st4" d="M231.1,0v1.8H53.3v229.4H0V17.8C0,8,8,0,17.8,0H231.1z"/>
<g>
	<g>
		<path class="st5" d="M31,139.4l-3.7,1.3v5.1l3.7,1.3v2.3l-13.5-5v-2.4l13.5-5V139.4z M25.4,141.3l-3.7,1.3
			c-0.2,0.1-0.6,0.2-1.2,0.4c-0.5,0.2-0.9,0.3-1.2,0.3c0.8,0.2,1.6,0.4,2.5,0.7l3.5,1.2V141.3z"/>
		<path class="st5" d="M31,133.4v2.2H16.7v-2.2H31z"/>
		<path class="st5" d="M18.1,130.4c-0.4,0-0.7-0.1-0.9-0.3c-0.2-0.2-0.3-0.5-0.3-0.9c0-0.4,0.1-0.7,0.3-0.9s0.5-0.3,0.9-0.3
			c0.4,0,0.7,0.1,0.9,0.3s0.3,0.5,0.3,0.9c0,0.4-0.1,0.7-0.3,0.9C18.8,130.3,18.5,130.4,18.1,130.4z M31,128.1v2.2H20.8v-2.2H31z"/>
		<path class="st5" d="M20.8,116.5H22l0.3,1.7c0.2-0.2,0.5-0.3,0.8-0.4s0.6-0.2,1-0.2c1,0,1.9,0.4,2.5,1.1c0.6,0.7,0.9,1.7,0.9,3
			c0,0.3,0,0.6-0.1,0.9c0.3,0.5,0.6,0.7,1,0.7c0.2,0,0.4-0.1,0.5-0.3c0.1-0.2,0.2-0.6,0.2-1.2V120c0-1.1,0.2-2,0.7-2.6
			c0.5-0.6,1.2-0.9,2.1-0.9c1.2,0,2,0.5,2.7,1.4c0.6,0.9,0.9,2.3,0.9,4.1c0,1.4-0.2,2.4-0.7,3.2c-0.5,0.7-1.2,1.1-2.1,1.1
			c-0.6,0-1.1-0.2-1.6-0.6c-0.4-0.4-0.7-0.9-0.9-1.7c-0.1,0.3-0.3,0.5-0.6,0.7c-0.3,0.2-0.6,0.3-0.9,0.3c-0.4,0-0.7-0.1-1-0.3
			c-0.3-0.2-0.5-0.5-0.8-1c-0.2,0.5-0.6,1-1.1,1.3c-0.5,0.3-1.1,0.5-1.8,0.5c-1.1,0-2-0.3-2.6-1c-0.6-0.7-0.9-1.7-0.9-3
			c0-0.3,0-0.6,0.1-0.9c0-0.3,0.1-0.6,0.1-0.7V116.5z M24.1,123.5c0.6,0,1.1-0.2,1.5-0.5c0.3-0.3,0.5-0.8,0.5-1.4
			c0-1.2-0.7-1.9-2-1.9c-0.7,0-1.2,0.2-1.5,0.5c-0.4,0.3-0.5,0.8-0.5,1.4c0,0.6,0.2,1.1,0.5,1.4C22.9,123.4,23.4,123.5,24.1,123.5z
			 M32.6,124.5c0.5,0,0.8-0.2,1.1-0.6c0.3-0.4,0.4-1,0.4-1.8c0-1.2-0.2-2.1-0.5-2.6c-0.3-0.6-0.8-0.9-1.3-0.9
			c-0.4,0-0.8,0.2-0.9,0.5c-0.2,0.3-0.3,0.9-0.3,1.8v1.6c0,0.6,0.1,1.1,0.4,1.5S32.1,124.5,32.6,124.5z"/>
		<path class="st5" d="M31,105.6v2.2h-6.2c-0.8,0-1.4,0.2-1.8,0.5c-0.4,0.3-0.6,0.8-0.6,1.5c0,0.9,0.3,1.6,0.8,2s1.4,0.6,2.7,0.6H31
			v2.2H20.8v-1.7l1.3-0.3v-0.1c-0.5-0.3-0.9-0.7-1.1-1.3s-0.4-1.2-0.4-1.9c0-2.4,1.2-3.7,3.7-3.7H31z"/>
		<path class="st5" d="M31.2,98.2c0,1.6-0.5,2.8-1.4,3.7s-2.2,1.3-3.8,1.3c-1.7,0-3-0.4-3.9-1.2s-1.4-2-1.4-3.4
			c0-1.3,0.4-2.4,1.2-3.2c0.8-0.8,1.9-1.2,3.4-1.2h1.2v6.8c1,0,1.7-0.3,2.3-0.8c0.5-0.5,0.8-1.2,0.8-2.1c0-0.6-0.1-1.2-0.2-1.7
			s-0.3-1.1-0.6-1.7h1.8c0.3,0.5,0.4,1.1,0.5,1.6C31.1,96.9,31.2,97.5,31.2,98.2z M22.3,98.6c0,0.7,0.2,1.2,0.7,1.6s1.1,0.7,1.9,0.7
			v-4.6c-0.8,0-1.5,0.2-1.9,0.6C22.5,97.4,22.3,97.9,22.3,98.6z"/>
		<path class="st5" d="M31.2,88.4c0,1.3-0.5,2.3-1.4,3c-0.9,0.7-2.2,1.1-3.9,1.1c-1.7,0-3-0.4-3.9-1.1s-1.4-1.7-1.4-3
			c0-1.3,0.5-2.4,1.5-3v-0.1c-0.7,0.1-1.3,0.2-1.7,0.2h-3.7v-2.2H31v1.7l-1.3,0.4v0.1C30.7,86,31.2,87,31.2,88.4z M29.4,87.8
			c0-0.9-0.2-1.5-0.7-1.9c-0.5-0.4-1.3-0.6-2.4-0.6h-0.3c-1.3,0-2.2,0.2-2.7,0.6c-0.5,0.4-0.8,1.1-0.8,2c0,0.8,0.3,1.3,0.9,1.8
			c0.6,0.4,1.5,0.6,2.6,0.6c1.1,0,2-0.2,2.6-0.6S29.4,88.6,29.4,87.8z"/>
	</g>
</g>
<g>
	<g>
		<path class="st5" d="M31,387v2.7l-10.7,6.6v0.1l0.6,0c1.1-0.1,2.2-0.1,3.1-0.1h7v2H17.5v-2.7l10.6-6.6v-0.1c-0.1,0-0.7,0-1.5,0.1
			c-0.9,0-1.6,0.1-2.1,0.1h-7v-2H31z"/>
		<path class="st5" d="M25.9,374.6c1.7,0,3,0.4,3.9,1.3s1.4,2,1.4,3.6c0,1-0.2,1.8-0.6,2.5c-0.4,0.7-1,1.3-1.8,1.7
			c-0.8,0.4-1.7,0.6-2.8,0.6c-1.6,0-2.9-0.4-3.9-1.3c-0.9-0.8-1.4-2-1.4-3.6c0-1.5,0.5-2.6,1.4-3.5C23,375.1,24.3,374.6,25.9,374.6z
			 M25.9,382c2.3,0,3.5-0.9,3.5-2.6c0-1.7-1.2-2.6-3.5-2.6c-2.3,0-3.5,0.9-3.5,2.6c0,0.9,0.3,1.6,0.9,2S24.8,382,25.9,382z"/>
		<path class="st5" d="M29.4,368.4c0-0.5-0.1-1.1-0.2-1.6h1.6c0.1,0.2,0.2,0.5,0.3,0.9s0.1,0.8,0.1,1.2c0,2-1.1,3.1-3.2,3.1h-5.5
			v1.4h-1l-0.8-1.5l-2.2-0.7v-1.3h2.3v-2.9h1.6v2.9h5.4c0.5,0,0.9-0.1,1.2-0.4S29.4,368.8,29.4,368.4z"/>
		<path class="st5" d="M31,351.3l-3.7,1.3v5.1l3.7,1.3v2.3l-13.5-5V354l13.5-5V351.3z M25.4,353.2l-3.7,1.3
			c-0.2,0.1-0.6,0.2-1.2,0.4c-0.5,0.2-0.9,0.3-1.2,0.3c0.8,0.2,1.6,0.4,2.5,0.7l3.5,1.2V353.2z"/>
		<path class="st5" d="M31,345.3v2.2H16.7v-2.2H31z"/>
		<path class="st5" d="M18.1,342.3c-0.4,0-0.7-0.1-0.9-0.3c-0.2-0.2-0.3-0.5-0.3-0.9c0-0.4,0.1-0.7,0.3-0.9c0.2-0.2,0.5-0.3,0.9-0.3
			c0.4,0,0.7,0.1,0.9,0.3c0.2,0.2,0.3,0.5,0.3,0.9c0,0.4-0.1,0.7-0.3,0.9C18.8,342.2,18.5,342.3,18.1,342.3z M31,340v2.2H20.8V340
			H31z"/>
		<path class="st5" d="M20.8,328.4H22l0.3,1.7c0.2-0.2,0.5-0.3,0.8-0.4c0.3-0.1,0.6-0.2,1-0.2c1,0,1.9,0.4,2.5,1.1
			c0.6,0.7,0.9,1.7,0.9,3c0,0.3,0,0.6-0.1,0.9c0.3,0.5,0.6,0.7,1,0.7c0.2,0,0.4-0.1,0.5-0.3c0.1-0.2,0.2-0.6,0.2-1.2v-1.8
			c0-1.1,0.2-2,0.7-2.6c0.5-0.6,1.2-0.9,2.1-0.9c1.2,0,2,0.5,2.7,1.4c0.6,0.9,0.9,2.3,0.9,4.1c0,1.4-0.2,2.4-0.7,3.2
			s-1.2,1.1-2.1,1.1c-0.6,0-1.1-0.2-1.6-0.6c-0.4-0.4-0.7-0.9-0.9-1.7c-0.1,0.3-0.3,0.5-0.6,0.7c-0.3,0.2-0.6,0.3-0.9,0.3
			c-0.4,0-0.7-0.1-1-0.3c-0.3-0.2-0.5-0.5-0.8-1c-0.2,0.5-0.6,1-1.1,1.3c-0.5,0.3-1.1,0.5-1.8,0.5c-1.1,0-2-0.3-2.6-1
			c-0.6-0.7-0.9-1.7-0.9-3c0-0.3,0-0.6,0.1-0.9c0-0.3,0.1-0.6,0.1-0.7V328.4z M24.1,335.4c0.6,0,1.1-0.2,1.5-0.5
			c0.3-0.3,0.5-0.8,0.5-1.4c0-1.2-0.7-1.9-2-1.9c-0.7,0-1.2,0.2-1.5,0.5c-0.4,0.3-0.5,0.8-0.5,1.4c0,0.6,0.2,1.1,0.5,1.4
			C22.9,335.3,23.4,335.4,24.1,335.4z M32.6,336.3c0.5,0,0.8-0.2,1.1-0.6c0.3-0.4,0.4-1,0.4-1.8c0-1.2-0.2-2.1-0.5-2.6
			c-0.3-0.6-0.8-0.9-1.3-0.9c-0.4,0-0.8,0.2-0.9,0.5c-0.2,0.3-0.3,0.9-0.3,1.8v1.6c0,0.6,0.1,1.1,0.4,1.5S32.1,336.3,32.6,336.3z"/>
		<path class="st5" d="M31,317.5v2.2h-6.2c-0.8,0-1.4,0.2-1.8,0.5c-0.4,0.3-0.6,0.8-0.6,1.5c0,0.9,0.3,1.6,0.8,2s1.4,0.6,2.7,0.6H31
			v2.2H20.8v-1.7l1.3-0.3v-0.1c-0.5-0.3-0.9-0.7-1.1-1.3s-0.4-1.2-0.4-1.9c0-2.4,1.2-3.7,3.7-3.7H31z"/>
		<path class="st5" d="M31.2,310.1c0,1.6-0.5,2.8-1.4,3.7c-0.9,0.9-2.2,1.3-3.8,1.3c-1.7,0-3-0.4-3.9-1.2s-1.4-2-1.4-3.4
			c0-1.3,0.4-2.4,1.2-3.2s1.9-1.2,3.4-1.2h1.2v6.8c1,0,1.7-0.3,2.3-0.8s0.8-1.2,0.8-2.1c0-0.6-0.1-1.2-0.2-1.7s-0.3-1.1-0.6-1.7h1.8
			c0.3,0.5,0.4,1.1,0.5,1.6S31.2,309.4,31.2,310.1z M22.3,310.5c0,0.7,0.2,1.2,0.7,1.6c0.4,0.4,1.1,0.7,1.9,0.7v-4.6
			c-0.8,0-1.5,0.2-1.9,0.6C22.5,309.3,22.3,309.8,22.3,310.5z"/>
		<path class="st5" d="M31.2,300.3c0,1.3-0.5,2.3-1.4,3c-0.9,0.7-2.2,1.1-3.9,1.1c-1.7,0-3-0.4-3.9-1.1s-1.4-1.7-1.4-3
			c0-1.3,0.5-2.4,1.5-3.1v-0.1c-0.7,0.1-1.3,0.2-1.7,0.2h-3.7v-2.2H31v1.7l-1.3,0.4v0.1C30.7,297.9,31.2,298.9,31.2,300.3z
			 M29.4,299.7c0-0.9-0.2-1.5-0.7-1.9c-0.5-0.4-1.3-0.6-2.4-0.6h-0.3c-1.3,0-2.2,0.2-2.7,0.6c-0.5,0.4-0.8,1.1-0.8,2
			c0,0.8,0.3,1.3,0.9,1.8c0.6,0.4,1.5,0.6,2.6,0.6c1.1,0,2-0.2,2.6-0.6S29.4,300.5,29.4,299.7z"/>
	</g>
</g>
<g>
	<g>
		<path class="st5" d="M128.7,495.4H126l-6.6-10.7h-0.1l0,0.6c0.1,1.1,0.1,2.2,0.1,3.1v7h-2V482h2.7l6.6,10.6h0.1
			c0-0.1,0-0.7-0.1-1.5c0-0.9-0.1-1.6-0.1-2.1v-7h2V495.4z"/>
		<path class="st5" d="M141,490.3c0,1.7-0.4,3-1.3,3.9c-0.9,0.9-2,1.4-3.6,1.4c-1,0-1.8-0.2-2.5-0.6c-0.7-0.4-1.3-1-1.7-1.8
			c-0.4-0.8-0.6-1.7-0.6-2.8c0-1.6,0.4-2.9,1.3-3.9c0.8-0.9,2-1.4,3.6-1.4c1.5,0,2.6,0.5,3.5,1.4C140.6,487.4,141,488.7,141,490.3z
			 M133.6,490.3c0,2.3,0.9,3.5,2.6,3.5c1.7,0,2.6-1.2,2.6-3.5c0-2.3-0.9-3.5-2.6-3.5c-0.9,0-1.6,0.3-2,0.9
			C133.8,488.3,133.6,489.2,133.6,490.3z"/>
		<path class="st5" d="M147.3,493.8c0.5,0,1.1-0.1,1.6-0.2v1.6c-0.2,0.1-0.5,0.2-0.9,0.3s-0.8,0.1-1.2,0.1c-2,0-3.1-1.1-3.1-3.2
			v-5.5h-1.4v-1l1.5-0.8l0.7-2.2h1.3v2.3h2.9v1.6h-2.9v5.4c0,0.5,0.1,0.9,0.4,1.2C146.5,493.7,146.8,493.8,147.3,493.8z"/>
		<path class="st5" d="M164.3,495.4l-1.3-3.7h-5.1l-1.3,3.7h-2.3l5-13.5h2.4l5,13.5H164.3z M162.4,489.8l-1.3-3.7
			c-0.1-0.2-0.2-0.6-0.4-1.2c-0.2-0.5-0.3-0.9-0.3-1.2c-0.2,0.8-0.4,1.6-0.7,2.5l-1.2,3.5H162.4z"/>
		<path class="st5" d="M170.4,495.4h-2.2v-14.3h2.2V495.4z"/>
		<path class="st5" d="M173.3,482.5c0-0.4,0.1-0.7,0.3-0.9c0.2-0.2,0.5-0.3,0.9-0.3c0.4,0,0.7,0.1,0.9,0.3c0.2,0.2,0.3,0.5,0.3,0.9
			c0,0.4-0.1,0.7-0.3,0.9c-0.2,0.2-0.5,0.3-0.9,0.3c-0.4,0-0.7-0.1-0.9-0.3C173.4,483.2,173.3,482.9,173.3,482.5z M175.6,495.4h-2.2
			v-10.2h2.2V495.4z"/>
		<path class="st5" d="M187.3,485.2v1.2l-1.7,0.3c0.2,0.2,0.3,0.5,0.4,0.8c0.1,0.3,0.2,0.6,0.2,1c0,1-0.4,1.9-1.1,2.5
			c-0.7,0.6-1.7,0.9-3,0.9c-0.3,0-0.6,0-0.9-0.1c-0.5,0.3-0.7,0.6-0.7,1c0,0.2,0.1,0.4,0.3,0.5c0.2,0.1,0.6,0.2,1.2,0.2h1.8
			c1.1,0,2,0.2,2.6,0.7s0.9,1.2,0.9,2.1c0,1.2-0.5,2-1.4,2.7c-0.9,0.6-2.3,0.9-4.1,0.9c-1.4,0-2.4-0.2-3.2-0.7
			c-0.7-0.5-1.1-1.2-1.1-2.1c0-0.6,0.2-1.1,0.6-1.6s0.9-0.7,1.7-0.9c-0.3-0.1-0.5-0.3-0.7-0.6c-0.2-0.3-0.3-0.6-0.3-0.9
			c0-0.4,0.1-0.7,0.3-1c0.2-0.3,0.5-0.5,1-0.8c-0.5-0.2-1-0.6-1.3-1.1c-0.3-0.5-0.5-1.1-0.5-1.8c0-1.1,0.3-2,1-2.6s1.7-0.9,3-0.9
			c0.3,0,0.6,0,0.9,0.1c0.3,0,0.6,0.1,0.7,0.1H187.3z M179.3,497c0,0.5,0.2,0.8,0.6,1.1c0.4,0.3,1,0.4,1.8,0.4
			c1.2,0,2.1-0.2,2.6-0.5c0.6-0.3,0.9-0.8,0.9-1.3c0-0.4-0.2-0.8-0.5-0.9c-0.3-0.2-0.9-0.3-1.8-0.3h-1.6c-0.6,0-1.1,0.1-1.5,0.4
			C179.5,496.1,179.3,496.5,179.3,497z M180.2,488.5c0,0.6,0.2,1.1,0.5,1.5c0.3,0.3,0.8,0.5,1.4,0.5c1.2,0,1.9-0.7,1.9-2
			c0-0.7-0.2-1.2-0.5-1.5c-0.3-0.4-0.8-0.5-1.4-0.5c-0.6,0-1.1,0.2-1.4,0.5C180.4,487.3,180.2,487.8,180.2,488.5z"/>
		<path class="st5" d="M198.1,495.4h-2.2v-6.2c0-0.8-0.2-1.4-0.5-1.8c-0.3-0.4-0.8-0.6-1.5-0.6c-0.9,0-1.6,0.3-2,0.8
			c-0.4,0.5-0.6,1.4-0.6,2.7v5.1h-2.2v-10.2h1.7l0.3,1.3h0.1c0.3-0.5,0.7-0.9,1.3-1.1c0.6-0.3,1.2-0.4,1.9-0.4
			c2.4,0,3.7,1.2,3.7,3.7V495.4z"/>
		<path class="st5" d="M205.5,495.6c-1.6,0-2.8-0.5-3.7-1.4c-0.9-0.9-1.3-2.2-1.3-3.8c0-1.7,0.4-3,1.2-3.9c0.8-0.9,2-1.4,3.4-1.4
			c1.3,0,2.4,0.4,3.2,1.2c0.8,0.8,1.2,1.9,1.2,3.4v1.2h-6.8c0,1,0.3,1.7,0.8,2.3c0.5,0.5,1.2,0.8,2.1,0.8c0.6,0,1.2-0.1,1.7-0.2
			s1.1-0.3,1.7-0.6v1.8c-0.5,0.3-1.1,0.4-1.6,0.5C206.9,495.5,206.2,495.6,205.5,495.6z M205.1,486.7c-0.7,0-1.2,0.2-1.7,0.7
			c-0.4,0.4-0.7,1.1-0.7,1.9h4.6c0-0.8-0.2-1.5-0.6-1.9C206.4,486.9,205.8,486.7,205.1,486.7z"/>
		<path class="st5" d="M215.4,495.6c-1.3,0-2.3-0.5-3-1.4s-1.1-2.2-1.1-3.9c0-1.7,0.4-3,1.1-3.9c0.7-0.9,1.7-1.4,3-1.4
			c1.3,0,2.4,0.5,3.1,1.5h0.1c-0.1-0.7-0.2-1.3-0.2-1.7v-3.7h2.2v14.3h-1.7l-0.4-1.3h-0.1C217.7,495.1,216.7,495.6,215.4,495.6z
			 M216,493.8c0.9,0,1.5-0.2,1.9-0.7s0.6-1.3,0.6-2.4v-0.3c0-1.3-0.2-2.2-0.6-2.7c-0.4-0.5-1.1-0.8-2-0.8c-0.8,0-1.3,0.3-1.8,0.9
			c-0.4,0.6-0.6,1.5-0.6,2.6c0,1.1,0.2,2,0.6,2.6C214.6,493.5,215.2,493.8,216,493.8z"/>
	</g>
</g>
<g>
	<g>
		<path class="st5" d="M376.2,495.4l-1.3-3.7h-5.1l-1.3,3.7h-2.3l5-13.5h2.4l5,13.5H376.2z M374.3,489.8l-1.3-3.7
			c-0.1-0.2-0.2-0.6-0.4-1.2c-0.2-0.5-0.3-0.9-0.3-1.2c-0.2,0.8-0.4,1.6-0.7,2.5l-1.2,3.5H374.3z"/>
		<path class="st5" d="M382.3,495.4h-2.2v-14.3h2.2V495.4z"/>
		<path class="st5" d="M385.2,482.5c0-0.4,0.1-0.7,0.3-0.9c0.2-0.2,0.5-0.3,0.9-0.3c0.4,0,0.7,0.1,0.9,0.3c0.2,0.2,0.3,0.5,0.3,0.9
			c0,0.4-0.1,0.7-0.3,0.9c-0.2,0.2-0.5,0.3-0.9,0.3c-0.4,0-0.7-0.1-0.9-0.3C385.3,483.2,385.2,482.9,385.2,482.5z M387.5,495.4h-2.2
			v-10.2h2.2V495.4z"/>
		<path class="st5" d="M399.2,485.2v1.2l-1.7,0.3c0.2,0.2,0.3,0.5,0.4,0.8s0.2,0.6,0.2,1c0,1-0.4,1.9-1.1,2.5
			c-0.7,0.6-1.7,0.9-3,0.9c-0.3,0-0.6,0-0.9-0.1c-0.5,0.3-0.7,0.6-0.7,1c0,0.2,0.1,0.4,0.3,0.5s0.6,0.2,1.2,0.2h1.8
			c1.1,0,2,0.2,2.6,0.7s0.9,1.2,0.9,2.1c0,1.2-0.5,2-1.4,2.7c-0.9,0.6-2.3,0.9-4.1,0.9c-1.4,0-2.4-0.2-3.2-0.7
			c-0.7-0.5-1.1-1.2-1.1-2.1c0-0.6,0.2-1.1,0.6-1.6c0.4-0.4,0.9-0.7,1.7-0.9c-0.3-0.1-0.5-0.3-0.7-0.6s-0.3-0.6-0.3-0.9
			c0-0.4,0.1-0.7,0.3-1c0.2-0.3,0.5-0.5,1-0.8c-0.5-0.2-1-0.6-1.3-1.1c-0.3-0.5-0.5-1.1-0.5-1.8c0-1.1,0.3-2,1-2.6s1.7-0.9,3-0.9
			c0.3,0,0.6,0,0.9,0.1c0.3,0,0.6,0.1,0.7,0.1H399.2z M391.2,497c0,0.5,0.2,0.8,0.6,1.1s1,0.4,1.8,0.4c1.2,0,2.1-0.2,2.6-0.5
			s0.9-0.8,0.9-1.3c0-0.4-0.2-0.8-0.5-0.9c-0.3-0.2-0.9-0.3-1.8-0.3h-1.6c-0.6,0-1.1,0.1-1.5,0.4C391.4,496.1,391.2,496.5,391.2,497
			z M392.1,488.5c0,0.6,0.2,1.1,0.5,1.5c0.3,0.3,0.8,0.5,1.4,0.5c1.2,0,1.9-0.7,1.9-2c0-0.7-0.2-1.2-0.5-1.5s-0.8-0.5-1.4-0.5
			c-0.6,0-1.1,0.2-1.4,0.5S392.1,487.8,392.1,488.5z"/>
		<path class="st5" d="M410,495.4h-2.2v-6.2c0-0.8-0.2-1.4-0.5-1.8c-0.3-0.4-0.8-0.6-1.5-0.6c-0.9,0-1.6,0.3-2,0.8
			c-0.4,0.5-0.6,1.4-0.6,2.7v5.1H401v-10.2h1.7l0.3,1.3h0.1c0.3-0.5,0.7-0.9,1.3-1.1c0.6-0.3,1.2-0.4,1.9-0.4c2.4,0,3.7,1.2,3.7,3.7
			V495.4z"/>
		<path class="st5" d="M417.4,495.6c-1.6,0-2.8-0.5-3.7-1.4s-1.3-2.2-1.3-3.8c0-1.7,0.4-3,1.2-3.9c0.8-0.9,2-1.4,3.4-1.4
			c1.3,0,2.4,0.4,3.2,1.2c0.8,0.8,1.2,1.9,1.2,3.4v1.2h-6.8c0,1,0.3,1.7,0.8,2.3c0.5,0.5,1.2,0.8,2.1,0.8c0.6,0,1.2-0.1,1.7-0.2
			s1.1-0.3,1.7-0.6v1.8c-0.5,0.3-1.1,0.4-1.6,0.5C418.7,495.5,418.1,495.6,417.4,495.6z M417,486.7c-0.7,0-1.2,0.2-1.6,0.7
			c-0.4,0.4-0.7,1.1-0.7,1.9h4.6c0-0.8-0.2-1.5-0.6-1.9S417.7,486.7,417,486.7z"/>
		<path class="st5" d="M427.3,495.6c-1.3,0-2.3-0.5-3-1.4s-1.1-2.2-1.1-3.9c0-1.7,0.4-3,1.1-3.9c0.7-0.9,1.7-1.4,3-1.4
			c1.3,0,2.4,0.5,3.1,1.5h0.1c-0.1-0.7-0.2-1.3-0.2-1.7v-3.7h2.2v14.3h-1.7l-0.4-1.3h-0.1C429.6,495.1,428.6,495.6,427.3,495.6z
			 M427.8,493.8c0.9,0,1.5-0.2,1.9-0.7s0.6-1.3,0.6-2.4v-0.3c0-1.3-0.2-2.2-0.6-2.7s-1.1-0.8-2-0.8c-0.8,0-1.3,0.3-1.8,0.9
			c-0.4,0.6-0.6,1.5-0.6,2.6c0,1.1,0.2,2,0.6,2.6C426.4,493.5,427,493.8,427.8,493.8z"/>
	</g>
</g>
<path class="st4" d="M515.6,464.8h-5V20.3c0-8.4-6.8-15.3-15.3-15.3h-444V0h444c11.2,0,20.3,9.1,20.3,20.3V464.8z"/>
</svg>
