<?xml version="1.0" encoding="utf-8"?>
<!-- Generator: Adobe Illustrator 24.1.2, SVG Export Plug-In . SVG Version: 6.00 Build 0)  -->
<svg version="1.1" id="Layer_1" xmlns="http://www.w3.org/2000/svg" xmlns:xlink="http://www.w3.org/1999/xlink" x="0px" y="0px"
	 viewBox="0 0 204.6 46" style="enable-background:new 0 0 204.6 46;" xml:space="preserve">
<style type="text/css">
	.st0{fill:#192642;}
	.st1{fill:none;stroke:#002147;stroke-width:1.5;stroke-linecap:round;stroke-miterlimit:10;}
</style>
<g>
	<path class="st0" d="M51.3,16.9c-1.1,0-1.9,0.4-2.5,1.1s-0.9,1.8-0.9,3.1c0,1.4,0.3,2.5,0.9,3.2c0.6,0.7,1.4,1.1,2.6,1.1
		c0.5,0,1,0,1.4-0.1s0.9-0.2,1.4-0.4v1.6c-0.9,0.3-1.9,0.5-3,0.5c-1.7,0-3-0.5-3.9-1.5S46,23,46,21.2c0-1.2,0.2-2.2,0.7-3.1
		s1.1-1.6,1.9-2c0.8-0.5,1.8-0.7,2.9-0.7c1.2,0,2.2,0.2,3.2,0.7L54,17.7c-0.4-0.2-0.8-0.3-1.2-0.5S51.8,16.9,51.3,16.9z"/>
	<path class="st0" d="M61.8,26.9l-0.4-1.2h-0.1c-0.4,0.5-0.8,0.9-1.3,1.1s-1,0.3-1.6,0.3c-0.8,0-1.5-0.2-2-0.7s-0.6-1.1-0.6-1.9
		c0-0.9,0.3-1.6,1-2s1.7-0.7,3-0.7h1.5v-0.5c0-0.6-0.1-1-0.4-1.2s-0.7-0.4-1.2-0.4c-0.4,0-0.9,0.1-1.3,0.2s-0.8,0.3-1.2,0.5
		l-0.6-1.3c0.5-0.2,1-0.4,1.5-0.6s1.1-0.2,1.6-0.2c1.1,0,1.9,0.2,2.5,0.7s0.8,1.2,0.8,2.3v5.8h-1.2V26.9z M59.1,25.7
		c0.7,0,1.2-0.2,1.6-0.6s0.6-0.9,0.6-1.6v-0.8h-1.1c-0.9,0-1.5,0.2-1.9,0.4s-0.6,0.7-0.6,1.2c0,0.4,0.1,0.7,0.3,0.9
		S58.6,25.7,59.1,25.7z"/>
	<path class="st0" d="M70.1,27.1c-1.1,0-1.9-0.4-2.5-1.2h-0.1c0.1,0.7,0.1,1.2,0.1,1.3v3.5h-1.8V18.3h1.5c0,0.2,0.1,0.5,0.3,1.2h0.1
		c0.6-0.9,1.4-1.3,2.6-1.3c1.1,0,1.9,0.4,2.5,1.2s0.9,1.9,0.9,3.3s-0.3,2.5-0.9,3.3S71.2,27.1,70.1,27.1z M69.6,19.6
		c-0.7,0-1.3,0.2-1.6,0.6s-0.5,1.1-0.5,2v0.3c0,1.1,0.2,1.8,0.5,2.3c0.3,0.5,0.9,0.7,1.6,0.7c0.6,0,1.1-0.3,1.5-0.8s0.5-1.3,0.5-2.2
		c0-1-0.2-1.7-0.5-2.2S70.3,19.6,69.6,19.6z"/>
	<path class="st0" d="M78.9,25.6c0.4,0,0.9-0.1,1.3-0.2v1.4C80,26.9,79.7,27,79.4,27s-0.7,0.1-1,0.1c-1.7,0-2.6-0.9-2.6-2.8v-4.7
		h-1.2v-0.8l1.3-0.7l0.6-1.8h1.1v1.9h2.5v1.4h-2.5v4.6c0,0.4,0.1,0.8,0.3,1C78.1,25.4,78.5,25.6,78.9,25.6z"/>
	<path class="st0" d="M88,26.9l-0.2-1.1h-0.1c-0.3,0.4-0.6,0.7-1.1,0.9S85.6,27,85,27c-1,0-1.8-0.3-2.3-0.8s-0.8-1.3-0.8-2.4v-5.6
		h1.9v5.3c0,0.7,0.1,1.2,0.4,1.5s0.7,0.5,1.3,0.5c0.8,0,1.3-0.2,1.7-0.7s0.5-1.2,0.5-2.3v-4.3h1.8v8.6L88,26.9L88,26.9z"/>
	<path class="st0" d="M96.5,18.1c0.4,0,0.7,0,0.9,0.1l-0.2,1.7c-0.3-0.1-0.5-0.1-0.8-0.1c-0.7,0-1.3,0.2-1.8,0.7s-0.7,1.1-0.7,1.9
		v4.5h-1.8v-8.6h1.4l0.2,1.5h0.1c0.3-0.5,0.7-0.9,1.1-1.2S96,18.1,96.5,18.1z"/>
	<path class="st0" d="M102.8,27.1c-1.3,0-2.4-0.4-3.2-1.2s-1.1-1.9-1.1-3.2c0-1.4,0.4-2.5,1.1-3.3s1.7-1.2,2.9-1.2
		c1.1,0,2,0.3,2.7,1s1,1.6,1,2.9v1h-5.8c0,0.8,0.3,1.5,0.7,1.9s1,0.7,1.8,0.7c0.5,0,1,0,1.4-0.1s0.9-0.3,1.4-0.5v1.5
		c-0.4,0.2-0.9,0.4-1.4,0.5S103.4,27.1,102.8,27.1z M102.4,19.5c-0.6,0-1.1,0.2-1.4,0.6s-0.6,0.9-0.6,1.6h3.9c0-0.7-0.2-1.3-0.5-1.6
		S103,19.5,102.4,19.5z"/>
	<path class="st0" d="M119.3,18.1c0.4,0,0.7,0,0.9,0.1l-0.2,1.7c-0.3-0.1-0.5-0.1-0.8-0.1c-0.7,0-1.3,0.2-1.8,0.7s-0.7,1.1-0.7,1.9
		v4.5h-1.8v-8.6h1.4l0.2,1.5h0.1c0.3-0.5,0.7-0.9,1.1-1.2S118.8,18.1,119.3,18.1z"/>
	<path class="st0" d="M125.6,27.1c-1.3,0-2.4-0.4-3.2-1.2s-1.1-1.9-1.1-3.2c0-1.4,0.4-2.5,1.1-3.3s1.7-1.2,2.9-1.2
		c1.1,0,2,0.3,2.7,1c0.7,0.7,1,1.6,1,2.9v1h-5.8c0,0.8,0.3,1.5,0.7,1.9s1,0.7,1.8,0.7c0.5,0,1,0,1.4-0.1s0.9-0.3,1.4-0.5v1.5
		c-0.4,0.2-0.9,0.4-1.4,0.5S126.2,27.1,125.6,27.1z M125.3,19.5c-0.6,0-1.1,0.2-1.4,0.6s-0.6,0.9-0.6,1.6h3.9c0-0.7-0.2-1.3-0.5-1.6
		S125.9,19.5,125.3,19.5z"/>
	<path class="st0" d="M136.9,24.5c0,0.8-0.3,1.5-0.9,1.9s-1.5,0.7-2.6,0.7c-1.2,0-2.1-0.2-2.8-0.5V25c1,0.5,2,0.7,2.8,0.7
		c1.1,0,1.7-0.3,1.7-1c0-0.2-0.1-0.4-0.2-0.5s-0.3-0.3-0.6-0.5s-0.7-0.3-1.2-0.5c-1-0.4-1.7-0.8-2-1.2s-0.5-0.9-0.5-1.5
		c0-0.7,0.3-1.3,0.9-1.7c0.6-0.4,1.4-0.6,2.4-0.6s2,0.2,2.9,0.6l-0.6,1.4c-0.9-0.4-1.7-0.6-2.4-0.6c-1,0-1.5,0.3-1.5,0.8
		c0,0.3,0.1,0.5,0.4,0.7s0.8,0.4,1.7,0.8c0.7,0.3,1.2,0.5,1.6,0.8s0.6,0.5,0.7,0.8S136.9,24.1,136.9,24.5z"/>
	<path class="st0" d="M144.9,26.9l-0.3-1.1h-0.1c-0.3,0.4-0.6,0.7-1.1,0.9s-1,0.3-1.6,0.3c-1,0-1.8-0.3-2.3-0.8s-0.7-1.2-0.7-2.3
		v-5.6h1.9v5.3c0,0.7,0.1,1.2,0.4,1.5s0.7,0.5,1.3,0.5c0.8,0,1.3-0.2,1.7-0.7s0.5-1.2,0.5-2.3v-4.3h1.8v8.6H144.9z"/>
	<path class="st0" d="M150.8,26.9H149V14.8h1.8V26.9z"/>
	<path class="st0" d="M156.7,25.6c0.4,0,0.9-0.1,1.3-0.2v1.4c-0.2,0.1-0.5,0.2-0.8,0.2s-0.7,0.1-1,0.1c-1.7,0-2.6-0.9-2.6-2.8v-4.7
		h-1.2v-0.8l1.3-0.7l0.6-1.8h1.1v1.9h2.5v1.4h-2.5v4.6c0,0.4,0.1,0.8,0.3,1S156.3,25.6,156.7,25.6z"/>
</g>
<path class="st1" d="M181.3,45H22.7C10.4,45,0.4,35,0.4,22.7l0,0c0-12.3,10-22.3,22.3-22.3h158.6c12.3,0,22.3,10,22.3,22.3l0,0
	C203.5,35,193.6,45,181.3,45z"/>
</svg>
