<!-- Generator: Adobe Illustrator 24.1.0, SVG Export Plug-In  -->
<svg version="1.1" xmlns="http://www.w3.org/2000/svg" xmlns:xlink="http://www.w3.org/1999/xlink" x="0px" y="0px" width="41.4px"
	 height="41.4px" viewBox="0 0 41.4 41.4" style="enable-background:new 0 0 41.4 41.4;" xml:space="preserve">
<style type="text/css">
	.st0{fill:#FFFFFF;stroke:#002147;stroke-width:1.5;stroke-linecap:round;stroke-miterlimit:10;}
	.st1{fill:#002147;}
</style>
<defs>
</defs>
<g>
	<circle class="st0" cx="20.7" cy="20.7" r="20"/>
	<g>
		<path class="st1" d="M19.8,24.4v-0.7c0-1,0.2-1.9,0.5-2.5c0.3-0.7,0.9-1.4,1.8-2.1c1.2-1,1.9-1.8,2.3-2.3c0.3-0.5,0.5-1.1,0.5-1.8
			c0-0.9-0.3-1.6-0.9-2.1c-0.6-0.5-1.4-0.7-2.5-0.7c-0.7,0-1.4,0.1-2,0.2c-0.7,0.2-1.4,0.5-2.3,0.9l-0.8-1.8
			c1.7-0.9,3.4-1.3,5.2-1.3c1.7,0,3,0.4,3.9,1.2c0.9,0.8,1.4,2,1.4,3.5c0,0.6-0.1,1.2-0.3,1.7c-0.2,0.5-0.4,0.9-0.8,1.4
			c-0.3,0.4-1.1,1.1-2.2,2.1c-0.9,0.8-1.5,1.4-1.8,1.9c-0.3,0.5-0.4,1.2-0.4,2v0.4H19.8z M19.1,28.4c0-1.2,0.5-1.8,1.6-1.8
			c0.5,0,0.9,0.2,1.2,0.5s0.4,0.8,0.4,1.3c0,0.6-0.1,1-0.4,1.3c-0.3,0.3-0.7,0.5-1.2,0.5c-0.5,0-0.8-0.1-1.1-0.4
			C19.3,29.5,19.1,29,19.1,28.4z"/>
	</g>
</g>
</svg>
