<!-- Generator: Adobe Illustrator 24.1.0, SVG Export Plug-In  -->
<svg version="1.1" xmlns="http://www.w3.org/2000/svg" xmlns:xlink="http://www.w3.org/1999/xlink" x="0px" y="0px" width="108.6px"
	 height="37.1px" viewBox="0 0 108.6 37.1" style="enable-background:new 0 0 108.6 37.1;" xml:space="preserve">
<style type="text/css">
	.st0{fill:#FFFFFF;}
</style>
<defs>
</defs>
<g>
	<path class="st0" d="M0,0.9h4c1.9,0,3.2,0.3,4,0.8c0.8,0.5,1.2,1.4,1.2,2.6c0,0.8-0.2,1.4-0.6,2s-1,0.8-1.7,1v0.1
		C7.8,7.4,8.5,7.8,9,8.3s0.7,1.2,0.7,2.1c0,1.2-0.4,2.2-1.3,2.8c-0.8,0.7-2,1-3.5,1H0V0.9z M2.2,6.4h2.1c0.9,0,1.6-0.1,2-0.4
		S7,5.2,7,4.5c0-0.6-0.2-1.1-0.7-1.4C5.8,2.8,5.1,2.7,4.1,2.7H2.2V6.4z M2.2,8.2v4.3h2.3c0.9,0,1.6-0.2,2.1-0.5
		c0.5-0.4,0.7-0.9,0.7-1.7c0-0.7-0.2-1.2-0.7-1.6C6.1,8.4,5.4,8.2,4.4,8.2H2.2z"/>
	<path class="st0" d="M21.2,9.2c0,1.7-0.4,3-1.3,3.9c-0.9,0.9-2,1.4-3.6,1.4c-1,0-1.8-0.2-2.5-0.6c-0.7-0.4-1.3-1-1.7-1.8
		c-0.4-0.8-0.6-1.7-0.6-2.8c0-1.6,0.4-2.9,1.3-3.9c0.8-0.9,2-1.4,3.6-1.4c1.5,0,2.6,0.5,3.5,1.4C20.8,6.3,21.2,7.6,21.2,9.2z
		 M13.8,9.2c0,2.3,0.9,3.5,2.6,3.5c1.7,0,2.6-1.2,2.6-3.5c0-2.3-0.9-3.5-2.6-3.5c-0.9,0-1.6,0.3-2,0.9C14,7.2,13.8,8.1,13.8,9.2z"/>
	<path class="st0" d="M25.8,14.3h-2.2V0h2.2V14.3z"/>
	<path class="st0" d="M32.4,14.5c-1.3,0-2.3-0.5-3-1.4s-1.1-2.2-1.1-3.9c0-1.7,0.4-3,1.1-3.9s1.7-1.4,3-1.4c1.3,0,2.4,0.5,3.1,1.5
		h0.1c-0.1-0.7-0.2-1.3-0.2-1.7V0h2.2v14.3h-1.7L35.5,13h-0.1C34.7,14,33.7,14.5,32.4,14.5z M32.9,12.7c0.9,0,1.5-0.2,1.9-0.7
		s0.6-1.3,0.6-2.4V9.3c0-1.3-0.2-2.2-0.6-2.7c-0.4-0.5-1.1-0.8-2-0.8c-0.8,0-1.3,0.3-1.8,0.9c-0.4,0.6-0.6,1.5-0.6,2.6
		c0,1.1,0.2,2,0.6,2.6C31.5,12.4,32.1,12.7,32.9,12.7z"/>
	<path class="st0" d="M42.8,14.3h-2.2V0h2.2V14.3z"/>
	<path class="st0" d="M44.4,4.1h2.4l2.1,5.8c0.3,0.8,0.5,1.6,0.6,2.3h0.1c0.1-0.3,0.2-0.7,0.3-1.2c0.1-0.5,0.9-2.8,2.3-6.8h2.3
		l-4.3,11.5c-0.8,2.1-2.1,3.2-4,3.2c-0.5,0-0.9-0.1-1.4-0.2V17c0.3,0.1,0.7,0.1,1.1,0.1c1,0,1.8-0.6,2.2-1.8l0.4-1L44.4,4.1z"/>
	<path class="st0" d="M69.5,4.1v1.2l-1.7,0.3c0.2,0.2,0.3,0.5,0.4,0.8c0.1,0.3,0.2,0.6,0.2,1c0,1-0.4,1.9-1.1,2.5
		c-0.7,0.6-1.7,0.9-3,0.9c-0.3,0-0.6,0-0.9-0.1c-0.5,0.3-0.7,0.6-0.7,1c0,0.2,0.1,0.4,0.3,0.5c0.2,0.1,0.6,0.2,1.2,0.2h1.8
		c1.1,0,2,0.2,2.6,0.7s0.9,1.2,0.9,2.1c0,1.2-0.5,2-1.4,2.7c-0.9,0.6-2.3,0.9-4.1,0.9c-1.4,0-2.4-0.2-3.2-0.7
		c-0.7-0.5-1.1-1.2-1.1-2.1c0-0.6,0.2-1.1,0.6-1.6c0.4-0.4,0.9-0.7,1.7-0.9c-0.3-0.1-0.5-0.3-0.7-0.6c-0.2-0.3-0.3-0.6-0.3-0.9
		c0-0.4,0.1-0.7,0.3-1c0.2-0.3,0.5-0.5,1-0.8c-0.5-0.2-1-0.6-1.3-1.1c-0.3-0.5-0.5-1.1-0.5-1.8c0-1.1,0.3-2,1-2.6S63,4,64.3,4
		c0.3,0,0.6,0,0.9,0.1s0.6,0.1,0.7,0.1H69.5z M61.5,15.9c0,0.5,0.2,0.8,0.6,1.1c0.4,0.3,1,0.4,1.8,0.4c1.2,0,2.1-0.2,2.6-0.5
		c0.6-0.3,0.9-0.8,0.9-1.3c0-0.4-0.2-0.8-0.5-0.9c-0.3-0.2-0.9-0.3-1.8-0.3h-1.6c-0.6,0-1.1,0.1-1.5,0.4S61.5,15.4,61.5,15.9z
		 M62.4,7.4c0,0.6,0.2,1.1,0.5,1.5c0.3,0.3,0.8,0.5,1.4,0.5c1.2,0,1.9-0.7,1.9-2c0-0.7-0.2-1.2-0.5-1.5c-0.3-0.4-0.8-0.5-1.4-0.5
		c-0.6,0-1.1,0.2-1.4,0.5C62.6,6.2,62.4,6.7,62.4,7.4z"/>
	<path class="st0" d="M80.4,9.2c0,1.7-0.4,3-1.3,3.9c-0.9,0.9-2,1.4-3.6,1.4c-1,0-1.8-0.2-2.5-0.6c-0.7-0.4-1.3-1-1.7-1.8
		c-0.4-0.8-0.6-1.7-0.6-2.8c0-1.6,0.4-2.9,1.3-3.9C72.9,4.4,74,4,75.6,4c1.5,0,2.6,0.5,3.5,1.4C79.9,6.3,80.4,7.6,80.4,9.2z M73,9.2
		c0,2.3,0.9,3.5,2.6,3.5c1.7,0,2.6-1.2,2.6-3.5c0-2.3-0.9-3.5-2.6-3.5c-0.9,0-1.6,0.3-2,0.9C73.2,7.2,73,8.1,73,9.2z"/>
	<path class="st0" d="M82.7,1.4c0-0.4,0.1-0.7,0.3-0.9c0.2-0.2,0.5-0.3,0.9-0.3c0.4,0,0.7,0.1,0.9,0.3c0.2,0.2,0.3,0.5,0.3,0.9
		c0,0.4-0.1,0.7-0.3,0.9c-0.2,0.2-0.5,0.3-0.9,0.3c-0.4,0-0.7-0.1-0.9-0.3C82.8,2.1,82.7,1.8,82.7,1.4z M85,14.3h-2.2V4.1H85V14.3z"
		/>
	<path class="st0" d="M97,14.3h-2.2V8c0-0.8-0.2-1.4-0.5-1.8s-0.8-0.6-1.5-0.6c-0.9,0-1.6,0.3-2,0.8S90.2,8,90.2,9.2v5.1h-2.2V4.1
		h1.7l0.3,1.3h0.1c0.3-0.5,0.7-0.9,1.3-1.1C92.1,4.1,92.7,4,93.4,4C95.8,4,97,5.2,97,7.7V14.3z"/>
	<path class="st0" d="M108.6,4.1v1.2l-1.7,0.3c0.2,0.2,0.3,0.5,0.4,0.8c0.1,0.3,0.2,0.6,0.2,1c0,1-0.4,1.9-1.1,2.5
		c-0.7,0.6-1.7,0.9-3,0.9c-0.3,0-0.6,0-0.9-0.1c-0.5,0.3-0.7,0.6-0.7,1c0,0.2,0.1,0.4,0.3,0.5c0.2,0.1,0.6,0.2,1.2,0.2h1.8
		c1.1,0,2,0.2,2.6,0.7s0.9,1.2,0.9,2.1c0,1.2-0.5,2-1.4,2.7c-0.9,0.6-2.3,0.9-4.1,0.9c-1.4,0-2.4-0.2-3.2-0.7
		c-0.7-0.5-1.1-1.2-1.1-2.1c0-0.6,0.2-1.1,0.6-1.6c0.4-0.4,0.9-0.7,1.7-0.9c-0.3-0.1-0.5-0.3-0.7-0.6c-0.2-0.3-0.3-0.6-0.3-0.9
		c0-0.4,0.1-0.7,0.3-1c0.2-0.3,0.5-0.5,1-0.8c-0.5-0.2-1-0.6-1.3-1.1c-0.3-0.5-0.5-1.1-0.5-1.8c0-1.1,0.3-2,1-2.6s1.7-0.9,3-0.9
		c0.3,0,0.6,0,0.9,0.1s0.6,0.1,0.7,0.1H108.6z M100.6,15.9c0,0.5,0.2,0.8,0.6,1.1c0.4,0.3,1,0.4,1.8,0.4c1.2,0,2.1-0.2,2.6-0.5
		c0.6-0.3,0.9-0.8,0.9-1.3c0-0.4-0.2-0.8-0.5-0.9c-0.3-0.2-0.9-0.3-1.8-0.3h-1.6c-0.6,0-1.1,0.1-1.5,0.4S100.6,15.4,100.6,15.9z
		 M101.6,7.4c0,0.6,0.2,1.1,0.5,1.5c0.3,0.3,0.8,0.5,1.4,0.5c1.2,0,1.9-0.7,1.9-2c0-0.7-0.2-1.2-0.5-1.5c-0.3-0.4-0.8-0.5-1.4-0.5
		c-0.6,0-1.1,0.2-1.4,0.5C101.7,6.2,101.6,6.7,101.6,7.4z"/>
	<path class="st0" d="M23.8,36.9h-2.2v-6.2c0-0.8-0.2-1.4-0.5-1.8s-0.8-0.6-1.5-0.6c-0.9,0-1.6,0.3-2,0.8S17,30.5,17,31.8v5.1h-2.2
		V26.7h1.7l0.3,1.3H17c0.3-0.5,0.7-0.9,1.3-1.1c0.6-0.3,1.2-0.4,1.9-0.4c2.4,0,3.7,1.2,3.7,3.7V36.9z"/>
	<path class="st0" d="M35.8,31.8c0,1.7-0.4,3-1.3,3.9c-0.9,0.9-2,1.4-3.6,1.4c-1,0-1.8-0.2-2.5-0.6c-0.7-0.4-1.3-1-1.7-1.8
		c-0.4-0.8-0.6-1.7-0.6-2.8c0-1.6,0.4-2.9,1.3-3.9c0.8-0.9,2-1.4,3.6-1.4c1.5,0,2.6,0.5,3.5,1.4C35.4,28.9,35.8,30.2,35.8,31.8z
		 M28.4,31.8c0,2.3,0.9,3.5,2.6,3.5c1.7,0,2.6-1.2,2.6-3.5c0-2.3-0.9-3.5-2.6-3.5c-0.9,0-1.6,0.3-2,0.9
		C28.6,29.8,28.4,30.7,28.4,31.8z"/>
	<path class="st0" d="M46.6,36.9l-1.3-4.7c-0.2-0.5-0.4-1.7-0.9-3.5h-0.1c-0.4,1.7-0.6,2.8-0.8,3.5l-1.4,4.7h-2.4l-2.8-10.2h2.2
		l1.3,5c0.3,1.2,0.5,2.3,0.6,3.2h0.1c0.1-0.4,0.2-1,0.3-1.5c0.1-0.6,0.2-1,0.3-1.3l1.5-5.3h2.4l1.5,5.3c0.1,0.3,0.2,0.8,0.3,1.4
		c0.1,0.6,0.2,1.1,0.2,1.4h0.1c0.1-0.8,0.3-1.8,0.6-3.2l1.3-5h2.2l-2.9,10.2H46.6z"/>
	<path class="st0" d="M62.6,36.9h-2.2v-6.2c0-0.8-0.2-1.4-0.5-1.8s-0.8-0.6-1.5-0.6c-0.9,0-1.6,0.3-2,0.8s-0.6,1.5-0.6,2.7v5h-2.2
		V22.6h2.2v3.6c0,0.6,0,1.2-0.1,1.9h0.1c0.3-0.5,0.7-0.9,1.2-1.1s1.1-0.4,1.8-0.4c2.5,0,3.7,1.2,3.7,3.7V36.9z"/>
	<path class="st0" d="M70,37.1c-1.6,0-2.8-0.5-3.7-1.4c-0.9-0.9-1.3-2.2-1.3-3.8c0-1.7,0.4-3,1.2-3.9s2-1.4,3.4-1.4
		c1.3,0,2.4,0.4,3.2,1.2s1.2,1.9,1.2,3.4v1.2h-6.8c0,1,0.3,1.7,0.8,2.3c0.5,0.5,1.2,0.8,2.1,0.8c0.6,0,1.2-0.1,1.7-0.2
		s1.1-0.3,1.7-0.6v1.8c-0.5,0.3-1.1,0.4-1.6,0.5C71.4,37,70.7,37.1,70,37.1z M69.7,28.2c-0.7,0-1.2,0.2-1.6,0.7
		c-0.4,0.4-0.7,1.1-0.7,1.9h4.6c0-0.8-0.2-1.5-0.6-1.9C70.9,28.4,70.3,28.2,69.7,28.2z"/>
	<path class="st0" d="M81.6,26.5c0.4,0,0.8,0,1.1,0.1l-0.2,2c-0.3-0.1-0.6-0.1-1-0.1c-0.9,0-1.6,0.3-2.1,0.8s-0.8,1.3-0.8,2.2v5.3
		h-2.2V26.7h1.7l0.3,1.8h0.1c0.3-0.6,0.8-1.1,1.3-1.4C80.4,26.7,81,26.5,81.6,26.5z"/>
	<path class="st0" d="M89,37.1c-1.6,0-2.8-0.5-3.7-1.4c-0.9-0.9-1.3-2.2-1.3-3.8c0-1.7,0.4-3,1.2-3.9s2-1.4,3.4-1.4
		c1.3,0,2.4,0.4,3.2,1.2s1.2,1.9,1.2,3.4v1.2h-6.8c0,1,0.3,1.7,0.8,2.3c0.5,0.5,1.2,0.8,2.1,0.8c0.6,0,1.2-0.1,1.7-0.2
		s1.1-0.3,1.7-0.6v1.8c-0.5,0.3-1.1,0.4-1.6,0.5C90.3,37,89.7,37.1,89,37.1z M88.6,28.2c-0.7,0-1.2,0.2-1.6,0.7
		c-0.4,0.4-0.7,1.1-0.7,1.9h4.6c0-0.8-0.2-1.5-0.6-1.9C89.8,28.4,89.3,28.2,88.6,28.2z"/>
</g>
</svg>
