<!-- Generator: Adobe Illustrator 24.1.0, SVG Export Plug-In  -->
<svg version="1.1" xmlns="http://www.w3.org/2000/svg" xmlns:xlink="http://www.w3.org/1999/xlink" x="0px" y="0px" width="131.7px"
	 height="63.3px" viewBox="0 0 131.7 63.3" style="enable-background:new 0 0 131.7 63.3;" xml:space="preserve">
<style type="text/css">
	.st0{fill:#FFFFFF;stroke:#002147;stroke-miterlimit:10;}
	.st1{fill:#001C54;}
	.st2{fill:#FFFFFF;}
</style>
<defs>
</defs>
<g>
	<polygon class="st0" points="131.2,0.5 69,0.5 69,62.8 131.2,62.8 131.2,62.8 131.2,0.5 	"/>
	<g>
		<g>
			<rect x="0.2" y="0.5" class="st1" width="62.3" height="62.3"/>
			<path class="st2" d="M62.7,63H0V0.3h62.7V63z M0.4,62.5h61.8V0.7H0.4V62.5z"/>
		</g>
		<g>
			<g>
				<path class="st2" d="M13.9,52.2c0,2.4-1.8,4.1-4.2,4.1c-2.3,0-4.1-1.8-4.1-4c0-2.4,1.8-4.1,4.1-4.1C12.1,48.2,13.9,50,13.9,52.2
					L13.9,52.2L13.9,52.2z M12.5,52.3c0-2.2-1.1-3.7-2.8-3.7c-1.9,0-2.8,1.8-2.8,3.7c0,2.2,1.1,3.7,2.8,3.7
					C11.6,56,12.5,54.2,12.5,52.3L12.5,52.3L12.5,52.3z"/>
				<path class="st2" d="M39.2,52.2c0,2.4-1.8,4.1-4.2,4.1c-2.3,0-4.1-1.8-4.1-4c0-2.4,1.8-4.1,4.1-4.1C37.4,48.2,39.2,50,39.2,52.2
					L39.2,52.2L39.2,52.2z M37.9,52.3c0-2.2-1.1-3.7-2.8-3.7c-1.9,0-2.8,1.8-2.8,3.7c0,2.2,1.1,3.7,2.8,3.7
					C37,56,37.9,54.2,37.9,52.3L37.9,52.3L37.9,52.3z"/>
				<path class="st2" d="M42.4,52.3h1c1.5,0,1.8-0.9,1.8-1.8c0-0.7-0.3-1.3-1-1.6c-0.4-0.2-0.7-0.2-1.2-0.2h-0.6V52.3L42.4,52.3z
					 M44.2,53.6c-0.5-0.7-0.6-0.9-1.2-0.9h-0.6v2.7c0,0.2,0.1,0.3,0.3,0.4l0.9,0.2v0.3h-3.5V56l0.8-0.2c0.2-0.1,0.3-0.2,0.3-0.4
					v-6.2c0-0.2-0.1-0.3-0.3-0.4l-0.8-0.2v-0.3h3.4c0.7,0,1.2,0.1,1.6,0.2c0.9,0.3,1.3,1.1,1.3,1.9c0,1-0.7,1.8-1.9,2.1v0
					c0.2,0.1,0.4,0.3,1.2,1.4l1.1,1.4c0.2,0.2,0.4,0.3,0.6,0.4l0.8,0.2v0.3h-1.9c-0.2,0-0.3-0.1-0.5-0.3L44.2,53.6L44.2,53.6z"/>
				<path class="st2" d="M28.7,51h0.3v2.6h-0.3l-0.2-0.8c-0.1-0.3-0.2-0.4-0.5-0.4h-1.9v2.9c0,0.2,0.1,0.3,0.3,0.4l0.9,0.2v0.3h-3.5
					V56l0.8-0.2c0.2-0.1,0.3-0.2,0.3-0.4v-6.2c0-0.2-0.1-0.3-0.3-0.4l-0.8-0.2v-0.3h6v2h-0.3l-0.4-1.2c-0.1-0.3-0.2-0.4-0.5-0.4
					h-2.5v3.4H28c0.3,0,0.4-0.1,0.5-0.4L28.7,51L28.7,51z"/>
				<path class="st2" d="M48.9,56.2V56l0.8-0.2c0.2-0.1,0.3-0.2,0.3-0.4v-6.2c0-0.2-0.1-0.3-0.3-0.4l-0.8-0.2v-0.3h3.7
					c1,0,1.7,0.1,2.3,0.4c1.5,0.7,2.2,2.2,2.2,3.6c0,1.4-0.5,2.7-1.9,3.4c-0.6,0.3-1.5,0.5-2.6,0.5H48.9L48.9,56.2z M51.2,48.7v6.8
					c0,0.3,0.1,0.4,0.4,0.4h1c0.9,0,1.6-0.1,2.1-0.5c0.8-0.6,1.2-1.7,1.2-3c0-1.3-0.4-2.7-1.5-3.3c-0.5-0.3-1.1-0.4-2-0.4H51.2
					L51.2,48.7z"/>
				<path class="st2" d="M16.9,56v0.3h-2.8V56l0.7-0.2c0.3-0.1,0.4-0.2,0.6-0.4l2.4-3l-2.4-3.2c-0.2-0.2-0.3-0.3-0.6-0.4l-0.7-0.2
					v-0.3h3.5v0.3l-0.7,0.2c-0.3,0-0.2,0.2-0.1,0.3l1.8,2.5h0l1.8-2.5c0.1-0.2,0.2-0.2-0.1-0.3l-0.7-0.2v-0.3h2.8v0.3l-0.7,0.2
					c-0.3,0.1-0.4,0.2-0.6,0.3L18.9,52l2.5,3.4c0.2,0.2,0.4,0.3,0.6,0.4l0.7,0.2v0.3h-3.5V56l0.7-0.2c0.3,0,0.2-0.1,0.1-0.3
					l-1.9-2.7h0l-2,2.7c-0.1,0.2-0.2,0.2,0.1,0.3L16.9,56L16.9,56z"/>
			</g>
			<path class="st2" d="M8.6,44.6c-0.2,0.2-0.5,0.4-1,0.4c-0.4,0-0.8-0.1-1-0.4c-0.3-0.3-0.3-0.8-0.3-1.2v-2.2h0.4v2.4
				c0,0.3,0,0.6,0.2,0.8c0.2,0.2,0.4,0.2,0.7,0.2c0.3,0,0.5-0.1,0.6-0.2c0.3-0.3,0.2-0.5,0.2-1.2v-2H9V43C9,43.7,9,44.3,8.6,44.6z"
				/>
			<path class="st2" d="M12.6,44.9l-1.8-3.1l0,3.1h-0.4v-3.7h0.5l1.8,3.1l0-3.1h0.4v3.7H12.6z"/>
			<path class="st2" d="M14.6,44.9v-3.7h0.4v3.7H14.6z"/>
			<path class="st2" d="M17.9,44.9h-0.5l-1.3-3.7h0.5l1.1,3.3l1.1-3.3h0.4L17.9,44.9z"/>
			<path class="st2" d="M20.2,44.9v-3.7h2v0.4h-1.6v1.2h1.5v0.4h-1.5v1.4h1.6v0.4H20.2z"/>
			<path class="st2" d="M25.1,41.7c-0.2-0.2-0.5-0.2-0.8-0.2h-0.4v1.4h0.1c0.4,0,0.8,0,1-0.2c0.1-0.1,0.2-0.3,0.2-0.5
				C25.3,42,25.2,41.8,25.1,41.7z M25.6,44.9l-0.4-1c-0.3-0.6-0.4-0.7-0.9-0.7h-0.3v1.6h-0.4v-3.7h0.8c0.5,0,0.9,0,1.2,0.3
				c0.2,0.2,0.3,0.4,0.3,0.7c0,0.3-0.1,0.5-0.2,0.6c-0.1,0.1-0.4,0.3-0.6,0.3c0.1,0,0.2,0.1,0.3,0.2c0.1,0.1,0.2,0.3,0.3,0.5
				l0.5,1.1H25.6z"/>
			<path class="st2" d="M30.4,44.9v-3.7h0.4v3.7H30.4z"/>
			<path class="st2" d="M33.4,41.5v3.4H33v-3.4h-1.1v-0.4h2.7v0.4H33.4z"/>
			<path class="st2" d="M36.7,43.4v1.5h-0.4v-1.5l-1.2-2.3h0.5l0.9,1.8l0.9-1.8h0.5L36.7,43.4z"/>
			<path class="st2" d="M42.1,41.5c-0.7,0-1.2,0.6-1.2,1.6c0,0.9,0.5,1.6,1.2,1.6c0.8,0,1.2-0.7,1.2-1.6
				C43.3,42.1,42.8,41.5,42.1,41.5z M42.1,45c-1,0-1.7-0.8-1.7-1.9c0-1.2,0.7-2,1.7-2c1,0,1.7,0.8,1.7,1.9
				C43.8,44.2,43.1,45,42.1,45z"/>
			<path class="st2" d="M45.5,41.5v1.2h1.5v0.4h-1.5v1.8H45v-3.7h2v0.4H45.5z"/>
			<path class="st2" d="M26.9,42.1c0-0.6,0.5-1,1.1-1c0.7,0,1,0.4,1,0.4l-0.2,0.3c-0.1-0.1-0.4-0.3-0.8-0.3c-0.5,0-0.7,0.3-0.7,0.6
				c0,0.2,0.1,0.3,0.2,0.4c0.1,0.1,0.3,0.2,0.5,0.3c0.3,0.1,0.6,0.2,0.8,0.5c0.2,0.2,0.3,0.4,0.3,0.7c0,0.6-0.4,1.1-1.2,1.1
				c-0.7,0-1.1-0.4-1.1-0.4l0.2-0.3c0.1,0.1,0.5,0.3,0.9,0.3c0.6,0,0.8-0.3,0.8-0.7c0-0.2-0.1-0.3-0.2-0.4c-0.2-0.2-0.4-0.3-0.7-0.4
				c-0.3-0.1-0.5-0.2-0.7-0.4C27,42.6,26.9,42.4,26.9,42.1z"/>
		</g>
		<g>
			<path class="st2" d="M44.1,15.8c0-0.5-0.2-0.8-0.5-1.1c-0.2-0.1-0.5-0.2-0.9-0.2h-2.6v5.3H43c0.7,0,1,0.1,1.1,0.7h0.1L44.1,15.8z
				"/>
			<path class="st2" d="M44.5,15.8c0-0.5,0.2-0.8,0.5-1.1c0.2-0.1,0.5-0.2,0.9-0.2h2.6v5.3h-2.9c-0.7,0-1,0.1-1.1,0.7h-0.1V15.8z"/>
			<path class="st2" d="M49.1,15c0,0,0,5.3,0,5.6c-0.3,0-4.1,0-4.1,0l0,0.1c-0.1,0.2-0.2,0.3-0.6,0.3c-0.4,0-0.6-0.2-0.6-0.3l0-0.1
				c0,0-3.7,0-4,0c0-0.3,0-5.6,0-5.6h-0.4v0.2l-0.4-0.1c0-0.1-0.2-0.2-0.3-0.2c-0.2,0-0.3,0.2-0.3,0.3c0,0.2,0.2,0.3,0.3,0.3
				c0.1,0,0.2,0,0.2-0.1l0.5,0.1V16L38.9,16c-0.1-0.1-0.2-0.2-0.3-0.2c-0.2,0-0.3,0.2-0.3,0.3c0,0.2,0.1,0.3,0.3,0.3
				c0.1,0,0.2,0,0.2-0.1l0.4,0.1v0.5l-0.4,0c-0.1-0.1-0.2-0.2-0.3-0.2c-0.2,0-0.3,0.1-0.3,0.3c0,0.2,0.1,0.3,0.3,0.3
				c0.1,0,0.2-0.1,0.3-0.1l0.4,0v0.5l-0.4,0c-0.1-0.1-0.2-0.1-0.3-0.1c-0.2,0-0.3,0.2-0.3,0.3c0,0.2,0.2,0.3,0.3,0.3
				c0.1,0,0.2-0.1,0.3-0.2l0.4,0v0.5l-0.4,0.1c-0.1-0.1-0.1-0.1-0.2-0.1c-0.2,0-0.3,0.1-0.3,0.3c0,0.2,0.1,0.3,0.3,0.3
				c0.1,0,0.3-0.1,0.3-0.2l0.3-0.1v0.5l-0.4,0.1c-0.1,0-0.1-0.1-0.2-0.1c-0.2,0-0.3,0.2-0.3,0.3c0,0.2,0.1,0.3,0.3,0.3
				c0.2,0,0.3-0.1,0.3-0.2l0.3-0.1v0.4l-0.5,0.2c-0.1,0-0.1-0.1-0.2-0.1c-0.2,0-0.3,0.2-0.3,0.3c0,0.2,0.2,0.3,0.3,0.3
				c0.2,0,0.3-0.1,0.3-0.3l0.3-0.1V21c0,0,4,0,4.2,0c0.2,0.3,0.5,0.5,0.9,0.5c0.4,0,0.7-0.2,0.9-0.5c0.2,0,4.2,0,4.2,0v-6H49.1z"/>
			<g>
				<path class="st2" d="M41.6,13.1c-0.8,0-1.5,0.1-1.5,0.3c0,0.2,0.7,0.3,1.5,0.3c0.8,0,1.5-0.1,1.5-0.3
					C43.1,13.3,42.4,13.1,41.6,13.1z"/>
				<path class="st2" d="M43.7,11.3l-0.9,0.6l0,0.1l0.2,0.1c0,0,0,0.1,0,0.1l-0.6,0.5l-0.1,0L42,12.1c0,0,0-0.1,0-0.1l0.3,0v-0.1
					l-0.7-1h-0.1l-0.7,1v0.1l0.3,0c0,0,0.1,0,0,0.1l-0.4,0.6l-0.1,0l-0.5-0.5c0,0,0-0.1,0-0.1l0.2-0.1l0-0.1l-0.9-0.6l-0.1,0
					l0.5,1.7c0.3-0.1,0.9-0.2,1.6-0.2c0.7,0,1.4,0.1,1.6,0.2L43.7,11.3L43.7,11.3z"/>
			</g>
			<g>
				<path class="st2" d="M44.3,24.2c-0.8,0-1.5,0.1-1.5,0.3c0,0.2,0.7,0.3,1.5,0.3c0.8,0,1.5-0.1,1.5-0.3
					C45.8,24.4,45.2,24.2,44.3,24.2z"/>
				<path class="st2" d="M46.4,22.4L45.5,23l0,0.1l0.2,0.1c0,0,0,0.1,0,0.1l-0.6,0.5l-0.1,0l-0.4-0.6c0,0,0-0.1,0-0.1l0.3,0v-0.1
					l-0.7-1h-0.1l-0.7,1V23l0.3,0c0,0,0.1,0,0,0.1l-0.4,0.6l-0.1,0l-0.5-0.5c0,0,0-0.1,0-0.1l0.2-0.1l0-0.1l-0.9-0.6l-0.1,0l0.5,1.7
					c0.3-0.1,0.9-0.2,1.6-0.2c0.7,0,1.4,0.1,1.6,0.2L46.4,22.4L46.4,22.4z"/>
			</g>
			<g>
				<path class="st2" d="M47.1,13.1c-0.8,0-1.5,0.1-1.5,0.3c0,0.2,0.7,0.3,1.5,0.3c0.8,0,1.5-0.1,1.5-0.3
					C48.6,13.3,47.9,13.1,47.1,13.1z"/>
				<path class="st2" d="M49.2,11.3l-0.9,0.6l0,0.1l0.2,0.1c0,0,0,0.1,0,0.1L48,12.6l0,0l-0.4-0.6c0,0,0-0.1,0-0.1l0.3,0v-0.1
					l-0.7-1H47l-0.7,1v0.1l0.3,0c0,0,0.1,0,0,0.1l-0.4,0.6l-0.1,0l-0.5-0.5c0,0,0-0.1,0-0.1l0.2-0.1l0-0.1l-0.9-0.6l-0.1,0l0.5,1.7
					c0.3-0.1,0.9-0.2,1.6-0.2c0.7,0,1.4,0.1,1.6,0.2L49.2,11.3L49.2,11.3z"/>
			</g>
			<g>
				<path class="st1" d="M40.8,15.5c0.1,0,0.3,0,0.3,0.1c0.1,0.1,0.1,0.1,0.1,0.2c0,0.3-0.2,0.4-0.5,0.4h-0.3v0c0.1,0,0.1,0,0.1-0.1
					v-0.4c0-0.1,0-0.1-0.1-0.1v0H40.8z M40.8,16c0,0.1,0,0.1,0.1,0.1c0.1,0,0.2-0.1,0.2-0.3c0-0.3-0.1-0.3-0.2-0.3c0,0,0,0,0,0
					c0,0,0,0,0,0.1V16z"/>
				<path class="st1" d="M42.1,15.8c0,0.2-0.2,0.4-0.4,0.4c-0.2,0-0.4-0.2-0.4-0.4c0-0.2,0.1-0.4,0.4-0.4
					C42,15.4,42.1,15.6,42.1,15.8z M41.6,15.8c0,0.2,0.1,0.4,0.2,0.4c0.1,0,0.2-0.1,0.2-0.3c0-0.2-0.1-0.4-0.2-0.4
					C41.7,15.5,41.6,15.6,41.6,15.8z"/>
				<path class="st1" d="M43.2,15.5L43.2,15.5c-0.1,0.1-0.1,0.1-0.1,0.2l0,0.4c0,0.1,0,0.1,0.1,0.1v0h-0.4v0c0.1,0,0.1,0,0.1-0.1
					l0-0.4h0l-0.2,0.6h-0.1l-0.2-0.5h0l0,0.3c0,0.1,0,0.2,0,0.2c0,0,0,0.1,0.1,0.1v0h-0.3v0c0.1,0,0.1,0,0.1-0.1c0,0,0-0.1,0-0.2
					l0-0.2c0-0.1,0-0.2-0.1-0.2v0h0.3l0.2,0.5l0.2-0.5H43.2z"/>
				<path class="st1" d="M43.6,16c0,0.1,0,0.1,0.1,0.1v0h-0.4v0c0.1,0,0.1,0,0.1-0.1v-0.4c0-0.1,0-0.1-0.1-0.1v0h0.4v0
					c-0.1,0-0.1,0-0.1,0.1V16z"/>
			</g>
			<g>
				<path class="st1" d="M41.7,17.6h-0.1l-0.4-0.5h0v0.2c0,0.1,0,0.2,0,0.2c0,0,0,0.1,0.1,0.1v0H41v0c0.1,0,0.1,0,0.1-0.1
					c0,0,0-0.1,0-0.2v-0.2c0-0.1,0-0.1,0-0.1c0,0,0,0-0.1,0v0h0.3l0.4,0.5h0v-0.2c0-0.1,0-0.2,0-0.2c0,0,0-0.1-0.1-0.1v0h0.3v0
					c-0.1,0-0.1,0-0.1,0.1c0,0,0,0.1,0,0.2V17.6z"/>
				<path class="st1" d="M42.1,17.6c-0.1-0.2-0.2-0.5-0.2-0.6c0-0.1-0.1-0.1-0.1-0.1v0h0.4v0l0,0c0,0,0,0,0,0.1
					c0,0.1,0.1,0.3,0.2,0.4c0-0.1,0.1-0.3,0.1-0.4c0-0.1,0-0.1,0-0.1l0,0v0h0.3v0c-0.1,0-0.1,0-0.1,0.1C42.5,17,42.3,17.4,42.1,17.6
					L42.1,17.6z"/>
				<path class="st1" d="M42.7,17.4c0,0.1,0.1,0.2,0.2,0.2c0.1,0,0.1,0,0.1-0.1c0-0.1,0-0.1-0.1-0.1l0,0c-0.1,0-0.2-0.1-0.2-0.2
					c0-0.1,0.1-0.2,0.3-0.2c0,0,0.1,0,0.1,0c0,0,0,0,0.1,0c0,0,0,0.1,0,0.2l-0.1,0c0-0.1-0.1-0.2-0.2-0.2c-0.1,0-0.1,0-0.1,0.1
					c0,0.1,0,0.1,0.1,0.1l0,0c0.1,0,0.2,0.1,0.2,0.2c0,0.1-0.1,0.2-0.3,0.2c0,0-0.1,0-0.1,0c0,0-0.1,0-0.1,0
					C42.7,17.5,42.6,17.5,42.7,17.4L42.7,17.4z"/>
			</g>
			<g>
				<path class="st1" d="M41.2,18.8c0,0.1,0,0.1,0.1,0.1v0h-0.4v0c0.1,0,0.1,0,0.1-0.1v-0.4c0-0.1,0-0.1-0.1-0.1v0h0.4v0
					c-0.1,0-0.1,0-0.1,0.1V18.8z"/>
				<path class="st1" d="M41.6,18.8C41.6,18.9,41.6,18.9,41.6,18.8c0,0.1,0.1,0.1,0.1,0.1c0,0,0.1,0,0.1,0c0,0,0-0.1,0.1-0.1l0.1,0
					c0,0,0,0.2,0,0.2h-0.6v0c0.1,0,0.1,0,0.1-0.1v-0.4c0-0.1,0-0.1-0.1-0.1v0h0.4v0c-0.1,0-0.1,0-0.1,0.1V18.8z"/>
				<path class="st1" d="M42.3,18.8C42.3,18.9,42.3,18.9,42.3,18.8c0,0.1,0.1,0.1,0.1,0.1c0,0,0.1,0,0.1,0c0,0,0-0.1,0.1-0.1l0,0
					c0,0,0,0.2,0,0.2H42v0c0.1,0,0.1,0,0.1-0.1v-0.4c0-0.1,0-0.1-0.1-0.1v0h0.4v0c-0.1,0-0.1,0-0.1,0.1V18.8z"/>
				<path class="st1" d="M42.8,19c-0.1-0.2-0.2-0.5-0.2-0.6c0-0.1-0.1-0.1-0.1-0.1v0h0.4v0l0,0c0,0,0,0,0,0.1c0,0.1,0.1,0.3,0.2,0.4
					c0-0.1,0.1-0.3,0.1-0.4c0-0.1,0-0.1,0-0.1l0,0v0h0.3v0c-0.1,0-0.1,0-0.1,0.1C43.1,18.4,43,18.8,42.8,19L42.8,19z"/>
			</g>
			<g>
				<path class="st1" d="M46,15.5L46,15.5c-0.1,0.1-0.1,0.1-0.1,0.2l0,0.4c0,0.1,0,0.1,0.1,0.1v0h-0.4v0c0.1,0,0.1,0,0.1-0.1l0-0.4
					h0l-0.2,0.6h-0.1l-0.2-0.5h0l0,0.3c0,0.1,0,0.2,0,0.2c0,0,0,0.1,0.1,0.1v0H45v0c0.1,0,0.1,0,0.1-0.1c0,0,0-0.1,0-0.2l0-0.2
					c0-0.1,0-0.2-0.1-0.2v0h0.3l0.2,0.5l0.2-0.5H46z"/>
				<path class="st1" d="M46.3,16c0,0.1,0,0.1,0.1,0.1v0h-0.4v0c0.1,0,0.1,0,0.1-0.1v-0.4c0-0.1,0-0.1-0.1-0.1v0h0.4v0
					c-0.1,0-0.1,0-0.1,0.1V16z"/>
				<path class="st1" d="M47.2,16.2L47.2,16.2l-0.5-0.6h0v0.2c0,0.1,0,0.2,0,0.2c0,0,0,0.1,0.1,0.1v0h-0.3v0c0,0,0.1,0,0.1-0.1
					c0,0,0-0.1,0-0.2v-0.2c0-0.1,0-0.1,0-0.1c0,0,0,0-0.1,0v0h0.3l0.4,0.5h0v-0.2c0-0.1,0-0.2,0-0.2c0,0,0-0.1-0.1-0.1v0h0.3v0
					c-0.1,0-0.1,0-0.1,0.1c0,0,0,0.1,0,0.2V16.2z"/>
				<path class="st1" d="M47.7,16.2L47.7,16.2C47.8,16.2,47.8,16.2,47.7,16.2l0-0.2h-0.2l0,0.1c0,0,0,0.1,0,0.1l0,0v0h-0.3v0
					c0.1,0,0.1,0,0.1-0.1l0.2-0.6l0.1,0l0.1,0.2c0.1,0.1,0.1,0.3,0.1,0.4c0,0.1,0.1,0.1,0.1,0.1v0L47.7,16.2L47.7,16.2z M47.5,15.9
					h0.1l-0.1-0.2h0L47.5,15.9z"/>
			</g>
			<g>
				<path class="st1" d="M46,17.4c0,0.1,0,0.1,0.1,0.1v0h-0.4v0c0.1,0,0.1,0,0.1-0.1v-0.5h0c-0.1,0-0.1,0-0.1,0c0,0,0,0,0,0.1h0
					c0-0.1,0-0.2,0-0.2h0c0,0,0,0,0.1,0h0.5c0,0,0,0,0.1,0h0c0,0,0,0.1,0,0.2l0,0c0-0.1,0-0.1,0-0.1c0,0-0.1,0-0.1,0h0V17.4z"/>
				<path class="st1" d="M46.6,17.4c0,0.1,0,0.1,0.1,0.1v0h-0.4v0c0.1,0,0.1,0,0.1-0.1V17c0-0.1,0-0.1-0.1-0.1v0h0.4v0
					c-0.1,0-0.1,0-0.1,0.1V17.4z"/>
				<path class="st1" d="M47.5,17.2c0,0.2-0.2,0.4-0.4,0.4c-0.2,0-0.4-0.2-0.4-0.4c0-0.2,0.1-0.4,0.4-0.4
					C47.4,16.8,47.5,17,47.5,17.2z M47,17.2c0,0.2,0.1,0.4,0.2,0.4c0.1,0,0.2-0.1,0.2-0.3c0-0.2-0.1-0.4-0.2-0.4
					C47,16.9,47,17,47,17.2z"/>
			</g>
			<g>
				<path class="st1" d="M46.3,18.3L46.3,18.3c-0.1,0.1-0.1,0.1-0.1,0.2l0,0.4c0,0.1,0,0.1,0.1,0.1v0h-0.4v0c0.1,0,0.1,0,0.1-0.1
					l0-0.4h0L45.8,19h-0.1l-0.2-0.5h0l0,0.3c0,0.1,0,0.2,0,0.2c0,0,0,0.1,0.1,0.1v0h-0.3v0c0.1,0,0.1,0,0.1-0.1c0,0,0-0.1,0-0.2
					l0-0.2c0-0.1,0-0.2-0.1-0.2v0h0.3l0.2,0.5l0.2-0.5H46.3z"/>
				<path class="st1" d="M46.5,18.4c0-0.1,0-0.1-0.1-0.1v0h0.6c0,0,0,0.1,0,0.2l-0.1,0c0-0.1,0-0.1,0-0.1c0,0-0.1,0-0.1,0h0
					c0,0,0,0,0,0v0.2h0.1c0.1,0,0.1,0,0.1-0.1h0v0.3h0c0-0.1,0-0.1-0.1-0.1h-0.1v0.2c0,0.1,0,0.1,0,0.1c0,0,0,0,0.1,0
					c0,0,0.1,0,0.1,0c0,0,0-0.1,0.1-0.1l0.1,0c0,0.1,0,0.2,0,0.2h-0.6v0c0.1,0,0.1,0,0.1-0.1V18.4z"/>
				<path class="st1" d="M47.4,19L47.4,19C47.5,19,47.5,19,47.4,19l0-0.2h-0.2l0,0.1c0,0.1,0,0.1,0,0.1l0,0v0H47v0
					c0.1,0,0.1,0,0.1-0.1l0.2-0.6l0.1,0l0.1,0.2c0.1,0.1,0.1,0.3,0.1,0.4c0,0.1,0.1,0.1,0.1,0.1v0L47.4,19L47.4,19z M47.3,18.7h0.2
					l-0.1-0.2h0L47.3,18.7z"/>
			</g>
			<path class="st2" d="M43.3,28.4c0,0.2-0.1,0.3-0.3,0.3c-0.2,0-0.3-0.1-0.3-0.3c0-0.2,0.1-0.3,0.3-0.3
				C43.1,28.1,43.3,28.2,43.3,28.4z"/>
			<path class="st2" d="M46.4,28.9c0,0.2-0.1,0.3-0.3,0.3c-0.2,0-0.3-0.1-0.3-0.3c0-0.2,0.1-0.3,0.3-0.3
				C46.2,28.6,46.4,28.7,46.4,28.9z"/>
			<path class="st2" d="M34.5,11.8L34.5,11.8L34.5,11.8z"/>
			<path class="st2" d="M47.3,6.3L47.3,6.3L47.3,6.3z"/>
			<path class="st2" d="M52.2,12.3L52.2,12.3L52.2,12.3z"/>
			<path class="st2" d="M54.6,22.2L54.6,22.2L54.6,22.2z"/>
			<path class="st2" d="M44.6,6.9c0,0.2-0.1,0.3-0.3,0.3C44.1,7.2,44,7,44,6.9c0-0.2,0.1-0.3,0.3-0.3C44.5,6.6,44.6,6.7,44.6,6.9z"
				/>
			<path class="st2" d="M51.9,9.7c0,0.2-0.2,0.3-0.3,0.3c-0.2,0-0.3-0.2-0.3-0.3c0-0.2,0.2-0.3,0.3-0.3C51.7,9.4,51.9,9.6,51.9,9.7z
				"/>
			<g>
				<path class="st2" d="M36.6,22.8c0.1,0.2,0.2,0.3,0.2,0.5c0,0.2-0.1,0.4-0.5,0.6l-1.1,0.8L35,24.5c0,0,1.1-0.8,1.1-0.8
					c0.2-0.1,0.3-0.2,0.3-0.4c0-0.1,0-0.2-0.1-0.3c-0.1-0.2-0.3-0.2-0.4-0.2c-0.1,0-0.2,0.1-0.5,0.2l-1,0.7l-0.2-0.3l1-0.7
					c0.3-0.2,0.5-0.3,0.7-0.3C36.2,22.4,36.4,22.6,36.6,22.8z"/>
			</g>
			<g>
				<path class="st2" d="M33,20.7l2.1-0.7l0.1,0.3l-1.2,1.5l1.5-0.6l0.1,0.3l-2.1,0.8l-0.1-0.3l1.2-1.5L33.2,21L33,20.7z"/>
			</g>
			<g>
				<path class="st2" d="M32.7,19l2.2-0.3L35,19l-2.2,0.3L32.7,19z"/>
			</g>
			<g>
				<path class="st2" d="M32.7,16.4l0-0.4l2.2,0.9l0,0.4l-2.3,0.7l0-0.4l1.8-0.5L32.7,16.4z"/>
			</g>
			<path class="st2" d="M34.7,11.4c-0.3,0-0.5,0.2-0.7,0.5l-0.3,0.5l2,1.1l0.2-0.3l-0.8-0.4l0-0.1c0.1-0.2,0.2-0.3,0.5-0.3l0.6,0.1
				l0.2-0.3L35.7,12c-0.1,0-0.3,0-0.4,0c0,0-0.1,0-0.1,0.1c0,0,0-0.1,0-0.1c0-0.1,0-0.1,0-0.2c0-0.1-0.1-0.2-0.3-0.3
				C34.9,11.4,34.8,11.4,34.7,11.4z M34.3,12.1c0.1-0.2,0.2-0.3,0.4-0.3c0,0,0.1,0,0.2,0c0.1,0,0.1,0.1,0.2,0.2c0,0,0,0.1,0,0.1
				c0,0.1-0.1,0.3-0.2,0.4l0,0.1l-0.6-0.3L34.3,12.1z"/>
			<g>
				<path class="st2" d="M37.1,8.3L37.4,8l1.3,1.8L38.4,10L37.1,8.3z"/>
			</g>
			<g>
				<path class="st2" d="M38.3,7.4l1.4-0.7l0.1,0.3l-0.6,0.3l0.9,1.7l-0.3,0.2L39,7.4l-0.6,0.3L38.3,7.4z"/>
			</g>
			<g>
				<path class="st2" d="M41.9,6l0.4-0.1L42,7.3l0.2,0.8l-0.3,0.1l-0.2-0.8l-1.1-1.1l0.4-0.1L41.7,7L41.9,6z"/>
			</g>
			<g>
				<path class="st2" d="M48.7,9l1.1-1.9l1.1,0.6L50.7,8l-0.8-0.4l-0.3,0.5l0.7,0.4l-0.2,0.3l-0.7-0.4L49,9.2L48.7,9z"/>
			</g>
			<g>
				<path class="st2" d="M54.4,13.9l0.8-1l0.1,0.4L54.7,14l0.9,0.2l0.1,0.4l-1.2-0.3l-0.9,1L53.5,15l0.7-0.8l-1-0.2l-0.1-0.4
					L54.4,13.9z"/>
			</g>
			<g>
				<path class="st2" d="M53.7,16.1l2.2-0.2l0.1,1.2l-0.3,0l-0.1-0.9l-0.6,0.1l0.1,0.8l-0.3,0l-0.1-0.8l-1,0.1L53.7,16.1z"/>
			</g>
			<path class="st2" d="M54.7,18.1c-0.3,0-0.5,0.1-0.7,0.2c-0.3,0.2-0.4,0.6-0.4,0.8c0,0.7,0.7,1,1.2,1c0.3,0,0.5-0.1,0.7-0.2
				c0.4-0.3,0.4-0.7,0.4-0.8C55.9,18.5,55.3,18.1,54.7,18.1z M54.9,19.8c-0.4,0-0.9-0.2-0.9-0.7c0-0.2,0.1-0.4,0.3-0.5
				c0.1-0.1,0.3-0.1,0.5-0.1c0.2,0,0.6,0.1,0.8,0.3c0.1,0.1,0.1,0.2,0.1,0.3c0,0.2-0.1,0.4-0.3,0.5C55.2,19.7,55.1,19.8,54.9,19.8z"
				/>
			<path class="st2" d="M53.4,10.7c-0.2,0-0.5,0.1-0.7,0.2c-0.4,0.3-0.6,0.7-0.6,0.9c0,0.2,0,0.4,0.2,0.5c0.2,0.4,0.6,0.5,0.8,0.5
				c0.2,0,0.5-0.1,0.7-0.2c0.3-0.2,0.6-0.5,0.6-0.9c0-0.2-0.1-0.4-0.2-0.5C54.1,10.9,53.8,10.7,53.4,10.7z M53.1,12.5
				c-0.2,0-0.4-0.1-0.5-0.3c-0.1-0.1-0.1-0.2-0.1-0.3c0-0.3,0.2-0.5,0.4-0.7c0.2-0.1,0.4-0.2,0.6-0.2c0.2,0,0.4,0.1,0.5,0.3
				c0.1,0.1,0.1,0.2,0.1,0.3c0,0.2-0.2,0.5-0.4,0.7C53.4,12.5,53.3,12.5,53.1,12.5z"/>
			<path class="st2" d="M47.4,6.1c-0.5,0-0.9,0.3-1,0.9c0,0.1-0.1,0.2-0.1,0.4c0,0.2,0,0.4,0.1,0.6c0.2,0.4,0.6,0.5,0.9,0.5
				c0.2,0,0.3,0,0.5-0.1c0.4-0.2,0.6-0.7,0.6-1.1c0-0.2,0-0.4-0.1-0.5C48.1,6.3,47.7,6.1,47.4,6.1z M47.3,8.1
				c-0.2,0-0.4-0.1-0.5-0.3c-0.1-0.1-0.1-0.3-0.1-0.4c0-0.4,0.3-1,0.7-1c0.3,0,0.6,0.2,0.6,0.7C48,7.5,47.8,8.1,47.3,8.1z"/>
			<path class="st2" d="M35.1,14.2l0.3,0.1L35,15.5l-2.1-0.6l0.4-1.2l0.3,0.1l-0.3,0.9l0.6,0.2l0.2-0.8l0.3,0.1l-0.2,0.8l0.7,0.2
				L35.1,14.2z"/>
			<g>
				<g>
					<path class="st2" d="M35.6,9.6c0.3-0.3,0.6-0.3,0.6-0.3l0.1,0.3c0,0-0.2,0-0.4,0.2c-0.1,0.1-0.1,0.2-0.1,0.3
						c0,0.1,0,0.1,0.1,0.2c0.2,0.1,0.4,0,0.6-0.1c0.1-0.1,0.3-0.1,0.5-0.1c0.1,0,0.3,0,0.4,0.1c0.1,0.1,0.2,0.3,0.2,0.5
						c0,0.2-0.1,0.4-0.2,0.5c-0.3,0.3-0.7,0.4-0.7,0.4l-0.1-0.3c0.2-0.1,0.4-0.1,0.5-0.3c0.1-0.1,0.1-0.2,0.1-0.3
						c0-0.1,0-0.2-0.1-0.2c-0.1,0-0.1-0.1-0.2-0.1c-0.1,0-0.3,0.1-0.5,0.1c-0.3,0.1-0.6,0.2-0.8,0c-0.1-0.1-0.2-0.3-0.2-0.4
						C35.4,9.9,35.5,9.7,35.6,9.6z"/>
				</g>
			</g>
			<path class="st2" d="M53.1,21l0.8,0.4l0,0.1c-0.1,0.3-0.2,0.3-0.5,0.3l-0.6,0l-0.1,0.3l0.7,0c0.1,0,0.3,0,0.4,0
				c0,0,0.1,0,0.1-0.1c0,0,0,0,0,0.1c0,0.1,0,0.2,0,0.2c0.1,0.2,0.4,0.3,0.6,0.3c0.4,0,0.5-0.2,0.7-0.6c0,0,0.2-0.5,0.2-0.5l-2-0.9
				L53.1,21z M54.5,22.3c-0.1,0-0.3-0.1-0.3-0.2c0,0,0-0.1,0-0.1c0-0.1,0.1-0.2,0.1-0.4l0-0.1l0.6,0.3l-0.1,0.2
				C54.7,22.2,54.6,22.3,54.5,22.3z"/>
			<path class="st2" d="M52,23.1c-0.2,0.3-0.4,0.5-0.4,0.9c0,0.3,0.1,0.6,0.5,0.9c0.2,0.2,0.5,0.3,0.7,0.3c0.3,0,0.6-0.1,0.9-0.6
				l0.4-0.4l-1.7-1.4L52,23.1z M52.8,24.7c-0.2,0-0.3-0.1-0.5-0.2c-0.2-0.1-0.4-0.4-0.4-0.6c0-0.2,0.1-0.4,0.3-0.6l0.1-0.2l1.3,1
				l-0.1,0.1C53.2,24.6,53.1,24.7,52.8,24.7z"/>
			<path class="st2" d="M57,17.5c0-7-5.7-12.7-12.7-12.7c-7,0-12.7,5.7-12.7,12.7c0,4.2,2.1,8.1,5.5,10.5c0.3,1.3,1.5,2.2,2.9,2.2
				c0.4,0,0.7-0.1,1.1-0.2c0.5,0.2,0.9,0.3,1.4,0.4c-0.1,0.4-0.3,0.7-0.5,1.1c0,0,0,0,0,0c0,0,0,0,0,0l0.3,0.3
				c0.1,0,0.1-0.1,0.2-0.1c0.3,0,0.5,0.2,0.5,0.5c0,0.3-0.2,0.5-0.5,0.5c-0.2,0-0.4-0.1-0.5-0.3c0,0-0.1,0.2-0.1,0.5
				c0,0.9,1,2,2.4,2.4c1.4-0.4,2.4-1.5,2.4-2.4c0-0.3-0.1-0.5-0.1-0.5c-0.1,0.1-0.3,0.3-0.5,0.3c-0.3,0-0.5-0.2-0.5-0.5
				c0-0.3,0.2-0.5,0.5-0.5c0.1,0,0.2,0,0.2,0.1l0.3-0.3c0,0,0,0,0,0c-0.1-0.3-0.2-0.7-0.3-1c2.3-0.3,4.2-1.3,5.7-2.9l0,0
				C55.2,25.1,57,21.5,57,17.5z M40,29.8c-1.4,0-2.6-1.2-2.6-2.6c0-0.5,0.1-0.9,0.3-1.3c0.1,0.1,0.3,0.2,0.4,0.4
				C38,26.6,38,26.9,38,27.2c0,0.8,0.4,1.4,1.1,1.9c0.4,0.3,0.9,0.5,1.4,0.7C40.4,29.8,40.2,29.8,40,29.8z M44.3,26
				c-0.5,0-1.1-0.1-1.6-0.2c-0.5-1-1.5-1.6-2.7-1.6c-0.3,0-0.5,0-0.8,0.1c-2.2-1.6-3.4-4.2-3.4-6.8c0-4.7,3.8-8.5,8.5-8.5
				c4.7,0,8.5,3.8,8.5,8.5C52.8,22.2,49,26,44.3,26z M46.2,26.1c-0.3,0.4-0.4,0.9-0.5,1.4c-0.8-0.2-1.5-0.5-2.2-0.8
				c0.1-0.2,0.5-0.4,0.7-0.4C45,26.3,45.6,26.3,46.2,26.1z M43.5,26.3c-0.1,0.1-0.2,0.2-0.3,0.3c-0.3-0.2-0.7-0.4-1-0.5
				C42.6,26.2,43.1,26.3,43.5,26.3z M40,24.5c0.9,0,1.7,0.4,2.2,1.2c-0.4-0.1-0.8-0.2-1.2-0.4l0,0l0,0c-0.3-0.1-0.6-0.2-0.9-0.2
				c-0.7,0-1.3,0.3-1.7,0.9c-0.2-0.1-0.3-0.2-0.5-0.3C38.4,25,39.2,24.5,40,24.5z M46.1,31.2c-0.5,0-0.9,0.3-0.9,0.8
				c0,0.5,0.4,0.8,0.9,0.8c0.1,0,0.1,0,0.2,0c-0.1,0.7-0.9,1.5-2,1.8c-1-0.4-1.9-1.1-2-1.8c0.1,0,0.1,0,0.2,0c0.5,0,0.8-0.4,0.8-0.8
				c0-0.5-0.4-0.8-0.8-0.8c0.1-0.3,0.3-0.5,0.4-0.8c0.6,0.1,1.2,0.2,1.7,0.2c0.4,0,0.9,0,1.3-0.1C45.9,30.7,46,31,46.1,31.2
				C46.1,31.2,46.1,31.2,46.1,31.2z M44.6,30.2c-1.7,0-3.8-0.6-5.3-1.4c-0.4-0.3-1-0.7-1-1.6c0-0.2,0-0.4,0.1-0.6
				c0.5,0.5,1.1,0.9,1.5,1.1c0.1,0,0.1,0.1,0.2,0.1c0.2,0,0.4-0.2,0.4-0.4c0-0.2-0.1-0.3-0.3-0.4c-0.3-0.1-0.9-0.4-1.6-0.7
				c0.3-0.4,0.8-0.7,1.4-0.7c0.3,0,0.5,0.1,0.7,0.2l0.5,0.3c1.5,0.9,5.3,3.2,9.9,2C49.4,29.4,47.3,30.2,44.6,30.2z M51.8,27.3
				c-2.1,0.7-4,0.7-5.6,0.3c0.1-0.7,0.4-1.5,0.8-1.7c3.6-1.1,6.3-4.5,6.3-8.5c0-4.9-4-8.9-8.9-8.9c-4.9,0-8.9,4-8.9,8.9
				c0,2.7,1.3,5.3,3.4,7c-0.5,0.2-0.9,0.6-1.3,1c-0.2-0.1-0.3-0.2-0.5-0.3L37,25.2c0.1,0.1,0.2,0.3,0.4,0.4c-0.3,0.4-0.4,1-0.4,1.5
				c0,0.1,0,0.2,0,0.3c-3.2-2.3-5.1-6-5.1-10c0-6.8,5.5-12.3,12.3-12.3c6.8,0,12.3,5.5,12.3,12.3C56.7,21.4,54.9,24.9,51.8,27.3z"/>
		</g>
	</g>
	<g>
		<g>
			<polygon class="st1" points="108.1,24.9 125.8,35.1 125.8,30.4 108.1,20.2 			"/>
			<polygon class="st1" points="111,19.8 125.8,28.3 125.8,23.5 111,15 			"/>
			<polygon class="st1" points="114,14.7 125.8,21.5 125.8,16.7 114,9.9 			"/>
			<polygon class="st1" points="116.9,4.8 116.9,9.5 125.8,14.6 125.8,9.9 			"/>
		</g>
	</g>
	<g>
		<path class="st1" d="M75.1,33h0.4c0.1,0.2,0.1,0.4,0.2,0.6c0.1,0.3,0.3,0.7,0.5,1c0.2,0.2,0.6,0.4,1.1,0.4c1,0,1.5-0.6,1.5-1.4
			c0-0.9-0.6-1.2-1.4-1.6l-0.3-0.2c-1.2-0.6-1.9-1.1-1.9-2.3c0-1.4,1.3-2.2,2.9-2.2c0.4,0,0.8,0,1.2,0.1l0.5,0.1l0.1,1.8h-0.4
			c-0.1-0.2-0.1-0.4-0.2-0.6c-0.1-0.3-0.3-0.6-0.4-0.8c-0.2-0.2-0.5-0.3-1-0.3c-0.9,0-1.3,0.5-1.3,1.2c0,0.8,0.4,1.2,1.5,1.8
			l0.5,0.3c0.5,0.3,1,0.6,1.2,0.9c0.3,0.3,0.4,0.8,0.4,1.3c0,1.5-1.2,2.3-3,2.3c-0.5,0-1-0.1-1.4-0.2L75.3,35L75.1,33z"/>
		<path class="st1" d="M85.1,35.3c-0.6,0-1-0.3-1.1-0.6l-0.4,0.2c-0.4,0.2-0.8,0.4-1.2,0.4c-0.4,0-0.7-0.1-1-0.3
			c-0.2-0.2-0.4-0.5-0.4-0.8c0-0.5,0.3-0.8,0.6-1c0.4-0.2,1.1-0.4,2-0.6l0.3-0.1l0-1.1c0-0.7-0.4-1-1-1c-0.3,0-0.5,0.1-0.6,0.1
			l-0.1,0.7l-0.9,0.3c-0.1,0-0.2-0.1-0.2-0.2c0-0.2,0.1-0.3,0.3-0.5c0.6-0.5,1.6-1,2.1-1c0.6,0,1.1,0.1,1.3,0.4
			c0.3,0.2,0.4,0.6,0.4,1l-0.1,3.1l1,0.6v0L85.1,35.3z M83.1,33c-0.5,0.2-0.7,0.4-0.7,0.9c0,0.5,0.3,0.9,0.8,0.9
			c0.3,0,0.6-0.2,0.7-0.3l0-1.7L83.1,33z"/>
		<path class="st1" d="M87.1,27.2c0.2,0,0.3,0.1,0.5,0.2c0.1,0.1,0.2,0.3,0.2,0.5c0,0.2-0.1,0.4-0.2,0.5c-0.1,0.1-0.3,0.2-0.5,0.2
			c-0.4,0-0.7-0.3-0.7-0.7C86.4,27.5,86.7,27.2,87.1,27.2z M86.6,30.4L86.6,30.4l2.2-0.7h0.1l0,1.2v3.7l0.6,0.6v0h-2.8v0l0.7-0.6
			v-3.7L86.6,30.4z M89.2,27.2c0.4,0,0.7,0.3,0.7,0.7c0,0.4-0.3,0.7-0.7,0.7c-0.4,0-0.7-0.3-0.7-0.7C88.5,27.5,88.8,27.2,89.2,27.2z
			"/>
		<path class="st1" d="M95.4,27.8v6.6l0.8,0.2v0L94,35.3l-0.1,0l0-0.7l-0.4,0.2c-0.6,0.3-0.9,0.4-1.3,0.4c-1.2,0-2.2-0.9-2.2-2.5
			c0-1.9,1.3-2.9,3-2.9c0.3,0,0.7,0.1,0.9,0.1l0-2.2l-0.8-0.4v0l2.2-0.6h0.1L95.4,27.8z M93.9,31.8c0-1.1-0.3-1.8-1-1.8
			c-0.4,0-0.7,0.2-1,0.6c-0.2,0.4-0.4,1-0.4,1.6c0,1.4,0.6,2.3,1.6,2.3c0.4,0,0.7-0.2,0.8-0.3V31.8z"/>
		<path class="st1" d="M74.4,45.7L74.4,45.7l1.1-0.7v-6.4l-1.1-0.7v0h2.3c0.5,0,1,0,1.8,0c1.8,0,2.6,0.6,2.6,1.8
			c0,1.1-0.8,1.6-1.6,1.7c1.2,0.2,2,0.9,2,2c0,1.5-1.4,2.3-3.5,2.3c-0.5,0-1.3,0-1.7,0H74.4z M79,38.6c-0.3-0.2-0.7-0.4-1.3-0.4
			c-0.2,0-0.6,0-0.7,0.1v3.1c0.1,0,0.3,0,0.5,0c1,0,1.9-0.3,1.9-1.7C79.5,39.2,79.3,38.8,79,38.6z M79.3,42.2
			c-0.4-0.3-0.9-0.4-1.5-0.4c-0.3,0-0.7,0-0.8,0.1v2.1c0,0.6,0,1,0.2,1.2c0.1,0.3,0.5,0.4,0.9,0.4c0.5,0,0.9-0.2,1.3-0.5
			c0.3-0.3,0.5-0.8,0.5-1.4C79.9,42.9,79.7,42.5,79.3,42.2z"/>
		<path class="st1" d="M88.2,45.2L88.2,45.2l-2,0.7l-0.2,0l0-0.7h0l-0.2,0.1c-0.5,0.3-1,0.6-1.6,0.6c-0.9,0-1.4-0.5-1.4-1.5
			c0-1.1,0-2.1,0-3.2L82,40.5v0l2.2,0l0,1c0,0.9,0,1.9,0,2.8c0,0.6,0.3,0.9,0.9,0.9c0.4,0,0.8-0.2,0.9-0.4v-3.6l-1-0.6v0l2.5,0l0,1
			V45L88.2,45.2z"/>
		<path class="st1" d="M89.1,44.1c0.1,0.2,0.1,0.3,0.2,0.4c0.1,0.2,0.2,0.5,0.4,0.7c0.2,0.1,0.4,0.3,0.8,0.3c0.6,0,0.9-0.3,0.9-0.8
			c0-0.5-0.2-0.6-0.9-1l-0.6-0.3c-0.7-0.4-1-0.8-1-1.5c0-1,0.9-1.5,2.1-1.5c0.7,0,1.1,0.1,1.4,0.3l0,1.3h-0.4c0-0.2-0.1-0.3-0.2-0.4
			c-0.1-0.2-0.2-0.5-0.4-0.7c-0.2-0.1-0.4-0.2-0.6-0.2c-0.5,0-0.8,0.3-0.8,0.7c0,0.2,0.1,0.4,0.2,0.5c0.1,0.1,0.4,0.3,0.7,0.5
			l0.4,0.2c0.4,0.2,0.7,0.5,0.9,0.7c0.2,0.2,0.3,0.5,0.3,0.8c0,0.5-0.2,0.9-0.6,1.2c-0.4,0.3-0.9,0.5-1.6,0.5c-0.4,0-0.8,0-1-0.1
			c-0.3-0.1-0.5-0.2-0.6-0.2l-0.1-1.4L89.1,44.1z"/>
		<path class="st1" d="M93.1,40.9L93.1,40.9l2.2-0.7h0.1l0,1.2v3.7l0.6,0.6v0h-2.8v0l0.7-0.6v-3.7L93.1,40.9z M94,37.6
			c0.2-0.2,0.4-0.2,0.6-0.2c0.5,0,0.8,0.4,0.8,0.8c0,0.2-0.1,0.4-0.2,0.6c-0.2,0.2-0.4,0.2-0.6,0.2c-0.3,0-0.5-0.1-0.6-0.2
			c-0.2-0.2-0.2-0.4-0.2-0.6C93.8,37.9,93.8,37.7,94,37.6z"/>
		<path class="st1" d="M96.5,40.9L96.5,40.9l2.1-0.7h0.1V41l0.3-0.2c0.5-0.3,1-0.6,1.5-0.6c1.1,0,1.5,0.6,1.5,1.6v3.2l0.7,0.6v0
			h-2.8v0l0.6-0.6v-3.1c0-0.5-0.3-0.9-1-0.9c-0.2,0-0.4,0-0.6,0.1c-0.1,0.1-0.3,0.2-0.3,0.2v3.7l0.6,0.6v0h-2.8v0l0.7-0.6v-3.6
			L96.5,40.9z"/>
		<path class="st1" d="M107.7,42.4l-3.2-0.1c-0.1,1,0.3,2.6,1.8,2.6c0.4,0,0.7-0.1,0.9-0.2c0.2-0.1,0.4-0.3,0.6-0.4l0.1,0.3
			c-0.4,0.6-1.2,1.3-2.3,1.3c-1.3,0-2.5-1-2.5-2.6c0-1.6,1.1-2.9,2.8-2.9c0.7,0,1.2,0.2,1.5,0.5c0.3,0.4,0.5,0.8,0.5,1.4L107.7,42.4
			z M106.5,42.1c0-1-0.3-1.5-0.9-1.5c-0.7,0-1,0.7-1,1.5H106.5z"/>
		<path class="st1" d="M109,44.1c0.1,0.2,0.1,0.3,0.2,0.4c0.1,0.2,0.2,0.5,0.4,0.7c0.2,0.1,0.4,0.3,0.8,0.3c0.6,0,0.9-0.3,0.9-0.8
			c0-0.5-0.2-0.6-0.9-1l-0.6-0.3c-0.7-0.4-1-0.8-1-1.5c0-1,0.9-1.5,2.1-1.5c0.7,0,1.1,0.1,1.4,0.3l0,1.3H112c0-0.2-0.1-0.3-0.2-0.4
			c-0.1-0.2-0.2-0.5-0.4-0.7c-0.2-0.1-0.4-0.2-0.6-0.2c-0.5,0-0.8,0.3-0.8,0.7c0,0.2,0.1,0.4,0.2,0.5c0.1,0.1,0.4,0.3,0.7,0.5
			l0.4,0.2c0.4,0.2,0.7,0.5,0.9,0.7c0.2,0.2,0.3,0.5,0.3,0.8c0,0.5-0.2,0.9-0.6,1.2c-0.4,0.3-0.9,0.5-1.6,0.5c-0.4,0-0.8,0-1-0.1
			c-0.3-0.1-0.5-0.2-0.6-0.2l-0.1-1.4L109,44.1z"/>
		<path class="st1" d="M113.7,44.1c0.1,0.2,0.1,0.3,0.2,0.4c0.1,0.2,0.2,0.5,0.4,0.7c0.2,0.1,0.4,0.3,0.8,0.3c0.6,0,0.9-0.3,0.9-0.8
			c0-0.5-0.2-0.6-0.9-1l-0.6-0.3c-0.7-0.4-1-0.8-1-1.5c0-1,0.9-1.5,2.1-1.5c0.7,0,1.1,0.1,1.4,0.3l0,1.3h-0.4c0-0.2-0.1-0.3-0.2-0.4
			c-0.1-0.2-0.2-0.5-0.4-0.7c-0.2-0.1-0.4-0.2-0.6-0.2c-0.5,0-0.8,0.3-0.8,0.7c0,0.2,0.1,0.4,0.2,0.5c0.1,0.1,0.4,0.3,0.7,0.5
			l0.4,0.2c0.4,0.2,0.7,0.5,0.9,0.7c0.2,0.2,0.3,0.5,0.3,0.8c0,0.5-0.2,0.9-0.6,1.2c-0.4,0.3-0.9,0.5-1.6,0.5c-0.4,0-0.8,0-1-0.1
			c-0.3-0.1-0.5-0.2-0.6-0.2l-0.1-1.4L113.7,44.1z"/>
		<path class="st1" d="M75.1,54.1h0.4c0.1,0.2,0.1,0.4,0.2,0.6c0.1,0.3,0.3,0.7,0.5,1c0.2,0.2,0.6,0.4,1.1,0.4c1,0,1.5-0.6,1.5-1.4
			c0-0.9-0.6-1.2-1.4-1.6l-0.3-0.2c-1.2-0.6-1.9-1.1-1.9-2.3c0-1.4,1.3-2.2,2.9-2.2c0.4,0,0.8,0,1.2,0.1l0.5,0.1l0.1,1.8h-0.4
			c-0.1-0.2-0.1-0.4-0.2-0.6c-0.1-0.3-0.3-0.6-0.4-0.8c-0.2-0.2-0.5-0.3-1-0.3c-0.9,0-1.3,0.5-1.3,1.2c0,0.8,0.4,1.2,1.5,1.8
			l0.5,0.3c0.5,0.3,1,0.6,1.2,0.9c0.3,0.3,0.4,0.8,0.4,1.3c0,1.5-1.2,2.3-3,2.3c-0.5,0-1-0.1-1.4-0.2l-0.6-0.2L75.1,54.1z"/>
		<path class="st1" d="M85.6,52.1c-0.1,0.1-0.3,0.2-0.4,0.3l-1.3-1.2c-0.8,0.1-1.2,1-1.2,2c0,1.1,0.5,2.3,1.7,2.3
			c0.6,0,1-0.2,1.3-0.5l0.1,0.3c-0.4,0.6-1.1,1.2-2.2,1.2c-1.3,0-2.4-1-2.4-2.6c0-1.8,1.3-3,3-3c1.1,0,1.7,0.5,1.7,0.8
			C85.8,51.8,85.7,52,85.6,52.1z"/>
		<path class="st1" d="M85.9,48.4L85.9,48.4l2.2-0.6h0.1l0,1.2v2.7l0.3-0.2c0.5-0.3,1-0.6,1.5-0.6c1.1,0,1.5,0.6,1.5,1.6v3.2
			l0.7,0.6v0h-2.8v0l0.6-0.6v-3.1c0-0.5-0.3-0.9-1-0.9c-0.2,0-0.4,0-0.6,0.1c-0.1,0.1-0.3,0.2-0.3,0.2v3.7l0.6,0.6v0H86v0l0.7-0.6
			v-6.8L85.9,48.4z"/>
		<path class="st1" d="M95.4,50.8c1.7,0,2.8,1.1,2.8,2.7c0,1.3-0.9,2.8-2.9,2.8c-1.7,0-2.8-1.1-2.8-2.8C92.5,52,93.7,50.8,95.4,50.8
			z M94.2,53.3c0,1.5,0.5,2.8,1.4,2.8c0.7,0,1.1-1,1.1-2.2c0-1.4-0.5-2.8-1.5-2.8C94.5,51.1,94.2,52.1,94.2,53.3z"/>
		<path class="st1" d="M101.8,50.8c1.7,0,2.8,1.1,2.8,2.7c0,1.3-0.9,2.8-2.9,2.8c-1.7,0-2.8-1.1-2.8-2.8
			C98.9,52,100.1,50.8,101.8,50.8z M100.5,53.3c0,1.5,0.5,2.8,1.4,2.8c0.7,0,1.1-1,1.1-2.2c0-1.4-0.5-2.8-1.5-2.8
			C100.9,51.1,100.5,52.1,100.5,53.3z"/>
		<path class="st1" d="M107.9,56.2L107.9,56.2l-2.9,0v0l0.7-0.6v-6.8l-0.8-0.4v0l2.2-0.6h0.1l0,1.2v6.7L107.9,56.2z"/>
	</g>
</g>
</svg>
