<!-- Generator: Adobe Illustrator 24.1.0, SVG Export Plug-In  -->
<svg version="1.1" xmlns="http://www.w3.org/2000/svg" xmlns:xlink="http://www.w3.org/1999/xlink" x="0px" y="0px" width="106.9px"
	 height="37.2px" viewBox="0 0 106.9 37.2" style="enable-background:new 0 0 106.9 37.2;" xml:space="preserve">
<style type="text/css">
	.st0{fill:#FFFFFF;}
</style>
<defs>
</defs>
<g>
	<path class="st0" d="M11.2,14.4H8.5L1.9,3.7H1.8l0,0.6C2,5.4,2,6.5,2,7.4v7H0V1h2.7l6.6,10.6h0.1c0-0.1,0-0.7-0.1-1.5
		c0-0.9-0.1-1.6-0.1-2.1V1h2V14.4z"/>
	<path class="st0" d="M23.5,9.3c0,1.7-0.4,3-1.3,3.9c-0.9,0.9-2,1.4-3.6,1.4c-1,0-1.8-0.2-2.5-0.6c-0.7-0.4-1.3-1-1.7-1.8
		c-0.4-0.8-0.6-1.7-0.6-2.8c0-1.6,0.4-2.9,1.3-3.9c0.8-0.9,2-1.4,3.6-1.4c1.5,0,2.6,0.5,3.5,1.4C23.1,6.4,23.5,7.7,23.5,9.3z
		 M16.1,9.3c0,2.3,0.9,3.5,2.6,3.5c1.7,0,2.6-1.2,2.6-3.5c0-2.3-0.9-3.5-2.6-3.5c-0.9,0-1.6,0.3-2,0.9C16.3,7.3,16.1,8.2,16.1,9.3z"
		/>
	<path class="st0" d="M29.8,12.8c0.5,0,1.1-0.1,1.6-0.2v1.6c-0.2,0.1-0.5,0.2-0.9,0.3s-0.8,0.1-1.2,0.1c-2,0-3.1-1.1-3.1-3.2V5.9
		h-1.4v-1l1.5-0.8L27,2h1.3v2.3h2.9v1.6h-2.9v5.4c0,0.5,0.1,0.9,0.4,1.2S29.4,12.8,29.8,12.8z"/>
	<path class="st0" d="M40.4,14.4h-2.2V0.1h2.2V14.4z"/>
	<path class="st0" d="M52.5,9.3c0,1.7-0.4,3-1.3,3.9c-0.9,0.9-2,1.4-3.6,1.4c-1,0-1.8-0.2-2.5-0.6c-0.7-0.4-1.3-1-1.7-1.8
		c-0.4-0.8-0.6-1.7-0.6-2.8c0-1.6,0.4-2.9,1.3-3.9c0.8-0.9,2-1.4,3.6-1.4c1.5,0,2.6,0.5,3.5,1.4C52.1,6.4,52.5,7.7,52.5,9.3z
		 M45.2,9.3c0,2.3,0.9,3.5,2.6,3.5c1.7,0,2.6-1.2,2.6-3.5c0-2.3-0.9-3.5-2.6-3.5c-0.9,0-1.6,0.3-2,0.9C45.4,7.3,45.2,8.2,45.2,9.3z"
		/>
	<path class="st0" d="M64,14.4h-2.2V8.2c0-0.8-0.2-1.4-0.5-1.8s-0.8-0.6-1.5-0.6c-0.9,0-1.6,0.3-2,0.8s-0.6,1.4-0.6,2.7v5.1H55V4.2
		h1.7L57,5.6h0.1c0.3-0.5,0.7-0.9,1.3-1.1c0.6-0.3,1.2-0.4,1.9-0.4c2.4,0,3.7,1.2,3.7,3.7V14.4z"/>
	<path class="st0" d="M75.6,4.2v1.2l-1.7,0.3C74,6,74.1,6.2,74.2,6.5c0.1,0.3,0.2,0.6,0.2,1c0,1-0.4,1.9-1.1,2.5
		c-0.7,0.6-1.7,0.9-3,0.9c-0.3,0-0.6,0-0.9-0.1c-0.5,0.3-0.7,0.6-0.7,1c0,0.2,0.1,0.4,0.3,0.5c0.2,0.1,0.6,0.2,1.2,0.2H72
		c1.1,0,2,0.2,2.6,0.7s0.9,1.2,0.9,2.1c0,1.2-0.5,2-1.4,2.7c-0.9,0.6-2.3,0.9-4.1,0.9c-1.4,0-2.4-0.2-3.2-0.7
		c-0.7-0.5-1.1-1.2-1.1-2.1c0-0.6,0.2-1.1,0.6-1.6c0.4-0.4,0.9-0.7,1.7-0.9c-0.3-0.1-0.5-0.3-0.7-0.6c-0.2-0.3-0.3-0.6-0.3-0.9
		c0-0.4,0.1-0.7,0.3-1c0.2-0.3,0.5-0.5,1-0.8c-0.5-0.2-1-0.6-1.3-1.1c-0.3-0.5-0.5-1.1-0.5-1.8c0-1.1,0.3-2,1-2.6s1.7-0.9,3-0.9
		c0.3,0,0.6,0,0.9,0.1s0.6,0.1,0.7,0.1H75.6z M67.6,16c0,0.5,0.2,0.8,0.6,1.1c0.4,0.3,1,0.4,1.8,0.4c1.2,0,2.1-0.2,2.6-0.5
		c0.6-0.3,0.9-0.8,0.9-1.3c0-0.4-0.2-0.8-0.5-0.9c-0.3-0.2-0.9-0.3-1.8-0.3h-1.6c-0.6,0-1.1,0.1-1.5,0.4S67.6,15.5,67.6,16z
		 M68.5,7.5c0,0.6,0.2,1.1,0.5,1.5c0.3,0.3,0.8,0.5,1.4,0.5c1.2,0,1.9-0.7,1.9-2c0-0.7-0.2-1.2-0.5-1.5c-0.3-0.4-0.8-0.5-1.4-0.5
		c-0.6,0-1.1,0.2-1.4,0.5C68.7,6.3,68.5,6.8,68.5,7.5z"/>
	<path class="st0" d="M87.4,5.9h-2.5v8.5h-2.2V5.9h-1.7v-1l1.7-0.7V3.5c0-1.2,0.3-2.1,0.8-2.7C84.2,0.3,85,0,86.2,0
		c0.8,0,1.5,0.1,2.2,0.4L87.9,2c-0.5-0.2-1-0.3-1.5-0.3c-0.5,0-0.8,0.2-1.1,0.5c-0.2,0.3-0.3,0.8-0.3,1.4v0.7h2.5V5.9z"/>
	<path class="st0" d="M98.2,9.3c0,1.7-0.4,3-1.3,3.9c-0.9,0.9-2,1.4-3.6,1.4c-1,0-1.8-0.2-2.5-0.6c-0.7-0.4-1.3-1-1.7-1.8
		c-0.4-0.8-0.6-1.7-0.6-2.8c0-1.6,0.4-2.9,1.3-3.9c0.8-0.9,2-1.4,3.6-1.4c1.5,0,2.6,0.5,3.5,1.4C97.7,6.4,98.2,7.7,98.2,9.3z
		 M90.8,9.3c0,2.3,0.9,3.5,2.6,3.5c1.7,0,2.6-1.2,2.6-3.5c0-2.3-0.9-3.5-2.6-3.5c-0.9,0-1.6,0.3-2,0.9C91,7.3,90.8,8.2,90.8,9.3z"/>
	<path class="st0" d="M105.8,4.1c0.4,0,0.8,0,1.1,0.1l-0.2,2c-0.3-0.1-0.6-0.1-1-0.1c-0.9,0-1.6,0.3-2.1,0.8s-0.8,1.3-0.8,2.2v5.3
		h-2.2V4.2h1.7l0.3,1.8h0.1c0.3-0.6,0.8-1.1,1.3-1.4C104.6,4.2,105.2,4.1,105.8,4.1z"/>
	<path class="st0" d="M12.8,35.4c0.5,0,1.1-0.1,1.6-0.2v1.6c-0.2,0.1-0.5,0.2-0.9,0.3s-0.8,0.1-1.2,0.1c-2,0-3.1-1.1-3.1-3.2v-5.5
		H7.8v-1l1.5-0.8l0.7-2.2h1.3v2.3h2.9v1.6h-2.9v5.4c0,0.5,0.1,0.9,0.4,1.2S12.3,35.4,12.8,35.4z"/>
	<path class="st0" d="M25.3,37h-2.2v-6.2c0-0.8-0.2-1.4-0.5-1.8s-0.8-0.6-1.5-0.6c-0.9,0-1.6,0.3-2,0.8s-0.6,1.5-0.6,2.7v5h-2.2
		V22.7h2.2v3.6c0,0.6,0,1.2-0.1,1.9h0.1c0.3-0.5,0.7-0.9,1.2-1.1s1.1-0.4,1.8-0.4c2.5,0,3.7,1.2,3.7,3.7V37z"/>
	<path class="st0" d="M28.2,24.1c0-0.4,0.1-0.7,0.3-0.9c0.2-0.2,0.5-0.3,0.9-0.3c0.4,0,0.7,0.1,0.9,0.3c0.2,0.2,0.3,0.5,0.3,0.9
		c0,0.4-0.1,0.7-0.3,0.9c-0.2,0.2-0.5,0.3-0.9,0.3c-0.4,0-0.7-0.1-0.9-0.3C28.3,24.8,28.2,24.5,28.2,24.1z M30.5,37h-2.2V26.8h2.2
		V37z"/>
	<path class="st0" d="M40.4,34.1c0,1-0.4,1.8-1.1,2.3c-0.7,0.5-1.8,0.8-3.1,0.8c-1.4,0-2.4-0.2-3.3-0.6v-1.9
		c1.2,0.6,2.3,0.8,3.3,0.8c1.3,0,2-0.4,2-1.2c0-0.3-0.1-0.5-0.2-0.6c-0.1-0.2-0.4-0.3-0.7-0.5s-0.8-0.4-1.4-0.6
		c-1.2-0.5-2-0.9-2.4-1.4c-0.4-0.5-0.6-1-0.6-1.8c0-0.9,0.4-1.5,1.1-2c0.7-0.5,1.7-0.7,2.9-0.7c1.2,0,2.3,0.2,3.4,0.7L39.5,29
		c-1.1-0.5-2-0.7-2.8-0.7c-1.1,0-1.7,0.3-1.7,1c0,0.3,0.1,0.6,0.4,0.8c0.3,0.2,0.9,0.5,1.9,0.9c0.8,0.3,1.4,0.6,1.8,0.9
		c0.4,0.3,0.7,0.6,0.8,0.9C40.3,33.2,40.4,33.6,40.4,34.1z"/>
	<path class="st0" d="M55.9,37l-1.3-4.7c-0.2-0.5-0.4-1.7-0.9-3.5h-0.1c-0.4,1.7-0.6,2.8-0.8,3.5L51.5,37h-2.4l-2.8-10.2h2.2l1.3,5
		c0.3,1.2,0.5,2.3,0.6,3.2h0.1c0.1-0.4,0.2-1,0.3-1.5c0.1-0.6,0.2-1,0.3-1.3l1.5-5.3h2.4l1.5,5.3c0.1,0.3,0.2,0.8,0.3,1.4
		c0.1,0.6,0.2,1.1,0.2,1.4h0.1c0.1-0.8,0.3-1.8,0.6-3.2l1.3-5h2.2L58.4,37H55.9z"/>
	<path class="st0" d="M72,31.9c0,1.7-0.4,3-1.3,3.9c-0.9,0.9-2,1.4-3.6,1.4c-1,0-1.8-0.2-2.5-0.6c-0.7-0.4-1.3-1-1.7-1.8
		c-0.4-0.8-0.6-1.7-0.6-2.8c0-1.6,0.4-2.9,1.3-3.9c0.8-0.9,2-1.4,3.6-1.4c1.5,0,2.6,0.5,3.5,1.4C71.6,29,72,30.3,72,31.9z
		 M64.6,31.9c0,2.3,0.9,3.5,2.6,3.5c1.7,0,2.6-1.2,2.6-3.5c0-2.3-0.9-3.5-2.6-3.5c-0.9,0-1.6,0.3-2,0.9
		C64.8,29.9,64.6,30.8,64.6,31.9z"/>
	<path class="st0" d="M79.6,26.6c0.4,0,0.8,0,1.1,0.1l-0.2,2c-0.3-0.1-0.6-0.1-1-0.1c-0.9,0-1.6,0.3-2.1,0.8s-0.8,1.3-0.8,2.2V37
		h-2.2V26.8h1.7l0.3,1.8h0.1c0.3-0.6,0.8-1.1,1.3-1.4C78.4,26.8,79,26.6,79.6,26.6z"/>
	<path class="st0" d="M84.7,37h-2.2V22.7h2.2V37z"/>
	<path class="st0" d="M91.3,37.2c-1.3,0-2.3-0.5-3-1.4s-1.1-2.2-1.1-3.9c0-1.7,0.4-3,1.1-3.9s1.7-1.4,3-1.4c1.3,0,2.4,0.5,3.1,1.5
		h0.1c-0.1-0.7-0.2-1.3-0.2-1.7v-3.7h2.2V37h-1.7l-0.4-1.3h-0.1C93.6,36.7,92.6,37.2,91.3,37.2z M91.8,35.4c0.9,0,1.5-0.2,1.9-0.7
		s0.6-1.3,0.6-2.4v-0.3c0-1.3-0.2-2.2-0.6-2.7c-0.4-0.5-1.1-0.8-2-0.8c-0.8,0-1.3,0.3-1.8,0.9c-0.4,0.6-0.6,1.5-0.6,2.6
		c0,1.1,0.2,2,0.6,2.6C90.4,35.1,91,35.4,91.8,35.4z"/>
</g>
</svg>
