<?xml version="1.0" encoding="utf-8"?>
<!-- Generator: Adobe Illustrator 24.1.2, SVG Export Plug-In . SVG Version: 6.00 Build 0)  -->
<svg version="1.1" id="Layer_1" xmlns="http://www.w3.org/2000/svg" xmlns:xlink="http://www.w3.org/1999/xlink" x="0px" y="0px"
	 viewBox="0 0 187.7 46" style="enable-background:new 0 0 187.7 46;" xml:space="preserve">
<style type="text/css">
	.st0{fill:none;stroke:#002147;stroke-width:1.5;stroke-linecap:round;stroke-miterlimit:10;}
	.st1{fill:#162644;}
</style>
<path class="st0" d="M164.7,45.3H23c-12.3,0-22.3-10-22.3-22.3l0,0c0-12.3,10-22.3,22.3-22.3h141.6c12.3,0,22.3,10,22.3,22.3l0,0
	C186.9,35.3,177,45.3,164.7,45.3z"/>
<g>
	<path class="st1" d="M63.1,18.3c-1.1,0-2.1,0.4-2.7,1.2s-1,1.9-1,3.4c0,1.5,0.3,2.6,0.9,3.4c0.6,0.8,1.5,1.2,2.7,1.2
		c0.5,0,1-0.1,1.5-0.2c0.5-0.1,1-0.2,1.5-0.4v1.7c-1,0.4-2,0.5-3.3,0.5c-1.8,0-3.2-0.5-4.1-1.6c-1-1.1-1.4-2.6-1.4-4.7
		c0-1.3,0.2-2.4,0.7-3.3c0.5-1,1.1-1.7,2-2.2c0.9-0.5,1.9-0.8,3.1-0.8c1.2,0,2.4,0.3,3.5,0.8l-0.7,1.7c-0.4-0.2-0.8-0.4-1.3-0.5
		C64.1,18.4,63.6,18.3,63.1,18.3z"/>
	<path class="st1" d="M76.7,24.4c0,1.5-0.4,2.7-1.2,3.5c-0.8,0.8-1.9,1.3-3.2,1.3c-0.9,0-1.6-0.2-2.3-0.6c-0.7-0.4-1.2-0.9-1.5-1.7
		c-0.4-0.7-0.5-1.6-0.5-2.5c0-1.5,0.4-2.7,1.2-3.5c0.8-0.8,1.9-1.3,3.2-1.3c1.3,0,2.4,0.4,3.2,1.3C76.3,21.8,76.7,22.9,76.7,24.4z
		 M70,24.4c0,2.1,0.8,3.2,2.4,3.2c1.6,0,2.3-1.1,2.3-3.2c0-2.1-0.8-3.2-2.4-3.2c-0.8,0-1.4,0.3-1.8,0.8C70.2,22.6,70,23.4,70,24.4z"
		/>
	<path class="st1" d="M87.1,29h-2v-5.7c0-0.7-0.1-1.2-0.4-1.6s-0.7-0.5-1.4-0.5c-0.8,0-1.4,0.2-1.8,0.7c-0.4,0.5-0.6,1.3-0.6,2.5V29
		h-2v-9.2h1.5l0.3,1.2h0.1c0.3-0.4,0.7-0.8,1.2-1s1.1-0.4,1.7-0.4c2.2,0,3.3,1.1,3.3,3.4V29z"/>
	<path class="st1" d="M93.3,27.6c0.5,0,1-0.1,1.4-0.2v1.5c-0.2,0.1-0.5,0.2-0.8,0.2c-0.3,0.1-0.7,0.1-1.1,0.1c-1.9,0-2.8-1-2.8-2.9
		v-5h-1.3v-0.9l1.4-0.7l0.7-2H92v2.1h2.6v1.5H92v4.9c0,0.5,0.1,0.8,0.4,1C92.6,27.5,92.9,27.6,93.3,27.6z"/>
	<path class="st1" d="M96.5,17.3c0-0.4,0.1-0.6,0.3-0.8s0.5-0.3,0.8-0.3c0.3,0,0.6,0.1,0.8,0.3c0.2,0.2,0.3,0.5,0.3,0.8
		c0,0.3-0.1,0.6-0.3,0.8c-0.2,0.2-0.5,0.3-0.8,0.3c-0.4,0-0.6-0.1-0.8-0.3C96.6,17.9,96.5,17.7,96.5,17.3z M98.5,29h-2v-9.2h2V29z"
		/>
	<path class="st1" d="M109.5,29h-2v-5.7c0-0.7-0.1-1.2-0.4-1.6s-0.7-0.5-1.4-0.5c-0.8,0-1.4,0.2-1.8,0.7c-0.4,0.5-0.6,1.3-0.6,2.5
		V29h-2v-9.2h1.5l0.3,1.2h0.1c0.3-0.4,0.7-0.8,1.2-1s1.1-0.4,1.7-0.4c2.2,0,3.3,1.1,3.3,3.4V29z"/>
	<path class="st1" d="M118.7,29l-0.3-1.2h-0.1c-0.3,0.4-0.7,0.8-1.2,1s-1.1,0.4-1.7,0.4c-1.1,0-2-0.3-2.5-0.8
		c-0.6-0.6-0.8-1.4-0.8-2.5v-6h2v5.7c0,0.7,0.1,1.2,0.4,1.6c0.3,0.4,0.7,0.5,1.4,0.5c0.8,0,1.4-0.2,1.8-0.7c0.4-0.5,0.6-1.3,0.6-2.5
		v-4.6h2V29H118.7z"/>
	<path class="st1" d="M127.1,29.2c-1.4,0-2.6-0.4-3.4-1.3c-0.8-0.8-1.2-2-1.2-3.5c0-1.5,0.4-2.7,1.1-3.6c0.8-0.9,1.8-1.3,3.1-1.3
		c1.2,0,2.2,0.4,2.9,1.1c0.7,0.7,1.1,1.8,1.1,3.1v1.1h-6.2c0,0.9,0.3,1.6,0.7,2.1c0.5,0.5,1.1,0.7,1.9,0.7c0.5,0,1.1-0.1,1.5-0.2
		c0.5-0.1,1-0.3,1.5-0.5v1.6c-0.5,0.2-1,0.4-1.5,0.5S127.7,29.2,127.1,29.2z M126.8,21.1c-0.6,0-1.1,0.2-1.5,0.6s-0.6,1-0.7,1.7h4.2
		c0-0.8-0.2-1.3-0.6-1.7C127.9,21.3,127.4,21.1,126.8,21.1z"/>
</g>
</svg>
